<svg width="43" height="39" viewBox="0 0 43 39" fill="none" xmlns="http://www.w3.org/2000/svg">
<g clip-path="url(#clip0_2302_6706)">
<path d="M34.3039 14.3206L39.8397 12.9339L25.5499 31.4207L34.3039 14.3206ZM3.14123 12.5136L8.22436 13.9296L16.6958 30.8578L3.14123 12.5136ZM21.2225 1.51835C28.314 1.51835 32.4419 2.44158 33.453 3.03655C32.7769 3.43465 30.7042 3.9791 27.285 4.29616L27.2754 4.29567L27.2628 4.29827C25.5745 4.45403 23.5607 4.55474 21.2225 4.55474C14.1309 4.55474 10.003 3.63167 8.99158 3.03655C10.003 2.44158 14.1309 1.51835 21.2225 1.51835ZM35.0012 4.9353L40.3974 11.2314L34.5963 12.6845L35.0012 4.9353ZM22.232 15.4973L32.517 14.5455L22 35.089L22.232 15.4973ZM20.7518 15.4783L20.5186 35.1723L10.0247 14.2025L20.7518 15.4783ZM7.92809 12.2737L2.56625 10.78L7.46443 4.94099L7.92809 12.2737ZM9.35976 11.4606L8.93046 4.66584C9.63371 4.94375 10.5818 5.18235 11.8103 5.39529C12.6161 5.53514 13.5069 5.65452 14.4608 5.75263L9.35976 11.4606ZM20.078 13.8698L10.2583 12.702L15.7374 6.57093L20.078 13.8698ZM21.5016 13.3481L17.108 5.96004C18.4209 6.03395 19.8046 6.07309 21.2225 6.07309C22.86 6.07309 24.4522 6.02128 25.9415 5.92301L21.5016 13.3481ZM32.8632 12.9892L22.9016 13.9111L27.4242 6.34775L32.8632 12.9892ZM33.2 11.0399L28.7954 5.66167C29.4454 5.58322 30.0622 5.49453 30.6348 5.39529C31.8744 5.1804 32.8282 4.93936 33.5333 4.6582L33.2 11.0399ZM42.3157 11.1705L35.0488 2.69155C34.7868 1.77629 33.4261 1.16183 30.6348 0.677802C28.114 0.240877 24.7713 0 21.2225 0C17.6736 0 14.3309 0.240877 11.8103 0.677802C9.01423 1.16248 7.65398 1.77823 7.39539 2.69594L0.678996 10.7021C0.451601 10.9733 0.439566 11.3706 0.650334 11.6557L20.6293 38.695C20.6695 38.7502 20.7167 38.7992 20.7691 38.841L20.7704 38.8421L20.7721 38.8433L20.7724 38.8436L20.7735 38.8444L20.7746 38.8455L20.7761 38.8462C20.7968 38.8626 20.8182 38.8774 20.8405 38.891H20.8407L20.8421 38.8921L20.8437 38.893L20.8448 38.8938L20.8453 38.8943C20.9563 38.9615 21.0849 38.9993 21.219 39H21.2225C21.3281 39 21.4301 38.9771 21.5232 38.9345H21.5235L21.5252 38.9337L21.5256 38.9334C21.5921 38.9029 21.654 38.8621 21.7092 38.813L21.7103 38.8117C21.745 38.7806 21.777 38.746 21.8057 38.7083L42.34 12.1433C42.5621 11.8556 42.552 11.4461 42.3157 11.1705Z" fill="#F55C2A"/>
</g>
<defs>
<clipPath id="clip0_2302_6706">
<rect width="42" height="39" fill="white" transform="translate(0.5)"/>
</clipPath>
</defs>
</svg>
