<svg width="33" height="32" viewBox="0 0 33 32" fill="none" xmlns="http://www.w3.org/2000/svg">
<path d="M28.1875 2.9753H24.9791V1.37113C24.9791 0.945683 24.8101 0.537657 24.5093 0.236817C24.2084 -0.0640224 23.8004 -0.233032 23.375 -0.233032C22.9495 -0.233032 22.5415 -0.0640224 22.2406 0.236817C21.9398 0.537657 21.7708 0.945683 21.7708 1.37113V2.9753H12.1458V1.37113C12.1458 0.945683 11.9768 0.537657 11.6759 0.236817C11.3751 -0.0640224 10.9671 -0.233032 10.5416 -0.233032C10.1162 -0.233032 9.70815 -0.0640224 9.40731 0.236817C9.10647 0.537657 8.93746 0.945683 8.93746 1.37113V2.9753H5.72913C4.45277 2.9753 3.22869 3.48233 2.32617 4.38485C1.42366 5.28737 0.916626 6.51145 0.916626 7.7878V27.0378C0.916626 28.3142 1.42366 29.5382 2.32617 30.4408C3.22869 31.3433 4.45277 31.8503 5.72913 31.8503H28.1875C29.4638 31.8503 30.6879 31.3433 31.5904 30.4408C32.4929 29.5382 33 28.3142 33 27.0378V7.7878C33 6.51145 32.4929 5.28737 31.5904 4.38485C30.6879 3.48233 29.4638 2.9753 28.1875 2.9753ZM29.7916 27.0378C29.7916 27.4633 29.6226 27.8713 29.3218 28.1721C29.0209 28.473 28.6129 28.642 28.1875 28.642H5.72913C5.30367 28.642 4.89565 28.473 4.59481 28.1721C4.29397 27.8713 4.12496 27.4633 4.12496 27.0378V15.8086H29.7916V27.0378ZM29.7916 12.6003H4.12496V7.7878C4.12496 7.36235 4.29397 6.95432 4.59481 6.65348C4.89565 6.35264 5.30367 6.18363 5.72913 6.18363H8.93746V7.7878C8.93746 8.21325 9.10647 8.62128 9.40731 8.92212C9.70815 9.22296 10.1162 9.39197 10.5416 9.39197C10.9671 9.39197 11.3751 9.22296 11.6759 8.92212C11.9768 8.62128 12.1458 8.21325 12.1458 7.7878V6.18363H21.7708V7.7878C21.7708 8.21325 21.9398 8.62128 22.2406 8.92212C22.5415 9.22296 22.9495 9.39197 23.375 9.39197C23.8004 9.39197 24.2084 9.22296 24.5093 8.92212C24.8101 8.62128 24.9791 8.21325 24.9791 7.7878V6.18363H28.1875C28.6129 6.18363 29.0209 6.35264 29.3218 6.65348C29.6226 6.95432 29.7916 7.36235 29.7916 7.7878V12.6003Z" fill="#404040"/>
</svg>
