<svg width="35" height="36" viewBox="0 0 35 36" fill="none" xmlns="http://www.w3.org/2000/svg">
<g clip-path="url(#clip0_4319_1635)">
<path d="M8.75 17.1934V26.517H18.0736L16.1292 24.5725H10.6944V19.1378L8.75 17.1934Z" fill="#404040"/>
<path d="M33.9014 31.66L31.1111 28.8308V31.3781H3.88892V27.3433H5.83336V25.7878H3.88892V19.3225H5.83336V17.767H3.88892V11.5447H5.83336V9.98917H3.88892V4.55445L19.3861 19.9642V17.2225L3.60697 1.52112C3.47099 1.38401 3.29725 1.2905 3.10791 1.25251C2.91858 1.21453 2.72222 1.23379 2.54387 1.30784C2.36552 1.38189 2.21326 1.50738 2.10651 1.6683C1.99976 1.82922 1.94335 2.01829 1.94447 2.2114V32.3503C1.94447 32.6081 2.0469 32.8554 2.22923 33.0378C2.41156 33.2201 2.65885 33.3225 2.9167 33.3225H33.2111C33.4042 33.3236 33.5933 33.2672 33.7542 33.1605C33.9152 33.0537 34.0406 32.9015 34.1147 32.7231C34.1887 32.5448 34.208 32.3484 34.17 32.1591C34.132 31.9697 34.0385 31.796 33.9014 31.66Z" fill="#404040"/>
<path d="M23.3334 29.4336H27.2222C27.7379 29.4336 28.2325 29.2288 28.5972 28.8641C28.9618 28.4995 29.1667 28.0049 29.1667 27.4892V8.72529L26.9306 4.61279C26.7576 4.31317 26.5079 4.06512 26.2071 3.89422C25.9063 3.72331 25.5654 3.63575 25.2195 3.64057C24.8657 3.64338 24.5194 3.74264 24.2179 3.92766C23.9164 4.11268 23.6711 4.37645 23.5084 4.69057L21.3889 8.74474V27.4892C21.3889 28.0049 21.5938 28.4995 21.9584 28.8641C22.3231 29.2288 22.8177 29.4336 23.3334 29.4336ZM23.3334 9.2114L25.2195 5.54612L27.2222 9.22112V23.6003H23.3334V9.2114ZM23.3334 25.185H27.2222V27.5572H23.3334V25.185Z" fill="#404040"/>
</g>
<defs>
<clipPath id="clip0_4319_1635">
<rect width="35" height="35" fill="white" transform="translate(0 0.266968)"/>
</clipPath>
</defs>
</svg>
