<svg width="24" height="18" viewBox="0 0 24 18" fill="none" xmlns="http://www.w3.org/2000/svg">
<g clip-path="url(#clip0_1_259)">
<mask id="mask0_1_259" style="mask-type:luminance" maskUnits="userSpaceOnUse" x="0" y="0" width="24" height="18">
<rect width="24" height="18" fill="white"/>
</mask>
<g mask="url(#mask0_1_259)">
<path fill-rule="evenodd" clip-rule="evenodd" d="M0 0H24V18H0V0Z" fill="#F7FCFF"/>
<path fill-rule="evenodd" clip-rule="evenodd" d="M0 11V12.5H24V11H0Z" fill="#E31D1C"/>
<path fill-rule="evenodd" clip-rule="evenodd" d="M0 13.75V15.25H24V13.75H0Z" fill="#E31D1C"/>
<path fill-rule="evenodd" clip-rule="evenodd" d="M0 5.5V7H24V5.5H0Z" fill="#E31D1C"/>
<path fill-rule="evenodd" clip-rule="evenodd" d="M0 16.5V18H24V16.5H0Z" fill="#E31D1C"/>
<path fill-rule="evenodd" clip-rule="evenodd" d="M0 8.25V9.75H24V8.25H0Z" fill="#E31D1C"/>
<path fill-rule="evenodd" clip-rule="evenodd" d="M0 0V1.5H24V0H0Z" fill="#E31D1C"/>
<path fill-rule="evenodd" clip-rule="evenodd" d="M0 2.75V4.25H24V2.75H0Z" fill="#E31D1C"/>
<rect width="15" height="9.75" fill="#2E42A5"/>
<path fill-rule="evenodd" clip-rule="evenodd" d="M1.29154 2.20403L0.747126 2.58569L0.930925 1.90649L0.447388 1.47605H1.07895L1.29078 0.921753L1.53915 1.47605H2.07755L1.65452 1.90649L1.81829 2.58569L1.29154 2.20403ZM4.29154 2.20403L3.74713 2.58569L3.93093 1.90649L3.44739 1.47605H4.07895L4.29078 0.921753L4.53915 1.47605H5.07755L4.65452 1.90649L4.81829 2.58569L4.29154 2.20403ZM6.74713 2.58569L7.29154 2.20403L7.81829 2.58569L7.65452 1.90649L8.07755 1.47605H7.53915L7.29078 0.921753L7.07895 1.47605H6.44739L6.93093 1.90649L6.74713 2.58569ZM10.2915 2.20403L9.74713 2.58569L9.93093 1.90649L9.44739 1.47605H10.079L10.2908 0.921753L10.5392 1.47605H11.0775L10.6545 1.90649L10.8183 2.58569L10.2915 2.20403ZM0.747126 5.5857L1.29154 5.20403L1.81829 5.5857L1.65452 4.90649L2.07755 4.47605H1.53915L1.29078 3.92175L1.07895 4.47605H0.447388L0.930925 4.90649L0.747126 5.5857ZM4.29154 5.20403L3.74713 5.5857L3.93093 4.90649L3.44739 4.47605H4.07895L4.29078 3.92175L4.53915 4.47605H5.07755L4.65452 4.90649L4.81829 5.5857L4.29154 5.20403ZM6.74713 5.5857L7.29154 5.20403L7.81829 5.5857L7.65452 4.90649L8.07755 4.47605H7.53915L7.29078 3.92175L7.07895 4.47605H6.44739L6.93093 4.90649L6.74713 5.5857ZM10.2915 5.20403L9.74713 5.5857L9.93093 4.90649L9.44739 4.47605H10.079L10.2908 3.92175L10.5392 4.47605H11.0775L10.6545 4.90649L10.8183 5.5857L10.2915 5.20403ZM0.747126 8.5857L1.29154 8.20403L1.81829 8.5857L1.65452 7.90649L2.07755 7.47605H1.53915L1.29078 6.92175L1.07895 7.47605H0.447388L0.930925 7.90649L0.747126 8.5857ZM4.29154 8.20403L3.74713 8.5857L3.93093 7.90649L3.44739 7.47605H4.07895L4.29078 6.92175L4.53915 7.47605H5.07755L4.65452 7.90649L4.81829 8.5857L4.29154 8.20403ZM6.74713 8.5857L7.29154 8.20403L7.81829 8.5857L7.65452 7.90649L8.07755 7.47605H7.53915L7.29078 6.92175L7.07895 7.47605H6.44739L6.93093 7.90649L6.74713 8.5857ZM10.2915 8.20403L9.74713 8.5857L9.93093 7.90649L9.44739 7.47605H10.079L10.2908 6.92175L10.5392 7.47605H11.0775L10.6545 7.90649L10.8183 8.5857L10.2915 8.20403ZM12.7471 2.58569L13.2915 2.20403L13.8183 2.58569L13.6545 1.90649L14.0775 1.47605H13.5392L13.2908 0.921753L13.079 1.47605H12.4474L12.9309 1.90649L12.7471 2.58569ZM13.2915 5.20403L12.7471 5.5857L12.9309 4.90649L12.4474 4.47605H13.079L13.2908 3.92175L13.5392 4.47605H14.0775L13.6545 4.90649L13.8183 5.5857L13.2915 5.20403ZM12.7471 8.5857L13.2915 8.20403L13.8183 8.5857L13.6545 7.90649L14.0775 7.47605H13.5392L13.2908 6.92175L13.079 7.47605H12.4474L12.9309 7.90649L12.7471 8.5857ZM2.79154 3.70403L2.24713 4.0857L2.43093 3.40649L1.94739 2.97605H2.57895L2.79078 2.42175L3.03915 2.97605H3.57755L3.15452 3.40649L3.31829 4.0857L2.79154 3.70403ZM5.24713 4.0857L5.79154 3.70403L6.31829 4.0857L6.15452 3.40649L6.57755 2.97605H6.03915L5.79078 2.42175L5.57895 2.97605H4.94739L5.43092 3.40649L5.24713 4.0857ZM8.79154 3.70403L8.24713 4.0857L8.43093 3.40649L7.94739 2.97605H8.57895L8.79078 2.42175L9.03915 2.97605H9.57755L9.15452 3.40649L9.31829 4.0857L8.79154 3.70403ZM2.24713 7.08569L2.79154 6.70403L3.31829 7.08569L3.15452 6.40649L3.57755 5.97605H3.03915L2.79078 5.42175L2.57895 5.97605H1.94739L2.43093 6.40649L2.24713 7.08569ZM5.79154 6.70403L5.24713 7.08569L5.43092 6.40649L4.94739 5.97605H5.57895L5.79078 5.42175L6.03915 5.97605H6.57755L6.15452 6.40649L6.31829 7.08569L5.79154 6.70403ZM8.24713 7.08569L8.79154 6.70403L9.31829 7.08569L9.15452 6.40649L9.57755 5.97605H9.03915L8.79078 5.42175L8.57895 5.97605H7.94739L8.43093 6.40649L8.24713 7.08569ZM11.7915 3.70403L11.2471 4.0857L11.4309 3.40649L10.9474 2.97605H11.579L11.7908 2.42175L12.0392 2.97605H12.5775L12.1545 3.40649L12.3183 4.0857L11.7915 3.70403ZM11.2471 7.08569L11.7915 6.70403L12.3183 7.08569L12.1545 6.40649L12.5775 5.97605H12.0392L11.7908 5.42175L11.579 5.97605H10.9474L11.4309 6.40649L11.2471 7.08569Z" fill="#F7FCFF"/>
</g>
</g>
<defs>
<clipPath id="clip0_1_259">
<rect width="24" height="18" rx="2" fill="white"/>
</clipPath>
</defs>
</svg>
