<svg width="77" height="12" viewBox="0 0 77 12" fill="none" xmlns="http://www.w3.org/2000/svg">
<path d="M6.40567 0.267977C6.43702 0.178914 6.56298 0.178914 6.59433 0.267977L7.93583 4.0791C7.94992 4.11912 7.98773 4.1459 8.03016 4.1459H12.3532C12.452 4.1459 12.491 4.27392 12.4089 4.32895L8.92562 6.66504C8.88774 6.69045 8.87185 6.73827 8.88699 6.7813L10.2207 10.5702C10.2526 10.661 10.1505 10.7401 10.0707 10.6865L6.5557 8.32915C6.522 8.30655 6.478 8.30655 6.4443 8.32915L2.92935 10.6865C2.84945 10.7401 2.74738 10.661 2.77932 10.5702L4.11301 6.7813C4.12815 6.73827 4.11226 6.69045 4.07438 6.66504L0.591078 4.32895C0.509024 4.27392 0.547979 4.1459 0.646777 4.1459H4.96984C5.01227 4.1459 5.05008 4.11912 5.06417 4.0791L6.40567 0.267977Z" fill="black"/>
<path d="M22.4057 0.267977C22.437 0.178914 22.563 0.178914 22.5943 0.267977L23.9358 4.0791C23.9499 4.11912 23.9877 4.1459 24.0302 4.1459H28.3532C28.452 4.1459 28.491 4.27392 28.4089 4.32895L24.9256 6.66504C24.8877 6.69045 24.8718 6.73827 24.887 6.7813L26.2207 10.5702C26.2526 10.661 26.1505 10.7401 26.0707 10.6865L22.5557 8.32915C22.522 8.30655 22.478 8.30655 22.4443 8.32915L18.9293 10.6865C18.8495 10.7401 18.7474 10.661 18.7793 10.5702L20.113 6.7813C20.1282 6.73827 20.1123 6.69045 20.0744 6.66504L16.5911 4.32895C16.509 4.27392 16.548 4.1459 16.6468 4.1459H20.9698C21.0123 4.1459 21.0501 4.11912 21.0642 4.0791L22.4057 0.267977Z" fill="black"/>
<path d="M38.4057 0.267977C38.437 0.178914 38.563 0.178914 38.5943 0.267977L39.9358 4.0791C39.9499 4.11912 39.9877 4.1459 40.0302 4.1459H44.3532C44.452 4.1459 44.491 4.27392 44.4089 4.32895L40.9256 6.66504C40.8877 6.69045 40.8718 6.73827 40.887 6.7813L42.2207 10.5702C42.2526 10.661 42.1505 10.7401 42.0707 10.6865L38.5557 8.32915C38.522 8.30655 38.478 8.30655 38.4443 8.32915L34.9293 10.6865C34.8495 10.7401 34.7474 10.661 34.7793 10.5702L36.113 6.7813C36.1282 6.73827 36.1123 6.69045 36.0744 6.66504L32.5911 4.32895C32.509 4.27392 32.548 4.1459 32.6468 4.1459H36.9698C37.0123 4.1459 37.0501 4.11912 37.0642 4.0791L38.4057 0.267977Z" fill="black"/>
<path d="M54.4057 0.267977C54.437 0.178914 54.563 0.178914 54.5943 0.267977L55.9358 4.0791C55.9499 4.11912 55.9877 4.1459 56.0302 4.1459H60.3532C60.452 4.1459 60.491 4.27392 60.4089 4.32895L56.9256 6.66504C56.8877 6.69045 56.8718 6.73827 56.887 6.7813L58.2207 10.5702C58.2526 10.661 58.1505 10.7401 58.0707 10.6865L54.5557 8.32915C54.522 8.30655 54.478 8.30655 54.4443 8.32915L50.9293 10.6865C50.8495 10.7401 50.7474 10.661 50.7793 10.5702L52.113 6.7813C52.1282 6.73827 52.1123 6.69045 52.0744 6.66504L48.5911 4.32895C48.509 4.27392 48.548 4.1459 48.6468 4.1459H52.9698C53.0123 4.1459 53.0501 4.11912 53.0642 4.0791L54.4057 0.267977Z" fill="black"/>
<path d="M70.4057 0.267977C70.437 0.178914 70.563 0.178914 70.5943 0.267977L71.9358 4.0791C71.9499 4.11912 71.9877 4.1459 72.0302 4.1459H76.3532C76.452 4.1459 76.491 4.27392 76.4089 4.32895L72.9256 6.66504C72.8877 6.69045 72.8718 6.73827 72.887 6.7813L74.2207 10.5702C74.2526 10.661 74.1505 10.7401 74.0707 10.6865L70.5557 8.32915C70.522 8.30655 70.478 8.30655 70.4443 8.32915L66.9293 10.6865C66.8495 10.7401 66.7474 10.661 66.7793 10.5702L68.113 6.7813C68.1282 6.73827 68.1123 6.69045 68.0744 6.66504L64.5911 4.32895C64.509 4.27392 64.548 4.1459 64.6468 4.1459H68.9698C69.0123 4.1459 69.0501 4.11912 69.0642 4.0791L70.4057 0.267977Z" fill="black"/>
</svg>
