<svg width="24" height="24" viewBox="0 0 24 24" fill="none" xmlns="http://www.w3.org/2000/svg">
<path d="M20.5811 11.3465L4.74536 2.47843C4.61214 2.40383 4.45932 2.37166 4.30732 2.38624C4.15533 2.40081 4.01141 2.46143 3.89479 2.55999C3.77817 2.65855 3.69441 2.79035 3.65471 2.93779C3.615 3.08523 3.62125 3.24127 3.6726 3.38506L6.65957 11.7486C6.71783 11.9117 6.71783 12.09 6.65957 12.2531L3.6726 20.6166C3.62124 20.7604 3.615 20.9165 3.65471 21.0639C3.69441 21.2113 3.77817 21.3431 3.89479 21.4417C4.01141 21.5403 4.15533 21.6009 4.30732 21.6155C4.45932 21.63 4.61214 21.5979 4.74536 21.5233L20.5811 12.6552C20.6975 12.5901 20.7943 12.4951 20.8617 12.3801C20.9291 12.2651 20.9647 12.1342 20.9647 12.0008C20.9647 11.8675 20.9291 11.7366 20.8617 11.6216C20.7943 11.5066 20.6975 11.4116 20.5811 11.3465Z" fill="white"/>
<path d="M6.75 12H12.75" stroke="#FF6636" stroke-width="1.5" stroke-linecap="round" stroke-linejoin="round"/>
</svg>
