<svg width="24" height="25" viewBox="0 0 24 25" fill="none" xmlns="http://www.w3.org/2000/svg">
<path d="M12 6.33042C13.16 6.33042 14.1 7.27042 14.1 8.43042C14.1 9.59042 13.16 10.5304 12 10.5304C10.84 10.5304 9.9 9.59042 9.9 8.43042C9.9 7.27042 10.84 6.33042 12 6.33042ZM12 15.3304C14.97 15.3304 18.1 16.7904 18.1 17.4304V18.5304H5.9V17.4304C5.9 16.7904 9.03 15.3304 12 15.3304ZM12 4.43042C9.79 4.43042 8 6.22042 8 8.43042C8 10.6404 9.79 12.4304 12 12.4304C14.21 12.4304 16 10.6404 16 8.43042C16 6.22042 14.21 4.43042 12 4.43042ZM12 13.4304C9.33 13.4304 4 14.7704 4 17.4304V20.4304H20V17.4304C20 14.7704 14.67 13.4304 12 13.4304Z" fill="white"/>
</svg>
