<svg width="1074" height="279" viewBox="0 0 1074 279" fill="none" xmlns="http://www.w3.org/2000/svg">
<path d="M679.021 275.264V276.248H677.785V278H676.573V276.248H672.769V275.324L676.777 269.54H677.785V275.264H679.021ZM673.981 275.264H676.573V271.52L673.981 275.264ZM683 278.096C682.016 278.096 681.264 277.728 680.744 276.992C680.232 276.256 679.976 275.184 679.976 273.776C679.976 272.368 680.232 271.296 680.744 270.56C681.264 269.816 682.016 269.444 683 269.444C683.984 269.444 684.732 269.812 685.244 270.548C685.764 271.284 686.024 272.356 686.024 273.764C686.024 275.18 685.764 276.256 685.244 276.992C684.732 277.728 683.984 278.096 683 278.096ZM683 277.1C683.616 277.1 684.068 276.832 684.356 276.296C684.644 275.76 684.788 274.916 684.788 273.764C684.788 272.62 684.644 271.784 684.356 271.256C684.068 270.72 683.616 270.452 683 270.452C682.384 270.452 681.932 270.72 681.644 271.256C681.356 271.784 681.212 272.62 681.212 273.764C681.212 274.908 681.356 275.752 681.644 276.296C681.932 276.832 682.384 277.1 683 277.1ZM692.956 278H691.42L688.648 275.24V278H687.436V269.54H688.648V274.784L691.216 272.156H692.716L689.944 274.964L692.956 278Z" fill="#2B3034" fill-opacity="0.4"/>
<path d="M765.021 275.264V276.248H763.785V278H762.573V276.248H758.769V275.324L762.777 269.54H763.785V275.264H765.021ZM759.981 275.264H762.573V271.52L759.981 275.264ZM769.408 272.648C769.936 272.648 770.4 272.76 770.8 272.984C771.2 273.208 771.508 273.524 771.724 273.932C771.948 274.34 772.06 274.808 772.06 275.336C772.06 275.88 771.936 276.36 771.688 276.776C771.448 277.192 771.1 277.516 770.644 277.748C770.196 277.972 769.672 278.084 769.072 278.084C768.552 278.084 768.036 277.992 767.524 277.808C767.02 277.624 766.6 277.376 766.264 277.064L766.696 276.152C767.456 276.768 768.252 277.076 769.084 277.076C769.644 277.076 770.08 276.928 770.392 276.632C770.704 276.328 770.86 275.904 770.86 275.36C770.86 274.84 770.704 274.424 770.392 274.112C770.08 273.8 769.664 273.644 769.144 273.644C768.4 273.644 767.788 273.932 767.308 274.508H766.516V269.54H771.7V270.536H767.74V273.2C768.18 272.832 768.736 272.648 769.408 272.648ZM778.956 278H777.42L774.648 275.24V278H773.436V269.54H774.648V274.784L777.216 272.156H778.716L775.944 274.964L778.956 278Z" fill="#2B3034" fill-opacity="0.4"/>
<path d="M848.213 272.648C848.741 272.648 849.205 272.76 849.605 272.984C850.005 273.208 850.313 273.524 850.529 273.932C850.753 274.34 850.865 274.808 850.865 275.336C850.865 275.88 850.741 276.36 850.493 276.776C850.253 277.192 849.905 277.516 849.449 277.748C849.001 277.972 848.477 278.084 847.877 278.084C847.357 278.084 846.841 277.992 846.329 277.808C845.825 277.624 845.405 277.376 845.069 277.064L845.501 276.152C846.261 276.768 847.057 277.076 847.889 277.076C848.449 277.076 848.885 276.928 849.197 276.632C849.509 276.328 849.665 275.904 849.665 275.36C849.665 274.84 849.509 274.424 849.197 274.112C848.885 273.8 848.469 273.644 847.949 273.644C847.205 273.644 846.593 273.932 846.113 274.508H845.321V269.54H850.505V270.536H846.545V273.2C846.985 272.832 847.541 272.648 848.213 272.648ZM855 278.096C854.016 278.096 853.264 277.728 852.744 276.992C852.232 276.256 851.976 275.184 851.976 273.776C851.976 272.368 852.232 271.296 852.744 270.56C853.264 269.816 854.016 269.444 855 269.444C855.984 269.444 856.732 269.812 857.244 270.548C857.764 271.284 858.024 272.356 858.024 273.764C858.024 275.18 857.764 276.256 857.244 276.992C856.732 277.728 855.984 278.096 855 278.096ZM855 277.1C855.616 277.1 856.068 276.832 856.356 276.296C856.644 275.76 856.788 274.916 856.788 273.764C856.788 272.62 856.644 271.784 856.356 271.256C856.068 270.72 855.616 270.452 855 270.452C854.384 270.452 853.932 270.72 853.644 271.256C853.356 271.784 853.212 272.62 853.212 273.764C853.212 274.908 853.356 275.752 853.644 276.296C853.932 276.832 854.384 277.1 855 277.1ZM864.956 278H863.42L860.648 275.24V278H859.436V269.54H860.648V274.784L863.216 272.156H864.716L861.944 274.964L864.956 278Z" fill="#2B3034" fill-opacity="0.4"/>
<path d="M934.213 272.648C934.741 272.648 935.205 272.76 935.605 272.984C936.005 273.208 936.313 273.524 936.529 273.932C936.753 274.34 936.865 274.808 936.865 275.336C936.865 275.88 936.741 276.36 936.493 276.776C936.253 277.192 935.905 277.516 935.449 277.748C935.001 277.972 934.477 278.084 933.877 278.084C933.357 278.084 932.841 277.992 932.329 277.808C931.825 277.624 931.405 277.376 931.069 277.064L931.501 276.152C932.261 276.768 933.057 277.076 933.889 277.076C934.449 277.076 934.885 276.928 935.197 276.632C935.509 276.328 935.665 275.904 935.665 275.36C935.665 274.84 935.509 274.424 935.197 274.112C934.885 273.8 934.469 273.644 933.949 273.644C933.205 273.644 932.593 273.932 932.113 274.508H931.321V269.54H936.505V270.536H932.545V273.2C932.985 272.832 933.541 272.648 934.213 272.648ZM941.408 272.648C941.936 272.648 942.4 272.76 942.8 272.984C943.2 273.208 943.508 273.524 943.724 273.932C943.948 274.34 944.06 274.808 944.06 275.336C944.06 275.88 943.936 276.36 943.688 276.776C943.448 277.192 943.1 277.516 942.644 277.748C942.196 277.972 941.672 278.084 941.072 278.084C940.552 278.084 940.036 277.992 939.524 277.808C939.02 277.624 938.6 277.376 938.264 277.064L938.696 276.152C939.456 276.768 940.252 277.076 941.084 277.076C941.644 277.076 942.08 276.928 942.392 276.632C942.704 276.328 942.86 275.904 942.86 275.36C942.86 274.84 942.704 274.424 942.392 274.112C942.08 273.8 941.664 273.644 941.144 273.644C940.4 273.644 939.788 273.932 939.308 274.508H938.516V269.54H943.7V270.536H939.74V273.2C940.18 272.832 940.736 272.648 941.408 272.648ZM950.956 278H949.42L946.648 275.24V278H945.436V269.54H946.648V274.784L949.216 272.156H950.716L947.944 274.964L950.956 278Z" fill="#2B3034" fill-opacity="0.4"/>
<path d="M1020.24 272.636C1020.75 272.636 1021.21 272.752 1021.6 272.984C1022 273.208 1022.31 273.524 1022.52 273.932C1022.75 274.34 1022.86 274.808 1022.86 275.336C1022.86 275.864 1022.74 276.34 1022.5 276.764C1022.27 277.18 1021.94 277.508 1021.51 277.748C1021.09 277.98 1020.61 278.096 1020.09 278.096C1019.04 278.096 1018.23 277.74 1017.66 277.028C1017.1 276.308 1016.82 275.284 1016.82 273.956C1016.82 273.012 1016.95 272.204 1017.22 271.532C1017.48 270.852 1017.87 270.336 1018.37 269.984C1018.87 269.624 1019.47 269.444 1020.17 269.444C1020.67 269.444 1021.15 269.532 1021.62 269.708C1022.09 269.884 1022.51 270.136 1022.86 270.464L1022.41 271.376C1021.66 270.76 1020.93 270.452 1020.21 270.452C1019.52 270.452 1018.99 270.756 1018.61 271.364C1018.23 271.964 1018.05 272.82 1018.05 273.932V273.968C1018.22 273.552 1018.51 273.228 1018.9 272.996C1019.3 272.756 1019.75 272.636 1020.24 272.636ZM1020.03 277.088C1020.52 277.088 1020.92 276.932 1021.21 276.62C1021.51 276.3 1021.66 275.88 1021.66 275.36C1021.66 274.84 1021.51 274.424 1021.2 274.112C1020.91 273.8 1020.51 273.644 1020.01 273.644C1019.52 273.644 1019.11 273.804 1018.79 274.124C1018.47 274.436 1018.31 274.848 1018.31 275.36C1018.31 275.872 1018.47 276.288 1018.78 276.608C1019.1 276.928 1019.51 277.088 1020.03 277.088ZM1026.99 278.096C1026.01 278.096 1025.26 277.728 1024.74 276.992C1024.23 276.256 1023.97 275.184 1023.97 273.776C1023.97 272.368 1024.23 271.296 1024.74 270.56C1025.26 269.816 1026.01 269.444 1026.99 269.444C1027.98 269.444 1028.73 269.812 1029.24 270.548C1029.76 271.284 1030.02 272.356 1030.02 273.764C1030.02 275.18 1029.76 276.256 1029.24 276.992C1028.73 277.728 1027.98 278.096 1026.99 278.096ZM1026.99 277.1C1027.61 277.1 1028.06 276.832 1028.35 276.296C1028.64 275.76 1028.78 274.916 1028.78 273.764C1028.78 272.62 1028.64 271.784 1028.35 271.256C1028.06 270.72 1027.61 270.452 1026.99 270.452C1026.38 270.452 1025.93 270.72 1025.64 271.256C1025.35 271.784 1025.21 272.62 1025.21 273.764C1025.21 274.908 1025.35 275.752 1025.64 276.296C1025.93 276.832 1026.38 277.1 1026.99 277.1ZM1036.95 278H1035.41L1032.64 275.24V278H1031.43V269.54H1032.64V274.784L1035.21 272.156H1036.71L1033.94 274.964L1036.95 278Z" fill="#2B3034" fill-opacity="0.4"/>
<path d="M80.3107 272.648C80.8387 272.648 81.3027 272.76 81.7027 272.984C82.1027 273.208 82.4107 273.524 82.6267 273.932C82.8507 274.34 82.9627 274.808 82.9627 275.336C82.9627 275.88 82.8387 276.36 82.5907 276.776C82.3507 277.192 82.0027 277.516 81.5467 277.748C81.0987 277.972 80.5747 278.084 79.9747 278.084C79.4547 278.084 78.9387 277.992 78.4267 277.808C77.9227 277.624 77.5027 277.376 77.1667 277.064L77.5987 276.152C78.3587 276.768 79.1547 277.076 79.9867 277.076C80.5467 277.076 80.9827 276.928 81.2947 276.632C81.6067 276.328 81.7627 275.904 81.7627 275.36C81.7627 274.84 81.6067 274.424 81.2947 274.112C80.9827 273.8 80.5667 273.644 80.0467 273.644C79.3027 273.644 78.6907 273.932 78.2107 274.508H77.4187V269.54H82.6027V270.536H78.6427V273.2C79.0827 272.832 79.6387 272.648 80.3107 272.648ZM89.858 278H88.322L85.55 275.24V278H84.338V269.54H85.55V274.784L88.118 272.156H89.618L86.846 274.964L89.858 278Z" fill="#2B3034" fill-opacity="0.4"/>
<path d="M160.265 276.98H162.125V278H157.181V276.98H159.029V271.016L157.553 271.916L157.025 270.992L159.377 269.54H160.265V276.98ZM166.5 278.096C165.516 278.096 164.764 277.728 164.244 276.992C163.732 276.256 163.476 275.184 163.476 273.776C163.476 272.368 163.732 271.296 164.244 270.56C164.764 269.816 165.516 269.444 166.5 269.444C167.484 269.444 168.232 269.812 168.744 270.548C169.264 271.284 169.524 272.356 169.524 273.764C169.524 275.18 169.264 276.256 168.744 276.992C168.232 277.728 167.484 278.096 166.5 278.096ZM166.5 277.1C167.116 277.1 167.568 276.832 167.856 276.296C168.144 275.76 168.288 274.916 168.288 273.764C168.288 272.62 168.144 271.784 167.856 271.256C167.568 270.72 167.116 270.452 166.5 270.452C165.884 270.452 165.432 270.72 165.144 271.256C164.856 271.784 164.712 272.62 164.712 273.764C164.712 274.908 164.856 275.752 165.144 276.296C165.432 276.832 165.884 277.1 166.5 277.1ZM176.456 278H174.92L172.148 275.24V278H170.936V269.54H172.148V274.784L174.716 272.156H176.216L173.444 274.964L176.456 278Z" fill="#2B3034" fill-opacity="0.4"/>
<path d="M246.265 276.98H248.125V278H243.181V276.98H245.029V271.016L243.553 271.916L243.025 270.992L245.377 269.54H246.265V276.98ZM252.908 272.648C253.436 272.648 253.9 272.76 254.3 272.984C254.7 273.208 255.008 273.524 255.224 273.932C255.448 274.34 255.56 274.808 255.56 275.336C255.56 275.88 255.436 276.36 255.188 276.776C254.948 277.192 254.6 277.516 254.144 277.748C253.696 277.972 253.172 278.084 252.572 278.084C252.052 278.084 251.536 277.992 251.024 277.808C250.52 277.624 250.1 277.376 249.764 277.064L250.196 276.152C250.956 276.768 251.752 277.076 252.584 277.076C253.144 277.076 253.58 276.928 253.892 276.632C254.204 276.328 254.36 275.904 254.36 275.36C254.36 274.84 254.204 274.424 253.892 274.112C253.58 273.8 253.164 273.644 252.644 273.644C251.9 273.644 251.288 273.932 250.808 274.508H250.016V269.54H255.2V270.536H251.24V273.2C251.68 272.832 252.236 272.648 252.908 272.648ZM262.456 278H260.92L258.148 275.24V278H256.936V269.54H258.148V274.784L260.716 272.156H262.216L259.444 274.964L262.456 278Z" fill="#2B3034" fill-opacity="0.4"/>
<path d="M334.209 276.98V278H328.665V277.076L331.581 273.884C331.957 273.476 332.229 273.104 332.397 272.768C332.565 272.432 332.649 272.1 332.649 271.772C332.649 271.34 332.525 271.012 332.277 270.788C332.029 270.564 331.673 270.452 331.209 270.452C330.417 270.452 329.633 270.76 328.857 271.376L328.425 270.464C328.761 270.152 329.185 269.904 329.697 269.72C330.209 269.536 330.725 269.444 331.245 269.444C332.053 269.444 332.693 269.648 333.165 270.056C333.637 270.456 333.873 271 333.873 271.688C333.873 272.176 333.765 272.64 333.549 273.08C333.341 273.52 332.989 274.012 332.493 274.556L330.225 276.98H334.209ZM338.5 278.096C337.516 278.096 336.764 277.728 336.244 276.992C335.732 276.256 335.476 275.184 335.476 273.776C335.476 272.368 335.732 271.296 336.244 270.56C336.764 269.816 337.516 269.444 338.5 269.444C339.484 269.444 340.232 269.812 340.744 270.548C341.264 271.284 341.524 272.356 341.524 273.764C341.524 275.18 341.264 276.256 340.744 276.992C340.232 277.728 339.484 278.096 338.5 278.096ZM338.5 277.1C339.116 277.1 339.568 276.832 339.856 276.296C340.144 275.76 340.288 274.916 340.288 273.764C340.288 272.62 340.144 271.784 339.856 271.256C339.568 270.72 339.116 270.452 338.5 270.452C337.884 270.452 337.432 270.72 337.144 271.256C336.856 271.784 336.712 272.62 336.712 273.764C336.712 274.908 336.856 275.752 337.144 276.296C337.432 276.832 337.884 277.1 338.5 277.1ZM348.456 278H346.92L344.148 275.24V278H342.936V269.54H344.148V274.784L346.716 272.156H348.216L345.444 274.964L348.456 278Z" fill="#2B3034" fill-opacity="0.4"/>
<path d="M420.209 276.98V278H414.665V277.076L417.581 273.884C417.957 273.476 418.229 273.104 418.397 272.768C418.565 272.432 418.649 272.1 418.649 271.772C418.649 271.34 418.525 271.012 418.277 270.788C418.029 270.564 417.673 270.452 417.209 270.452C416.417 270.452 415.633 270.76 414.857 271.376L414.425 270.464C414.761 270.152 415.185 269.904 415.697 269.72C416.209 269.536 416.725 269.444 417.245 269.444C418.053 269.444 418.693 269.648 419.165 270.056C419.637 270.456 419.873 271 419.873 271.688C419.873 272.176 419.765 272.64 419.549 273.08C419.341 273.52 418.989 274.012 418.493 274.556L416.225 276.98H420.209ZM424.908 272.648C425.436 272.648 425.9 272.76 426.3 272.984C426.7 273.208 427.008 273.524 427.224 273.932C427.448 274.34 427.56 274.808 427.56 275.336C427.56 275.88 427.436 276.36 427.188 276.776C426.948 277.192 426.6 277.516 426.144 277.748C425.696 277.972 425.172 278.084 424.572 278.084C424.052 278.084 423.536 277.992 423.024 277.808C422.52 277.624 422.1 277.376 421.764 277.064L422.196 276.152C422.956 276.768 423.752 277.076 424.584 277.076C425.144 277.076 425.58 276.928 425.892 276.632C426.204 276.328 426.36 275.904 426.36 275.36C426.36 274.84 426.204 274.424 425.892 274.112C425.58 273.8 425.164 273.644 424.644 273.644C423.9 273.644 423.288 273.932 422.808 274.508H422.016V269.54H427.2V270.536H423.24V273.2C423.68 272.832 424.236 272.648 424.908 272.648ZM434.456 278H432.92L430.148 275.24V278H428.936V269.54H430.148V274.784L432.716 272.156H434.216L431.444 274.964L434.456 278Z" fill="#2B3034" fill-opacity="0.4"/>
<path d="M591.053 273.656C591.549 273.8 591.925 274.048 592.181 274.4C592.445 274.744 592.577 275.18 592.577 275.708C592.577 276.444 592.317 277.024 591.797 277.448C591.277 277.872 590.573 278.084 589.685 278.084C589.125 278.084 588.589 277.996 588.077 277.82C587.565 277.636 587.137 277.384 586.793 277.064L587.237 276.152C587.997 276.768 588.801 277.076 589.649 277.076C590.217 277.076 590.645 276.956 590.933 276.716C591.229 276.468 591.377 276.104 591.377 275.624C591.377 275.152 591.225 274.8 590.921 274.568C590.625 274.328 590.173 274.208 589.565 274.208H588.521V273.212H589.373C589.957 273.212 590.401 273.092 590.705 272.852C591.017 272.604 591.173 272.244 591.173 271.772C591.173 271.348 591.045 271.024 590.789 270.8C590.533 270.568 590.173 270.452 589.709 270.452C588.901 270.452 588.117 270.76 587.357 271.376L586.925 270.464C587.261 270.144 587.681 269.896 588.185 269.72C588.697 269.536 589.225 269.444 589.769 269.444C590.561 269.444 591.193 269.64 591.665 270.032C592.137 270.424 592.373 270.956 592.373 271.628C592.373 272.1 592.257 272.516 592.025 272.876C591.793 273.236 591.469 273.496 591.053 273.656ZM597.408 272.648C597.936 272.648 598.4 272.76 598.8 272.984C599.2 273.208 599.508 273.524 599.724 273.932C599.948 274.34 600.06 274.808 600.06 275.336C600.06 275.88 599.936 276.36 599.688 276.776C599.448 277.192 599.1 277.516 598.644 277.748C598.196 277.972 597.672 278.084 597.072 278.084C596.552 278.084 596.036 277.992 595.524 277.808C595.02 277.624 594.6 277.376 594.264 277.064L594.696 276.152C595.456 276.768 596.252 277.076 597.084 277.076C597.644 277.076 598.08 276.928 598.392 276.632C598.704 276.328 598.86 275.904 598.86 275.36C598.86 274.84 598.704 274.424 598.392 274.112C598.08 273.8 597.664 273.644 597.144 273.644C596.4 273.644 595.788 273.932 595.308 274.508H594.516V269.54H599.7V270.536H595.74V273.2C596.18 272.832 596.736 272.648 597.408 272.648ZM606.956 278H605.42L602.648 275.24V278H601.436V269.54H602.648V274.784L605.216 272.156H606.716L603.944 274.964L606.956 278Z" fill="#2B3034" fill-opacity="0.4"/>
<path d="M504.553 273.656C505.049 273.8 505.425 274.048 505.681 274.4C505.945 274.744 506.077 275.18 506.077 275.708C506.077 276.444 505.817 277.024 505.297 277.448C504.777 277.872 504.073 278.084 503.185 278.084C502.625 278.084 502.089 277.996 501.577 277.82C501.065 277.636 500.637 277.384 500.293 277.064L500.737 276.152C501.497 276.768 502.301 277.076 503.149 277.076C503.717 277.076 504.145 276.956 504.433 276.716C504.729 276.468 504.877 276.104 504.877 275.624C504.877 275.152 504.725 274.8 504.421 274.568C504.125 274.328 503.673 274.208 503.065 274.208H502.021V273.212H502.873C503.457 273.212 503.901 273.092 504.205 272.852C504.517 272.604 504.673 272.244 504.673 271.772C504.673 271.348 504.545 271.024 504.289 270.8C504.033 270.568 503.673 270.452 503.209 270.452C502.401 270.452 501.617 270.76 500.857 271.376L500.425 270.464C500.761 270.144 501.181 269.896 501.685 269.72C502.197 269.536 502.725 269.444 503.269 269.444C504.061 269.444 504.693 269.64 505.165 270.032C505.637 270.424 505.873 270.956 505.873 271.628C505.873 272.1 505.757 272.516 505.525 272.876C505.293 273.236 504.969 273.496 504.553 273.656ZM510.5 278.096C509.516 278.096 508.764 277.728 508.244 276.992C507.732 276.256 507.476 275.184 507.476 273.776C507.476 272.368 507.732 271.296 508.244 270.56C508.764 269.816 509.516 269.444 510.5 269.444C511.484 269.444 512.232 269.812 512.744 270.548C513.264 271.284 513.524 272.356 513.524 273.764C513.524 275.18 513.264 276.256 512.744 276.992C512.232 277.728 511.484 278.096 510.5 278.096ZM510.5 277.1C511.116 277.1 511.568 276.832 511.856 276.296C512.144 275.76 512.288 274.916 512.288 273.764C512.288 272.62 512.144 271.784 511.856 271.256C511.568 270.72 511.116 270.452 510.5 270.452C509.884 270.452 509.432 270.72 509.144 271.256C508.856 271.784 508.712 272.62 508.712 273.764C508.712 274.908 508.856 275.752 509.144 276.296C509.432 276.832 509.884 277.1 510.5 277.1ZM520.456 278H518.92L516.148 275.24V278H514.936V269.54H516.148V274.784L518.716 272.156H520.216L517.444 274.964L520.456 278Z" fill="#2B3034" fill-opacity="0.4"/>
<path d="M6.504 243.98V245H0.96V244.076L3.876 240.884C4.252 240.476 4.524 240.104 4.692 239.768C4.86 239.432 4.944 239.1 4.944 238.772C4.944 238.34 4.82 238.012 4.572 237.788C4.324 237.564 3.968 237.452 3.504 237.452C2.712 237.452 1.928 237.76 1.152 238.376L0.72 237.464C1.056 237.152 1.48 236.904 1.992 236.72C2.504 236.536 3.02 236.444 3.54 236.444C4.348 236.444 4.988 236.648 5.46 237.056C5.932 237.456 6.168 238 6.168 238.688C6.168 239.176 6.06 239.64 5.844 240.08C5.636 240.52 5.284 241.012 4.788 241.556L2.52 243.98H6.504ZM10.7953 245.096C9.81131 245.096 9.05931 244.728 8.53931 243.992C8.02731 243.256 7.77131 242.184 7.77131 240.776C7.77131 239.368 8.02731 238.296 8.53931 237.56C9.05931 236.816 9.81131 236.444 10.7953 236.444C11.7793 236.444 12.5273 236.812 13.0393 237.548C13.5593 238.284 13.8193 239.356 13.8193 240.764C13.8193 242.18 13.5593 243.256 13.0393 243.992C12.5273 244.728 11.7793 245.096 10.7953 245.096ZM10.7953 244.1C11.4113 244.1 11.8633 243.832 12.1513 243.296C12.4393 242.76 12.5833 241.916 12.5833 240.764C12.5833 239.62 12.4393 238.784 12.1513 238.256C11.8633 237.72 11.4113 237.452 10.7953 237.452C10.1793 237.452 9.72731 237.72 9.43931 238.256C9.15131 238.784 9.00731 239.62 9.00731 240.764C9.00731 241.908 9.15131 242.752 9.43931 243.296C9.72731 243.832 10.1793 244.1 10.7953 244.1ZM17.9426 245.312L17.1026 244.832L22.0826 236.228L22.9226 236.708L17.9426 245.312ZM17.0666 241.604C16.4186 241.604 15.9106 241.384 15.5426 240.944C15.1746 240.504 14.9906 239.86 14.9906 239.012C14.9906 238.164 15.1746 237.524 15.5426 237.092C15.9106 236.652 16.4186 236.432 17.0666 236.432C17.7226 236.432 18.2346 236.652 18.6026 237.092C18.9706 237.524 19.1546 238.164 19.1546 239.012C19.1546 239.868 18.9706 240.516 18.6026 240.956C18.2346 241.388 17.7226 241.604 17.0666 241.604ZM17.0666 240.788C17.4186 240.788 17.6786 240.648 17.8466 240.368C18.0146 240.08 18.0986 239.628 18.0986 239.012C18.0986 238.404 18.0146 237.96 17.8466 237.68C17.6786 237.4 17.4186 237.26 17.0666 237.26C16.7146 237.26 16.4546 237.4 16.2866 237.68C16.1266 237.952 16.0466 238.396 16.0466 239.012C16.0466 239.628 16.1266 240.08 16.2866 240.368C16.4546 240.648 16.7146 240.788 17.0666 240.788ZM22.9586 245.084C22.3026 245.084 21.7906 244.868 21.4226 244.436C21.0546 243.996 20.8706 243.348 20.8706 242.492C20.8706 241.644 21.0546 241.004 21.4226 240.572C21.7906 240.132 22.3026 239.912 22.9586 239.912C23.6066 239.912 24.1146 240.132 24.4826 240.572C24.8586 241.004 25.0466 241.644 25.0466 242.492C25.0466 243.34 24.8626 243.984 24.4946 244.424C24.1266 244.864 23.6146 245.084 22.9586 245.084ZM22.9586 244.268C23.3106 244.268 23.5666 244.128 23.7266 243.848C23.8946 243.56 23.9786 243.108 23.9786 242.492C23.9786 241.884 23.8946 241.44 23.7266 241.16C23.5586 240.872 23.3026 240.728 22.9586 240.728C22.6066 240.728 22.3466 240.868 22.1786 241.148C22.0106 241.428 21.9266 241.876 21.9266 242.492C21.9266 243.108 22.0106 243.56 22.1786 243.848C22.3466 244.128 22.6066 244.268 22.9586 244.268Z" fill="#2B3034" fill-opacity="0.4"/>
<g opacity="0.7">
<path fill-rule="evenodd" clip-rule="evenodd" d="M76 241.5H1073.16H76Z" fill="white"/>
<path d="M76 241.5H1073.16" stroke="#EAEAEA" stroke-linecap="square"/>
<path fill-rule="evenodd" clip-rule="evenodd" d="M76 182.5H1073.16H76Z" fill="white"/>
<path d="M76 182.5H1073.16" stroke="#EAEAEA" stroke-linecap="square"/>
<path fill-rule="evenodd" clip-rule="evenodd" d="M76 123.5H1073.16H76Z" fill="white"/>
<path d="M76 123.5H1073.16" stroke="#EAEAEA" stroke-linecap="square"/>
<path fill-rule="evenodd" clip-rule="evenodd" d="M76 64.5H1073.16H76Z" fill="white"/>
<path d="M76 64.5H1073.16" stroke="#EAEAEA" stroke-linecap="square"/>
<path fill-rule="evenodd" clip-rule="evenodd" d="M76 5.5H1073.16H76Z" fill="white"/>
<path d="M76 5.5H1073.16" stroke="#EAEAEA" stroke-linecap="square"/>
</g>
<path d="M6.816 183.264V184.248H5.58V186H4.368V184.248H0.564V183.324L4.572 177.54H5.58V183.264H6.816ZM1.776 183.264H4.368V179.52L1.776 183.264ZM10.7953 186.096C9.81131 186.096 9.05931 185.728 8.53931 184.992C8.02731 184.256 7.77131 183.184 7.77131 181.776C7.77131 180.368 8.02731 179.296 8.53931 178.56C9.05931 177.816 9.81131 177.444 10.7953 177.444C11.7793 177.444 12.5273 177.812 13.0393 178.548C13.5593 179.284 13.8193 180.356 13.8193 181.764C13.8193 183.18 13.5593 184.256 13.0393 184.992C12.5273 185.728 11.7793 186.096 10.7953 186.096ZM10.7953 185.1C11.4113 185.1 11.8633 184.832 12.1513 184.296C12.4393 183.76 12.5833 182.916 12.5833 181.764C12.5833 180.62 12.4393 179.784 12.1513 179.256C11.8633 178.72 11.4113 178.452 10.7953 178.452C10.1793 178.452 9.72731 178.72 9.43931 179.256C9.15131 179.784 9.00731 180.62 9.00731 181.764C9.00731 182.908 9.15131 183.752 9.43931 184.296C9.72731 184.832 10.1793 185.1 10.7953 185.1ZM17.9426 186.312L17.1026 185.832L22.0826 177.228L22.9226 177.708L17.9426 186.312ZM17.0666 182.604C16.4186 182.604 15.9106 182.384 15.5426 181.944C15.1746 181.504 14.9906 180.86 14.9906 180.012C14.9906 179.164 15.1746 178.524 15.5426 178.092C15.9106 177.652 16.4186 177.432 17.0666 177.432C17.7226 177.432 18.2346 177.652 18.6026 178.092C18.9706 178.524 19.1546 179.164 19.1546 180.012C19.1546 180.868 18.9706 181.516 18.6026 181.956C18.2346 182.388 17.7226 182.604 17.0666 182.604ZM17.0666 181.788C17.4186 181.788 17.6786 181.648 17.8466 181.368C18.0146 181.08 18.0986 180.628 18.0986 180.012C18.0986 179.404 18.0146 178.96 17.8466 178.68C17.6786 178.4 17.4186 178.26 17.0666 178.26C16.7146 178.26 16.4546 178.4 16.2866 178.68C16.1266 178.952 16.0466 179.396 16.0466 180.012C16.0466 180.628 16.1266 181.08 16.2866 181.368C16.4546 181.648 16.7146 181.788 17.0666 181.788ZM22.9586 186.084C22.3026 186.084 21.7906 185.868 21.4226 185.436C21.0546 184.996 20.8706 184.348 20.8706 183.492C20.8706 182.644 21.0546 182.004 21.4226 181.572C21.7906 181.132 22.3026 180.912 22.9586 180.912C23.6066 180.912 24.1146 181.132 24.4826 181.572C24.8586 182.004 25.0466 182.644 25.0466 183.492C25.0466 184.34 24.8626 184.984 24.4946 185.424C24.1266 185.864 23.6146 186.084 22.9586 186.084ZM22.9586 185.268C23.3106 185.268 23.5666 185.128 23.7266 184.848C23.8946 184.56 23.9786 184.108 23.9786 183.492C23.9786 182.884 23.8946 182.44 23.7266 182.16C23.5586 181.872 23.3026 181.728 22.9586 181.728C22.6066 181.728 22.3466 181.868 22.1786 182.148C22.0106 182.428 21.9266 182.876 21.9266 183.492C21.9266 184.108 22.0106 184.56 22.1786 184.848C22.3466 185.128 22.6066 185.268 22.9586 185.268Z" fill="#2B3034" fill-opacity="0.4"/>
<path d="M4.032 121.636C4.544 121.636 4.996 121.752 5.388 121.984C5.788 122.208 6.096 122.524 6.312 122.932C6.536 123.34 6.648 123.808 6.648 124.336C6.648 124.864 6.528 125.34 6.288 125.764C6.056 126.18 5.728 126.508 5.304 126.748C4.88 126.98 4.404 127.096 3.876 127.096C2.828 127.096 2.02 126.74 1.452 126.028C0.892 125.308 0.612 124.284 0.612 122.956C0.612 122.012 0.744 121.204 1.008 120.532C1.272 119.852 1.656 119.336 2.16 118.984C2.664 118.624 3.264 118.444 3.96 118.444C4.456 118.444 4.94 118.532 5.412 118.708C5.884 118.884 6.296 119.136 6.648 119.464L6.204 120.376C5.452 119.76 4.716 119.452 3.996 119.452C3.308 119.452 2.776 119.756 2.4 120.364C2.024 120.964 1.836 121.82 1.836 122.932V122.968C2.012 122.552 2.296 122.228 2.688 121.996C3.088 121.756 3.536 121.636 4.032 121.636ZM3.816 126.088C4.312 126.088 4.708 125.932 5.004 125.62C5.3 125.3 5.448 124.88 5.448 124.36C5.448 123.84 5.296 123.424 4.992 123.112C4.696 122.8 4.3 122.644 3.804 122.644C3.308 122.644 2.9 122.804 2.58 123.124C2.26 123.436 2.1 123.848 2.1 124.36C2.1 124.872 2.256 125.288 2.568 125.608C2.888 125.928 3.304 126.088 3.816 126.088ZM10.7836 127.096C9.79959 127.096 9.04759 126.728 8.52759 125.992C8.01559 125.256 7.75959 124.184 7.75959 122.776C7.75959 121.368 8.01559 120.296 8.52759 119.56C9.04759 118.816 9.79959 118.444 10.7836 118.444C11.7676 118.444 12.5156 118.812 13.0276 119.548C13.5476 120.284 13.8076 121.356 13.8076 122.764C13.8076 124.18 13.5476 125.256 13.0276 125.992C12.5156 126.728 11.7676 127.096 10.7836 127.096ZM10.7836 126.1C11.3996 126.1 11.8516 125.832 12.1396 125.296C12.4276 124.76 12.5716 123.916 12.5716 122.764C12.5716 121.62 12.4276 120.784 12.1396 120.256C11.8516 119.72 11.3996 119.452 10.7836 119.452C10.1676 119.452 9.71559 119.72 9.42759 120.256C9.13959 120.784 8.99559 121.62 8.99559 122.764C8.99559 123.908 9.13959 124.752 9.42759 125.296C9.71559 125.832 10.1676 126.1 10.7836 126.1ZM17.9309 127.312L17.0909 126.832L22.0709 118.228L22.9109 118.708L17.9309 127.312ZM17.0549 123.604C16.4069 123.604 15.8989 123.384 15.5309 122.944C15.1629 122.504 14.9789 121.86 14.9789 121.012C14.9789 120.164 15.1629 119.524 15.5309 119.092C15.8989 118.652 16.4069 118.432 17.0549 118.432C17.7109 118.432 18.2229 118.652 18.5909 119.092C18.9589 119.524 19.1429 120.164 19.1429 121.012C19.1429 121.868 18.9589 122.516 18.5909 122.956C18.2229 123.388 17.7109 123.604 17.0549 123.604ZM17.0549 122.788C17.4069 122.788 17.6669 122.648 17.8349 122.368C18.0029 122.08 18.0869 121.628 18.0869 121.012C18.0869 120.404 18.0029 119.96 17.8349 119.68C17.6669 119.4 17.4069 119.26 17.0549 119.26C16.7029 119.26 16.4429 119.4 16.2749 119.68C16.1149 119.952 16.0349 120.396 16.0349 121.012C16.0349 121.628 16.1149 122.08 16.2749 122.368C16.4429 122.648 16.7029 122.788 17.0549 122.788ZM22.9469 127.084C22.2909 127.084 21.7789 126.868 21.4109 126.436C21.0429 125.996 20.8589 125.348 20.8589 124.492C20.8589 123.644 21.0429 123.004 21.4109 122.572C21.7789 122.132 22.2909 121.912 22.9469 121.912C23.5949 121.912 24.1029 122.132 24.4709 122.572C24.8469 123.004 25.0349 123.644 25.0349 124.492C25.0349 125.34 24.8509 125.984 24.4829 126.424C24.1149 126.864 23.6029 127.084 22.9469 127.084ZM22.9469 126.268C23.2989 126.268 23.5549 126.128 23.7149 125.848C23.8829 125.56 23.9669 125.108 23.9669 124.492C23.9669 123.884 23.8829 123.44 23.7149 123.16C23.5469 122.872 23.2909 122.728 22.9469 122.728C22.5949 122.728 22.3349 122.868 22.1669 123.148C21.9989 123.428 21.9149 123.876 21.9149 124.492C21.9149 125.108 21.9989 125.56 22.1669 125.848C22.3349 126.128 22.5949 126.268 22.9469 126.268Z" fill="#2B3034" fill-opacity="0.4"/>
<path d="M5.136 63.656C5.632 63.8 6.016 64.056 6.288 64.424C6.56 64.792 6.696 65.232 6.696 65.744C6.696 66.48 6.424 67.056 5.88 67.472C5.344 67.88 4.584 68.084 3.6 68.084C2.616 68.084 1.852 67.88 1.308 67.472C0.772 67.056 0.504 66.48 0.504 65.744C0.504 65.224 0.64 64.78 0.912 64.412C1.192 64.044 1.58 63.792 2.076 63.656C1.652 63.496 1.316 63.244 1.068 62.9C0.828 62.556 0.708 62.156 0.708 61.7C0.708 61.004 0.964 60.456 1.476 60.056C1.988 59.648 2.696 59.444 3.6 59.444C4.504 59.444 5.212 59.648 5.724 60.056C6.236 60.456 6.492 61.004 6.492 61.7C6.492 62.156 6.368 62.56 6.12 62.912C5.88 63.256 5.552 63.504 5.136 63.656ZM3.6 60.44C3.04 60.44 2.616 60.56 2.328 60.8C2.04 61.032 1.896 61.368 1.896 61.808C1.896 62.264 2.04 62.612 2.328 62.852C2.616 63.092 3.04 63.212 3.6 63.212C4.16 63.212 4.584 63.092 4.872 62.852C5.16 62.612 5.304 62.264 5.304 61.808C5.304 61.368 5.16 61.032 4.872 60.8C4.584 60.56 4.16 60.44 3.6 60.44ZM3.6 67.088C4.872 67.088 5.508 66.612 5.508 65.66C5.508 64.7 4.872 64.22 3.6 64.22C2.328 64.22 1.692 64.7 1.692 65.66C1.692 66.612 2.328 67.088 3.6 67.088ZM10.7953 68.096C9.81131 68.096 9.05931 67.728 8.53931 66.992C8.02731 66.256 7.77131 65.184 7.77131 63.776C7.77131 62.368 8.02731 61.296 8.53931 60.56C9.05931 59.816 9.81131 59.444 10.7953 59.444C11.7793 59.444 12.5273 59.812 13.0393 60.548C13.5593 61.284 13.8193 62.356 13.8193 63.764C13.8193 65.18 13.5593 66.256 13.0393 66.992C12.5273 67.728 11.7793 68.096 10.7953 68.096ZM10.7953 67.1C11.4113 67.1 11.8633 66.832 12.1513 66.296C12.4393 65.76 12.5833 64.916 12.5833 63.764C12.5833 62.62 12.4393 61.784 12.1513 61.256C11.8633 60.72 11.4113 60.452 10.7953 60.452C10.1793 60.452 9.72731 60.72 9.43931 61.256C9.15131 61.784 9.00731 62.62 9.00731 63.764C9.00731 64.908 9.15131 65.752 9.43931 66.296C9.72731 66.832 10.1793 67.1 10.7953 67.1ZM17.9426 68.312L17.1026 67.832L22.0826 59.228L22.9226 59.708L17.9426 68.312ZM17.0666 64.604C16.4186 64.604 15.9106 64.384 15.5426 63.944C15.1746 63.504 14.9906 62.86 14.9906 62.012C14.9906 61.164 15.1746 60.524 15.5426 60.092C15.9106 59.652 16.4186 59.432 17.0666 59.432C17.7226 59.432 18.2346 59.652 18.6026 60.092C18.9706 60.524 19.1546 61.164 19.1546 62.012C19.1546 62.868 18.9706 63.516 18.6026 63.956C18.2346 64.388 17.7226 64.604 17.0666 64.604ZM17.0666 63.788C17.4186 63.788 17.6786 63.648 17.8466 63.368C18.0146 63.08 18.0986 62.628 18.0986 62.012C18.0986 61.404 18.0146 60.96 17.8466 60.68C17.6786 60.4 17.4186 60.26 17.0666 60.26C16.7146 60.26 16.4546 60.4 16.2866 60.68C16.1266 60.952 16.0466 61.396 16.0466 62.012C16.0466 62.628 16.1266 63.08 16.2866 63.368C16.4546 63.648 16.7146 63.788 17.0666 63.788ZM22.9586 68.084C22.3026 68.084 21.7906 67.868 21.4226 67.436C21.0546 66.996 20.8706 66.348 20.8706 65.492C20.8706 64.644 21.0546 64.004 21.4226 63.572C21.7906 63.132 22.3026 62.912 22.9586 62.912C23.6066 62.912 24.1146 63.132 24.4826 63.572C24.8586 64.004 25.0466 64.644 25.0466 65.492C25.0466 66.34 24.8626 66.984 24.4946 67.424C24.1266 67.864 23.6146 68.084 22.9586 68.084ZM22.9586 67.268C23.3106 67.268 23.5666 67.128 23.7266 66.848C23.8946 66.56 23.9786 66.108 23.9786 65.492C23.9786 64.884 23.8946 64.44 23.7266 64.16C23.5586 63.872 23.3026 63.728 22.9586 63.728C22.6066 63.728 22.3466 63.868 22.1786 64.148C22.0106 64.428 21.9266 64.876 21.9266 65.492C21.9266 66.108 22.0106 66.56 22.1786 66.848C22.3466 67.128 22.6066 67.268 22.9586 67.268Z" fill="#2B3034" fill-opacity="0.4"/>
<path d="M4.56 7.98H6.42V9H1.476V7.98H3.324V2.016L1.848 2.916L1.32 1.992L3.672 0.539999H4.56V7.98ZM10.7953 9.096C9.81131 9.096 9.05931 8.728 8.53931 7.992C8.02731 7.256 7.77131 6.184 7.77131 4.776C7.77131 3.368 8.02731 2.296 8.53931 1.56C9.05931 0.816 9.81131 0.443999 10.7953 0.443999C11.7793 0.443999 12.5273 0.811999 13.0393 1.548C13.5593 2.284 13.8193 3.356 13.8193 4.764C13.8193 6.18 13.5593 7.256 13.0393 7.992C12.5273 8.728 11.7793 9.096 10.7953 9.096ZM10.7953 8.1C11.4113 8.1 11.8633 7.832 12.1513 7.296C12.4393 6.76 12.5833 5.916 12.5833 4.764C12.5833 3.62 12.4393 2.784 12.1513 2.256C11.8633 1.72 11.4113 1.452 10.7953 1.452C10.1793 1.452 9.72731 1.72 9.43931 2.256C9.15131 2.784 9.00731 3.62 9.00731 4.764C9.00731 5.908 9.15131 6.752 9.43931 7.296C9.72731 7.832 10.1793 8.1 10.7953 8.1ZM17.9906 9.096C17.0066 9.096 16.2546 8.728 15.7346 7.992C15.2226 7.256 14.9666 6.184 14.9666 4.776C14.9666 3.368 15.2226 2.296 15.7346 1.56C16.2546 0.816 17.0066 0.443999 17.9906 0.443999C18.9746 0.443999 19.7226 0.811999 20.2346 1.548C20.7546 2.284 21.0146 3.356 21.0146 4.764C21.0146 6.18 20.7546 7.256 20.2346 7.992C19.7226 8.728 18.9746 9.096 17.9906 9.096ZM17.9906 8.1C18.6066 8.1 19.0586 7.832 19.3466 7.296C19.6346 6.76 19.7786 5.916 19.7786 4.764C19.7786 3.62 19.6346 2.784 19.3466 2.256C19.0586 1.72 18.6066 1.452 17.9906 1.452C17.3746 1.452 16.9226 1.72 16.6346 2.256C16.3466 2.784 16.2026 3.62 16.2026 4.764C16.2026 5.908 16.3466 6.752 16.6346 7.296C16.9226 7.832 17.3746 8.1 17.9906 8.1ZM25.1379 9.312L24.2979 8.832L29.2779 0.228L30.1179 0.707999L25.1379 9.312ZM24.2619 5.604C23.6139 5.604 23.1059 5.384 22.7379 4.944C22.3699 4.504 22.1859 3.86 22.1859 3.012C22.1859 2.164 22.3699 1.524 22.7379 1.092C23.1059 0.651999 23.6139 0.431999 24.2619 0.431999C24.9179 0.431999 25.4299 0.651999 25.7979 1.092C26.1659 1.524 26.3499 2.164 26.3499 3.012C26.3499 3.868 26.1659 4.516 25.7979 4.956C25.4299 5.388 24.9179 5.604 24.2619 5.604ZM24.2619 4.788C24.6139 4.788 24.8739 4.648 25.0419 4.368C25.2099 4.08 25.2939 3.628 25.2939 3.012C25.2939 2.404 25.2099 1.96 25.0419 1.68C24.8739 1.4 24.6139 1.26 24.2619 1.26C23.9099 1.26 23.6499 1.4 23.4819 1.68C23.3219 1.952 23.2419 2.396 23.2419 3.012C23.2419 3.628 23.3219 4.08 23.4819 4.368C23.6499 4.648 23.9099 4.788 24.2619 4.788ZM30.1539 9.084C29.4979 9.084 28.9859 8.868 28.6179 8.436C28.2499 7.996 28.0659 7.348 28.0659 6.492C28.0659 5.644 28.2499 5.004 28.6179 4.572C28.9859 4.132 29.4979 3.912 30.1539 3.912C30.8019 3.912 31.3099 4.132 31.6779 4.572C32.0539 5.004 32.2419 5.644 32.2419 6.492C32.2419 7.34 32.0579 7.984 31.6899 8.424C31.3219 8.864 30.8099 9.084 30.1539 9.084ZM30.1539 8.268C30.5059 8.268 30.7619 8.128 30.9219 7.848C31.0899 7.56 31.1739 7.108 31.1739 6.492C31.1739 5.884 31.0899 5.44 30.9219 5.16C30.7539 4.872 30.4979 4.728 30.1539 4.728C29.8019 4.728 29.5419 4.868 29.3739 5.148C29.2059 5.428 29.1219 5.876 29.1219 6.492C29.1219 7.108 29.2059 7.56 29.3739 7.848C29.5419 8.128 29.8019 8.268 30.1539 8.268Z" fill="#2B3034" fill-opacity="0.4"/>
<path fill-rule="evenodd" clip-rule="evenodd" d="M76 245L82.3169 223.386L104.463 222.457L119.943 214.351L136.126 213.905L147.92 201.984L158.293 170.994L164.942 159.906L182.701 183.034L197.144 186.554L207.712 179.839L220.463 150.241L257.024 210.254L272.076 184.406L289.334 197.38L298.636 177.599L300.45 168.109L314.459 158.417L321.694 145.246L329.69 163.644L328.367 175.724L335.743 177.511L341.467 172.133L356.404 50.6434L370.309 198.636L382.692 182.723V173.635L393.276 164.244L398.232 157.046L407.352 146.22L429.034 157.508L439.827 163.644L448.54 159.672L463.737 177.524L485.843 142.438L492.31 161.571L506.171 174.807L519.607 170.568L525.883 161.568L535.929 157.503L537.195 149.776L548.658 130.777L565.488 136.173L570.62 119.286L593.698 230.061L610.151 207.909L631.832 206.36L657.813 222.082L667.906 160.754L680.568 164.206L686.527 156.998L689.884 159.3L696.183 158.598L699.782 161.699L709.781 163.722L709.959 170.584L721.911 174.934L736.845 173.971L737.63 162.485L726.376 87.3121L752.602 118.132L765.725 128.487L798.56 107.311L817.089 122.368H823.018H829.705L837.84 131.812L847.721 142.438L900.501 146.22L908.984 130.777L944.556 174.801L965.032 136.173L986.07 149.73L1005.93 132.682L1027.9 146.22L1044.5 155.053L1053.83 152.353L1064.12 145.246L1074 136.173V245H158.606H76Z" fill="url(#paint0_linear_207_4647)"/>
<path d="M76 246L82.383 223.573L104.525 222.643L120.003 214.525L136.184 214.079L147.975 202.142L158.346 171.109L165.132 160.006L182.751 183.166L197.191 186.69L207.758 179.967L220.311 149.862L257.061 210.423L272.111 184.539L289.366 197.531L298.666 177.723L300.481 168.22L314.487 158.515L321.721 145.326L329.716 163.749L328.393 175.846L335.768 177.635L341.49 172.25L356.404 50.6434L370.328 198.789L382.708 182.854V173.754L393.292 164.35L398.246 157.142L407.365 146.301L429.043 157.605L439.835 163.749L448.546 159.772L463.741 177.648L485.843 142.514L492.309 161.673L506.168 174.928L519.602 170.683L525.876 161.671L535.921 157.6L537.187 149.862L548.648 130.837L565.475 136.24L570.702 121.166L593.68 230.257L610.13 208.075L631.808 206.523L657.785 222.267L667.876 160.855L680.536 164.312L686.494 157.094L689.85 159.4L696.148 158.696L699.747 161.801L709.744 163.827L709.922 170.699L721.872 175.055L736.804 174.091L737.589 162.588L726.376 87.3121L752.558 118.174L765.679 128.544L798.509 107.339L816.766 122.417H829.376L847.64 142.514L872.418 146.301H900.141L908.621 130.837L928.047 155.026L944.178 175.846L965.128 136.24C965.128 136.24 984.302 150.894 986.504 149.862C988.706 148.83 1007.03 132.649 1007.03 132.649L1024.8 145.326L1046.04 157.142L1063.69 146.301L1072 136.24H1069.61H1070.89" stroke="#4379EE" stroke-width="1.5"/>
<path fill-rule="evenodd" clip-rule="evenodd" d="M356 50C358.209 50 360 48.2091 360 46C360 43.7909 358.209 42 356 42C353.791 42 352 43.7909 352 46C352 48.2091 353.791 50 356 50Z" fill="#4880FF"/>
<path fill-rule="evenodd" clip-rule="evenodd" d="M322 149C324.209 149 326 147.209 326 145C326 142.791 324.209 141 322 141C319.791 141 318 142.791 318 145C318 147.209 319.791 149 322 149Z" fill="#4379EE"/>
<path fill-rule="evenodd" clip-rule="evenodd" d="M257 213C259.209 213 261 211.209 261 209C261 206.791 259.209 205 257 205C254.791 205 253 206.791 253 209C253 211.209 254.791 213 257 213Z" fill="#4379EE"/>
<path fill-rule="evenodd" clip-rule="evenodd" d="M221 153C223.209 153 225 151.209 225 149C225 146.791 223.209 145 221 145C218.791 145 217 146.791 217 149C217 151.209 218.791 153 221 153Z" fill="#4379EE"/>
<path fill-rule="evenodd" clip-rule="evenodd" d="M165 162C167.209 162 169 160.209 169 158C169 155.791 167.209 154 165 154C162.791 154 161 155.791 161 158C161 160.209 162.791 162 165 162Z" fill="#4379EE"/>
<path fill-rule="evenodd" clip-rule="evenodd" d="M135 217C137.209 217 139 215.209 139 213C139 210.791 137.209 209 135 209C132.791 209 131 210.791 131 213C131 215.209 132.791 217 135 217Z" fill="#4379EE"/>
<path fill-rule="evenodd" clip-rule="evenodd" d="M77 247C79.2091 247 81 245.209 81 243C81 240.791 79.2091 239 77 239C74.7909 239 73 240.791 73 243C73 245.209 74.7909 247 77 247Z" fill="#4379EE"/>
<path fill-rule="evenodd" clip-rule="evenodd" d="M407 150C409.209 150 411 148.209 411 146C411 143.791 409.209 142 407 142C404.791 142 403 143.791 403 146C403 148.209 404.791 150 407 150Z" fill="#4379EE"/>
<path fill-rule="evenodd" clip-rule="evenodd" d="M486 144C488.209 144 490 142.209 490 140C490 137.791 488.209 136 486 136C483.791 136 482 137.791 482 140C482 142.209 483.791 144 486 144Z" fill="#4379EE"/>
<path fill-rule="evenodd" clip-rule="evenodd" d="M571 123C573.209 123 575 121.209 575 119C575 116.791 573.209 115 571 115C568.791 115 567 116.791 567 119C567 121.209 568.791 123 571 123Z" fill="#4379EE"/>
<path fill-rule="evenodd" clip-rule="evenodd" d="M593 233C595.209 233 597 231.209 597 229C597 226.791 595.209 225 593 225C590.791 225 589 226.791 589 229C589 231.209 590.791 233 593 233Z" fill="#4379EE"/>
<path fill-rule="evenodd" clip-rule="evenodd" d="M658 225C660.209 225 662 223.209 662 221C662 218.791 660.209 217 658 217C655.791 217 654 218.791 654 221C654 223.209 655.791 225 658 225Z" fill="#4379EE"/>
<path fill-rule="evenodd" clip-rule="evenodd" d="M727 91C729.209 91 731 89.2091 731 87C731 84.7909 729.209 83 727 83C724.791 83 723 84.7909 723 87C723 89.2091 724.791 91 727 91Z" fill="#4379EE"/>
<path fill-rule="evenodd" clip-rule="evenodd" d="M736 176C738.209 176 740 174.209 740 172C740 169.791 738.209 168 736 168C733.791 168 732 169.791 732 172C732 174.209 733.791 176 736 176Z" fill="#4379EE"/>
<path fill-rule="evenodd" clip-rule="evenodd" d="M765 131C767.209 131 769 129.209 769 127C769 124.791 767.209 123 765 123C762.791 123 761 124.791 761 127C761 129.209 762.791 131 765 131Z" fill="#4379EE"/>
<path fill-rule="evenodd" clip-rule="evenodd" d="M797 111C799.209 111 801 109.209 801 107C801 104.791 799.209 103 797 103C794.791 103 793 104.791 793 107C793 109.209 794.791 111 797 111Z" fill="#4379EE"/>
<path fill-rule="evenodd" clip-rule="evenodd" d="M909 134C911.209 134 913 132.209 913 130C913 127.791 911.209 126 909 126C906.791 126 905 127.791 905 130C905 132.209 906.791 134 909 134Z" fill="#4379EE"/>
<path fill-rule="evenodd" clip-rule="evenodd" d="M944 180C946.209 180 948 178.209 948 176C948 173.791 946.209 172 944 172C941.791 172 940 173.791 940 176C940 178.209 941.791 180 944 180Z" fill="#4379EE"/>
<path fill-rule="evenodd" clip-rule="evenodd" d="M965 139C967.209 139 969 137.209 969 135C969 132.791 967.209 131 965 131C962.791 131 961 132.791 961 135C961 137.209 962.791 139 965 139Z" fill="#4379EE"/>
<path fill-rule="evenodd" clip-rule="evenodd" d="M1007 137C1009.21 137 1011 135.209 1011 133C1011 130.791 1009.21 129 1007 129C1004.79 129 1003 130.791 1003 133C1003 135.209 1004.79 137 1007 137Z" fill="#4379EE"/>
<defs>
<linearGradient id="paint0_linear_207_4647" x1="325.5" y1="147.822" x2="325.5" y2="245" gradientUnits="userSpaceOnUse">
<stop stop-color="#4379EE" stop-opacity="0.16"/>
<stop offset="1" stop-color="white" stop-opacity="0.176942"/>
</linearGradient>
</defs>
</svg>
