<svg width="88" height="16" viewBox="0 0 88 16" fill="none" xmlns="http://www.w3.org/2000/svg">
<path opacity="0.2" fill-rule="evenodd" clip-rule="evenodd" d="M80 10.88L75.2977 14.4721L77.261 8.88997L72.3915 5.52786L78.3072 5.67003L80 0L81.6928 5.67003L87.6085 5.52786L82.739 8.88997L84.7023 14.4721L80 10.88Z" fill="black"/>
<path fill-rule="evenodd" clip-rule="evenodd" d="M62 10.88L57.2977 14.4721L59.261 8.88997L54.3915 5.52786L60.3072 5.67003L62 0L63.6928 5.67003L69.6085 5.52786L64.739 8.88997L66.7023 14.4721L62 10.88Z" fill="#FF9500"/>
<path fill-rule="evenodd" clip-rule="evenodd" d="M44 10.88L39.2977 14.4721L41.261 8.88997L36.3915 5.52786L42.3072 5.67003L44 0L45.6928 5.67003L51.6085 5.52786L46.739 8.88997L48.7023 14.4721L44 10.88Z" fill="#FF9500"/>
<path fill-rule="evenodd" clip-rule="evenodd" d="M26 10.88L21.2977 14.4721L23.261 8.88997L18.3915 5.52786L24.3072 5.67003L26 0L27.6928 5.67003L33.6085 5.52786L28.739 8.88997L30.7023 14.4721L26 10.88Z" fill="#FF9500"/>
<path fill-rule="evenodd" clip-rule="evenodd" d="M8 10.88L3.29772 14.4721L5.26096 8.88997L0.391548 5.52786L6.30718 5.67003L8 0L9.69282 5.67003L15.6085 5.52786L10.739 8.88997L12.7023 14.4721L8 10.88Z" fill="#FF9500"/>
</svg>
