<svg width="20" height="20" viewBox="0 0 20 20" fill="none" xmlns="http://www.w3.org/2000/svg">
<path d="M9.99999 9.884L18.1307 5.44908C17.8721 4.59828 17.3476 3.85278 16.6341 3.322C15.9207 2.79123 15.0559 2.50313 14.1667 2.5H5.83332C4.9441 2.50313 4.0793 2.79123 3.36586 3.322C2.65241 3.85278 2.12791 4.59828 1.86932 5.44908L9.99999 9.884Z" fill="#F55C2A"/>
<path d="M10.3993 11.5649C10.2768 11.6317 10.1396 11.6666 10.0001 11.6666C9.86064 11.6666 9.7234 11.6317 9.60095 11.5649L1.66678 7.23715V13.3333C1.66808 14.438 2.10748 15.497 2.8886 16.2782C3.66972 17.0593 4.72878 17.4987 5.83345 17.5H14.1668C15.2714 17.4987 16.3305 17.0593 17.1116 16.2782C17.8927 15.497 18.3321 14.438 18.3334 13.3333V7.23715L10.3993 11.5649Z" fill="#F55C2A"/>
</svg>
