<svg width="14" height="14" viewBox="0 0 14 14" fill="none" xmlns="http://www.w3.org/2000/svg">
<path d="M13.2962 10.3368L11.2716 8.9223C11.0069 8.73767 10.6975 8.64032 10.3766 8.64032C9.86631 8.64032 9.38734 8.89056 9.09559 9.30927L8.62562 9.98279C7.83796 9.45453 6.95906 8.71692 6.1212 7.87921C5.28349 7.0415 4.54603 6.1626 4.01793 5.37494L4.69114 4.90497C5.03431 4.66602 5.2635 4.30804 5.33628 3.89728C5.40892 3.48682 5.31736 3.07208 5.07811 2.72876L3.66392 0.704224C3.36821 0.28125 2.89106 0.0285645 2.38737 0.0285645C2.21281 0.0285645 2.04161 0.0593872 1.87864 0.119507C1.69355 0.187866 1.52113 0.27179 1.35206 0.377991L1.07252 0.574829C1.00264 0.62915 0.937634 0.68866 0.875378 0.750916C0.534344 1.0918 0.29234 1.52332 0.155773 2.03357C-0.42696 4.21802 1.01667 7.52124 3.748 10.2526C6.0417 12.5463 8.79728 13.9711 10.9392 13.9714H10.9393C11.3061 13.9714 11.6519 13.9287 11.9671 13.8445C12.4774 13.7081 12.9089 13.4661 13.2501 13.1249C13.3121 13.0629 13.3713 12.9979 13.4347 12.9158L13.6317 12.6348C13.728 12.481 13.8118 12.3085 13.8811 12.1221C14.1192 11.4781 13.8788 10.7439 13.2962 10.3368V10.3368Z" fill="#F55C2A"/>
</svg>
