<svg width="32" height="33" viewBox="0 0 32 33" fill="none" xmlns="http://www.w3.org/2000/svg">
<path fill-rule="evenodd" clip-rule="evenodd" d="M26.6667 6.83854H5.33337C4.59699 6.83854 4.00004 7.43549 4.00004 8.17188V24.1719C4.00004 24.9083 4.59699 25.5052 5.33337 25.5052H26.6667C27.4031 25.5052 28 24.9083 28 24.1719V8.17188C28 7.43549 27.4031 6.83854 26.6667 6.83854ZM5.33337 4.17188C3.12424 4.17188 1.33337 5.96273 1.33337 8.17188V24.1719C1.33337 26.381 3.12423 28.1719 5.33337 28.1719H26.6667C28.8758 28.1719 30.6667 26.381 30.6667 24.1719V8.17188C30.6667 5.96273 28.8758 4.17188 26.6667 4.17188H5.33337Z" fill="white"/>
<path d="M7.41076 13.7913C6.73897 13.4405 6.49477 12.6007 6.8737 11.9444C7.23059 11.3262 8.01126 11.0992 8.64397 11.4296L15.9524 16.2459L23.2605 11.4298C23.8932 11.0994 24.6739 11.3264 25.0308 11.9445C25.4097 12.6009 25.1655 13.4407 24.4937 13.7915L16.6438 18.8905C16.4228 19.0059 16.1837 19.0533 15.9509 19.0397C15.7189 19.0528 15.4808 19.0053 15.2606 18.8903L7.41076 13.7913Z" fill="#60646B"/>
</svg>
