<svg width="36" height="37" viewBox="0 0 36 37" fill="none" xmlns="http://www.w3.org/2000/svg">
<g clip-path="url(#clip0_1_3760)">
<path fill-rule="evenodd" clip-rule="evenodd" d="M4.881 31.5996L8.66794 31.1941C9.68614 31.0851 10.6593 31.2951 11.4857 31.7023C13.4467 32.6686 15.6552 33.2131 18 33.2131C26.1518 33.2131 32.76 26.6049 32.76 18.4531C32.76 10.3014 26.1518 3.69313 18 3.69313C9.84828 3.69313 3.24 10.3014 3.24 18.4531C3.24 20.9631 3.86384 23.3176 4.96222 25.3798C5.5007 26.3908 5.73173 27.6223 5.46463 28.8711L4.881 31.5996ZM36 18.4531C36 28.3942 27.9411 36.4531 18 36.4531C15.1476 36.4531 12.4501 35.7897 10.0535 34.6086C9.73068 34.4494 9.37072 34.3773 9.01291 34.4157L2.91585 35.0685C1.91234 35.215 1.04 33.6657 1.33343 32.6949L2.2963 28.1934C2.39012 27.7548 2.31341 27.2988 2.10258 26.9031C0.760551 24.3834 0 21.5071 0 18.4531C0 8.512 8.05887 0.453125 18 0.453125C27.9411 0.453125 36 8.512 36 18.4531Z" fill="#E6E6E6"/>
<path d="M23.0094 9.45312H17.1377C16.8594 9.45312 16.5987 9.64486 16.4855 9.97525L11.7508 18.3094C11.6711 18.6228 11.6711 18.8229 11.8542 19.1397C12.0161 19.3813 12.2274 19.4563 12.4037 19.4563H14.8693L13.1534 26.9013C13.108 27.1089 13.1573 27.2749 13.3194 27.4006C13.4783 27.502 13.6575 27.4507 13.7632 27.2965L24.0974 17.955C24.3459 17.6224 24.3459 17.2723 24.2051 16.9555C24.0834 16.6822 23.8106 16.5388 23.6063 16.5388H19.4958L23.5434 10.807C23.7138 10.5285 23.7561 10.2117 23.5871 9.84492C23.4321 9.55316 23.1845 9.45312 23.0094 9.45312Z" fill="#C568E6"/>
</g>
<defs>
<clipPath id="clip0_1_3760">
<rect width="36" height="36" fill="white" transform="translate(0 0.453125)"/>
</clipPath>
</defs>
</svg>
