<svg width="36" height="37" viewBox="0 0 36 37" fill="none" xmlns="http://www.w3.org/2000/svg">
<path d="M26.2197 28.852C23.9965 30.6893 21.1509 31.7922 18.0494 31.7922C10.9353 31.7922 5.16819 25.9898 5.16819 18.8321C5.16819 18.1652 5.21826 17.51 5.31483 16.8702L6.83041 17.772C7.43462 18.1315 8.17483 17.5951 8.02732 16.9046L6.86967 11.4858C6.77095 11.0238 6.30164 10.7446 5.85163 10.8801L0.57432 12.47C-0.0981483 12.6726 -0.20877 13.5836 0.395447 13.9431L2.37268 15.1196C2.09485 16.3118 1.94789 17.5547 1.94789 18.8321C1.94789 27.7792 9.15677 35.0322 18.0494 35.0322C22.3566 35.0322 26.2689 33.3305 29.1582 30.559L26.2197 28.852Z" fill="#E6E6E6"/>
<path d="M10.3734 8.42359C12.5172 6.82063 15.1732 5.8722 18.0494 5.8722C25.1635 5.8722 30.9306 11.6746 30.9306 18.8322C30.9306 19.291 30.9069 19.7442 30.8607 20.1906L29.095 19.1799C28.4849 18.8306 27.7537 19.3795 27.9127 20.0674L29.1606 25.4658C29.267 25.9262 29.7409 26.1975 30.1886 26.0543L35.4386 24.3755C36.1076 24.1616 36.203 23.2488 35.5929 22.8996L33.861 21.9081C34.0513 20.9123 34.1509 19.884 34.1509 18.8322C34.1509 9.88519 26.942 2.6322 18.0494 2.6322C13.9614 2.6322 10.2293 4.16495 7.38971 6.69041L10.3734 8.42359Z" fill="#E6E6E6"/>
<path d="M19.7932 12.2285C19.7919 11.6659 19.1063 11.4177 18.7651 11.8562L13.6276 18.4582C13.384 18.7712 13.5034 19.2383 13.865 19.3864L16.1838 20.3361L16.1458 25.4298C16.1416 25.9922 16.8245 26.2476 17.1701 25.8128L22.3687 19.2719C22.6152 18.9617 22.5008 18.4936 22.1412 18.3415L19.8049 17.3528L19.7932 12.2285Z" fill="#F8BA4F"/>
</svg>
