<svg width="32" height="32" viewBox="0 0 32 32" fill="none" xmlns="http://www.w3.org/2000/svg">
<g clip-path="url(#clip0_703_597)">
<rect width="32" height="32" fill="url(#paint0_linear_703_597)"/>
<g filter="url(#filter0_d_703_597)">
<path d="M32.2627 -4.06152C31.2982 7.64779 39.3545 14.7953 43.5032 16.9053L27.8953 20.3352L18.6074 0.707898C18.8028 -7.62636 19.1446 -24.4168 18.949 -24.9045C18.7534 -25.3921 38.3808 -25.858 48.2189 -26.0299C43.3021 -23.586 33.2273 -15.7708 32.2627 -4.06152Z" fill="url(#paint1_linear_703_597)"/>
</g>
<g filter="url(#filter1_d_703_597)">
<path d="M19.8839 1.1361C21.8204 12.7244 31.3836 17.6778 35.9231 18.706L21.6329 25.8589L7.81528 9.10873C5.96077 0.981075 2.17443 -15.3804 1.8652 -15.8052C1.55598 -16.23 20.4697 -21.4951 29.9653 -24.0746C25.7979 -20.4995 17.9474 -10.4522 19.8839 1.1361Z" fill="url(#paint2_linear_703_597)"/>
</g>
<g filter="url(#filter2_d_703_597)">
<path d="M13.9258 10.7823C22.3967 18.9238 33.026 17.1896 37.2818 15.3049L30.0864 29.5736L9.00201 24.3827C2.66263 18.9688 -10.1416 8.10199 -10.6432 7.94575C-11.1449 7.78951 0.88697 -7.72454 6.9656 -15.462C5.75615 -10.1062 5.45495 2.64089 13.9258 10.7823Z" fill="url(#paint3_linear_703_597)"/>
</g>
<g filter="url(#filter3_d_703_597)">
<path d="M9.7115 15.8659C18.428 23.7438 28.9992 21.6845 33.1952 19.6701L26.4407 34.1527L5.20706 29.6109C-1.29535 24.3939 -14.4267 13.9248 -14.9329 13.784C-15.4392 13.6432 -3.8887 -2.23246 1.94982 -10.1527C0.905161 -4.76229 0.994982 7.98803 9.7115 15.8659Z" fill="url(#paint4_linear_703_597)"/>
</g>
<g filter="url(#filter4_d_703_597)">
<path d="M11.1896 22.2317C21.9764 26.888 31.3239 21.5387 34.6493 18.2819L32.9108 34.1674L11.3445 36.6951C3.50981 33.8463 -12.2907 28.156 -12.8153 28.1855C-13.3399 28.215 -7.50827 9.4682 -4.52687 0.0911063C-3.78259 5.53114 0.402692 17.5753 11.1896 22.2317Z" fill="url(#paint5_linear_703_597)"/>
</g>
<g filter="url(#filter5_d_703_597)">
<path d="M10.9763 28.041C22.4419 31.6099 31.502 25.3583 34.5988 21.7864L34.3032 37.776L12.4842 42.4273C4.20628 40.366 -12.4831 36.2639 -13.0168 36.3452C-13.5505 36.4264 -9.33602 17.1826 -7.16205 7.55052C-5.89331 12.8936 -0.489416 24.4721 10.9763 28.041Z" fill="url(#paint6_linear_703_597)"/>
</g>
<g filter="url(#filter6_d_703_597)">
<path d="M13.4022 32.4983C24.9999 34.3774 32.7567 26.9059 35.1853 22.9353L37.3816 38.764L17.0869 46.4853C8.79361 45.6375 -7.91841 43.9811 -8.41991 44.1379C-8.9214 44.2947 -7.84788 24.6912 -7.24844 14.8698C-5.1973 19.963 1.80442 30.6192 13.4022 32.4983Z" fill="url(#paint7_linear_703_597)"/>
</g>
<rect x="-14.4" y="-15.2001" width="60.8" height="62.4" fill="url(#paint8_radial_703_597)"/>
<g filter="url(#filter7_dd_703_597)">
<path d="M27.1246 14.3116C27.155 14.2758 27.177 14.2337 27.1891 14.1885C27.2012 14.1433 27.2032 14.096 27.1948 14.0499C26.7018 11.2849 25.1808 8.80443 22.933 7.09994C20.6853 5.39545 17.8747 4.59119 15.0579 4.84646C12.2412 5.10173 9.62376 6.39791 7.72399 8.47827C5.82425 10.5586 4.78075 13.2715 4.80019 16.0794C4.84293 22.1186 9.96843 27.1838 16.0514 27.2C18.5065 27.2063 20.8967 26.4179 22.8599 24.9542C24.823 23.4905 26.252 21.4314 26.9302 19.0889C26.9529 19.0099 26.9445 18.9252 26.9067 18.8521C26.869 18.7789 26.8046 18.7228 26.7267 18.6949L26.2617 18.5232C25.3688 18.2075 24.4146 18.1004 23.4733 18.2102C22.5319 18.3201 21.6288 18.6439 20.834 19.1566C20.1054 19.6274 19.562 20.0284 19.562 20.0284C18.6111 20.6666 17.4892 21.0069 16.3414 21.0053C13.1595 21.0053 10.927 18.4252 10.58 15.2854L10.3307 13.568C10.2931 13.3103 10.1871 13.0672 10.0234 12.8637C9.85976 12.6602 9.64442 12.5037 9.3996 12.4103L8.75345 12.1638C8.72687 12.1537 8.70305 12.1376 8.68383 12.1168C8.66461 12.096 8.65056 12.071 8.64275 12.0439C8.63496 12.0167 8.63364 11.9881 8.6389 11.9604C8.64415 11.9326 8.65585 11.9065 8.67306 11.884C11.3991 8.2694 14.7286 9.05537 14.7286 9.05537C15.2662 9.10639 15.7812 9.29507 16.2234 9.60291C16.816 10.0158 17.2794 10.5861 17.5605 11.2486C18.078 12.427 18.9307 13.4298 20.0139 14.1341C21.0971 14.8385 22.3639 15.2137 23.6587 15.2137C23.6587 15.2137 26.2536 15.3137 27.1246 14.3116Z" fill="white"/>
<path d="M12.0116 11.9004C12.3747 11.9004 12.669 11.6083 12.669 11.2479C12.669 10.8874 12.3747 10.5953 12.0116 10.5953C11.6486 10.5953 11.3542 10.8874 11.3542 11.2479C11.3542 11.6083 11.6486 11.9004 12.0116 11.9004Z" fill="white"/>
<path d="M11.8628 15.033C12.0287 16.0493 12.8347 19.276 16.4422 19.87C16.4533 19.8713 16.4644 19.8687 16.4738 19.8628C16.4832 19.8568 16.4901 19.8478 16.4935 19.8372C16.4969 19.8267 16.4964 19.8153 16.4923 19.8051C16.4881 19.7948 16.4805 19.7863 16.4707 19.7811C15.6352 19.3992 13.4463 18.1445 11.9514 15.0067C11.9465 14.9968 11.9383 14.9889 11.9281 14.9845C11.9179 14.9801 11.9065 14.9794 11.8959 14.9825C11.8852 14.9857 11.876 14.9925 11.87 15.0017C11.8639 15.011 11.8614 15.0221 11.8628 15.033Z" fill="white"/>
</g>
</g>
<defs>
<filter id="filter0_d_703_597" x="15.6074" y="-30.0299" width="35.6116" height="52.3651" filterUnits="userSpaceOnUse" color-interpolation-filters="sRGB">
<feFlood flood-opacity="0" result="BackgroundImageFix"/>
<feColorMatrix in="SourceAlpha" type="matrix" values="0 0 0 0 0 0 0 0 0 0 0 0 0 0 0 0 0 0 127 0" result="hardAlpha"/>
<feOffset dy="-1"/>
<feGaussianBlur stdDeviation="1.5"/>
<feComposite in2="hardAlpha" operator="out"/>
<feColorMatrix type="matrix" values="0 0 0 0 0 0 0 0 0 0 0 0 0 0 0 0 0 0 0.25 0"/>
<feBlend mode="normal" in2="BackgroundImageFix" result="effect1_dropShadow_703_597"/>
<feBlend mode="normal" in="SourceGraphic" in2="effect1_dropShadow_703_597" result="shape"/>
</filter>
<filter id="filter1_d_703_597" x="-1.13855" y="-28.0746" width="40.0616" height="55.9335" filterUnits="userSpaceOnUse" color-interpolation-filters="sRGB">
<feFlood flood-opacity="0" result="BackgroundImageFix"/>
<feColorMatrix in="SourceAlpha" type="matrix" values="0 0 0 0 0 0 0 0 0 0 0 0 0 0 0 0 0 0 127 0" result="hardAlpha"/>
<feOffset dy="-1"/>
<feGaussianBlur stdDeviation="1.5"/>
<feComposite in2="hardAlpha" operator="out"/>
<feColorMatrix type="matrix" values="0 0 0 0 0 0 0 0 0 0 0 0 0 0 0 0 0 0 0.25 0"/>
<feBlend mode="normal" in2="BackgroundImageFix" result="effect1_dropShadow_703_597"/>
<feBlend mode="normal" in="SourceGraphic" in2="effect1_dropShadow_703_597" result="shape"/>
</filter>
<filter id="filter2_d_703_597" x="-13.6584" y="-19.462" width="53.9403" height="51.0355" filterUnits="userSpaceOnUse" color-interpolation-filters="sRGB">
<feFlood flood-opacity="0" result="BackgroundImageFix"/>
<feColorMatrix in="SourceAlpha" type="matrix" values="0 0 0 0 0 0 0 0 0 0 0 0 0 0 0 0 0 0 127 0" result="hardAlpha"/>
<feOffset dy="-1"/>
<feGaussianBlur stdDeviation="1.5"/>
<feComposite in2="hardAlpha" operator="out"/>
<feColorMatrix type="matrix" values="0 0 0 0 0 0 0 0 0 0 0 0 0 0 0 0 0 0 0.25 0"/>
<feBlend mode="normal" in2="BackgroundImageFix" result="effect1_dropShadow_703_597"/>
<feBlend mode="normal" in="SourceGraphic" in2="effect1_dropShadow_703_597" result="shape"/>
</filter>
<filter id="filter3_d_703_597" x="-17.9491" y="-14.1527" width="54.1443" height="50.3055" filterUnits="userSpaceOnUse" color-interpolation-filters="sRGB">
<feFlood flood-opacity="0" result="BackgroundImageFix"/>
<feColorMatrix in="SourceAlpha" type="matrix" values="0 0 0 0 0 0 0 0 0 0 0 0 0 0 0 0 0 0 127 0" result="hardAlpha"/>
<feOffset dy="-1"/>
<feGaussianBlur stdDeviation="1.5"/>
<feComposite in2="hardAlpha" operator="out"/>
<feColorMatrix type="matrix" values="0 0 0 0 0 0 0 0 0 0 0 0 0 0 0 0 0 0 0.25 0"/>
<feBlend mode="normal" in2="BackgroundImageFix" result="effect1_dropShadow_703_597"/>
<feBlend mode="normal" in="SourceGraphic" in2="effect1_dropShadow_703_597" result="shape"/>
</filter>
<filter id="filter4_d_703_597" x="-15.8485" y="-3.90894" width="53.4978" height="42.604" filterUnits="userSpaceOnUse" color-interpolation-filters="sRGB">
<feFlood flood-opacity="0" result="BackgroundImageFix"/>
<feColorMatrix in="SourceAlpha" type="matrix" values="0 0 0 0 0 0 0 0 0 0 0 0 0 0 0 0 0 0 127 0" result="hardAlpha"/>
<feOffset dy="-1"/>
<feGaussianBlur stdDeviation="1.5"/>
<feComposite in2="hardAlpha" operator="out"/>
<feColorMatrix type="matrix" values="0 0 0 0 0 0 0 0 0 0 0 0 0 0 0 0 0 0 0.25 0"/>
<feBlend mode="normal" in2="BackgroundImageFix" result="effect1_dropShadow_703_597"/>
<feBlend mode="normal" in="SourceGraphic" in2="effect1_dropShadow_703_597" result="shape"/>
</filter>
<filter id="filter5_d_703_597" x="-16.0631" y="3.55054" width="53.6619" height="40.8767" filterUnits="userSpaceOnUse" color-interpolation-filters="sRGB">
<feFlood flood-opacity="0" result="BackgroundImageFix"/>
<feColorMatrix in="SourceAlpha" type="matrix" values="0 0 0 0 0 0 0 0 0 0 0 0 0 0 0 0 0 0 127 0" result="hardAlpha"/>
<feOffset dy="-1"/>
<feGaussianBlur stdDeviation="1.5"/>
<feComposite in2="hardAlpha" operator="out"/>
<feColorMatrix type="matrix" values="0 0 0 0 0 0 0 0 0 0 0 0 0 0 0 0 0 0 0.25 0"/>
<feBlend mode="normal" in2="BackgroundImageFix" result="effect1_dropShadow_703_597"/>
<feBlend mode="normal" in="SourceGraphic" in2="effect1_dropShadow_703_597" result="shape"/>
</filter>
<filter id="filter6_d_703_597" x="-11.5496" y="10.8699" width="51.9312" height="37.6155" filterUnits="userSpaceOnUse" color-interpolation-filters="sRGB">
<feFlood flood-opacity="0" result="BackgroundImageFix"/>
<feColorMatrix in="SourceAlpha" type="matrix" values="0 0 0 0 0 0 0 0 0 0 0 0 0 0 0 0 0 0 127 0" result="hardAlpha"/>
<feOffset dy="-1"/>
<feGaussianBlur stdDeviation="1.5"/>
<feComposite in2="hardAlpha" operator="out"/>
<feColorMatrix type="matrix" values="0 0 0 0 0 0 0 0 0 0 0 0 0 0 0 0 0 0 0.25 0"/>
<feBlend mode="normal" in2="BackgroundImageFix" result="effect1_dropShadow_703_597"/>
<feBlend mode="normal" in="SourceGraphic" in2="effect1_dropShadow_703_597" result="shape"/>
</filter>
<filter id="filter7_dd_703_597" x="2.79993" y="4.80005" width="26.4" height="28.3999" filterUnits="userSpaceOnUse" color-interpolation-filters="sRGB">
<feFlood flood-opacity="0" result="BackgroundImageFix"/>
<feColorMatrix in="SourceAlpha" type="matrix" values="0 0 0 0 0 0 0 0 0 0 0 0 0 0 0 0 0 0 127 0" result="hardAlpha"/>
<feMorphology radius="2" operator="erode" in="SourceAlpha" result="effect1_dropShadow_703_597"/>
<feOffset dy="4"/>
<feGaussianBlur stdDeviation="2"/>
<feColorMatrix type="matrix" values="0 0 0 0 0.0941176 0 0 0 0 0.152941 0 0 0 0 0.294118 0 0 0 0.08 0"/>
<feBlend mode="normal" in2="BackgroundImageFix" result="effect1_dropShadow_703_597"/>
<feColorMatrix in="SourceAlpha" type="matrix" values="0 0 0 0 0 0 0 0 0 0 0 0 0 0 0 0 0 0 127 0" result="hardAlpha"/>
<feMorphology radius="2" operator="erode" in="SourceAlpha" result="effect2_dropShadow_703_597"/>
<feOffset dy="2"/>
<feGaussianBlur stdDeviation="2"/>
<feColorMatrix type="matrix" values="0 0 0 0 0.0941176 0 0 0 0 0.152941 0 0 0 0 0.294118 0 0 0 0.12 0"/>
<feBlend mode="normal" in2="effect1_dropShadow_703_597" result="effect2_dropShadow_703_597"/>
<feBlend mode="normal" in="SourceGraphic" in2="effect2_dropShadow_703_597" result="shape"/>
</filter>
<linearGradient id="paint0_linear_703_597" x1="21.1064" y1="1.02128" x2="7.48936" y2="32.3404" gradientUnits="userSpaceOnUse">
<stop stop-color="#FDFBFC"/>
<stop offset="1" stop-color="#F0F0F0"/>
</linearGradient>
<linearGradient id="paint1_linear_703_597" x1="24.9302" y1="-8.20119" x2="31.2334" y2="16.4236" gradientUnits="userSpaceOnUse">
<stop stop-color="#FF9696"/>
<stop offset="1" stop-color="#EB64AF"/>
</linearGradient>
<linearGradient id="paint2_linear_703_597" x1="6.95746" y1="-7.99968" x2="32.7019" y2="18.9674" gradientUnits="userSpaceOnUse">
<stop offset="0.0302586" stop-color="#FF828F"/>
<stop offset="1" stop-color="#EA63B1"/>
</linearGradient>
<linearGradient id="paint3_linear_703_597" x1="3.6" y1="-1.60002" x2="30.8" y2="20.4" gradientUnits="userSpaceOnUse">
<stop stop-color="#FF7C95"/>
<stop offset="1" stop-color="#F2699F"/>
</linearGradient>
<linearGradient id="paint4_linear_703_597" x1="-0.0903826" y1="2.76558" x2="19.8198" y2="30.5468" gradientUnits="userSpaceOnUse">
<stop stop-color="#FF7596"/>
<stop offset="1" stop-color="#CA43DD"/>
</linearGradient>
<linearGradient id="paint5_linear_703_597" x1="24.603" y1="22.3923" x2="-14.8784" y2="9.46136" gradientUnits="userSpaceOnUse">
<stop stop-color="#D350E6"/>
<stop offset="1" stop-color="#FA6F8B"/>
</linearGradient>
<linearGradient id="paint6_linear_703_597" x1="26.2259" y1="30.374" x2="-10.4069" y2="15.3785" gradientUnits="userSpaceOnUse">
<stop stop-color="#C63ED9"/>
<stop offset="1" stop-color="#D856EB"/>
</linearGradient>
<linearGradient id="paint7_linear_703_597" x1="27.6667" y1="30.4362" x2="-8.71238" y2="31.0832" gradientUnits="userSpaceOnUse">
<stop stop-color="#A11EB4"/>
<stop offset="1" stop-color="#CC60DB"/>
</linearGradient>
<radialGradient id="paint8_radial_703_597" cx="0" cy="0" r="1" gradientUnits="userSpaceOnUse" gradientTransform="translate(44.3272 45.8133) rotate(-132.68) scale(63.1891 61.7678)">
<stop stop-color="#0085FF"/>
<stop offset="0.971481" stop-color="#0085FF" stop-opacity="0"/>
</radialGradient>
<clipPath id="clip0_703_597">
<rect width="32" height="32" fill="white"/>
</clipPath>
</defs>
</svg>
