<svg width="620" height="714" viewBox="0 0 620 714" fill="none" xmlns="http://www.w3.org/2000/svg">
<path d="M509.418 114.746L420.82 165.808V63.6847L309.572 0L0 178.431V305.8L88.5986 356.767L0 407.734V535.103L309.572 713.534L420.154 649.85V547.821L509.418 598.788L620 535.008V178.431L509.418 114.746ZM384.752 186.214L309.572 229.398L238.769 188.681L384.752 105.255V186.214ZM366.671 73.935L167.681 188.681L309.572 270.494L509.418 155.748L566.517 188.681L309.572 336.267L53.5779 188.681L309.572 41.0961L366.671 73.935ZM199.18 420.452V501.885L53.5779 418.459L124.285 377.647L199.18 420.452ZM35.6869 448.925L234.867 563.671V399.951L35.6869 285.585V219.148L291.966 367.018V662.188L35.6869 514.603V448.925ZM491.147 547.537L420.439 506.725V420.452L491.147 379.735V547.537ZM526.833 547.537V318.139L384.752 399.951V629.349L327.653 662.188V367.018L583.932 219.148V514.318L526.833 547.537Z" fill="white" fill-opacity="0.1"/>
</svg>
