<svg width="33" height="33" viewBox="0 0 33 33" fill="none" xmlns="http://www.w3.org/2000/svg">
<g clip-path="url(#clip0_1_2945)">
<path fill-rule="evenodd" clip-rule="evenodd" d="M23.4985 25.1719C23.7978 24.9157 24.0052 24.5438 24.0052 24.1719C24.0052 22.8386 25.3386 20.1719 26.6512 18.8386C27.9638 17.5052 28.6719 14.6388 28.6719 12.1719C28.6719 5.54446 23.2993 0.171875 16.6719 0.171875C10.0445 0.171875 4.67188 5.54446 4.67188 12.1719C4.67188 14.6388 5.38001 17.5052 6.69261 18.8386C8.00521 20.1719 9.33854 22.8386 9.33854 24.1719C9.33854 24.5438 9.54603 24.9157 9.84525 25.1719C10.0824 25.3749 10.3771 25.5052 10.6719 25.5052H22.6719C22.9667 25.5052 23.2614 25.3749 23.4985 25.1719ZM12.6925 28.5052C12.8566 29.8207 13.9787 30.8386 15.3386 30.8386H18.0052C19.3651 30.8386 20.4872 29.8207 20.6513 28.5052C20.6649 28.396 20.6719 28.2848 20.6719 28.1719H12.6719C12.6719 28.2848 12.6789 28.396 12.6925 28.5052ZM12.0997 22.5052C11.8742 21.6504 11.5224 20.8297 11.1939 20.1692C10.6051 18.9855 9.7756 17.694 8.83049 16.7339C8.67634 16.5773 8.3517 16.0743 8.07417 15.1047C7.81398 14.1957 7.67188 13.1413 7.67188 12.1719C7.67188 7.20131 11.7013 3.17188 16.6719 3.17188C21.6425 3.17188 25.6719 7.20131 25.6719 12.1719C25.6719 13.1413 25.5298 14.1957 25.2696 15.1047C24.9921 16.0743 24.6674 16.5773 24.5133 16.7339C23.5682 17.694 22.7387 18.9855 22.1499 20.1692C21.8214 20.8297 21.4696 21.6504 21.2441 22.5052H12.0997Z" fill="#7C7C7C"/>
<path fill-rule="evenodd" clip-rule="evenodd" d="M16.0072 6.40253C16.292 7.08161 15.9723 7.86298 15.2932 8.14775C13.849 8.7534 12.8386 10.1796 12.8386 11.8387C12.8386 12.5751 12.2416 13.172 11.5052 13.172C10.7689 13.172 10.1719 12.5751 10.1719 11.8387C10.1719 9.06797 11.8618 6.69505 14.262 5.68856C14.941 5.40379 15.7224 5.72344 16.0072 6.40253Z" fill="#C568E5"/>
</g>
<defs>
<clipPath id="clip0_1_2945">
<rect width="32" height="32" fill="white" transform="translate(0.671875 0.171875)"/>
</clipPath>
</defs>
</svg>
