<svg width="45" height="44" viewBox="0 0 45 44" fill="none" xmlns="http://www.w3.org/2000/svg">
<rect x="1" y="0.5" width="43" height="43" rx="21.5" stroke="#262626"/>
<path fill-rule="evenodd" clip-rule="evenodd" d="M30.9 22.0001C30.9 22.4971 30.497 22.9001 30 22.9001L17.2345 22.9L22.2238 27.6513C22.5821 27.9958 22.5933 28.5656 22.2487 28.9238C21.9042 29.2821 21.3345 29.2933 20.9762 28.9488L14.3762 22.6488C14.1997 22.4791 14.1 22.2449 14.1 22C14.1 21.7552 14.1997 21.521 14.3762 21.3513L20.9762 15.0513C21.3345 14.7068 21.9042 14.718 22.2487 15.0763C22.5933 15.4345 22.5821 16.0043 22.2238 16.3488L17.2345 21.1L30 21.1001C30.497 21.1001 30.9 21.503 30.9 22.0001Z" fill="#808080"/>
</svg>
