<svg width="45" height="44" viewBox="0 0 45 44" fill="none" xmlns="http://www.w3.org/2000/svg">
<rect x="1" y="0.5" width="43" height="43" rx="21.5" fill="#1A1A1A"/>
<rect x="1" y="0.5" width="43" height="43" rx="21.5" stroke="#262626"/>
<path fill-rule="evenodd" clip-rule="evenodd" d="M14.1 21.9999C14.1 21.5029 14.5029 21.0999 15 21.0999L27.7655 21.0999L22.7762 16.3487C22.4179 16.0042 22.4067 15.4344 22.7513 15.0762C23.0958 14.7179 23.6655 14.7067 24.0238 15.0512L30.6238 21.3512C30.8003 21.5209 30.9 21.7551 30.9 21.9999C30.9 22.2448 30.8003 22.479 30.6238 22.6487L24.0238 28.9487C23.6655 29.2932 23.0958 29.282 22.7513 28.9237C22.4067 28.5655 22.4179 27.9957 22.7762 27.6512L27.7655 22.8999L15 22.8999C14.5029 22.8999 14.1 22.497 14.1 21.9999Z" fill="white"/>
</svg>
