<svg width="25" height="25" viewBox="0 0 25 25" fill="none" xmlns="http://www.w3.org/2000/svg">
<mask id="mask0_1_1310" style="mask-type:luminance" maskUnits="userSpaceOnUse" x="0" y="0" width="25" height="25">
<path d="M24.4062 0.140625H0.40625V24.1406H24.4062V0.140625Z" fill="white"/>
</mask>
<g mask="url(#mask0_1_1310)">
<g opacity="0.9">
<path d="M12.4062 18.2647C11.2063 18.2647 10.089 17.9337 9.09589 17.2717C8.1028 16.6095 7.35796 15.782 6.86141 14.7475L1.89589 6.14062C0.861406 8.00269 0.40625 10.0303 0.40625 12.1406C0.40625 15.1613 1.39934 17.7681 3.34419 20.0027C5.28903 22.2372 7.73038 23.5613 10.627 24.0165L14.1028 17.9751C13.7717 18.0992 13.1511 18.2647 12.4062 18.2647Z" fill="#16161A"/>
<path d="M8.64076 7.17511C9.75797 6.30614 10.9994 5.93372 12.4062 5.93372H22.7097C21.6339 4.11304 20.1856 2.78887 18.3649 1.75439C16.5442 0.678562 14.558 0.140625 12.4062 0.140625C10.5442 0.140625 8.76487 0.554438 7.15111 1.34063C5.53735 2.12682 4.00627 3.28547 2.93039 4.77511L6.40627 10.4855C6.73731 9.1613 7.52349 8.04408 8.64076 7.17511Z" fill="#16161A"/>
<path d="M23.4959 7.63037H16.5442C17.7442 8.83037 18.5717 10.4028 18.5717 12.1407C18.5717 13.4235 18.1994 14.5821 17.4959 15.6579L12.5305 24.1407C15.7994 24.0993 18.6131 22.9407 20.9305 20.5821C23.2477 18.2235 24.4063 15.4097 24.4063 12.1407C24.4063 10.6097 24.158 8.99589 23.4959 7.63037Z" fill="#16161A"/>
<path d="M12.4062 7.58887C14.8891 7.58887 16.958 9.65784 16.958 12.1406C16.958 14.6233 14.8891 16.6923 12.4062 16.6923C9.92347 16.6923 7.85455 14.6234 7.85455 12.1406C7.85455 9.65779 9.92347 7.58887 12.4062 7.58887Z" fill="#16161A"/>
</g>
</g>
</svg>
