<svg width="32" height="33" viewBox="0 0 32 33" fill="none" xmlns="http://www.w3.org/2000/svg">
<path d="M1.56498 15.4648L7.85788 9.17188L9.9792 11.2932L5.10052 16.1719L10.0503 21.1217L7.92895 23.243L1.56498 16.879C1.17446 16.4885 1.17446 15.8553 1.56498 15.4648Z" fill="white" fill-opacity="0.4"/>
<path d="M24.0711 23.243L30.435 16.879C30.8256 16.4885 30.8256 15.8553 30.435 15.4648L24.1421 9.17188L22.0208 11.2932L26.8995 16.1719L21.9497 21.1217L24.0711 23.243Z" fill="white" fill-opacity="0.4"/>
<path d="M19.33 10.3367C19.5445 9.53648 19.0696 8.71397 18.2694 8.49956C17.4692 8.28514 16.6467 8.76002 16.4323 9.56022L13.1152 21.9396C12.9008 22.7398 13.3757 23.5623 14.1759 23.7767C14.9761 23.9912 15.7986 23.5163 16.013 22.7161L19.33 10.3367Z" fill="#C568E5"/>
</svg>
