<svg width="38" height="37" viewBox="0 0 38 37" fill="none" xmlns="http://www.w3.org/2000/svg">
<path d="M19.2078 28.25H25.5165L23.7438 26.4938C23.5057 26.2578 23.3169 25.9778 23.1881 25.6696C23.0593 25.3614 22.993 25.0311 22.9931 24.6975V20.75C22.9932 19.1987 22.508 17.6854 21.6042 16.4186C20.7003 15.1518 19.4223 14.1937 17.9461 13.6762V13.25C17.9461 12.587 17.6802 11.9511 17.207 11.4822C16.7338 11.0134 16.0919 10.75 15.4226 10.75C14.7534 10.75 14.1115 11.0134 13.6383 11.4822C13.165 11.9511 12.8992 12.587 12.8992 13.25V13.6762C9.95931 14.7063 7.85221 17.485 7.85221 20.75V24.6988C7.85221 25.3713 7.5822 26.0175 7.10148 26.4938L5.32874 28.25H11.6374M19.2078 28.25V29.5C19.2078 30.4946 18.809 31.4484 18.0992 32.1517C17.3893 32.8549 16.4265 33.25 15.4226 33.25C14.4187 33.25 13.4559 32.8549 12.7461 32.1517C12.0362 31.4484 11.6374 30.4946 11.6374 29.5V28.25M19.2078 28.25H11.6374H19.2078Z" fill="#FFF9F8"/>
<path d="M19.2078 28.25H25.5165L23.7438 26.4938C23.5057 26.2578 23.3169 25.9778 23.1881 25.6696C23.0593 25.3614 22.993 25.0311 22.9931 24.6975V20.75C22.9932 19.1987 22.508 17.6854 21.6042 16.4186C20.7003 15.1518 19.4223 14.1937 17.9461 13.6763V13.25C17.9461 12.587 17.6802 11.9511 17.207 11.4822C16.7338 11.0134 16.0919 10.75 15.4226 10.75C14.7534 10.75 14.1115 11.0134 13.6383 11.4822C13.165 11.9511 12.8992 12.587 12.8992 13.25V13.6763C9.95931 14.7063 7.85221 17.485 7.85221 20.75V24.6988C7.85221 25.3713 7.5822 26.0175 7.10148 26.4938L5.32874 28.25H11.6374M19.2078 28.25V29.5C19.2078 30.4946 18.809 31.4484 18.0992 32.1517C17.3893 32.8549 16.4265 33.25 15.4226 33.25C14.4187 33.25 13.4559 32.8549 12.7461 32.1517C12.0362 31.4484 11.6374 30.4946 11.6374 29.5V28.25M19.2078 28.25H11.6374" stroke="#0D0C0A" stroke-linecap="round" stroke-linejoin="round"/>
<circle cx="25.9132" cy="11.5" r="11.5" fill="#631AFF"/>
</svg>
