<svg width="20" height="20" viewBox="0 0 20 20" fill="none" xmlns="http://www.w3.org/2000/svg">
<path d="M19.7994 8.49246C19.8496 8.44221 19.8999 8.34171 19.8496 8.24121C19.0456 3.56785 14.925 0 10.0004 0C4.47278 0 -0.0498364 4.52261 0.000414751 10.0502C0.0506659 15.4271 4.5733 19.9497 9.95018 20C14.523 20 18.3924 16.9347 19.5984 12.7638C19.6486 12.6131 19.5481 12.4623 19.3974 12.4121L18.9954 12.2613C17.3874 11.7085 15.6285 11.9095 14.1713 12.8141C13.518 13.2161 13.0657 13.5678 13.0657 13.5678C12.2617 14.1206 11.2567 14.4221 10.2014 14.4221C7.38737 14.4221 5.42756 12.1105 5.0758 9.29647L4.87479 7.7387C4.82454 7.28644 4.47279 6.88444 4.07078 6.68343L3.518 6.48242C3.4175 6.43217 3.36726 6.33166 3.46776 6.23116C5.87982 3.01508 8.84464 3.7186 8.84464 3.7186C9.34716 3.76885 9.79941 3.96986 10.1512 4.22111C10.7039 4.57287 11.0557 5.12565 11.3572 5.67841C12.2617 7.73871 14.322 9.19599 16.7843 9.19599C16.7341 9.2965 19.0456 9.34673 19.7994 8.49246Z" fill="#B1B0CF"/>
<path d="M6.18133 6.08041C6.51436 6.08041 6.78432 5.81043 6.78432 5.47739C6.78432 5.14435 6.51436 4.87437 6.18133 4.87437C5.84829 4.87437 5.57831 5.14435 5.57831 5.47739C5.57831 5.81043 5.84829 6.08041 6.18133 6.08041Z" fill="#B1B0CF"/>
<path d="M6.28184 9.14576C6.43259 10.0503 7.13613 12.9146 10.3522 13.4674C10.4025 13.4674 10.4024 13.4171 10.4024 13.3669C9.64868 13.0151 7.73913 11.9096 6.38235 9.09552C6.3321 9.04527 6.28184 9.09551 6.28184 9.14576Z" fill="#B1B0CF"/>
</svg>
