<svg width="348" height="261" viewBox="0 0 348 261" fill="none" xmlns="http://www.w3.org/2000/svg">
<g opacity="0.406997">
<path d="M308 228.141C308 223.722 311.582 220.141 316 220.141H340C344.418 220.141 348 223.722 348 228.141V252.141C348 256.559 344.418 260.141 340 260.141H316C311.582 260.141 308 256.559 308 252.141V228.141Z" fill="white" fill-opacity="0.12"/>
</g>
<g opacity="0.01">
<path d="M264 228.141C264 223.722 267.582 220.141 272 220.141H296C300.418 220.141 304 223.722 304 228.141V252.141C304 256.559 300.418 260.141 296 260.141H272C267.582 260.141 264 256.559 264 252.141V228.141Z" fill="white" fill-opacity="0.12"/>
</g>
<g opacity="0.870639">
<path d="M220 228.141C220 223.722 223.582 220.141 228 220.141H252C256.418 220.141 260 223.722 260 228.141V252.141C260 256.559 256.418 260.141 252 260.141H228C223.582 260.141 220 256.559 220 252.141V228.141Z" fill="white" fill-opacity="0.12"/>
</g>
<g opacity="0.550602">
<path d="M176 228.141C176 223.722 179.582 220.141 184 220.141H208C212.418 220.141 216 223.722 216 228.141V252.141C216 256.559 212.418 260.141 208 260.141H184C179.582 260.141 176 256.559 176 252.141V228.141Z" fill="white" fill-opacity="0.12"/>
</g>
<g opacity="0.597494">
<path d="M132 228.141C132 223.722 135.582 220.141 140 220.141H164C168.418 220.141 172 223.722 172 228.141V252.141C172 256.559 168.418 260.141 164 260.141H140C135.582 260.141 132 256.559 132 252.141V228.141Z" fill="white" fill-opacity="0.12"/>
</g>
<g opacity="0.713385">
<path d="M44 228.141C44 223.722 47.5817 220.141 52 220.141H76C80.4183 220.141 84 223.722 84 228.141V252.141C84 256.559 80.4183 260.141 76 260.141H52C47.5817 260.141 44 256.559 44 252.141V228.141Z" fill="white" fill-opacity="0.12"/>
</g>
<g opacity="0.63104">
<path d="M308 184.141C308 179.722 311.582 176.141 316 176.141H340C344.418 176.141 348 179.722 348 184.141V208.141C348 212.559 344.418 216.141 340 216.141H316C311.582 216.141 308 212.559 308 208.141V184.141Z" fill="white" fill-opacity="0.12"/>
</g>
<g opacity="0.428746">
<path d="M264 184.141C264 179.722 267.582 176.141 272 176.141H296C300.418 176.141 304 179.722 304 184.141V208.141C304 212.559 300.418 216.141 296 216.141H272C267.582 216.141 264 212.559 264 208.141V184.141Z" fill="white" fill-opacity="0.12"/>
</g>
<g opacity="0.339668">
<path d="M132 184.141C132 179.722 135.582 176.141 140 176.141H164C168.418 176.141 172 179.722 172 184.141V208.141C172 212.559 168.418 216.141 164 216.141H140C135.582 216.141 132 212.559 132 208.141V184.141Z" fill="white" fill-opacity="0.12"/>
</g>
<g opacity="0.032285">
<path d="M88 184.141C88 179.722 91.5817 176.141 96 176.141H120C124.418 176.141 128 179.722 128 184.141V208.141C128 212.559 124.418 216.141 120 216.141H96C91.5817 216.141 88 212.559 88 208.141V184.141Z" fill="white" fill-opacity="0.12"/>
</g>
<g opacity="0.115114">
<path d="M44 184.141C44 179.722 47.5817 176.141 52 176.141H76C80.4183 176.141 84 179.722 84 184.141V208.141C84 212.559 80.4183 216.141 76 216.141H52C47.5817 216.141 44 212.559 44 208.141V184.141Z" fill="white" fill-opacity="0.12"/>
</g>
<g opacity="0.753539">
<path d="M0 184.141C0 179.722 3.58172 176.141 8 176.141H32C36.4183 176.141 40 179.722 40 184.141V208.141C40 212.559 36.4183 216.141 32 216.141H8C3.58172 216.141 0 212.559 0 208.141V184.141Z" fill="white" fill-opacity="0.12"/>
</g>
<g opacity="0.970147">
<path d="M176 140.141C176 135.722 179.582 132.141 184 132.141H208C212.418 132.141 216 135.722 216 140.141V164.141C216 168.559 212.418 172.141 208 172.141H184C179.582 172.141 176 168.559 176 164.141V140.141Z" fill="white" fill-opacity="0.12"/>
</g>
<g opacity="0.795098">
<path d="M132 140.141C132 135.722 135.582 132.141 140 132.141H164C168.418 132.141 172 135.722 172 140.141V164.141C172 168.559 168.418 172.141 164 172.141H140C135.582 172.141 132 168.559 132 164.141V140.141Z" fill="white" fill-opacity="0.12"/>
</g>
<g opacity="0.380384">
<path d="M88 140.141C88 135.722 91.5817 132.141 96 132.141H120C124.418 132.141 128 135.722 128 140.141V164.141C128 168.559 124.418 172.141 120 172.141H96C91.5817 172.141 88 168.559 88 164.141V140.141Z" fill="white" fill-opacity="0.12"/>
</g>
<g opacity="0.01">
<path d="M44 140.141C44 135.722 47.5817 132.141 52 132.141H76C80.4183 132.141 84 135.722 84 140.141V164.141C84 168.559 80.4183 172.141 76 172.141H52C47.5817 172.141 44 168.559 44 164.141V140.141Z" fill="white" fill-opacity="0.12"/>
</g>
<g opacity="0.920591">
<path d="M0 140.141C0 135.722 3.58172 132.141 8 132.141H32C36.4183 132.141 40 135.722 40 140.141V164.141C40 168.559 36.4183 172.141 32 172.141H8C3.58172 172.141 0 168.559 0 164.141V140.141Z" fill="white" fill-opacity="0.12"/>
</g>
<g opacity="0.175989">
<path d="M176 96.1406C176 91.7223 179.582 88.1406 184 88.1406H208C212.418 88.1406 216 91.7223 216 96.1406V120.141C216 124.559 212.418 128.141 208 128.141H184C179.582 128.141 176 124.559 176 120.141V96.1406Z" fill="white" fill-opacity="0.12"/>
</g>
<g opacity="0.163747">
<path d="M132 96.1406C132 91.7223 135.582 88.1406 140 88.1406H164C168.418 88.1406 172 91.7223 172 96.1406V120.141C172 124.559 168.418 128.141 164 128.141H140C135.582 128.141 132 124.559 132 120.141V96.1406Z" fill="white" fill-opacity="0.12"/>
</g>
<g opacity="0.127446">
<path d="M88 96.1406C88 91.7223 91.5817 88.1406 96 88.1406H120C124.418 88.1406 128 91.7223 128 96.1406V120.141C128 124.559 124.418 128.141 120 128.141H96C91.5817 128.141 88 124.559 88 120.141V96.1406Z" fill="white" fill-opacity="0.12"/>
</g>
<g opacity="0.105189">
<path d="M44 96.1406C44 91.7223 47.5817 88.1406 52 88.1406H76C80.4183 88.1406 84 91.7223 84 96.1406V120.141C84 124.559 80.4183 128.141 76 128.141H52C47.5817 128.141 44 124.559 44 120.141V96.1406Z" fill="white" fill-opacity="0.12"/>
</g>
<g opacity="0.613539">
<path d="M0 96.1406C0 91.7223 3.58172 88.1406 8 88.1406H32C36.4183 88.1406 40 91.7223 40 96.1406V120.141C40 124.559 36.4183 128.141 32 128.141H8C3.58172 128.141 0 124.559 0 120.141V96.1406Z" fill="white" fill-opacity="0.12"/>
</g>
<g opacity="0.115307">
<path d="M220 52.1406C220 47.7223 223.582 44.1406 228 44.1406H252C256.418 44.1406 260 47.7223 260 52.1406V76.1406C260 80.5589 256.418 84.1406 252 84.1406H228C223.582 84.1406 220 80.5589 220 76.1406V52.1406Z" fill="white" fill-opacity="0.12"/>
</g>
<g opacity="0.0289743">
<path d="M176 52.1406C176 47.7223 179.582 44.1406 184 44.1406H208C212.418 44.1406 216 47.7223 216 52.1406V76.1406C216 80.5589 212.418 84.1406 208 84.1406H184C179.582 84.1406 176 80.5589 176 76.1406V52.1406Z" fill="white" fill-opacity="0.12"/>
</g>
<g opacity="0.283677">
<path d="M132 52.1406C132 47.7223 135.582 44.1406 140 44.1406H164C168.418 44.1406 172 47.7223 172 52.1406V76.1406C172 80.5589 168.418 84.1406 164 84.1406H140C135.582 84.1406 132 80.5589 132 76.1406V52.1406Z" fill="white" fill-opacity="0.12"/>
</g>
<g opacity="0.610042">
<path d="M88 52.1406C88 47.7223 91.5817 44.1406 96 44.1406H120C124.418 44.1406 128 47.7223 128 52.1406V76.1406C128 80.5589 124.418 84.1406 120 84.1406H96C91.5817 84.1406 88 80.5589 88 76.1406V52.1406Z" fill="white" fill-opacity="0.12"/>
</g>
<g opacity="0.538233">
<path d="M44 52.1406C44 47.7223 47.5817 44.1406 52 44.1406H76C80.4183 44.1406 84 47.7223 84 52.1406V76.1406C84 80.5589 80.4183 84.1406 76 84.1406H52C47.5817 84.1406 44 80.5589 44 76.1406V52.1406Z" fill="white" fill-opacity="0.12"/>
</g>
<g opacity="0.6292">
<path d="M0 52.1406C0 47.7223 3.58172 44.1406 8 44.1406H32C36.4183 44.1406 40 47.7223 40 52.1406V76.1406C40 80.5589 36.4183 84.1406 32 84.1406H8C3.58172 84.1406 0 80.5589 0 76.1406V52.1406Z" fill="white" fill-opacity="0.12"/>
</g>
<g opacity="0.416315">
<path d="M308 8.14062C308 3.72235 311.582 0.140625 316 0.140625H340C344.418 0.140625 348 3.72235 348 8.14062V32.1406C348 36.5589 344.418 40.1406 340 40.1406H316C311.582 40.1406 308 36.5589 308 32.1406V8.14062Z" fill="white" fill-opacity="0.12"/>
</g>
<g opacity="0.0642537">
<path d="M264 8.14062C264 3.72235 267.582 0.140625 272 0.140625H296C300.418 0.140625 304 3.72235 304 8.14062V32.1406C304 36.5589 300.418 40.1406 296 40.1406H272C267.582 40.1406 264 36.5589 264 32.1406V8.14062Z" fill="white" fill-opacity="0.12"/>
</g>
<g opacity="0.925682">
<path d="M220 8.14062C220 3.72235 223.582 0.140625 228 0.140625H252C256.418 0.140625 260 3.72235 260 8.14062V32.1406C260 36.5589 256.418 40.1406 252 40.1406H228C223.582 40.1406 220 36.5589 220 32.1406V8.14062Z" fill="white" fill-opacity="0.12"/>
</g>
<g opacity="0.151291">
<path d="M176 8.14062C176 3.72235 179.582 0.140625 184 0.140625H208C212.418 0.140625 216 3.72235 216 8.14062V32.1406C216 36.5589 212.418 40.1406 208 40.1406H184C179.582 40.1406 176 36.5589 176 32.1406V8.14062Z" fill="white" fill-opacity="0.12"/>
</g>
<g opacity="0.729212">
<path d="M132 8.14062C132 3.72235 135.582 0.140625 140 0.140625H164C168.418 0.140625 172 3.72235 172 8.14062V32.1406C172 36.5589 168.418 40.1406 164 40.1406H140C135.582 40.1406 132 36.5589 132 32.1406V8.14062Z" fill="white" fill-opacity="0.12"/>
</g>
<g opacity="0.284549">
<path d="M44 8.14062C44 3.72235 47.5817 0.140625 52 0.140625H76C80.4183 0.140625 84 3.72235 84 8.14062V32.1406C84 36.5589 80.4183 40.1406 76 40.1406H52C47.5817 40.1406 44 36.5589 44 32.1406V8.14062Z" fill="white" fill-opacity="0.12"/>
</g>
</svg>
