<svg width="237" height="224" viewBox="0 0 237 224" fill="none" xmlns="http://www.w3.org/2000/svg">
<g clip-path="url(#clip0_1_3062)">
<path d="M74.1813 137.174L105.567 105.788L116.147 116.369L91.8148 140.701L116.502 165.388L105.921 175.968L74.1813 144.228C72.2336 142.28 72.2336 139.122 74.1813 137.174Z" fill="white" fill-opacity="0.1"/>
<path d="M186.431 175.968L218.171 144.228C220.118 142.28 220.118 139.122 218.171 137.174L186.785 105.788L176.205 116.369L200.537 140.701L175.85 165.388L186.431 175.968Z" fill="white" fill-opacity="0.1"/>
<path d="M162.918 103.887L152.072 100.981C151.076 100.714 150.052 101.305 149.786 102.301L130.336 174.891C130.069 175.887 130.66 176.91 131.655 177.177L142.502 180.083C143.498 180.35 144.521 179.759 144.788 178.763L164.238 106.174C164.505 105.178 163.914 104.154 162.918 103.887Z" fill="#5F2274"/>
<g filter="url(#filter0_d_1_3062)">
<path fill-rule="evenodd" clip-rule="evenodd" d="M205.496 219.155C189.006 231.643 168.457 239.052 146.176 239.052C91.8588 239.052 47.826 195.019 47.826 140.701C47.826 118.42 55.2347 97.8706 67.7228 81.38L205.496 219.155ZM228.045 195.221L91.6576 58.8309C107.262 48.419 126.01 42.3496 146.176 42.3496C200.493 42.3496 244.526 86.383 244.526 140.701C244.526 160.867 238.457 179.616 228.045 195.221ZM277.309 140.701C277.309 213.125 218.599 271.836 146.176 271.836C73.7531 271.836 15.0427 213.125 15.0427 140.701C15.0427 68.277 73.7531 9.56577 146.176 9.56577C218.599 9.56577 277.309 68.277 277.309 140.701Z" fill="url(#paint0_linear_1_3062)"/>
</g>
</g>
<defs>
<filter id="filter0_d_1_3062" x="-0.957291" y="-0.434235" width="294.267" height="294.27" filterUnits="userSpaceOnUse" color-interpolation-filters="sRGB">
<feFlood flood-opacity="0" result="BackgroundImageFix"/>
<feColorMatrix in="SourceAlpha" type="matrix" values="0 0 0 0 0 0 0 0 0 0 0 0 0 0 0 0 0 0 127 0" result="hardAlpha"/>
<feOffset dy="6"/>
<feGaussianBlur stdDeviation="8"/>
<feComposite in2="hardAlpha" operator="out"/>
<feColorMatrix type="matrix" values="0 0 0 0 0 0 0 0 0 0 0 0 0 0 0 0 0 0 0.3 0"/>
<feBlend mode="normal" in2="BackgroundImageFix" result="effect1_dropShadow_1_3062"/>
<feBlend mode="normal" in="SourceGraphic" in2="effect1_dropShadow_1_3062" result="shape"/>
</filter>
<linearGradient id="paint0_linear_1_3062" x1="15.0427" y1="9.56577" x2="239.979" y2="238.232" gradientUnits="userSpaceOnUse">
<stop stop-color="white" stop-opacity="0.12"/>
<stop offset="0.3" stop-color="white" stop-opacity="0.06"/>
<stop offset="1" stop-color="white" stop-opacity="0.02"/>
</linearGradient>
<clipPath id="clip0_1_3062">
<rect width="252" height="237.07" fill="white" transform="translate(0.109375 0.2323)"/>
</clipPath>
</defs>
</svg>
