<svg width="564" height="323" viewBox="0 0 564 323" fill="none" xmlns="http://www.w3.org/2000/svg">
<path d="M24 0.671875H539.19C552.169 0.672139 562.69 11.1933 562.69 24.1719V298.832C562.69 311.811 552.169 322.332 539.19 322.332H24C11.0214 322.332 0.500082 311.811 0.5 298.832V24.1719C0.5 11.1932 11.0213 0.671875 24 0.671875Z" stroke="#222222"/>
<g clip-path="url(#clip0_1_2603)">
<g clip-path="url(#clip1_1_2603)">
<g clip-path="url(#clip2_1_2603)">
<g filter="url(#filter0_d_1_2603)">
<path d="M218.305 59.5666C218.305 53.1303 218.305 49.9122 219.557 47.4538C220.659 45.2915 222.417 43.5333 224.579 42.4315C227.038 41.179 230.255 41.179 236.692 41.179H332.075C338.511 41.179 341.729 41.179 344.187 42.4315C346.35 43.5333 348.108 45.2915 349.209 47.4538C350.462 49.9122 350.462 53.1303 350.462 59.5666V68.7604C350.462 75.1967 350.462 78.4148 349.209 80.8732C348.108 83.0355 346.35 84.7937 344.187 85.8955C341.729 87.1481 338.511 87.1481 332.075 87.1481H236.692C230.255 87.1481 227.038 87.1481 224.579 85.8955C222.417 84.7937 220.659 83.0355 219.557 80.8732C218.305 78.4148 218.305 75.1967 218.305 68.7604V59.5666Z" fill="white" fill-opacity="0.06"/>
<path d="M218.783 59.5666C218.783 56.3406 218.783 53.9499 218.939 52.0575C219.093 50.1707 219.397 48.8216 219.983 47.6713C221.04 45.5989 222.724 43.9142 224.797 42.8582C225.947 42.2721 227.296 41.967 229.183 41.8128C231.075 41.6582 233.465 41.6578 236.692 41.6578H332.075C335.301 41.6578 337.692 41.6582 339.584 41.8128C341.47 41.967 342.82 42.2721 343.97 42.8582C346.042 43.9142 347.727 45.5989 348.783 47.6713C349.369 48.8216 349.674 50.1707 349.828 52.0575C349.983 53.9499 349.983 56.3406 349.983 59.5666V68.7605C349.983 71.9865 349.983 74.3772 349.828 76.2696C349.674 78.1563 349.369 79.5054 348.783 80.6558C347.727 82.7282 346.042 84.4129 343.97 85.4689C342.82 86.055 341.47 86.3601 339.584 86.5143C337.692 86.6689 335.301 86.6693 332.075 86.6693H236.692C233.465 86.6693 231.075 86.6689 229.183 86.5143C227.296 86.3601 225.947 86.055 224.797 85.4689C222.724 84.4129 221.04 82.7282 219.983 80.6558C219.397 79.5054 219.093 78.1563 218.939 76.2696C218.783 74.3772 218.783 71.9865 218.783 68.7605V59.5666Z" stroke="white" stroke-opacity="0.1"/>
<path d="M229.797 58.8005C229.797 56.6551 229.797 55.5824 230.214 54.7629C230.581 54.0421 231.167 53.4561 231.888 53.0888C232.708 52.6713 233.78 52.6713 235.926 52.6713H246.651C248.797 52.6713 249.869 52.6713 250.689 53.0888C251.41 53.4561 251.996 54.0421 252.363 54.7629C252.78 55.5824 252.78 56.6551 252.78 58.8005V69.5266C252.78 71.672 252.78 72.7447 252.363 73.5642C251.996 74.285 251.41 74.871 250.689 75.2383C249.869 75.6558 248.797 75.6558 246.651 75.6558H235.926C233.78 75.6558 232.708 75.6558 231.888 75.2383C231.167 74.871 230.581 74.285 230.214 73.5642C229.797 72.7447 229.797 71.672 229.797 69.5266V58.8005Z" fill="white" fill-opacity="0.1"/>
<path d="M333.224 58.4174H266.188C263.014 58.4174 260.442 60.99 260.442 64.1635C260.442 67.337 263.014 69.9096 266.188 69.9096H333.224C336.397 69.9096 338.97 67.337 338.97 64.1635C338.97 60.99 336.397 58.4174 333.224 58.4174Z" fill="white" fill-opacity="0.06"/>
</g>
<g filter="url(#filter1_d_1_2603)">
<path d="M21.0262 166.828C21.0262 160.391 21.0262 157.173 22.2787 154.715C23.3805 152.553 25.1386 150.794 27.3009 149.693C29.7592 148.44 32.9773 148.44 39.4133 148.44H171.188C177.624 148.44 180.842 148.44 183.3 149.693C185.463 150.794 187.221 152.553 188.322 154.715C189.575 157.173 189.575 160.391 189.575 166.828V176.022C189.575 182.458 189.575 185.676 188.322 188.135C187.221 190.297 185.463 192.055 183.3 193.157C180.842 194.409 177.624 194.409 171.188 194.409H39.4133C32.9773 194.409 29.7592 194.409 27.3009 193.157C25.1386 192.055 23.3805 190.297 22.2787 188.135C21.0262 185.676 21.0262 182.458 21.0262 176.022V166.828Z" fill="white" fill-opacity="0.06"/>
<path d="M39.4133 148.919H171.188C174.414 148.919 176.804 148.919 178.697 149.074C180.583 149.228 181.933 149.533 183.083 150.119C185.155 151.175 186.84 152.86 187.896 154.932C188.482 156.083 188.787 157.432 188.941 159.319C189.096 161.211 189.096 163.601 189.096 166.828V176.022C189.096 179.248 189.096 181.639 188.941 183.531C188.787 185.418 188.482 186.767 187.896 187.917C186.84 189.99 185.155 191.674 183.083 192.73C181.933 193.317 180.583 193.621 178.697 193.775C176.804 193.93 174.414 193.93 171.188 193.93H39.4133C36.1873 193.93 33.7967 193.93 31.9044 193.775C30.0177 193.621 28.6686 193.317 27.5183 192.73C25.446 191.674 23.7613 189.99 22.7054 187.917C22.1193 186.767 21.8142 185.418 21.66 183.531C21.5054 181.639 21.505 179.248 21.505 176.022V166.828C21.505 163.601 21.5054 161.211 21.66 159.319C21.8142 157.432 22.1193 156.083 22.7054 154.932C23.7613 152.86 25.446 151.175 27.5183 150.119C28.6686 149.533 30.0177 149.228 31.9044 149.074C33.7967 148.919 36.1873 148.919 39.4133 148.919Z" stroke="white" stroke-opacity="0.1"/>
<mask id="mask0_1_2603" style="mask-type:luminance" maskUnits="userSpaceOnUse" x="32" y="159" width="24" height="24">
<path d="M32.5182 166.062C32.5182 163.916 32.5182 162.844 32.9357 162.024C33.303 161.303 33.889 160.717 34.6097 160.35C35.4292 159.932 36.5018 159.932 38.6472 159.932H49.373C51.5184 159.932 52.591 159.932 53.4105 160.35C54.1313 160.717 54.7172 161.303 55.0845 162.024C55.502 162.844 55.502 163.916 55.502 166.062V176.788C55.502 178.933 55.502 180.006 55.0845 180.825C54.7172 181.547 54.1313 182.133 53.4105 182.499C52.591 182.917 51.5184 182.917 49.373 182.917H38.6472C36.5018 182.917 35.4292 182.917 34.6097 182.499C33.889 182.133 33.303 181.547 32.9357 180.825C32.5182 180.006 32.5182 178.933 32.5182 176.788V166.062Z" fill="white"/>
</mask>
<g mask="url(#mask0_1_2603)">
<path d="M32.5182 166.062C32.5182 163.916 32.5182 162.844 32.9357 162.024C33.303 161.303 33.889 160.717 34.6097 160.35C35.4292 159.932 36.5018 159.932 38.6472 159.932H49.373C51.5184 159.932 52.591 159.932 53.4105 160.35C54.1313 160.717 54.7172 161.303 55.0845 162.024C55.502 162.844 55.502 163.916 55.502 166.062V176.788C55.502 178.933 55.502 180.006 55.0845 180.825C54.7172 181.547 54.1313 182.133 53.4105 182.499C52.591 182.917 51.5184 182.917 49.373 182.917H38.6472C36.5018 182.917 35.4292 182.917 34.6097 182.499C33.889 182.133 33.303 181.547 32.9357 180.825C32.5182 180.006 32.5182 178.933 32.5182 176.788V166.062Z" fill="white" fill-opacity="0.1"/>
<path d="M32.5182 167.813C32.5182 165.054 32.5182 163.675 33.0549 162.622C33.5272 161.695 34.2806 160.942 35.2073 160.47C36.2609 159.932 37.64 159.932 40.3984 159.932H47.6218C50.3802 159.932 51.7593 159.932 52.8129 160.47C53.7396 160.942 54.4931 161.695 54.9653 162.622C55.502 163.675 55.502 165.054 55.502 167.813V175.036C55.502 177.795 55.502 179.174 54.9653 180.228C54.4931 181.155 53.7396 181.908 52.8129 182.38C51.7593 182.917 50.3802 182.917 47.6218 182.917H40.3984C37.64 182.917 36.2609 182.917 35.2073 182.38C34.2806 181.908 33.5272 181.155 33.0549 180.228C32.5182 179.174 32.5182 177.795 32.5182 175.036V167.813Z" fill="white" fill-opacity="0.1"/>
</g>
<path d="M172.337 165.679H72.74C69.5665 165.679 66.994 168.251 66.994 171.425C66.994 174.598 69.5665 177.171 72.74 177.171H172.337C175.51 177.171 178.083 174.598 178.083 171.425C178.083 168.251 175.51 165.679 172.337 165.679Z" fill="white" fill-opacity="0.06"/>
</g>
<g filter="url(#filter2_d_1_2603)">
<path d="M340.885 113.197C340.885 106.761 340.885 103.543 342.138 101.084C343.239 98.9221 344.998 97.164 347.16 96.0621C349.618 94.8096 352.836 94.8096 359.273 94.8096H494.877C501.314 94.8096 504.532 94.8096 506.99 96.0621C509.152 97.164 510.911 98.9221 512.012 101.084C513.265 103.543 513.265 106.761 513.265 113.197V122.391C513.265 128.828 513.265 132.046 512.012 134.504C510.911 136.666 509.152 138.425 506.99 139.526C504.532 140.779 501.314 140.779 494.877 140.779H359.273C352.836 140.779 349.618 140.779 347.16 139.526C344.998 138.425 343.239 136.666 342.138 134.504C340.885 132.046 340.885 128.828 340.885 122.391V113.197Z" fill="white" fill-opacity="0.06"/>
<path d="M341.364 113.197C341.364 109.971 341.364 107.58 341.519 105.688C341.674 103.801 341.978 102.452 342.564 101.302C343.62 99.2295 345.305 97.5448 347.377 96.4888C348.528 95.9027 349.877 95.5976 351.763 95.4434C353.656 95.2888 356.046 95.2885 359.273 95.2885H494.877C498.104 95.2885 500.494 95.2888 502.386 95.4434C504.273 95.5976 505.622 95.9027 506.773 96.4888C508.845 97.5448 510.529 99.2295 511.586 101.302C512.172 102.452 512.476 103.801 512.631 105.688C512.786 107.58 512.786 109.971 512.786 113.197V122.391C512.786 125.617 512.786 128.008 512.631 129.9C512.476 131.787 512.172 133.136 511.586 134.287C510.529 136.359 508.845 138.044 506.773 139.1C505.622 139.686 504.273 139.991 502.386 140.145C500.494 140.3 498.104 140.3 494.877 140.3H359.273C356.046 140.3 353.656 140.3 351.763 140.145C349.877 139.991 348.528 139.686 347.377 139.1C345.305 138.044 343.62 136.359 342.564 134.287C341.978 133.136 341.674 131.787 341.519 129.9C341.364 128.008 341.364 125.617 341.364 122.391V113.197Z" stroke="white" stroke-opacity="0.1"/>
<path d="M371.531 106.302H356.208C354.092 106.302 352.377 108.017 352.377 110.133V125.456C352.377 127.571 354.092 129.286 356.208 129.286H371.531C373.646 129.286 375.361 127.571 375.361 125.456V110.133C375.361 108.017 373.646 106.302 371.531 106.302Z" fill="white" fill-opacity="0.1"/>
<path d="M496.027 112.048H392.599C389.426 112.048 386.853 114.621 386.853 117.794C386.853 120.968 389.426 123.54 392.599 123.54H496.027C499.2 123.54 501.773 120.968 501.773 117.794C501.773 114.621 499.2 112.048 496.027 112.048Z" fill="white" fill-opacity="0.06"/>
</g>
<g filter="url(#filter3_d_1_2603)">
<path d="M50.7137 113.197C50.7137 106.761 50.7137 103.543 51.9663 101.084C53.0681 98.9221 54.8261 97.164 56.9884 96.0621C59.4468 94.8096 62.6648 94.8096 69.1009 94.8096H181.722C188.158 94.8096 191.376 94.8096 193.834 96.0621C195.997 97.164 197.755 98.9221 198.856 101.084C200.109 103.543 200.109 106.761 200.109 113.197V122.391C200.109 128.828 200.109 132.046 198.856 134.504C197.755 136.666 195.997 138.425 193.834 139.526C191.376 140.779 188.158 140.779 181.722 140.779H69.1009C62.6648 140.779 59.4468 140.779 56.9884 139.526C54.8261 138.425 53.0681 136.666 51.9663 134.504C50.7137 132.046 50.7137 128.828 50.7137 122.391V113.197Z" fill="white" fill-opacity="0.06"/>
<path d="M51.1926 113.197C51.1926 109.971 51.1929 107.58 51.3475 105.688C51.5017 103.801 51.8068 102.452 52.3929 101.302C53.4488 99.2295 55.1335 97.5448 57.2058 96.4888C58.3562 95.9027 59.7052 95.5976 61.5919 95.4434C63.4843 95.2888 65.8749 95.2885 69.1008 95.2885H181.722C184.948 95.2885 187.339 95.2888 189.231 95.4434C191.118 95.5976 192.467 95.9027 193.617 96.4888C195.689 97.5448 197.374 99.2295 198.43 101.302C199.016 102.452 199.321 103.801 199.475 105.688C199.63 107.58 199.63 109.971 199.63 113.197V122.391C199.63 125.617 199.63 128.008 199.475 129.9C199.321 131.787 199.016 133.136 198.43 134.287C197.374 136.359 195.689 138.044 193.617 139.1C192.467 139.686 191.118 139.991 189.231 140.145C187.339 140.3 184.948 140.3 181.722 140.3H69.1008C65.8749 140.3 63.4843 140.3 61.5919 140.145C59.7052 139.991 58.3562 139.686 57.2058 139.1C55.1335 138.044 53.4488 136.359 52.3929 134.287C51.8068 133.136 51.5017 131.787 51.3475 129.9C51.1929 128.008 51.1926 125.617 51.1926 122.391V113.197Z" stroke="white" stroke-opacity="0.1"/>
<path d="M62.2057 112.431C62.2057 110.286 62.2057 109.213 62.6232 108.393C62.9905 107.673 63.5765 107.087 64.2972 106.719C65.1167 106.302 66.1894 106.302 68.3347 106.302H79.0605C81.2059 106.302 82.2786 106.302 83.098 106.719C83.8188 107.087 84.4048 107.673 84.772 108.393C85.1896 109.213 85.1896 110.286 85.1896 112.431V123.157C85.1896 125.303 85.1896 126.375 84.772 127.195C84.4048 127.916 83.8188 128.502 83.098 128.869C82.2786 129.286 81.2059 129.286 79.0605 129.286H68.3347C66.1894 129.286 65.1167 129.286 64.2972 128.869C63.5765 128.502 62.9905 127.916 62.6232 127.195C62.2057 126.375 62.2057 125.303 62.2057 123.157V112.431Z" fill="white" fill-opacity="0.1"/>
<path d="M182.871 112.048H102.427C99.2541 112.048 96.6815 114.621 96.6815 117.794C96.6815 120.968 99.2541 123.54 102.427 123.54H182.871C186.045 123.54 188.617 120.968 188.617 117.794C188.617 114.621 186.045 112.048 182.871 112.048Z" fill="white" fill-opacity="0.06"/>
</g>
<g filter="url(#filter4_d_1_2603)">
<path d="M207.77 113.197C207.77 106.761 207.77 103.543 209.023 101.084C210.124 98.9221 211.883 97.164 214.045 96.0621C216.503 94.8096 219.721 94.8096 226.157 94.8096H314.837C321.273 94.8096 324.491 94.8096 326.949 96.0621C329.112 97.164 330.87 98.9221 331.971 101.084C333.224 103.543 333.224 106.761 333.224 113.197V122.391C333.224 128.828 333.224 132.046 331.971 134.504C330.87 136.666 329.112 138.425 326.949 139.526C324.491 140.779 321.273 140.779 314.837 140.779H226.157C219.721 140.779 216.503 140.779 214.045 139.526C211.883 138.425 210.124 136.666 209.023 134.504C207.77 132.046 207.77 128.828 207.77 122.391V113.197Z" fill="white" fill-opacity="0.06"/>
<path d="M208.249 113.197C208.249 109.971 208.249 107.58 208.404 105.688C208.558 103.801 208.863 102.452 209.449 101.302C210.505 99.2295 212.19 97.5448 214.262 96.4888C215.412 95.9027 216.762 95.5976 218.648 95.4434C220.541 95.2888 222.931 95.2885 226.157 95.2885H314.837C318.063 95.2885 320.454 95.2888 322.346 95.4434C324.233 95.5976 325.582 95.9027 326.732 96.4888C328.804 97.5448 330.489 99.2295 331.545 101.302C332.131 102.452 332.436 103.801 332.59 105.688C332.745 107.58 332.745 109.971 332.745 113.197V122.391C332.745 125.617 332.745 128.008 332.59 129.9C332.436 131.787 332.131 133.136 331.545 134.287C330.489 136.359 328.804 138.044 326.732 139.1C325.582 139.686 324.233 139.991 322.346 140.145C320.454 140.3 318.063 140.3 314.837 140.3H226.157C222.931 140.3 220.541 140.3 218.648 140.145C216.762 139.991 215.412 139.686 214.262 139.1C212.19 138.044 210.505 136.359 209.449 134.287C208.863 133.136 208.558 131.787 208.404 129.9C208.249 128.008 208.249 125.617 208.249 122.391V113.197Z" stroke="white" stroke-opacity="0.1"/>
<path d="M219.262 112.431C219.262 110.286 219.262 109.213 219.68 108.393C220.047 107.673 220.633 107.087 221.354 106.719C222.174 106.302 223.246 106.302 225.391 106.302H236.117C238.262 106.302 239.335 106.302 240.155 106.719C240.876 107.087 241.462 107.673 241.829 108.393C242.246 109.213 242.246 110.286 242.246 112.431V123.157C242.246 125.303 242.246 126.375 241.829 127.195C241.462 127.916 240.876 128.502 240.155 128.869C239.335 129.286 238.262 129.286 236.117 129.286H225.391C223.246 129.286 222.174 129.286 221.354 128.869C220.633 128.502 220.047 127.916 219.68 127.195C219.262 126.375 219.262 125.303 219.262 123.157V112.431Z" fill="white" fill-opacity="0.1"/>
<path d="M315.986 112.048H259.484C256.311 112.048 253.738 114.621 253.738 117.794C253.738 120.968 256.311 123.54 259.484 123.54H315.986C319.16 123.54 321.732 120.968 321.732 117.794C321.732 114.621 319.16 112.048 315.986 112.048Z" fill="white" fill-opacity="0.06"/>
</g>
<g filter="url(#filter5_d_1_2603)">
<path d="M358.123 59.5666C358.123 53.1303 358.123 49.9122 359.376 47.4538C360.477 45.2915 362.235 43.5333 364.398 42.4315C366.856 41.179 370.074 41.179 376.51 41.179H512.115C518.552 41.179 521.77 41.179 524.228 42.4315C526.39 43.5333 528.149 45.2915 529.25 47.4538C530.502 49.9122 530.502 53.1303 530.502 59.5666V68.7604C530.502 75.1967 530.502 78.4148 529.25 80.8732C528.149 83.0355 526.39 84.7937 524.228 85.8955C521.77 87.1481 518.552 87.1481 512.115 87.1481H376.51C370.074 87.1481 366.856 87.1481 364.398 85.8955C362.235 84.7937 360.477 83.0355 359.376 80.8732C358.123 78.4148 358.123 75.1967 358.123 68.7604V59.5666Z" fill="white" fill-opacity="0.06"/>
<path d="M358.602 59.5666C358.602 56.3406 358.602 53.9499 358.757 52.0575C358.911 50.1707 359.216 48.8216 359.802 47.6713C360.858 45.5989 362.543 43.9142 364.615 42.8582C365.765 42.2721 367.115 41.967 369.001 41.8128C370.894 41.6582 373.284 41.6578 376.51 41.6578H512.115C515.342 41.6578 517.732 41.6582 519.624 41.8128C521.511 41.967 522.86 42.2721 524.011 42.8582C526.083 43.9142 527.767 45.5989 528.824 47.6713C529.41 48.8216 529.714 50.1707 529.869 52.0575C530.024 53.9499 530.024 56.3406 530.024 59.5666V68.7605C530.024 71.9865 530.024 74.3772 529.869 76.2696C529.714 78.1563 529.41 79.5054 528.824 80.6558C527.767 82.7282 526.083 84.4129 524.011 85.4689C522.86 86.055 521.511 86.3601 519.624 86.5143C517.732 86.6689 515.342 86.6693 512.115 86.6693H376.51C373.284 86.6693 370.894 86.6689 369.001 86.5143C367.115 86.3601 365.765 86.055 364.615 85.4689C362.543 84.4129 360.858 82.7282 359.802 80.6558C359.216 79.5054 358.911 78.1563 358.757 76.2696C358.602 74.3772 358.602 71.9865 358.602 68.7605V59.5666Z" stroke="white" stroke-opacity="0.1"/>
<path d="M369.615 58.8005C369.615 56.6551 369.615 55.5824 370.033 54.7629C370.4 54.0421 370.986 53.4561 371.707 53.0888C372.527 52.6713 373.599 52.6713 375.744 52.6713H386.47C388.615 52.6713 389.688 52.6713 390.508 53.0888C391.229 53.4561 391.815 54.0421 392.182 54.7629C392.599 55.5824 392.599 56.6551 392.599 58.8005V69.5266C392.599 71.672 392.599 72.7447 392.182 73.5642C391.815 74.285 391.229 74.871 390.508 75.2383C389.688 75.6558 388.615 75.6558 386.47 75.6558H375.744C373.599 75.6558 372.527 75.6558 371.707 75.2383C370.986 74.871 370.4 74.285 370.033 73.5642C369.615 72.7447 369.615 71.672 369.615 69.5266V58.8005Z" fill="white" fill-opacity="0.1"/>
<path d="M513.265 58.4174H409.837C406.664 58.4174 404.091 60.99 404.091 64.1635C404.091 67.337 406.664 69.9096 409.837 69.9096H513.265C516.438 69.9096 519.011 67.337 519.011 64.1635C519.011 60.99 516.438 58.4174 513.265 58.4174Z" fill="white" fill-opacity="0.06"/>
</g>
<g filter="url(#filter6_d_1_2603)">
<path d="M38.2642 59.5666C38.2642 53.1303 38.2642 49.9122 39.5167 47.4538C40.6185 45.2915 42.3766 43.5333 44.5389 42.4315C46.9972 41.179 50.2152 41.179 56.6513 41.179H192.256C198.693 41.179 201.91 41.179 204.369 42.4315C206.531 43.5333 208.289 45.2915 209.391 47.4538C210.643 49.9122 210.643 53.1303 210.643 59.5666V68.7604C210.643 75.1967 210.643 78.4148 209.391 80.8732C208.289 83.0355 206.531 84.7937 204.369 85.8955C201.91 87.1481 198.693 87.1481 192.256 87.1481H56.6513C50.2152 87.1481 46.9972 87.1481 44.5389 85.8955C42.3766 84.7937 40.6185 83.0355 39.5167 80.8732C38.2642 78.4148 38.2642 75.1967 38.2642 68.7604V59.5666Z" fill="white" fill-opacity="0.06"/>
<path d="M38.743 59.5666C38.743 56.3406 38.7434 53.9499 38.8979 52.0575C39.0521 50.1707 39.3572 48.8216 39.9433 47.6713C40.9992 45.5989 42.684 43.9142 44.7562 42.8582C45.9066 42.2721 47.2556 41.967 49.1423 41.8128C51.0347 41.6582 53.4253 41.6578 56.6513 41.6578H192.256C195.483 41.6578 197.873 41.6582 199.765 41.8128C201.652 41.967 203.001 42.2721 204.151 42.8582C206.224 43.9142 207.908 45.5989 208.965 47.6713C209.551 48.8216 209.855 50.1707 210.009 52.0575C210.165 53.9499 210.165 56.3406 210.165 59.5666V68.7605C210.165 71.9865 210.165 74.3772 210.009 76.2696C209.855 78.1563 209.551 79.5054 208.965 80.6558C207.908 82.7282 206.224 84.4129 204.151 85.4689C203.001 86.055 201.652 86.3601 199.765 86.5143C197.873 86.6689 195.483 86.6693 192.256 86.6693H56.6513C53.4253 86.6693 51.0347 86.6689 49.1423 86.5143C47.2556 86.3601 45.9066 86.055 44.7562 85.4689C42.684 84.4129 40.9992 82.7282 39.9433 80.6558C39.3572 79.5054 39.0521 78.1563 38.8979 76.2696C38.7434 74.3772 38.743 71.9865 38.743 68.7605V59.5666Z" stroke="white" stroke-opacity="0.1"/>
<path d="M49.7561 58.8005C49.7561 56.6551 49.7561 55.5824 50.1736 54.7629C50.5409 54.0421 51.1269 53.4561 51.8476 53.0888C52.6671 52.6713 53.7398 52.6713 55.8851 52.6713H66.611C68.7563 52.6713 69.829 52.6713 70.6485 53.0888C71.3692 53.4561 71.9552 54.0421 72.3225 54.7629C72.74 55.5824 72.74 56.6551 72.74 58.8005V69.5266C72.74 71.672 72.74 72.7447 72.3225 73.5642C71.9552 74.285 71.3692 74.871 70.6485 75.2383C69.829 75.6558 68.7563 75.6558 66.611 75.6558H55.8851C53.7398 75.6558 52.6671 75.6558 51.8476 75.2383C51.1269 74.871 50.5409 74.285 50.1736 73.5642C49.7561 72.7447 49.7561 71.672 49.7561 69.5266V58.8005Z" fill="white" fill-opacity="0.1"/>
<path d="M193.405 58.4174H89.9779C86.8045 58.4174 84.2319 60.99 84.2319 64.1635C84.2319 67.337 86.8045 69.9096 89.9779 69.9096H193.405C196.579 69.9096 199.151 67.337 199.151 64.1635C199.151 60.99 196.579 58.4174 193.405 58.4174Z" fill="white" fill-opacity="0.06"/>
</g>
<g filter="url(#filter7_d_1_2603)">
<path d="M14.3226 273.131C14.3226 266.695 14.3226 263.477 15.5751 261.019C16.6769 258.856 18.435 257.098 20.5973 255.996C23.0556 254.744 26.2737 254.744 32.7097 254.744H168.315C174.751 254.744 177.969 254.744 180.427 255.996C182.59 257.098 184.348 258.856 185.449 261.019C186.702 263.477 186.702 266.695 186.702 273.131V282.325C186.702 288.762 186.702 291.98 185.449 294.438C184.348 296.601 182.59 298.359 180.427 299.46C177.969 300.713 174.751 300.713 168.315 300.713H32.7097C26.2737 300.713 23.0556 300.713 20.5973 299.46C18.435 298.359 16.6769 296.601 15.5751 294.438C14.3226 291.98 14.3226 288.762 14.3226 282.325V273.131Z" fill="white" fill-opacity="0.06"/>
<path d="M14.8014 273.131C14.8014 269.905 14.8018 267.515 14.9564 265.622C15.1106 263.736 15.4157 262.386 16.0018 261.236C17.0577 259.164 18.7424 257.479 20.8147 256.423C21.965 255.837 23.3141 255.532 25.2008 255.378C27.0931 255.223 29.4837 255.223 32.7097 255.223H168.315C171.541 255.223 173.931 255.223 175.824 255.378C177.71 255.532 179.06 255.837 180.21 256.423C182.282 257.479 183.967 259.164 185.023 261.236C185.609 262.386 185.914 263.736 186.068 265.622C186.223 267.515 186.223 269.905 186.223 273.131V282.325C186.223 285.552 186.223 287.942 186.068 289.835C185.914 291.721 185.609 293.071 185.023 294.221C183.967 296.293 182.282 297.978 180.21 299.034C179.06 299.62 177.71 299.925 175.824 300.079C173.931 300.234 171.541 300.234 168.315 300.234H32.7097C29.4837 300.234 27.0931 300.234 25.2008 300.079C23.3141 299.925 21.965 299.62 20.8147 299.034C18.7424 297.978 17.0577 296.293 16.0018 294.221C15.4157 293.071 15.1106 291.721 14.9564 289.835C14.8018 287.942 14.8014 285.552 14.8014 282.325V273.131Z" stroke="white" stroke-opacity="0.1"/>
<path d="M25.8145 272.365C25.8145 270.22 25.8145 269.147 26.2321 268.328C26.5993 267.607 27.1853 267.02 27.9061 266.654C28.7256 266.236 29.7982 266.236 31.9436 266.236H42.6694C44.8148 266.236 45.8874 266.236 46.7069 266.654C47.4276 267.02 48.0136 267.607 48.3809 268.328C48.7984 269.147 48.7984 270.22 48.7984 272.365V283.091C48.7984 285.237 48.7984 286.309 48.3809 287.129C48.0136 287.85 47.4276 288.436 46.7069 288.803C45.8874 289.221 44.8148 289.221 42.6694 289.221H31.9436C29.7982 289.221 28.7256 289.221 27.9061 288.803C27.1853 288.436 26.5993 287.85 26.2321 287.129C25.8145 286.309 25.8145 285.237 25.8145 283.091V272.365Z" fill="white" fill-opacity="0.1"/>
<path d="M169.464 271.982H66.0363C62.8629 271.982 60.2904 274.555 60.2904 277.728C60.2904 280.902 62.8629 283.474 66.0363 283.474H169.464C172.637 283.474 175.21 280.902 175.21 277.728C175.21 274.555 172.637 271.982 169.464 271.982Z" fill="white" fill-opacity="0.06"/>
</g>
<g filter="url(#filter8_d_1_2603)">
<path d="M194.363 273.131C194.363 266.695 194.363 263.477 195.616 261.019C196.717 258.856 198.475 257.098 200.638 255.996C203.096 254.744 206.314 254.744 212.75 254.744H348.355C354.792 254.744 358.009 254.744 360.468 255.996C362.63 257.098 364.388 258.856 365.49 261.019C366.742 263.477 366.742 266.695 366.742 273.131V282.325C366.742 288.762 366.742 291.98 365.49 294.438C364.388 296.601 362.63 298.359 360.468 299.46C358.009 300.713 354.792 300.713 348.355 300.713H212.75C206.314 300.713 203.096 300.713 200.638 299.46C198.475 298.359 196.717 296.601 195.616 294.438C194.363 291.98 194.363 288.762 194.363 282.325V273.131Z" fill="white" fill-opacity="0.06"/>
<path d="M194.842 273.131C194.842 269.905 194.842 267.515 194.997 265.622C195.151 263.736 195.456 262.386 196.042 261.236C197.098 259.164 198.783 257.479 200.855 256.423C202.005 255.837 203.355 255.532 205.241 255.378C207.133 255.223 209.524 255.223 212.75 255.223H348.355C351.581 255.223 353.972 255.223 355.864 255.378C357.751 255.532 359.1 255.837 360.25 256.423C362.323 257.479 364.007 259.164 365.063 261.236C365.65 262.386 365.954 263.736 366.108 265.622C366.263 267.515 366.263 269.905 366.263 273.131V282.325C366.263 285.552 366.263 287.942 366.108 289.835C365.954 291.721 365.65 293.071 365.063 294.221C364.007 296.293 362.323 297.978 360.25 299.034C359.1 299.62 357.751 299.925 355.864 300.079C353.972 300.234 351.581 300.234 348.355 300.234H212.75C209.524 300.234 207.133 300.234 205.241 300.079C203.355 299.925 202.005 299.62 200.855 299.034C198.783 297.978 197.098 296.293 196.042 294.221C195.456 293.071 195.151 291.721 194.997 289.835C194.842 287.942 194.842 285.552 194.842 282.325V273.131Z" stroke="white" stroke-opacity="0.1"/>
<path d="M205.855 272.365C205.855 270.22 205.855 269.147 206.273 268.328C206.639 267.607 207.225 267.02 207.947 266.654C208.766 266.236 209.839 266.236 211.984 266.236H222.71C224.855 266.236 225.928 266.236 226.747 266.654C227.468 267.02 228.055 267.607 228.421 268.328C228.839 269.147 228.839 270.22 228.839 272.365V283.091C228.839 285.237 228.839 286.309 228.421 287.129C228.055 287.85 227.468 288.436 226.747 288.803C225.928 289.221 224.855 289.221 222.71 289.221H211.984C209.839 289.221 208.766 289.221 207.947 288.803C207.225 288.436 206.639 287.85 206.273 287.129C205.855 286.309 205.855 285.237 205.855 283.091V272.365Z" fill="white" fill-opacity="0.1"/>
<path d="M349.504 271.982H246.077C242.903 271.982 240.331 274.555 240.331 277.728C240.331 280.902 242.903 283.474 246.077 283.474H349.504C352.678 283.474 355.25 280.902 355.25 277.728C355.25 274.555 352.678 271.982 349.504 271.982Z" fill="white" fill-opacity="0.06"/>
</g>
<g filter="url(#filter9_d_1_2603)">
<path d="M372.488 273.131C372.488 266.695 372.488 263.477 373.741 261.019C374.842 258.856 376.6 257.098 378.763 255.996C381.221 254.744 384.439 254.744 390.875 254.744H526.48C532.917 254.744 536.134 254.744 538.593 255.996C540.755 257.098 542.513 258.856 543.615 261.019C544.867 263.477 544.867 266.695 544.867 273.131V282.325C544.867 288.762 544.867 291.98 543.615 294.438C542.513 296.601 540.755 298.359 538.593 299.46C536.134 300.713 532.917 300.713 526.48 300.713H390.875C384.439 300.713 381.221 300.713 378.763 299.46C376.6 298.359 374.842 296.601 373.741 294.438C372.488 291.98 372.488 288.762 372.488 282.325V273.131Z" fill="white" fill-opacity="0.06"/>
<path d="M372.967 273.131C372.967 269.905 372.967 267.515 373.122 265.622C373.276 263.736 373.581 262.386 374.167 261.236C375.223 259.164 376.908 257.479 378.98 256.423C380.13 255.837 381.48 255.532 383.366 255.378C385.259 255.223 387.649 255.223 390.875 255.223H526.48C529.707 255.223 532.097 255.223 533.989 255.378C535.876 255.532 537.225 255.837 538.375 256.423C540.448 257.479 542.132 259.164 543.189 261.236C543.775 262.386 544.079 263.736 544.233 265.622C544.389 267.515 544.389 269.905 544.389 273.131V282.325C544.389 285.552 544.389 287.942 544.233 289.835C544.079 291.721 543.775 293.071 543.189 294.221C542.132 296.293 540.448 297.978 538.375 299.034C537.225 299.62 535.876 299.925 533.989 300.079C532.097 300.234 529.707 300.234 526.48 300.234H390.875C387.649 300.234 385.259 300.234 383.366 300.079C381.48 299.925 380.13 299.62 378.98 299.034C376.908 297.978 375.223 296.293 374.167 294.221C373.581 293.071 373.276 291.721 373.122 289.835C372.967 287.942 372.967 285.552 372.967 282.325V273.131Z" stroke="white" stroke-opacity="0.1"/>
<path d="M383.98 272.365C383.98 270.22 383.98 269.147 384.398 268.328C384.765 267.607 385.351 267.02 386.072 266.654C386.891 266.236 387.964 266.236 390.109 266.236H400.835C402.98 266.236 404.053 266.236 404.873 266.654C405.594 267.02 406.18 267.607 406.547 268.328C406.964 269.147 406.964 270.22 406.964 272.365V283.091C406.964 285.237 406.964 286.309 406.547 287.129C406.18 287.85 405.594 288.436 404.873 288.803C404.053 289.221 402.98 289.221 400.835 289.221H390.109C387.964 289.221 386.891 289.221 386.072 288.803C385.351 288.436 384.765 287.85 384.398 287.129C383.98 286.309 383.98 285.237 383.98 283.091V272.365Z" fill="white" fill-opacity="0.1"/>
<path d="M527.629 271.982H424.202C421.029 271.982 418.456 274.555 418.456 277.728C418.456 280.902 421.029 283.474 424.202 283.474H527.629C530.803 283.474 533.375 280.902 533.375 277.728C533.375 274.555 530.803 271.982 527.629 271.982Z" fill="white" fill-opacity="0.06"/>
</g>
<g filter="url(#filter10_d_1_2603)">
<path d="M40.1795 219.501C40.1795 213.064 40.1795 209.846 41.432 207.388C42.5338 205.225 44.2919 203.467 46.4542 202.366C48.9125 201.113 52.1305 201.113 58.5666 201.113H194.172C200.608 201.113 203.826 201.113 206.284 202.366C208.446 203.467 210.205 205.225 211.306 207.388C212.559 209.846 212.559 213.064 212.559 219.501V228.695C212.559 235.131 212.559 238.349 211.306 240.807C210.205 242.97 208.446 244.728 206.284 245.83C203.826 247.082 200.608 247.082 194.172 247.082H58.5666C52.1305 247.082 48.9125 247.082 46.4542 245.83C44.2919 244.728 42.5338 242.97 41.432 240.807C40.1795 238.349 40.1795 235.131 40.1795 228.695V219.501Z" fill="white" fill-opacity="0.06"/>
<path d="M40.6583 219.501C40.6583 216.274 40.6587 213.884 40.8132 211.992C40.9674 210.105 41.2725 208.756 41.8586 207.605C42.9145 205.533 44.5993 203.848 46.6715 202.792C47.8219 202.206 49.171 201.901 51.0576 201.747C52.95 201.592 55.3406 201.592 58.5666 201.592H194.172C197.398 201.592 199.788 201.592 201.681 201.747C203.567 201.901 204.917 202.206 206.067 202.792C208.139 203.848 209.824 205.533 210.88 207.605C211.466 208.756 211.77 210.105 211.925 211.992C212.08 213.884 212.08 216.274 212.08 219.501V228.695C212.08 231.921 212.08 234.312 211.925 236.204C211.77 238.091 211.466 239.44 210.88 240.59C209.824 242.663 208.139 244.347 206.067 245.403C204.917 245.99 203.567 246.294 201.681 246.448C199.788 246.603 197.398 246.603 194.172 246.603H58.5666C55.3406 246.603 52.95 246.603 51.0576 246.448C49.171 246.294 47.8219 245.99 46.6715 245.403C44.5993 244.347 42.9145 242.663 41.8586 240.59C41.2725 239.44 40.9674 238.091 40.8132 236.204C40.6587 234.312 40.6583 231.921 40.6583 228.695V219.501Z" stroke="white" stroke-opacity="0.1"/>
<path d="M51.6714 218.735C51.6714 216.589 51.6714 215.517 52.089 214.697C52.4562 213.976 53.0422 213.39 53.7629 213.023C54.5824 212.605 55.6551 212.605 57.8005 212.605H68.5263C70.6716 212.605 71.7443 212.605 72.5638 213.023C73.2845 213.39 73.8705 213.976 74.2378 214.697C74.6553 215.517 74.6553 216.589 74.6553 218.735V229.461C74.6553 231.606 74.6553 232.679 74.2378 233.498C73.8705 234.22 73.2845 234.806 72.5638 235.172C71.7443 235.59 70.6716 235.59 68.5263 235.59H57.8005C55.6551 235.59 54.5824 235.59 53.7629 235.172C53.0422 234.806 52.4562 234.22 52.089 233.498C51.6714 232.679 51.6714 231.606 51.6714 229.461V218.735Z" fill="white" fill-opacity="0.1"/>
<path d="M195.321 218.352H91.8932C88.7198 218.352 86.1472 220.924 86.1472 224.098C86.1472 227.271 88.7198 229.844 91.8932 229.844H195.321C198.494 229.844 201.067 227.271 201.067 224.098C201.067 220.924 198.494 218.352 195.321 218.352Z" fill="white" fill-opacity="0.06"/>
</g>
<g filter="url(#filter11_d_1_2603)">
<path d="M367.7 219.501C367.7 213.064 367.7 209.846 368.953 207.388C370.054 205.225 371.812 203.467 373.975 202.366C376.433 201.113 379.651 201.113 386.087 201.113H521.692C528.128 201.113 531.346 201.113 533.804 202.366C535.967 203.467 537.725 205.225 538.826 207.388C540.079 209.846 540.079 213.064 540.079 219.501V228.695C540.079 235.131 540.079 238.349 538.826 240.807C537.725 242.97 535.967 244.728 533.804 245.83C531.346 247.082 528.128 247.082 521.692 247.082H386.087C379.651 247.082 376.433 247.082 373.975 245.83C371.812 244.728 370.054 242.97 368.953 240.807C367.7 238.349 367.7 235.131 367.7 228.695V219.501Z" fill="white" fill-opacity="0.06"/>
<path d="M368.179 219.501C368.179 216.274 368.179 213.884 368.334 211.992C368.488 210.105 368.793 208.756 369.379 207.605C370.435 205.533 372.12 203.848 374.192 202.792C375.342 202.206 376.691 201.901 378.578 201.747C380.47 201.592 382.861 201.592 386.087 201.592H521.692C524.918 201.592 527.309 201.592 529.201 201.747C531.088 201.901 532.437 202.206 533.587 202.792C535.659 203.848 537.344 205.533 538.4 207.605C538.986 208.756 539.291 210.105 539.445 211.992C539.6 213.884 539.6 216.274 539.6 219.501V228.695C539.6 231.921 539.6 234.312 539.445 236.204C539.291 238.091 538.986 239.44 538.4 240.59C537.344 242.663 535.659 244.347 533.587 245.403C532.437 245.99 531.088 246.294 529.201 246.448C527.309 246.603 524.918 246.603 521.692 246.603H386.087C382.861 246.603 380.47 246.603 378.578 246.448C376.691 246.294 375.342 245.99 374.192 245.403C372.12 244.347 370.435 242.663 369.379 240.59C368.793 239.44 368.488 238.091 368.334 236.204C368.179 234.312 368.179 231.921 368.179 228.695V219.501Z" stroke="white" stroke-opacity="0.1"/>
<path d="M379.192 218.735C379.192 216.589 379.192 215.517 379.609 214.697C379.976 213.976 380.562 213.39 381.283 213.023C382.103 212.605 383.176 212.605 385.321 212.605H396.047C398.192 212.605 399.264 212.605 400.084 213.023C400.805 213.39 401.391 213.976 401.758 214.697C402.176 215.517 402.176 216.589 402.176 218.735V229.461C402.176 231.606 402.176 232.679 401.758 233.498C401.391 234.22 400.805 234.806 400.084 235.172C399.264 235.59 398.192 235.59 396.047 235.59H385.321C383.176 235.59 382.103 235.59 381.283 235.172C380.562 234.806 379.976 234.22 379.609 233.498C379.192 232.679 379.192 231.606 379.192 229.461V218.735Z" fill="white" fill-opacity="0.1"/>
<path d="M522.841 218.352H419.414C416.24 218.352 413.668 220.924 413.668 224.098C413.668 227.271 416.24 229.844 419.414 229.844H522.841C526.015 229.844 528.587 227.271 528.587 224.098C528.587 220.924 526.015 218.352 522.841 218.352Z" fill="white" fill-opacity="0.06"/>
</g>
<g filter="url(#filter12_d_1_2603)">
<path d="M220.22 219.501C220.22 213.064 220.22 209.846 221.473 207.388C222.574 205.225 224.332 203.467 226.495 202.366C228.953 201.113 232.171 201.113 238.607 201.113H341.652C348.088 201.113 351.306 201.113 353.764 202.366C355.926 203.467 357.685 205.225 358.786 207.388C360.039 209.846 360.039 213.064 360.039 219.501V228.695C360.039 235.131 360.039 238.349 358.786 240.807C357.685 242.97 355.926 244.728 353.764 245.83C351.306 247.082 348.088 247.082 341.652 247.082H238.607C232.171 247.082 228.953 247.082 226.495 245.83C224.332 244.728 222.574 242.97 221.473 240.807C220.22 238.349 220.22 235.131 220.22 228.695V219.501Z" fill="white" fill-opacity="0.06"/>
<path d="M220.699 219.501C220.699 216.274 220.699 213.884 220.854 211.992C221.008 210.105 221.313 208.756 221.899 207.605C222.955 205.533 224.64 203.848 226.712 202.792C227.862 202.206 229.211 201.901 231.098 201.747C232.99 201.592 235.381 201.592 238.607 201.592H341.652C344.878 201.592 347.268 201.592 349.161 201.747C351.047 201.901 352.396 202.206 353.547 202.792C355.619 203.848 357.304 205.533 358.36 207.605C358.946 208.756 359.25 210.105 359.405 211.992C359.56 213.884 359.56 216.274 359.56 219.501V228.695C359.56 231.921 359.56 234.312 359.405 236.204C359.25 238.091 358.946 239.44 358.36 240.59C357.304 242.663 355.619 244.347 353.547 245.403C352.396 245.99 351.047 246.294 349.161 246.448C347.268 246.603 344.878 246.603 341.652 246.603H238.607C235.381 246.603 232.99 246.603 231.098 246.448C229.211 246.294 227.862 245.99 226.712 245.403C224.64 244.347 222.955 242.663 221.899 240.59C221.313 239.44 221.008 238.091 220.854 236.204C220.699 234.312 220.699 231.921 220.699 228.695V219.501Z" stroke="white" stroke-opacity="0.1"/>
<path d="M231.712 218.735C231.712 216.589 231.712 215.517 232.129 214.697C232.496 213.976 233.082 213.39 233.803 213.023C234.623 212.605 235.696 212.605 237.841 212.605H248.567C250.712 212.605 251.785 212.605 252.604 213.023C253.325 213.39 253.911 213.976 254.278 214.697C254.696 215.517 254.696 216.589 254.696 218.735V229.461C254.696 231.606 254.696 232.679 254.278 233.498C253.911 234.22 253.325 234.806 252.604 235.172C251.785 235.59 250.712 235.59 248.567 235.59H237.841C235.696 235.59 234.623 235.59 233.803 235.172C233.082 234.806 232.496 234.22 232.129 233.498C231.712 232.679 231.712 231.606 231.712 229.461V218.735Z" fill="white" fill-opacity="0.1"/>
<path d="M342.801 218.352H271.934C268.76 218.352 266.188 220.924 266.188 224.098C266.188 227.271 268.76 229.844 271.934 229.844H342.801C345.974 229.844 348.547 227.271 348.547 224.098C348.547 220.924 345.974 218.352 342.801 218.352Z" fill="white" fill-opacity="0.06"/>
</g>
<g filter="url(#filter13_d_1_2603)">
<path d="M373.446 166.828C373.446 160.391 373.446 157.173 374.699 154.715C375.8 152.553 377.558 150.794 379.72 149.693C382.179 148.44 385.397 148.44 391.833 148.44H524.565C531.001 148.44 534.219 148.44 536.677 149.693C538.84 150.794 540.598 152.553 541.699 154.715C542.952 157.173 542.952 160.391 542.952 166.828V176.022C542.952 182.458 542.952 185.676 541.699 188.135C540.598 190.297 538.84 192.055 536.677 193.157C534.219 194.409 531.001 194.409 524.565 194.409H391.833C385.397 194.409 382.179 194.409 379.72 193.157C377.558 192.055 375.8 190.297 374.699 188.135C373.446 185.676 373.446 182.458 373.446 176.022V166.828Z" fill="white" fill-opacity="0.06"/>
<path d="M373.925 166.828C373.925 163.601 373.925 161.211 374.08 159.319C374.234 157.432 374.539 156.083 375.125 154.932C376.181 152.86 377.865 151.175 379.938 150.119C381.088 149.533 382.437 149.228 384.324 149.074C386.216 148.919 388.607 148.919 391.833 148.919H524.565C527.791 148.919 530.182 148.919 532.074 149.074C533.961 149.228 535.31 149.533 536.46 150.119C538.532 151.175 540.217 152.86 541.273 154.932C541.859 156.083 542.164 157.432 542.318 159.319C542.473 161.211 542.473 163.601 542.473 166.828V176.022C542.473 179.248 542.473 181.639 542.318 183.531C542.164 185.418 541.859 186.767 541.273 187.917C540.217 189.99 538.532 191.674 536.46 192.73C535.31 193.317 533.961 193.621 532.074 193.775C530.182 193.93 527.791 193.93 524.565 193.93H391.833C388.607 193.93 386.216 193.93 384.324 193.775C382.437 193.621 381.088 193.317 379.938 192.73C377.865 191.674 376.181 189.99 375.125 187.917C374.539 186.767 374.234 185.418 374.08 183.531C373.925 181.639 373.925 179.248 373.925 176.022V166.828Z" stroke="white" stroke-opacity="0.1"/>
<path d="M384.938 166.062C384.938 163.916 384.938 162.844 385.355 162.024C385.722 161.303 386.308 160.717 387.029 160.35C387.849 159.932 388.922 159.932 391.067 159.932H401.793C403.938 159.932 405.01 159.932 405.83 160.35C406.551 160.717 407.137 161.303 407.504 162.024C407.922 162.844 407.922 163.916 407.922 166.062V176.788C407.922 178.933 407.922 180.006 407.504 180.825C407.137 181.547 406.551 182.133 405.83 182.499C405.01 182.917 403.938 182.917 401.793 182.917H391.067C388.922 182.917 387.849 182.917 387.029 182.499C386.308 182.133 385.722 181.547 385.355 180.825C384.938 180.006 384.938 178.933 384.938 176.788V166.062Z" fill="white" fill-opacity="0.1"/>
<path d="M525.714 165.679H425.16C421.986 165.679 419.414 168.251 419.414 171.425C419.414 174.598 421.986 177.171 425.16 177.171H525.714C528.888 177.171 531.46 174.598 531.46 171.425C531.46 168.251 528.888 165.679 525.714 165.679Z" fill="white" fill-opacity="0.06"/>
</g>
<g filter="url(#filter14_d_1_2603)">
<path d="M197.236 166.828C197.236 160.391 197.236 157.173 198.489 154.715C199.59 152.553 201.348 150.794 203.511 149.693C205.969 148.44 209.187 148.44 215.623 148.44H347.397C353.834 148.44 357.052 148.44 359.51 149.693C361.672 150.794 363.431 152.553 364.532 154.715C365.785 157.173 365.785 160.391 365.785 166.828V176.022C365.785 182.458 365.785 185.676 364.532 188.135C363.431 190.297 361.672 192.055 359.51 193.157C357.052 194.409 353.834 194.409 347.397 194.409H215.623C209.187 194.409 205.969 194.409 203.511 193.157C201.348 192.055 199.59 190.297 198.489 188.135C197.236 185.676 197.236 182.458 197.236 176.022V166.828Z" fill="white" fill-opacity="0.06"/>
<path d="M197.715 166.828C197.715 163.601 197.715 161.211 197.87 159.319C198.024 157.432 198.329 156.083 198.915 154.932C199.971 152.86 201.656 151.175 203.728 150.119C204.878 149.533 206.228 149.228 208.114 149.074C210.006 148.919 212.397 148.919 215.623 148.919H347.397C350.624 148.919 353.014 148.919 354.907 149.074C356.793 149.228 358.142 149.533 359.293 150.119C361.365 151.175 363.05 152.86 364.106 154.932C364.692 156.083 364.996 157.432 365.151 159.319C365.306 161.211 365.306 163.601 365.306 166.828V176.022C365.306 179.248 365.306 181.639 365.151 183.531C364.996 185.418 364.692 186.767 364.106 187.917C363.05 189.99 361.365 191.674 359.293 192.73C358.142 193.317 356.793 193.621 354.907 193.775C353.014 193.93 350.624 193.93 347.397 193.93H215.623C212.397 193.93 210.006 193.93 208.114 193.775C206.228 193.621 204.878 193.317 203.728 192.73C201.656 191.674 199.971 189.99 198.915 187.917C198.329 186.767 198.024 185.418 197.87 183.531C197.715 181.639 197.715 179.248 197.715 176.022V166.828Z" stroke="white" stroke-opacity="0.1"/>
<mask id="mask1_1_2603" style="mask-type:luminance" maskUnits="userSpaceOnUse" x="208" y="159" width="24" height="24">
<path d="M225.966 159.932H214.474C211.301 159.932 208.728 162.505 208.728 165.679V177.171C208.728 180.344 211.301 182.917 214.474 182.917H225.966C229.139 182.917 231.712 180.344 231.712 177.171V165.679C231.712 162.505 229.139 159.932 225.966 159.932Z" fill="white"/>
</mask>
<g mask="url(#mask1_1_2603)">
<path d="M225.966 159.932H214.474C211.301 159.932 208.728 162.505 208.728 165.679V177.171C208.728 180.344 211.301 182.917 214.474 182.917H225.966C229.139 182.917 231.712 180.344 231.712 177.171V165.679C231.712 162.505 229.139 159.932 225.966 159.932Z" fill="url(#paint0_linear_1_2603)"/>
<g filter="url(#filter15_di_1_2603)">
<path d="M212.012 165.843C212.012 164.923 212.012 164.463 212.19 164.113C212.348 163.803 212.599 163.553 212.908 163.396C213.259 163.216 213.718 163.216 214.638 163.216H220.877C221.796 163.216 222.256 163.216 222.607 163.396C222.916 163.553 223.167 163.803 223.325 164.113C223.504 164.463 223.504 164.923 223.504 165.843V172.903C223.504 173.822 223.504 174.282 223.325 174.633C223.167 174.941 222.916 175.193 222.607 175.35C222.256 175.529 221.796 175.529 220.877 175.529H214.638C213.718 175.529 213.259 175.529 212.908 175.35C212.599 175.193 212.348 174.941 212.19 174.633C212.012 174.282 212.012 173.822 212.012 172.903V165.843Z" fill="url(#paint1_linear_1_2603)"/>
<path d="M212.617 174.416C212.728 174.634 212.906 174.812 213.126 174.924C213.222 174.973 213.354 175.009 213.599 175.03C213.849 175.05 214.17 175.051 214.638 175.051H220.877C221.344 175.051 221.666 175.05 221.916 175.03C222.16 175.009 222.292 174.973 222.39 174.924C222.608 174.812 222.786 174.634 222.898 174.416C222.947 174.319 222.984 174.186 223.004 173.942C223.024 173.692 223.025 173.37 223.025 172.903V165.843C223.025 165.375 223.024 165.053 223.004 164.803C222.984 164.559 222.947 164.427 222.898 164.33C222.786 164.111 222.608 163.933 222.39 163.822C222.292 163.773 222.16 163.736 221.916 163.715C221.666 163.695 221.344 163.695 220.877 163.695H214.638C214.17 163.695 213.849 163.695 213.599 163.715C213.354 163.736 213.222 163.773 213.126 163.822C212.906 163.933 212.728 164.111 212.617 164.33C212.567 164.427 212.531 164.559 212.511 164.803C212.491 165.053 212.491 165.375 212.491 165.843V172.903C212.491 173.37 212.491 173.692 212.511 173.942C212.531 174.186 212.567 174.319 212.617 174.416ZM212.617 174.416L212.19 174.633" stroke="white" stroke-opacity="0.06"/>
</g>
<path d="M213.817 172.917C213.365 172.497 213.854 171.921 215.182 171.309L216.016 170.924L216.341 170.262C216.52 169.899 216.788 169.306 216.935 168.944L217.203 168.287L217.018 167.802C216.792 167.203 216.71 166.305 216.854 165.982C217.049 165.545 217.689 165.59 217.942 166.059C218.14 166.425 218.12 167.088 217.885 167.925L217.693 168.611L217.862 168.877C217.955 169.025 218.227 169.372 218.466 169.652L218.916 170.171L219.476 170.103C221.253 169.888 221.861 170.255 221.861 170.779C221.861 171.441 220.466 171.496 219.294 170.731C219.031 170.56 218.85 170.389 218.85 170.389C218.85 170.389 218.115 170.527 217.754 170.618C217.38 170.711 217.195 170.77 216.648 170.941C216.648 170.941 216.456 171.2 216.331 171.387C215.866 172.088 215.323 172.667 214.936 172.878C214.502 173.114 214.047 173.13 213.817 172.917ZM214.527 172.682C214.78 172.537 215.295 171.972 215.651 171.448L215.795 171.235L215.139 171.542C214.125 172.015 213.662 172.461 213.902 172.73C214.038 172.882 214.2 172.869 214.527 172.682ZM221.11 170.966C221.358 170.805 221.321 170.48 221.041 170.347C220.822 170.246 220.646 170.225 220.078 170.233C219.729 170.255 219.167 170.32 219.073 170.34C219.073 170.34 219.381 170.538 219.518 170.61C219.7 170.707 220.143 170.887 220.466 170.979C220.785 171.069 220.97 171.059 221.11 170.966ZM218.463 169.945C218.312 169.798 218.057 169.492 217.895 169.264C217.682 169.006 217.576 168.824 217.576 168.824C217.576 168.824 217.421 169.286 217.293 169.565L216.897 170.476L216.782 170.683C216.782 170.683 217.394 170.496 217.704 170.42C218.035 170.341 218.703 170.218 218.703 170.218L218.463 169.945ZM217.609 166.769C217.648 166.47 217.664 166.171 217.561 166.021C217.274 165.729 216.928 165.973 216.986 166.665C217.006 166.898 217.068 167.295 217.152 167.541L217.303 167.988L217.41 167.652C217.469 167.467 217.559 167.069 217.609 166.769Z" fill="#F03E35"/>
<g filter="url(#filter16_di_1_2603)">
<path d="M218.578 173.231C218.578 172.312 218.579 171.852 218.758 171.5C218.915 171.192 219.166 170.94 219.475 170.783C219.825 170.604 220.285 170.604 221.205 170.604H225.802C226.721 170.604 227.181 170.604 227.532 170.783C227.841 170.94 228.092 171.192 228.25 171.5C228.428 171.852 228.428 172.312 228.428 173.231V177.007C228.428 177.926 228.428 178.386 228.25 178.738C228.092 179.046 227.841 179.297 227.532 179.455C227.181 179.634 226.721 179.634 225.802 179.634H221.205C220.285 179.634 219.825 179.634 219.475 179.455C219.166 179.297 218.915 179.046 218.758 178.738C218.579 178.386 218.578 177.926 218.578 177.007V173.231Z" fill="url(#paint2_linear_1_2603)"/>
<path d="M219.057 173.231C219.057 172.764 219.057 172.441 219.077 172.192C219.098 171.948 219.135 171.815 219.184 171.718C219.295 171.499 219.473 171.321 219.692 171.209C219.789 171.16 219.921 171.124 220.165 171.104C220.415 171.083 220.737 171.083 221.205 171.083H225.802C226.269 171.083 226.591 171.083 226.841 171.104C227.085 171.124 227.218 171.16 227.314 171.209C227.534 171.321 227.712 171.499 227.823 171.718C227.873 171.815 227.909 171.948 227.929 172.192C227.949 172.441 227.949 172.764 227.949 173.231V177.007C227.949 177.474 227.949 177.796 227.929 178.046C227.909 178.29 227.873 178.424 227.823 178.52C227.712 178.739 227.534 178.917 227.314 179.028C227.218 179.078 227.085 179.114 226.841 179.134C226.591 179.154 226.269 179.155 225.802 179.155H221.205C220.737 179.155 220.415 179.154 220.165 179.134C219.921 179.114 219.789 179.078 219.692 179.028C219.473 178.917 219.295 178.739 219.184 178.52C219.135 178.424 219.098 178.29 219.077 178.046C219.057 177.796 219.057 177.474 219.057 177.007V173.231Z" stroke="white" stroke-opacity="0.06"/>
</g>
<path fill-rule="evenodd" clip-rule="evenodd" d="M226.787 173.066H220.22V177.992H226.787V173.066ZM220.22 171.425C219.767 171.425 219.399 171.793 219.399 172.246V177.992C219.399 178.446 219.767 178.812 220.22 178.812H226.787C227.241 178.812 227.607 178.446 227.607 177.992V172.246C227.607 171.793 227.241 171.425 226.787 171.425H220.22Z" fill="#FF625A"/>
<path fill-rule="evenodd" clip-rule="evenodd" d="M221.861 177.992V176.842H220.22V176.186H221.861V175.037H220.22V174.38H221.861V173.066H222.518V174.38H224.324V173.066H224.98V174.38H226.787V175.037H224.98V176.186H226.787V176.842H224.98V177.992H224.324V176.842H222.518V177.992H221.861ZM224.324 176.186V175.037H222.518V176.186H224.324Z" fill="#FF8983"/>
</g>
<path d="M243.632 175V167.727H245.17V173.732H248.288V175H243.632ZM251.763 175.107C251.202 175.107 250.719 174.993 250.314 174.766C249.912 174.536 249.602 174.212 249.384 173.793C249.166 173.371 249.057 172.873 249.057 172.298C249.057 171.737 249.166 171.244 249.384 170.82C249.602 170.397 249.908 170.066 250.304 169.83C250.702 169.593 251.168 169.474 251.703 169.474C252.063 169.474 252.398 169.532 252.708 169.648C253.02 169.762 253.293 169.934 253.525 170.163C253.759 170.393 253.941 170.682 254.072 171.03C254.202 171.375 254.267 171.78 254.267 172.244V172.66H249.661V171.722H252.843C252.843 171.504 252.796 171.312 252.701 171.143C252.606 170.975 252.475 170.844 252.307 170.749C252.141 170.652 251.948 170.604 251.728 170.604C251.498 170.604 251.295 170.657 251.117 170.763C250.942 170.868 250.805 171.009 250.705 171.186C250.606 171.361 250.555 171.557 250.552 171.772V172.663C250.552 172.933 250.602 173.166 250.702 173.363C250.803 173.559 250.947 173.711 251.131 173.817C251.316 173.924 251.535 173.977 251.788 173.977C251.956 173.977 252.11 173.954 252.25 173.906C252.39 173.859 252.509 173.788 252.608 173.693C252.708 173.598 252.784 173.482 252.836 173.345L254.235 173.438C254.164 173.774 254.018 174.067 253.798 174.318C253.58 174.567 253.299 174.761 252.953 174.901C252.61 175.038 252.213 175.107 251.763 175.107ZM258.155 169.545V170.682H254.871V169.545H258.155ZM255.616 168.239H257.129V173.324C257.129 173.464 257.15 173.572 257.193 173.651C257.236 173.726 257.295 173.78 257.371 173.81C257.449 173.841 257.539 173.857 257.64 173.857C257.711 173.857 257.782 173.851 257.854 173.839C257.925 173.825 257.979 173.814 258.017 173.807L258.255 174.933C258.179 174.956 258.073 174.983 257.935 175.014C257.798 175.047 257.631 175.067 257.434 175.075C257.07 175.089 256.75 175.04 256.476 174.929C256.203 174.818 255.992 174.645 255.84 174.411C255.689 174.176 255.614 173.88 255.616 173.523V168.239ZM260.653 167.727V168.494C260.653 168.712 260.61 168.935 260.525 169.162C260.442 169.387 260.331 169.6 260.191 169.801C260.051 170 259.899 170.169 259.733 170.309L259.065 169.915C259.184 169.728 259.288 169.521 259.378 169.293C259.47 169.066 259.516 168.802 259.516 168.501V167.727H260.653ZM265.515 171.101L264.13 171.186C264.106 171.068 264.056 170.961 263.977 170.866C263.899 170.769 263.796 170.692 263.669 170.636C263.543 170.576 263.393 170.547 263.218 170.547C262.983 170.547 262.785 170.597 262.624 170.696C262.463 170.793 262.383 170.923 262.383 171.087C262.383 171.217 262.435 171.327 262.539 171.417C262.643 171.507 262.822 171.579 263.075 171.634L264.063 171.832C264.593 171.941 264.988 172.116 265.249 172.358C265.509 172.599 265.639 172.917 265.639 173.31C265.639 173.667 265.534 173.981 265.323 174.251C265.115 174.521 264.829 174.731 264.464 174.883C264.102 175.032 263.684 175.107 263.21 175.107C262.488 175.107 261.913 174.956 261.485 174.656C261.058 174.353 260.809 173.941 260.735 173.42L262.223 173.342C262.268 173.562 262.377 173.73 262.55 173.846C262.723 173.96 262.944 174.016 263.214 174.016C263.479 174.016 263.692 173.965 263.853 173.864C264.017 173.759 264.099 173.626 264.102 173.462C264.099 173.325 264.041 173.213 263.928 173.125C263.814 173.035 263.639 172.966 263.402 172.919L262.458 172.731C261.925 172.624 261.528 172.44 261.268 172.177C261.01 171.914 260.881 171.579 260.881 171.172C260.881 170.821 260.976 170.52 261.165 170.266C261.357 170.013 261.625 169.818 261.971 169.68C262.319 169.543 262.726 169.474 263.193 169.474C263.882 169.474 264.424 169.62 264.819 169.911C265.217 170.202 265.449 170.599 265.515 171.101ZM268.935 175V167.727H271.847C272.382 167.727 272.828 167.807 273.186 167.965C273.543 168.124 273.812 168.344 273.992 168.626C274.172 168.905 274.262 169.227 274.262 169.592C274.262 169.876 274.205 170.125 274.091 170.341C273.977 170.554 273.821 170.729 273.622 170.866C273.426 171.001 273.201 171.097 272.948 171.154V171.225C273.225 171.237 273.484 171.315 273.725 171.46C273.969 171.604 274.167 171.806 274.318 172.067C274.47 172.325 274.546 172.633 274.546 172.99C274.546 173.376 274.45 173.72 274.258 174.023C274.069 174.324 273.788 174.562 273.416 174.737C273.045 174.912 272.587 175 272.042 175H268.935ZM270.472 173.743H271.726C272.155 173.743 272.467 173.661 272.664 173.498C272.86 173.332 272.958 173.112 272.958 172.837C272.958 172.636 272.91 172.459 272.813 172.305C272.716 172.151 272.577 172.03 272.397 171.942C272.22 171.855 272.008 171.811 271.762 171.811H270.472V173.743ZM270.472 170.771H271.612C271.823 170.771 272.01 170.734 272.173 170.661C272.339 170.585 272.469 170.478 272.564 170.341C272.661 170.204 272.71 170.039 272.71 169.847C272.71 169.585 272.616 169.373 272.429 169.212C272.244 169.051 271.982 168.97 271.641 168.97H270.472V170.771ZM279.016 172.678V169.545H280.528V175H279.076V174.009H279.019C278.896 174.329 278.691 174.586 278.405 174.78C278.121 174.974 277.774 175.071 277.364 175.071C277 175.071 276.679 174.988 276.402 174.822C276.125 174.657 275.908 174.421 275.752 174.116C275.598 173.81 275.52 173.445 275.518 173.018V169.545H277.031V172.749C277.033 173.071 277.119 173.325 277.29 173.512C277.46 173.699 277.689 173.793 277.975 173.793C278.157 173.793 278.328 173.751 278.487 173.668C278.645 173.583 278.773 173.458 278.87 173.292C278.969 173.126 279.018 172.921 279.016 172.678ZM281.738 175V169.545H283.251V175H281.738ZM282.498 168.842C282.273 168.842 282.081 168.768 281.92 168.619C281.761 168.467 281.682 168.286 281.682 168.075C281.682 167.867 281.761 167.688 281.92 167.539C282.081 167.388 282.273 167.312 282.498 167.312C282.723 167.312 282.915 167.388 283.074 167.539C283.235 167.688 283.315 167.867 283.315 168.075C283.315 168.286 283.235 168.467 283.074 168.619C282.915 168.768 282.723 168.842 282.498 168.842ZM285.976 167.727V175H284.463V167.727H285.976ZM289.198 175.089C288.783 175.089 288.408 174.982 288.072 174.769C287.738 174.554 287.473 174.238 287.276 173.821C287.082 173.402 286.985 172.888 286.985 172.28C286.985 171.655 287.086 171.135 287.287 170.721C287.488 170.304 287.756 169.993 288.09 169.787C288.426 169.579 288.794 169.474 289.194 169.474C289.499 169.474 289.754 169.527 289.958 169.631C290.164 169.732 290.329 169.86 290.455 170.014C290.583 170.166 290.68 170.315 290.746 170.462H290.792V167.727H292.301V175H290.81V174.126H290.746C290.675 174.278 290.574 174.428 290.444 174.577C290.316 174.724 290.149 174.846 289.943 174.943C289.74 175.04 289.491 175.089 289.198 175.089ZM289.677 173.885C289.921 173.885 290.127 173.819 290.295 173.686C290.465 173.551 290.596 173.363 290.686 173.121C290.778 172.88 290.824 172.597 290.824 172.273C290.824 171.948 290.779 171.667 290.689 171.428C290.599 171.188 290.469 171.004 290.298 170.874C290.128 170.743 289.921 170.678 289.677 170.678C289.428 170.678 289.219 170.746 289.048 170.881C288.878 171.016 288.749 171.203 288.661 171.442C288.574 171.681 288.53 171.958 288.53 172.273C288.53 172.59 288.574 172.871 288.661 173.114C288.751 173.356 288.88 173.545 289.048 173.683C289.219 173.817 289.428 173.885 289.677 173.885ZM295.611 168.995V167.727H301.584V168.995H299.357V175H297.838V168.995H295.611ZM304.213 175.107C303.661 175.107 303.184 174.989 302.782 174.755C302.382 174.518 302.073 174.189 301.855 173.768C301.637 173.344 301.528 172.853 301.528 172.294C301.528 171.731 301.637 171.238 301.855 170.817C302.073 170.393 302.382 170.064 302.782 169.83C303.184 169.593 303.661 169.474 304.213 169.474C304.764 169.474 305.24 169.593 305.64 169.83C306.043 170.064 306.353 170.393 306.571 170.817C306.788 171.238 306.897 171.731 306.897 172.294C306.897 172.853 306.788 173.344 306.571 173.768C306.353 174.189 306.043 174.518 305.64 174.755C305.24 174.989 304.764 175.107 304.213 175.107ZM304.22 173.935C304.471 173.935 304.68 173.864 304.848 173.722C305.016 173.577 305.143 173.381 305.228 173.132C305.316 172.884 305.36 172.601 305.36 172.283C305.36 171.966 305.316 171.683 305.228 171.435C305.143 171.186 305.016 170.99 304.848 170.845C304.68 170.701 304.471 170.629 304.22 170.629C303.967 170.629 303.753 170.701 303.581 170.845C303.41 170.99 303.281 171.186 303.194 171.435C303.108 171.683 303.066 171.966 303.066 172.283C303.066 172.601 303.108 172.884 303.194 173.132C303.281 173.381 303.41 173.577 303.581 173.722C303.753 173.864 303.967 173.935 304.22 173.935ZM310.338 177.159C309.848 177.159 309.428 177.092 309.078 176.957C308.73 176.824 308.453 176.643 308.247 176.413C308.041 176.184 307.907 175.926 307.846 175.639L309.245 175.451C309.287 175.56 309.355 175.662 309.447 175.756C309.539 175.851 309.661 175.927 309.813 175.984C309.967 176.043 310.154 176.072 310.374 176.072C310.703 176.072 310.974 175.992 311.187 175.831C311.403 175.672 311.51 175.406 311.51 175.032V174.034H311.446C311.38 174.186 311.281 174.329 311.148 174.464C311.016 174.599 310.845 174.709 310.637 174.794C310.428 174.879 310.18 174.922 309.891 174.922C309.481 174.922 309.109 174.827 308.772 174.638C308.439 174.446 308.172 174.154 307.973 173.761C307.777 173.365 307.679 172.866 307.679 172.262C307.679 171.644 307.779 171.128 307.98 170.714C308.182 170.299 308.449 169.989 308.783 169.783C309.119 169.577 309.487 169.474 309.887 169.474C310.193 169.474 310.449 169.527 310.654 169.631C310.86 169.732 311.026 169.86 311.152 170.014C311.279 170.166 311.378 170.315 311.446 170.462H311.503V169.545H313.005V175.053C313.005 175.517 312.892 175.906 312.664 176.218C312.437 176.531 312.122 176.765 311.72 176.921C311.32 177.08 310.859 177.159 310.338 177.159ZM310.37 173.786C310.614 173.786 310.82 173.725 310.988 173.604C311.159 173.481 311.289 173.306 311.379 173.079C311.471 172.849 311.517 172.575 311.517 172.255C311.517 171.935 311.472 171.658 311.382 171.424C311.292 171.187 311.162 171.004 310.992 170.874C310.821 170.743 310.614 170.678 310.37 170.678C310.122 170.678 309.912 170.746 309.742 170.881C309.571 171.013 309.442 171.198 309.355 171.435C309.267 171.671 309.223 171.945 309.223 172.255C309.223 172.57 309.267 172.842 309.355 173.072C309.445 173.299 309.574 173.475 309.742 173.601C309.912 173.724 310.122 173.786 310.37 173.786ZM316.695 175.107C316.134 175.107 315.651 174.993 315.246 174.766C314.844 174.536 314.533 174.212 314.316 173.793C314.098 173.371 313.989 172.873 313.989 172.298C313.989 171.737 314.098 171.244 314.316 170.82C314.533 170.397 314.84 170.066 315.235 169.83C315.633 169.593 316.1 169.474 316.635 169.474C316.994 169.474 317.329 169.532 317.64 169.648C317.952 169.762 318.224 169.934 318.456 170.163C318.691 170.393 318.873 170.682 319.003 171.03C319.133 171.375 319.199 171.78 319.199 172.244V172.66H314.593V171.722H317.775C317.775 171.504 317.727 171.312 317.632 171.143C317.538 170.975 317.406 170.844 317.238 170.749C317.073 170.652 316.88 170.604 316.659 170.604C316.43 170.604 316.226 170.657 316.049 170.763C315.873 170.868 315.736 171.009 315.637 171.186C315.537 171.361 315.486 171.557 315.484 171.772V172.663C315.484 172.933 315.534 173.166 315.633 173.363C315.735 173.559 315.878 173.711 316.063 173.817C316.248 173.924 316.467 173.977 316.72 173.977C316.888 173.977 317.042 173.954 317.181 173.906C317.321 173.859 317.441 173.788 317.54 173.693C317.64 173.598 317.715 173.482 317.767 173.345L319.167 173.438C319.096 173.774 318.95 174.067 318.73 174.318C318.512 174.567 318.23 174.761 317.885 174.901C317.541 175.038 317.145 175.107 316.695 175.107ZM323.087 169.545V170.682H319.802V169.545H323.087ZM320.548 168.239H322.061V173.324C322.061 173.464 322.082 173.572 322.125 173.651C322.167 173.726 322.226 173.78 322.302 173.81C322.38 173.841 322.47 173.857 322.572 173.857C322.643 173.857 322.714 173.851 322.785 173.839C322.856 173.825 322.911 173.814 322.949 173.807L323.186 174.933C323.111 174.956 323.004 174.983 322.867 175.014C322.73 175.047 322.563 175.067 322.366 175.075C322.002 175.089 321.682 175.04 321.407 174.929C321.135 174.818 320.923 174.645 320.772 174.411C320.62 174.176 320.546 173.88 320.548 173.523V168.239ZM325.702 171.847V175H324.19V167.727H325.66V170.508H325.724C325.847 170.186 326.046 169.934 326.32 169.751C326.595 169.567 326.939 169.474 327.354 169.474C327.732 169.474 328.063 169.557 328.344 169.723C328.629 169.886 328.849 170.122 329.005 170.43C329.164 170.735 329.242 171.101 329.239 171.527V175H327.727V171.797C327.729 171.461 327.644 171.199 327.471 171.012C327.3 170.825 327.061 170.732 326.754 170.732C326.548 170.732 326.365 170.775 326.207 170.863C326.05 170.951 325.927 171.078 325.837 171.246C325.75 171.412 325.705 171.612 325.702 171.847ZM332.916 175.107C332.355 175.107 331.872 174.993 331.467 174.766C331.064 174.536 330.754 174.212 330.536 173.793C330.319 173.371 330.21 172.873 330.21 172.298C330.21 171.737 330.319 171.244 330.536 170.82C330.754 170.397 331.061 170.066 331.456 169.83C331.854 169.593 332.32 169.474 332.855 169.474C333.215 169.474 333.55 169.532 333.86 169.648C334.173 169.762 334.445 169.934 334.677 170.163C334.911 170.393 335.094 170.682 335.224 171.03C335.354 171.375 335.419 171.78 335.419 172.244V172.66H330.813V171.722H333.995C333.995 171.504 333.948 171.312 333.853 171.143C333.758 170.975 333.627 170.844 333.459 170.749C333.293 170.652 333.1 170.604 332.88 170.604C332.651 170.604 332.447 170.657 332.269 170.763C332.094 170.868 331.957 171.009 331.857 171.186C331.758 171.361 331.707 171.557 331.705 171.772V172.663C331.705 172.933 331.754 173.166 331.854 173.363C331.956 173.559 332.099 173.711 332.284 173.817C332.468 173.924 332.687 173.977 332.941 173.977C333.109 173.977 333.262 173.954 333.402 173.906C333.542 173.859 333.661 173.788 333.761 173.693C333.86 173.598 333.936 173.482 333.988 173.345L335.387 173.438C335.316 173.774 335.171 174.067 334.95 174.318C334.733 174.567 334.451 174.761 334.105 174.901C333.762 175.038 333.365 175.107 332.916 175.107ZM336.406 175V169.545H337.873V170.497H337.93C338.029 170.159 338.196 169.903 338.431 169.73C338.665 169.555 338.935 169.467 339.24 169.467C339.316 169.467 339.398 169.472 339.485 169.482C339.573 169.491 339.65 169.504 339.716 169.521V170.863C339.645 170.842 339.547 170.823 339.421 170.806C339.296 170.79 339.181 170.781 339.077 170.781C338.854 170.781 338.655 170.83 338.48 170.927C338.307 171.022 338.17 171.154 338.068 171.325C337.969 171.495 337.919 171.692 337.919 171.914V175H336.406Z" fill="white"/>
</g>
</g>
</g>
</g>
<rect width="563.19" height="112.63" transform="translate(0 210.203)" fill="url(#paint3_linear_1_2603)"/>
<defs>
<filter id="filter0_d_1_2603" x="202.283" y="31.1578" width="164.2" height="78.0115" filterUnits="userSpaceOnUse" color-interpolation-filters="sRGB">
<feFlood flood-opacity="0" result="BackgroundImageFix"/>
<feColorMatrix in="SourceAlpha" type="matrix" values="0 0 0 0 0 0 0 0 0 0 0 0 0 0 0 0 0 0 127 0" result="hardAlpha"/>
<feOffset dy="6"/>
<feGaussianBlur stdDeviation="8"/>
<feComposite in2="hardAlpha" operator="out"/>
<feColorMatrix type="matrix" values="0 0 0 0 0 0 0 0 0 0 0 0 0 0 0 0 0 0 0.3 0"/>
<feBlend mode="normal" in2="BackgroundImageFix" result="effect1_dropShadow_1_2603"/>
<feBlend mode="normal" in="SourceGraphic" in2="effect1_dropShadow_1_2603" result="shape"/>
</filter>
<filter id="filter1_d_1_2603" x="5.00504" y="138.419" width="200.591" height="78.0115" filterUnits="userSpaceOnUse" color-interpolation-filters="sRGB">
<feFlood flood-opacity="0" result="BackgroundImageFix"/>
<feColorMatrix in="SourceAlpha" type="matrix" values="0 0 0 0 0 0 0 0 0 0 0 0 0 0 0 0 0 0 127 0" result="hardAlpha"/>
<feOffset dy="6"/>
<feGaussianBlur stdDeviation="8"/>
<feComposite in2="hardAlpha" operator="out"/>
<feColorMatrix type="matrix" values="0 0 0 0 0 0 0 0 0 0 0 0 0 0 0 0 0 0 0.3 0"/>
<feBlend mode="normal" in2="BackgroundImageFix" result="effect1_dropShadow_1_2603"/>
<feBlend mode="normal" in="SourceGraphic" in2="effect1_dropShadow_1_2603" result="shape"/>
</filter>
<filter id="filter2_d_1_2603" x="324.864" y="84.7885" width="204.422" height="78.0115" filterUnits="userSpaceOnUse" color-interpolation-filters="sRGB">
<feFlood flood-opacity="0" result="BackgroundImageFix"/>
<feColorMatrix in="SourceAlpha" type="matrix" values="0 0 0 0 0 0 0 0 0 0 0 0 0 0 0 0 0 0 127 0" result="hardAlpha"/>
<feOffset dy="6"/>
<feGaussianBlur stdDeviation="8"/>
<feComposite in2="hardAlpha" operator="out"/>
<feColorMatrix type="matrix" values="0 0 0 0 0 0 0 0 0 0 0 0 0 0 0 0 0 0 0.3 0"/>
<feBlend mode="normal" in2="BackgroundImageFix" result="effect1_dropShadow_1_2603"/>
<feBlend mode="normal" in="SourceGraphic" in2="effect1_dropShadow_1_2603" result="shape"/>
</filter>
<filter id="filter3_d_1_2603" x="34.6926" y="84.7885" width="181.438" height="78.0115" filterUnits="userSpaceOnUse" color-interpolation-filters="sRGB">
<feFlood flood-opacity="0" result="BackgroundImageFix"/>
<feColorMatrix in="SourceAlpha" type="matrix" values="0 0 0 0 0 0 0 0 0 0 0 0 0 0 0 0 0 0 127 0" result="hardAlpha"/>
<feOffset dy="6"/>
<feGaussianBlur stdDeviation="8"/>
<feComposite in2="hardAlpha" operator="out"/>
<feColorMatrix type="matrix" values="0 0 0 0 0 0 0 0 0 0 0 0 0 0 0 0 0 0 0.3 0"/>
<feBlend mode="normal" in2="BackgroundImageFix" result="effect1_dropShadow_1_2603"/>
<feBlend mode="normal" in="SourceGraphic" in2="effect1_dropShadow_1_2603" result="shape"/>
</filter>
<filter id="filter4_d_1_2603" x="191.749" y="84.7885" width="157.496" height="78.0115" filterUnits="userSpaceOnUse" color-interpolation-filters="sRGB">
<feFlood flood-opacity="0" result="BackgroundImageFix"/>
<feColorMatrix in="SourceAlpha" type="matrix" values="0 0 0 0 0 0 0 0 0 0 0 0 0 0 0 0 0 0 127 0" result="hardAlpha"/>
<feOffset dy="6"/>
<feGaussianBlur stdDeviation="8"/>
<feComposite in2="hardAlpha" operator="out"/>
<feColorMatrix type="matrix" values="0 0 0 0 0 0 0 0 0 0 0 0 0 0 0 0 0 0 0.3 0"/>
<feBlend mode="normal" in2="BackgroundImageFix" result="effect1_dropShadow_1_2603"/>
<feBlend mode="normal" in="SourceGraphic" in2="effect1_dropShadow_1_2603" result="shape"/>
</filter>
<filter id="filter5_d_1_2603" x="342.102" y="31.1578" width="204.422" height="78.0115" filterUnits="userSpaceOnUse" color-interpolation-filters="sRGB">
<feFlood flood-opacity="0" result="BackgroundImageFix"/>
<feColorMatrix in="SourceAlpha" type="matrix" values="0 0 0 0 0 0 0 0 0 0 0 0 0 0 0 0 0 0 127 0" result="hardAlpha"/>
<feOffset dy="6"/>
<feGaussianBlur stdDeviation="8"/>
<feComposite in2="hardAlpha" operator="out"/>
<feColorMatrix type="matrix" values="0 0 0 0 0 0 0 0 0 0 0 0 0 0 0 0 0 0 0.3 0"/>
<feBlend mode="normal" in2="BackgroundImageFix" result="effect1_dropShadow_1_2603"/>
<feBlend mode="normal" in="SourceGraphic" in2="effect1_dropShadow_1_2603" result="shape"/>
</filter>
<filter id="filter6_d_1_2603" x="22.243" y="31.1578" width="204.422" height="78.0115" filterUnits="userSpaceOnUse" color-interpolation-filters="sRGB">
<feFlood flood-opacity="0" result="BackgroundImageFix"/>
<feColorMatrix in="SourceAlpha" type="matrix" values="0 0 0 0 0 0 0 0 0 0 0 0 0 0 0 0 0 0 127 0" result="hardAlpha"/>
<feOffset dy="6"/>
<feGaussianBlur stdDeviation="8"/>
<feComposite in2="hardAlpha" operator="out"/>
<feColorMatrix type="matrix" values="0 0 0 0 0 0 0 0 0 0 0 0 0 0 0 0 0 0 0.3 0"/>
<feBlend mode="normal" in2="BackgroundImageFix" result="effect1_dropShadow_1_2603"/>
<feBlend mode="normal" in="SourceGraphic" in2="effect1_dropShadow_1_2603" result="shape"/>
</filter>
<filter id="filter7_d_1_2603" x="-1.69858" y="244.723" width="204.422" height="78.0115" filterUnits="userSpaceOnUse" color-interpolation-filters="sRGB">
<feFlood flood-opacity="0" result="BackgroundImageFix"/>
<feColorMatrix in="SourceAlpha" type="matrix" values="0 0 0 0 0 0 0 0 0 0 0 0 0 0 0 0 0 0 127 0" result="hardAlpha"/>
<feOffset dy="6"/>
<feGaussianBlur stdDeviation="8"/>
<feComposite in2="hardAlpha" operator="out"/>
<feColorMatrix type="matrix" values="0 0 0 0 0 0 0 0 0 0 0 0 0 0 0 0 0 0 0.3 0"/>
<feBlend mode="normal" in2="BackgroundImageFix" result="effect1_dropShadow_1_2603"/>
<feBlend mode="normal" in="SourceGraphic" in2="effect1_dropShadow_1_2603" result="shape"/>
</filter>
<filter id="filter8_d_1_2603" x="178.342" y="244.723" width="204.422" height="78.0115" filterUnits="userSpaceOnUse" color-interpolation-filters="sRGB">
<feFlood flood-opacity="0" result="BackgroundImageFix"/>
<feColorMatrix in="SourceAlpha" type="matrix" values="0 0 0 0 0 0 0 0 0 0 0 0 0 0 0 0 0 0 127 0" result="hardAlpha"/>
<feOffset dy="6"/>
<feGaussianBlur stdDeviation="8"/>
<feComposite in2="hardAlpha" operator="out"/>
<feColorMatrix type="matrix" values="0 0 0 0 0 0 0 0 0 0 0 0 0 0 0 0 0 0 0.3 0"/>
<feBlend mode="normal" in2="BackgroundImageFix" result="effect1_dropShadow_1_2603"/>
<feBlend mode="normal" in="SourceGraphic" in2="effect1_dropShadow_1_2603" result="shape"/>
</filter>
<filter id="filter9_d_1_2603" x="356.467" y="244.723" width="204.422" height="78.0115" filterUnits="userSpaceOnUse" color-interpolation-filters="sRGB">
<feFlood flood-opacity="0" result="BackgroundImageFix"/>
<feColorMatrix in="SourceAlpha" type="matrix" values="0 0 0 0 0 0 0 0 0 0 0 0 0 0 0 0 0 0 127 0" result="hardAlpha"/>
<feOffset dy="6"/>
<feGaussianBlur stdDeviation="8"/>
<feComposite in2="hardAlpha" operator="out"/>
<feColorMatrix type="matrix" values="0 0 0 0 0 0 0 0 0 0 0 0 0 0 0 0 0 0 0.3 0"/>
<feBlend mode="normal" in2="BackgroundImageFix" result="effect1_dropShadow_1_2603"/>
<feBlend mode="normal" in="SourceGraphic" in2="effect1_dropShadow_1_2603" result="shape"/>
</filter>
<filter id="filter10_d_1_2603" x="24.1583" y="191.092" width="204.422" height="78.0115" filterUnits="userSpaceOnUse" color-interpolation-filters="sRGB">
<feFlood flood-opacity="0" result="BackgroundImageFix"/>
<feColorMatrix in="SourceAlpha" type="matrix" values="0 0 0 0 0 0 0 0 0 0 0 0 0 0 0 0 0 0 127 0" result="hardAlpha"/>
<feOffset dy="6"/>
<feGaussianBlur stdDeviation="8"/>
<feComposite in2="hardAlpha" operator="out"/>
<feColorMatrix type="matrix" values="0 0 0 0 0 0 0 0 0 0 0 0 0 0 0 0 0 0 0.3 0"/>
<feBlend mode="normal" in2="BackgroundImageFix" result="effect1_dropShadow_1_2603"/>
<feBlend mode="normal" in="SourceGraphic" in2="effect1_dropShadow_1_2603" result="shape"/>
</filter>
<filter id="filter11_d_1_2603" x="351.679" y="191.092" width="204.422" height="78.0115" filterUnits="userSpaceOnUse" color-interpolation-filters="sRGB">
<feFlood flood-opacity="0" result="BackgroundImageFix"/>
<feColorMatrix in="SourceAlpha" type="matrix" values="0 0 0 0 0 0 0 0 0 0 0 0 0 0 0 0 0 0 127 0" result="hardAlpha"/>
<feOffset dy="6"/>
<feGaussianBlur stdDeviation="8"/>
<feComposite in2="hardAlpha" operator="out"/>
<feColorMatrix type="matrix" values="0 0 0 0 0 0 0 0 0 0 0 0 0 0 0 0 0 0 0.3 0"/>
<feBlend mode="normal" in2="BackgroundImageFix" result="effect1_dropShadow_1_2603"/>
<feBlend mode="normal" in="SourceGraphic" in2="effect1_dropShadow_1_2603" result="shape"/>
</filter>
<filter id="filter12_d_1_2603" x="204.199" y="191.092" width="171.861" height="78.0115" filterUnits="userSpaceOnUse" color-interpolation-filters="sRGB">
<feFlood flood-opacity="0" result="BackgroundImageFix"/>
<feColorMatrix in="SourceAlpha" type="matrix" values="0 0 0 0 0 0 0 0 0 0 0 0 0 0 0 0 0 0 127 0" result="hardAlpha"/>
<feOffset dy="6"/>
<feGaussianBlur stdDeviation="8"/>
<feComposite in2="hardAlpha" operator="out"/>
<feColorMatrix type="matrix" values="0 0 0 0 0 0 0 0 0 0 0 0 0 0 0 0 0 0 0.3 0"/>
<feBlend mode="normal" in2="BackgroundImageFix" result="effect1_dropShadow_1_2603"/>
<feBlend mode="normal" in="SourceGraphic" in2="effect1_dropShadow_1_2603" result="shape"/>
</filter>
<filter id="filter13_d_1_2603" x="357.425" y="138.419" width="201.549" height="78.0115" filterUnits="userSpaceOnUse" color-interpolation-filters="sRGB">
<feFlood flood-opacity="0" result="BackgroundImageFix"/>
<feColorMatrix in="SourceAlpha" type="matrix" values="0 0 0 0 0 0 0 0 0 0 0 0 0 0 0 0 0 0 127 0" result="hardAlpha"/>
<feOffset dy="6"/>
<feGaussianBlur stdDeviation="8"/>
<feComposite in2="hardAlpha" operator="out"/>
<feColorMatrix type="matrix" values="0 0 0 0 0 0 0 0 0 0 0 0 0 0 0 0 0 0 0.3 0"/>
<feBlend mode="normal" in2="BackgroundImageFix" result="effect1_dropShadow_1_2603"/>
<feBlend mode="normal" in="SourceGraphic" in2="effect1_dropShadow_1_2603" result="shape"/>
</filter>
<filter id="filter14_d_1_2603" x="181.215" y="138.419" width="200.591" height="78.0115" filterUnits="userSpaceOnUse" color-interpolation-filters="sRGB">
<feFlood flood-opacity="0" result="BackgroundImageFix"/>
<feColorMatrix in="SourceAlpha" type="matrix" values="0 0 0 0 0 0 0 0 0 0 0 0 0 0 0 0 0 0 127 0" result="hardAlpha"/>
<feOffset dy="6"/>
<feGaussianBlur stdDeviation="8"/>
<feComposite in2="hardAlpha" operator="out"/>
<feColorMatrix type="matrix" values="0 0 0 0 0 0 0 0 0 0 0 0 0 0 0 0 0 0 0.3 0"/>
<feBlend mode="normal" in2="BackgroundImageFix" result="effect1_dropShadow_1_2603"/>
<feBlend mode="normal" in="SourceGraphic" in2="effect1_dropShadow_1_2603" result="shape"/>
</filter>
<filter id="filter15_di_1_2603" x="210.963" y="163.195" width="13.5618" height="15.3553" filterUnits="userSpaceOnUse" color-interpolation-filters="sRGB">
<feFlood flood-opacity="0" result="BackgroundImageFix"/>
<feColorMatrix in="SourceAlpha" type="matrix" values="0 0 0 0 0 0 0 0 0 0 0 0 0 0 0 0 0 0 127 0" result="hardAlpha"/>
<feOffset dy="1"/>
<feGaussianBlur stdDeviation="0.5"/>
<feComposite in2="hardAlpha" operator="out"/>
<feColorMatrix type="matrix" values="0 0 0 0 0 0 0 0 0 0 0 0 0 0 0 0 0 0 0.15 0"/>
<feBlend mode="normal" in2="BackgroundImageFix" result="effect1_dropShadow_1_2603"/>
<feBlend mode="normal" in="SourceGraphic" in2="effect1_dropShadow_1_2603" result="shape"/>
<feColorMatrix in="SourceAlpha" type="matrix" values="0 0 0 0 0 0 0 0 0 0 0 0 0 0 0 0 0 0 127 0" result="hardAlpha"/>
<feOffset dy="3"/>
<feGaussianBlur stdDeviation="2"/>
<feComposite in2="hardAlpha" operator="arithmetic" k2="-1" k3="1"/>
<feColorMatrix type="matrix" values="0 0 0 0 0 0 0 0 0 0 0 0 0 0 0 0 0 0 0.2 0"/>
<feBlend mode="normal" in2="shape" result="effect2_innerShadow_1_2603"/>
</filter>
<filter id="filter16_di_1_2603" x="217.557" y="170.583" width="11.8919" height="12.0724" filterUnits="userSpaceOnUse" color-interpolation-filters="sRGB">
<feFlood flood-opacity="0" result="BackgroundImageFix"/>
<feColorMatrix in="SourceAlpha" type="matrix" values="0 0 0 0 0 0 0 0 0 0 0 0 0 0 0 0 0 0 127 0" result="hardAlpha"/>
<feOffset dy="1"/>
<feGaussianBlur stdDeviation="0.5"/>
<feComposite in2="hardAlpha" operator="out"/>
<feColorMatrix type="matrix" values="0 0 0 0 0 0 0 0 0 0 0 0 0 0 0 0 0 0 0.15 0"/>
<feBlend mode="normal" in2="BackgroundImageFix" result="effect1_dropShadow_1_2603"/>
<feBlend mode="normal" in="SourceGraphic" in2="effect1_dropShadow_1_2603" result="shape"/>
<feColorMatrix in="SourceAlpha" type="matrix" values="0 0 0 0 0 0 0 0 0 0 0 0 0 0 0 0 0 0 127 0" result="hardAlpha"/>
<feOffset dy="3"/>
<feGaussianBlur stdDeviation="2"/>
<feComposite in2="hardAlpha" operator="arithmetic" k2="-1" k3="1"/>
<feColorMatrix type="matrix" values="0 0 0 0 0 0 0 0 0 0 0 0 0 0 0 0 0 0 0.2 0"/>
<feBlend mode="normal" in2="shape" result="effect2_innerShadow_1_2603"/>
</filter>
<linearGradient id="paint0_linear_1_2603" x1="220.22" y1="159.932" x2="220.22" y2="182.917" gradientUnits="userSpaceOnUse">
<stop stop-color="#FF5C2D"/>
<stop offset="1" stop-color="#D63D0E"/>
</linearGradient>
<linearGradient id="paint1_linear_1_2603" x1="218.396" y1="163.216" x2="218.396" y2="175.529" gradientUnits="userSpaceOnUse">
<stop stop-color="white"/>
<stop offset="1" stop-color="#FFE0D7"/>
</linearGradient>
<linearGradient id="paint2_linear_1_2603" x1="224.051" y1="170.604" x2="224.051" y2="179.634" gradientUnits="userSpaceOnUse">
<stop stop-color="white"/>
<stop offset="1" stop-color="#FFE0D7"/>
</linearGradient>
<linearGradient id="paint3_linear_1_2603" x1="281.595" y1="112.63" x2="281.595" y2="0" gradientUnits="userSpaceOnUse">
<stop stop-color="#08090A"/>
<stop offset="1" stop-color="#08090A" stop-opacity="0"/>
</linearGradient>
<clipPath id="clip0_1_2603">
<rect width="561.19" height="320.66" fill="white" transform="translate(1 1.17188)"/>
</clipPath>
<clipPath id="clip1_1_2603">
<rect width="561.19" height="303.04" fill="white" transform="translate(-1 25.1719)"/>
</clipPath>
<clipPath id="clip2_1_2603">
<rect width="561.19" height="290.18" fill="white" transform="translate(-1 31.6021)"/>
</clipPath>
</defs>
</svg>
