<svg width="305" height="239" viewBox="0 0 305 239" fill="none" xmlns="http://www.w3.org/2000/svg">
<g opacity="0.7" clip-path="url(#clip0_1_2948)">
<g clip-path="url(#clip1_1_2948)">
<g filter="url(#filter0_d_1_2948)">
<path d="M15.5788 56.8085C15.5788 48.1446 15.5789 43.8126 17.2649 40.5035C18.7481 37.5926 21.1146 35.226 24.0254 33.7428C27.3344 32.0567 31.6663 32.0567 40.33 32.0567H306.985C315.649 32.0567 319.98 32.0567 323.29 33.7428C326.2 35.226 328.567 37.5926 330.05 40.5035C331.736 43.8126 331.736 48.1446 331.736 56.8085V267.392C331.736 276.056 331.736 280.388 330.05 283.698C328.567 286.608 326.2 288.975 323.29 290.458C319.98 292.144 315.649 292.144 306.985 292.144H40.33C31.6663 292.144 27.3344 292.144 24.0254 290.458C21.1146 288.975 18.7481 286.608 17.2649 283.698C15.5789 280.388 15.5788 276.056 15.5788 267.392V56.8085Z" fill="url(#paint0_linear_1_2948)"/>
<path d="M16.0623 56.8085C16.0623 52.4686 16.0627 49.2427 16.2714 46.6873C16.4798 44.1375 16.8932 42.298 17.6957 40.7229C19.1324 37.903 21.425 35.6104 24.2448 34.1736C25.8198 33.3711 27.6593 32.9577 30.209 32.7493C32.7644 32.5405 35.9901 32.5402 40.33 32.5402H306.985C311.325 32.5402 314.551 32.5405 317.106 32.7493C319.656 32.9577 321.495 33.3711 323.07 34.1736C325.89 35.6104 328.183 37.903 329.62 40.7229C330.422 42.298 330.835 44.1375 331.044 46.6873C331.253 49.2427 331.253 52.4686 331.253 56.8085V267.392C331.253 271.733 331.253 274.958 331.044 277.514C330.835 280.063 330.422 281.903 329.62 283.478C328.183 286.298 325.89 288.591 323.07 290.028C321.495 290.83 319.656 291.243 317.106 291.452C314.551 291.661 311.325 291.661 306.985 291.661H40.33C35.9901 291.661 32.7644 291.661 30.209 291.452C27.6593 291.243 25.8198 290.83 24.2448 290.028C21.425 288.591 19.1324 286.298 17.6957 283.478C16.8932 281.903 16.4798 280.063 16.2714 277.514C16.0627 274.958 16.0623 271.733 16.0623 267.392V56.8085Z" stroke="white" stroke-opacity="0.1"/>
</g>
<mask id="mask0_1_2948" style="mask-type:luminance" maskUnits="userSpaceOnUse" x="38" y="55" width="32" height="32">
<path d="M69.722 55.2615H38.7831V86.2013H69.722V55.2615Z" fill="white"/>
</mask>
<g mask="url(#mask0_1_2948)">
<g filter="url(#filter1_d_1_2948)">
<path d="M38.7831 65.8694C38.7831 62.1564 38.7831 60.2998 39.5057 58.8816C40.1413 57.634 41.1555 56.6198 42.403 55.9842C43.8212 55.2615 45.6777 55.2615 49.3907 55.2615H59.1144C62.8274 55.2615 64.6839 55.2615 66.1021 55.9842C67.3496 56.6198 68.3638 57.634 68.9994 58.8816C69.722 60.2998 69.722 62.1564 69.722 65.8694V75.5934C69.722 79.3065 69.722 81.1631 68.9994 82.5813C68.3638 83.8288 67.3496 84.8431 66.1021 85.4787C64.6839 86.2013 62.8274 86.2013 59.1144 86.2013H49.3907C45.6777 86.2013 43.8212 86.2013 42.403 85.4787C41.1555 84.8431 40.1413 83.8288 39.5057 82.5813C38.7831 81.1631 38.7831 79.3065 38.7831 75.5934V65.8694Z" fill="url(#paint1_linear_1_2948)"/>
</g>
<g filter="url(#filter2_di_1_2948)">
<path d="M54.4765 67.2798C54.7641 66.9921 55.2306 66.9922 55.5183 67.2799C55.806 67.5675 55.8061 68.0341 55.5183 68.3218L51.4018 72.4382C51.1966 72.6433 51.0814 72.9215 51.0814 73.2117C51.0814 73.5018 51.1966 73.78 51.4018 73.9852L51.4098 73.9932C51.6174 74.1989 51.898 74.3139 52.1902 74.3133C52.4823 74.3126 52.7623 74.1962 52.969 73.9895L58.4422 68.5162C58.6816 68.2767 58.8716 67.9926 59.0012 67.6797C59.1307 67.3669 59.1974 67.0316 59.1974 66.693C59.1974 66.3543 59.1307 66.0191 59.0012 65.7062C58.8716 65.3934 58.6816 65.1092 58.4422 64.8697L58.4153 64.8425C58.1759 64.603 57.8916 64.4131 57.5789 64.2835C57.266 64.1539 56.9307 64.0872 56.5921 64.0872C56.2535 64.0872 55.9182 64.1539 55.6054 64.2835C55.2926 64.4131 55.0083 64.603 54.7689 64.8425L49.0397 70.5719C47.4515 72.1604 47.4515 74.7355 49.0397 76.3237C50.6283 77.9123 53.2032 77.9123 54.7915 76.3237L59.9997 71.1152C60.2875 70.8275 60.754 70.8276 61.0416 71.1153C61.3293 71.403 61.3294 71.8695 61.0417 72.1572L55.8334 77.3657C53.6699 79.5292 50.1616 79.5292 47.9981 77.3657C45.8346 75.2017 45.8346 71.6937 47.9981 69.5302L53.7273 63.8008C55.3097 62.2184 57.8746 62.2184 59.4569 63.8008L59.4842 63.8281C61.0664 65.41 61.0664 67.9754 59.4842 69.5578L54.0109 75.0313C53.5289 75.5134 52.8756 75.785 52.1938 75.7867C51.512 75.7883 50.8574 75.5199 50.3731 75.0401L50.3686 75.0356L50.3597 75.0272C49.8783 74.5457 49.6078 73.8928 49.6078 73.2118C49.6078 72.5309 49.8783 71.878 50.3597 71.3965L54.4765 67.2798Z" fill="url(#paint2_linear_1_2948)"/>
<mask id="mask1_1_2948" style="mask-type:luminance" maskUnits="userSpaceOnUse" x="46" y="62" width="16" height="17">
<path d="M54.4765 67.2798C54.7641 66.9921 55.2306 66.9922 55.5183 67.2799C55.806 67.5675 55.8061 68.0341 55.5183 68.3218L51.4018 72.4382C51.1966 72.6433 51.0814 72.9215 51.0814 73.2117C51.0814 73.5018 51.1966 73.78 51.4018 73.9852L51.4098 73.9932C51.6174 74.1989 51.898 74.3139 52.1902 74.3133C52.4823 74.3126 52.7623 74.1962 52.969 73.9895L58.4422 68.5162C58.6816 68.2767 58.8716 67.9926 59.0012 67.6797C59.1307 67.3669 59.1974 67.0316 59.1974 66.693C59.1974 66.3543 59.1307 66.0191 59.0012 65.7062C58.8716 65.3934 58.6816 65.1092 58.4422 64.8697L58.4153 64.8425C58.1759 64.603 57.8916 64.4131 57.5789 64.2835C57.266 64.1539 56.9307 64.0872 56.5921 64.0872C56.2535 64.0872 55.9182 64.1539 55.6054 64.2835C55.2926 64.4131 55.0083 64.603 54.7689 64.8425L49.0397 70.5719C47.4515 72.1604 47.4515 74.7355 49.0397 76.3237C50.6283 77.9123 53.2032 77.9123 54.7915 76.3237L59.9997 71.1152C60.2875 70.8275 60.754 70.8276 61.0416 71.1153C61.3293 71.403 61.3294 71.8695 61.0417 72.1572L55.8334 77.3657C53.6699 79.5292 50.1616 79.5292 47.9981 77.3657C45.8346 75.2017 45.8346 71.6937 47.9981 69.5302L53.7273 63.8008C55.3097 62.2184 57.8746 62.2184 59.4569 63.8008L59.4842 63.8281C61.0664 65.41 61.0664 67.9754 59.4842 69.5578L54.0109 75.0313C53.5289 75.5134 52.8756 75.785 52.1938 75.7867C51.512 75.7883 50.8574 75.5199 50.3731 75.0401L50.3686 75.0356L50.3597 75.0272C49.8783 74.5457 49.6078 73.8928 49.6078 73.2118C49.6078 72.5309 49.8783 71.878 50.3597 71.3965L54.4765 67.2798Z" fill="white"/>
</mask>
<g mask="url(#mask1_1_2948)">
<path d="M51.4098 73.9932L50.7262 74.6769L50.7294 74.6801L51.4098 73.9932ZM58.4423 64.8697L57.7539 65.5488L57.7586 65.5534L58.4423 64.8697ZM58.4153 64.8425L59.1037 64.1634L59.099 64.1588L58.4153 64.8425ZM50.3731 75.04L49.6893 75.7236L49.6926 75.7269L50.3731 75.04ZM50.3686 75.0356L51.0524 74.352L51.045 74.3447L51.0375 74.3375L50.3686 75.0356ZM50.3597 75.0272L49.6761 75.7109L49.6834 75.7181L49.6909 75.7253L50.3597 75.0272ZM55.1601 67.9634C55.07 68.0535 54.9244 68.0533 54.8346 67.9635L56.202 66.5962C55.5369 65.9311 54.4582 65.9307 53.7928 66.5961L55.1601 67.9634ZM54.8346 67.9635C54.7449 67.8738 54.7447 67.7281 54.8348 67.6381L56.202 69.0054C56.8675 68.34 56.8671 67.2613 56.202 66.5962L54.8346 67.9635ZM54.8348 67.6381L50.7181 71.7544L52.0854 73.1219L56.202 69.0054L54.8348 67.6381ZM50.7181 71.7544C50.3317 72.1409 50.1145 72.6651 50.1145 73.2117H52.0482C52.0482 73.1779 52.0615 73.1457 52.0854 73.1219L50.7181 71.7544ZM50.1145 73.2117C50.1145 73.7582 50.3316 74.2823 50.7181 74.6688L52.0855 73.3015C52.0616 73.2776 52.0482 73.2453 52.0482 73.2117H50.1145ZM50.7181 74.6688L50.7262 74.6769L52.0936 73.3096L52.0855 73.3015L50.7181 74.6688ZM50.7294 74.6801C51.1185 75.0657 51.6446 75.2815 52.1925 75.2801L52.1878 73.3464C52.1514 73.3465 52.1163 73.3322 52.0904 73.3064L50.7294 74.6801ZM52.1925 75.2801C52.7403 75.2789 53.2653 75.0606 53.6527 74.6732L52.2853 73.3059C52.2595 73.3317 52.2244 73.3463 52.1878 73.3464L52.1925 75.2801ZM53.6527 74.6732L59.1259 69.1999L57.7586 67.8324L52.2853 73.3059L53.6527 74.6732ZM59.1259 69.1999C59.4551 68.8706 59.7163 68.4798 59.8944 68.0497L58.1079 67.3096C58.0269 67.5051 57.9083 67.6829 57.7586 67.8324L59.1259 69.1999ZM59.8944 68.0497C60.0725 67.6195 60.1643 67.1585 60.1643 66.693H58.2306C58.2306 66.9045 58.1889 67.1141 58.1079 67.3096L59.8944 68.0497ZM60.1643 66.693C60.1643 66.2273 60.0725 65.7663 59.8944 65.3362L58.1079 66.0762C58.1889 66.2717 58.2306 66.4813 58.2306 66.693H60.1643ZM59.8944 65.3362C59.7163 64.906 59.455 64.5152 59.1258 64.186L57.7586 65.5534C57.9083 65.7031 58.0269 65.8807 58.1079 66.0762L59.8944 65.3362ZM59.1304 64.1907L59.1037 64.1634L57.7271 65.5214L57.7539 65.5488L59.1304 64.1907ZM59.099 64.1588C58.7698 63.8296 58.379 63.5683 57.9489 63.3902L57.2089 65.1767C57.4043 65.2578 57.582 65.3764 57.7316 65.5261L59.099 64.1588ZM57.9489 63.3902C57.5187 63.2121 57.0577 63.1203 56.5921 63.1203V65.054C56.8037 65.054 57.0134 65.0957 57.2089 65.1767L57.9489 63.3902ZM56.5921 63.1203C56.1266 63.1203 55.6656 63.2121 55.2354 63.3902L55.9755 65.1767C56.1709 65.0957 56.3805 65.054 56.5921 65.054V63.1203ZM55.2354 63.3902C54.8053 63.5683 54.4145 63.8296 54.0853 64.1588L55.4526 65.5262C55.6022 65.3765 55.78 65.2578 55.9755 65.1767L55.2354 63.3902ZM54.0853 64.1588L48.3561 69.8882L49.7234 71.2555L55.4526 65.5262L54.0853 64.1588ZM48.3561 69.8882C46.3905 71.8544 46.3903 75.0415 48.3561 77.0073L49.7234 75.64C48.5128 74.4294 48.5126 72.4666 49.7234 71.2555L48.3561 69.8882ZM48.3561 77.0073C50.3221 78.9735 53.5093 78.9736 55.4751 77.0072L54.1077 75.64C52.8971 76.8509 50.9344 76.8511 49.7234 75.64L48.3561 77.0073ZM55.4751 77.0072L60.6834 71.7989L59.3161 70.4315L54.1077 75.64L55.4751 77.0072ZM60.6834 71.7989C60.5934 71.8889 60.4477 71.8887 60.358 71.799L61.7253 70.4317C61.0603 69.7665 59.9816 69.7661 59.3161 70.4315L60.6834 71.7989ZM60.358 71.799C60.2682 71.7093 60.268 71.5636 60.358 71.4736L61.7254 72.8409C62.3908 72.1754 62.3903 71.0967 61.7253 70.4317L60.358 71.799ZM60.358 71.4736L55.1498 76.682L56.5171 78.0493L61.7254 72.8409L60.358 71.4736ZM55.1498 76.682C53.3638 78.468 50.4677 78.468 48.6818 76.682L47.3144 78.0493C49.8554 80.5905 53.9759 80.5905 56.5171 78.0493L55.1498 76.682ZM48.6818 76.682C46.8957 74.8956 46.8958 71.9998 48.6818 70.2138L47.3145 68.8465C44.7733 71.3877 44.7734 75.5078 47.3144 78.0493L48.6818 76.682ZM48.6818 70.2138L54.411 64.4845L53.0437 63.1171L47.3145 68.8465L48.6818 70.2138ZM54.411 64.4845C55.6157 63.2797 57.5685 63.2797 58.7733 64.4845L60.1406 63.1171C58.1807 61.1572 55.0036 61.1572 53.0437 63.1171L54.411 64.4845ZM58.7733 64.4845L58.8006 64.5117L60.1679 63.1444L60.1406 63.1171L58.7733 64.4845ZM58.8006 64.5117C60.0051 65.716 60.0053 67.6693 58.8006 68.8741L60.1679 70.2415C62.1277 68.2816 62.1279 65.104 60.1679 63.1444L58.8006 64.5117ZM58.8006 68.8741L53.3273 74.3476L54.6946 75.7149L60.1679 70.2415L58.8006 68.8741ZM53.3273 74.3476C53.026 74.6489 52.6176 74.8187 52.1914 74.8198L52.1962 76.7535C53.1336 76.7512 54.0319 76.3779 54.6946 75.7149L53.3273 74.3476ZM52.1914 74.8198C51.7653 74.8209 51.3562 74.653 51.0534 74.3532L49.6926 75.7269C50.3586 76.3867 51.2587 76.7558 52.1962 76.7535L52.1914 74.8198ZM51.0567 74.3565L51.0524 74.352L49.6849 75.7193L49.6893 75.7236L51.0567 74.3565ZM51.0375 74.3375L51.0287 74.329L49.6909 75.7253L49.6997 75.7338L51.0375 74.3375ZM51.0434 74.3435C50.7433 74.0434 50.5747 73.6362 50.5747 73.2118H48.641C48.641 74.1492 49.0133 75.0481 49.6761 75.7109L51.0434 74.3435ZM50.5747 73.2118C50.5747 72.7874 50.7433 72.3803 51.0434 72.0802L49.6761 70.7128C49.0133 71.3756 48.641 72.2745 48.641 73.2118H50.5747ZM51.0434 72.0802L55.1601 67.9634L53.7928 66.5961L49.6761 70.7128L51.0434 72.0802Z" fill="white" fill-opacity="0.06"/>
</g>
</g>
</g>
<path d="M41.3375 117.141L39.0303 108.703H40.0685L41.8319 115.576H41.9143L43.7107 108.703H44.8643L46.6606 115.576H46.7431L48.5064 108.703H49.5447L47.2374 117.141H46.1827L44.3205 110.416H44.2545L42.3923 117.141H41.3375ZM51.6583 113.333V117.141H50.686V108.703H51.6583V111.801H51.7407C51.889 111.474 52.1115 111.215 52.4081 111.023C52.7075 110.827 53.1058 110.73 53.6029 110.73C54.0341 110.73 54.4119 110.817 54.736 110.99C55.06 111.16 55.3114 111.422 55.4899 111.777C55.6712 112.128 55.7619 112.575 55.7619 113.12V117.141H54.7895V113.186C54.7895 112.683 54.6591 112.294 54.3981 112.02C54.1399 111.742 53.7815 111.604 53.3228 111.604C53.0041 111.604 52.7185 111.67 52.4658 111.806C52.2159 111.94 52.0181 112.137 51.8726 112.395C51.7297 112.653 51.6583 112.966 51.6583 113.333ZM57.5407 117.141V110.813H58.513V117.141H57.5407ZM58.0351 109.758C57.8456 109.758 57.6821 109.693 57.5448 109.564C57.4102 109.435 57.3429 109.279 57.3429 109.099C57.3429 108.917 57.4102 108.762 57.5448 108.633C57.6821 108.504 57.8456 108.439 58.0351 108.439C58.2246 108.439 58.3867 108.504 58.5212 108.633C58.6586 108.762 58.7273 108.917 58.7273 109.099C58.7273 109.279 58.6586 109.435 58.5212 109.564C58.3867 109.693 58.2246 109.758 58.0351 109.758ZM62.8649 117.273C62.2715 117.273 61.7606 117.132 61.3321 116.853C60.9037 116.573 60.5741 116.187 60.3434 115.695C60.1127 115.203 59.9973 114.642 59.9973 114.009C59.9973 113.367 60.1154 112.8 60.3516 112.308C60.5906 111.814 60.9229 111.428 61.3487 111.15C61.7772 110.87 62.277 110.73 62.8483 110.73C63.2934 110.73 63.6943 110.813 64.0514 110.977C64.4085 111.142 64.701 111.373 64.929 111.67C65.157 111.966 65.2984 112.312 65.3533 112.708H64.3811C64.3068 112.419 64.1421 112.164 63.8866 111.941C63.6339 111.716 63.2934 111.604 62.8649 111.604C62.4858 111.604 62.1535 111.702 61.8678 111.901C61.5849 112.095 61.3638 112.371 61.2044 112.728C61.0479 113.083 60.9696 113.499 60.9696 113.976C60.9696 114.466 61.0465 114.891 61.2004 115.254C61.3569 115.616 61.5767 115.898 61.8596 116.099C62.1453 116.299 62.4803 116.399 62.8649 116.399C63.1175 116.399 63.3468 116.356 63.5529 116.268C63.7589 116.18 63.9333 116.053 64.0761 115.889C64.2189 115.724 64.3206 115.526 64.3811 115.295H65.3533C65.2984 115.668 65.1625 116.005 64.9455 116.305C64.7313 116.602 64.4469 116.837 64.0927 117.013C63.741 117.186 63.3318 117.273 62.8649 117.273ZM67.7471 113.333V117.141H66.7748V108.703H67.7471V111.801H67.8295C67.9778 111.474 68.2003 111.215 68.497 111.023C68.7964 110.827 69.1946 110.73 69.6918 110.73C70.1231 110.73 70.5007 110.817 70.8248 110.99C71.149 111.16 71.4003 111.422 71.5788 111.777C71.7601 112.128 71.8507 112.575 71.8507 113.12V117.141H70.8784V113.186C70.8784 112.683 70.7479 112.294 70.487 112.02C70.2287 111.742 69.8703 111.604 69.4117 111.604C69.093 111.604 68.8074 111.67 68.5546 111.806C68.3047 111.94 68.1069 112.137 67.9614 112.395C67.8186 112.653 67.7471 112.966 67.7471 113.333ZM79.6448 110.813V111.637H76.3653V110.813H79.6448ZM77.3211 109.296H78.2935V115.328C78.2935 115.603 78.3333 115.809 78.4129 115.946C78.4953 116.08 78.5997 116.171 78.7261 116.218C78.8552 116.262 78.9911 116.284 79.1339 116.284C79.2411 116.284 79.3289 116.279 79.3977 116.268C79.4663 116.253 79.5212 116.243 79.5624 116.234L79.7602 117.108C79.6943 117.132 79.6023 117.157 79.4841 117.183C79.3661 117.21 79.2164 117.223 79.0351 117.223C78.7604 117.223 78.4913 117.164 78.2275 117.046C77.9666 116.928 77.7496 116.748 77.5765 116.507C77.4063 116.265 77.3211 115.96 77.3211 115.592V109.296ZM82.9698 117.289C82.5687 117.289 82.2048 117.214 81.8779 117.063C81.551 116.909 81.2915 116.688 81.0992 116.399C80.9069 116.108 80.8108 115.756 80.8108 115.345C80.8108 114.982 80.8823 114.688 81.0251 114.463C81.1679 114.235 81.3588 114.057 81.5977 113.927C81.8367 113.799 82.1004 113.702 82.3888 113.639C82.6799 113.573 82.9725 113.521 83.2664 113.482C83.6509 113.433 83.9626 113.395 84.2016 113.371C84.4433 113.343 84.6191 113.299 84.729 113.235C84.8416 113.172 84.898 113.062 84.898 112.905V112.872C84.898 112.466 84.7867 112.15 84.5642 111.925C84.3444 111.699 84.0108 111.587 83.563 111.587C83.0988 111.587 82.7349 111.689 82.4712 111.892C82.2075 112.095 82.0221 112.312 81.915 112.543L80.9921 112.213C81.1569 111.829 81.3766 111.529 81.6513 111.315C81.9288 111.098 82.2309 110.947 82.5577 110.862C82.8873 110.774 83.2115 110.73 83.5301 110.73C83.7333 110.73 83.9668 110.755 84.2304 110.804C84.4969 110.851 84.7537 110.948 85.0009 111.097C85.2508 111.245 85.4582 111.469 85.6231 111.768C85.7878 112.068 85.8703 112.469 85.8703 112.972V117.141H84.898V116.284H84.8484C84.7826 116.422 84.6727 116.569 84.5188 116.725C84.365 116.882 84.1604 117.014 83.905 117.125C83.6496 117.235 83.3378 117.289 82.9698 117.289ZM83.1181 116.416C83.5026 116.416 83.8267 116.34 84.0904 116.19C84.3568 116.038 84.5573 115.843 84.6919 115.605C84.8293 115.365 84.898 115.113 84.898 114.851V113.96C84.8568 114.009 84.7661 114.055 84.626 114.096C84.4887 114.135 84.3293 114.169 84.1481 114.199C83.9696 114.227 83.7952 114.251 83.6248 114.273C83.4573 114.293 83.3213 114.309 83.2169 114.323C82.9643 114.355 82.7281 114.41 82.5083 114.483C82.2913 114.555 82.1155 114.663 81.9809 114.809C81.8491 114.952 81.7832 115.146 81.7832 115.394C81.7832 115.732 81.9081 115.988 82.1581 116.161C82.4107 116.331 82.7308 116.416 83.1181 116.416ZM87.7768 117.141V108.703H88.7492V111.817H88.8315C88.903 111.708 89.0019 111.568 89.1282 111.398C89.2573 111.225 89.4413 111.071 89.6803 110.936C89.922 110.798 90.2488 110.73 90.6609 110.73C91.1937 110.73 91.6634 110.863 92.0699 111.13C92.4764 111.396 92.7937 111.774 93.0216 112.263C93.2496 112.751 93.3636 113.329 93.3636 113.993C93.3636 114.664 93.2496 115.244 93.0216 115.736C92.7937 116.225 92.4778 116.604 92.074 116.873C91.6703 117.14 91.2048 117.273 90.6773 117.273C90.2709 117.273 89.9453 117.206 89.7009 117.071C89.4564 116.934 89.2683 116.778 89.1365 116.605C89.0046 116.429 88.903 116.284 88.8315 116.168H88.7162V117.141H87.7768ZM88.7326 113.976C88.7326 114.455 88.8027 114.877 88.9428 115.242C89.0829 115.605 89.2875 115.889 89.5567 116.095C89.8258 116.298 90.1554 116.399 90.5455 116.399C90.952 116.399 91.2912 116.292 91.5632 116.078C91.8378 115.861 92.0439 115.57 92.1812 115.204C92.3213 114.836 92.3913 114.427 92.3913 113.976C92.3913 113.532 92.3226 113.13 92.1853 112.774C92.0507 112.414 91.8461 112.13 91.5714 111.921C91.2995 111.709 90.9575 111.604 90.5455 111.604C90.15 111.604 89.8176 111.703 89.5485 111.904C89.2793 112.102 89.0761 112.379 88.9387 112.737C88.8014 113.091 88.7326 113.505 88.7326 113.976ZM95.8233 108.703V117.141H94.851V108.703H95.8233ZM100.258 117.273C99.6477 117.273 99.1217 117.138 98.6799 116.869C98.24 116.598 97.9006 116.218 97.6618 115.732C97.4259 115.243 97.3079 114.675 97.3079 114.026C97.3079 113.378 97.4259 112.807 97.6618 112.312C97.9006 111.815 98.2332 111.428 98.6586 111.15C99.0879 110.87 99.5878 110.73 100.158 110.73C100.488 110.73 100.814 110.785 101.135 110.895C101.457 111.004 101.749 111.183 102.013 111.431C102.277 111.675 102.486 111.999 102.643 112.402C102.8 112.807 102.878 113.304 102.878 113.894V114.306H98.0002V113.466H101.889C101.889 113.109 101.817 112.79 101.675 112.51C101.535 112.229 101.334 112.009 101.073 111.846C100.815 111.685 100.51 111.604 100.158 111.604C99.7715 111.604 99.436 111.699 99.1537 111.892C98.8733 112.081 98.6577 112.329 98.5068 112.633C98.355 112.938 98.2796 113.265 98.2796 113.614V114.175C98.2796 114.652 98.3628 115.057 98.5271 115.39C98.6944 115.72 98.9264 115.971 99.2233 116.144C99.5201 116.314 99.8643 116.399 100.258 116.399C100.513 116.399 100.744 116.364 100.95 116.292C101.159 116.218 101.339 116.108 101.49 115.962C101.64 115.814 101.757 115.63 101.84 115.41L102.779 115.674C102.68 115.992 102.514 116.273 102.28 116.514C102.047 116.753 101.758 116.941 101.415 117.075C101.072 117.207 100.686 117.273 100.258 117.273ZM110.191 117.273C109.62 117.273 109.119 117.137 108.687 116.864C108.258 116.593 107.924 116.213 107.682 115.724C107.443 115.234 107.323 114.663 107.323 114.009C107.323 113.351 107.443 112.775 107.682 112.283C107.924 111.791 108.258 111.409 108.687 111.138C109.119 110.866 109.62 110.73 110.191 110.73C110.763 110.73 111.262 110.866 111.691 111.138C112.122 111.409 112.457 111.791 112.696 112.283C112.938 112.775 113.059 113.351 113.059 114.009C113.059 114.663 112.938 115.234 112.696 115.724C112.457 116.213 112.122 116.593 111.691 116.864C111.262 117.137 110.763 117.273 110.191 117.273ZM110.191 116.399C110.625 116.399 110.982 116.288 111.262 116.066C111.543 115.843 111.75 115.551 111.884 115.188C112.019 114.825 112.086 114.433 112.086 114.009C112.086 113.587 112.019 113.192 111.884 112.827C111.75 112.462 111.543 112.166 111.262 111.941C110.982 111.716 110.625 111.604 110.191 111.604C109.757 111.604 109.4 111.716 109.12 111.941C108.839 112.166 108.633 112.462 108.497 112.827C108.363 113.192 108.296 113.587 108.296 114.009C108.296 114.433 108.363 114.825 108.497 115.188C108.633 115.551 108.839 115.843 109.12 116.066C109.4 116.288 109.757 116.399 110.191 116.399ZM114.543 117.141V110.813H115.483V111.768H115.548C115.663 111.455 115.872 111.202 116.174 111.006C116.477 110.811 116.817 110.713 117.196 110.713C117.267 110.713 117.356 110.715 117.464 110.718C117.571 110.72 117.652 110.725 117.707 110.73V111.719C117.674 111.711 117.598 111.699 117.48 111.682C117.365 111.663 117.243 111.653 117.114 111.653C116.806 111.653 116.532 111.718 116.29 111.846C116.051 111.973 115.862 112.149 115.721 112.374C115.584 112.597 115.516 112.85 115.516 113.136V117.141H114.543ZM126.605 112.229L125.732 112.477C125.677 112.332 125.596 112.19 125.488 112.052C125.384 111.912 125.242 111.797 125.06 111.706C124.879 111.616 124.647 111.571 124.364 111.571C123.976 111.571 123.654 111.66 123.396 111.839C123.14 112.014 123.012 112.238 123.012 112.51C123.012 112.751 123.1 112.943 123.276 113.083C123.452 113.222 123.727 113.339 124.1 113.433L125.04 113.663C125.605 113.8 126.027 114.011 126.305 114.294C126.582 114.574 126.72 114.936 126.72 115.377C126.72 115.74 126.617 116.064 126.408 116.35C126.202 116.635 125.913 116.861 125.543 117.026C125.171 117.19 124.74 117.273 124.249 117.273C123.603 117.273 123.068 117.132 122.646 116.853C122.223 116.573 121.956 116.164 121.843 115.625L122.766 115.394C122.853 115.734 123.019 115.99 123.264 116.161C123.511 116.331 123.834 116.416 124.233 116.416C124.685 116.416 125.046 116.32 125.312 116.128C125.581 115.932 125.716 115.699 125.716 115.427C125.716 115.207 125.638 115.024 125.485 114.875C125.331 114.724 125.095 114.612 124.776 114.537L123.721 114.29C123.142 114.152 122.716 113.94 122.444 113.652C122.175 113.36 122.041 112.996 122.041 112.559C122.041 112.202 122.14 111.886 122.341 111.612C122.544 111.337 122.82 111.121 123.169 110.965C123.521 110.808 123.919 110.73 124.364 110.73C124.991 110.73 125.482 110.867 125.839 111.142C126.199 111.417 126.454 111.78 126.605 112.229ZM128.184 119.515V110.813H129.124V111.817H129.239C129.31 111.708 129.409 111.568 129.536 111.398C129.665 111.225 129.849 111.071 130.088 110.936C130.329 110.798 130.656 110.73 131.068 110.73C131.601 110.73 132.071 110.863 132.478 111.13C132.884 111.396 133.201 111.774 133.429 112.263C133.657 112.751 133.771 113.329 133.771 113.993C133.771 114.664 133.657 115.244 133.429 115.736C133.201 116.225 132.886 116.604 132.482 116.873C132.078 117.14 131.612 117.273 131.085 117.273C130.678 117.273 130.353 117.206 130.108 117.071C129.864 116.934 129.676 116.778 129.544 116.605C129.412 116.429 129.31 116.284 129.239 116.168H129.157V119.515H128.184ZM129.14 113.976C129.14 114.455 129.21 114.877 129.35 115.242C129.49 115.605 129.695 115.889 129.964 116.095C130.234 116.298 130.563 116.399 130.953 116.399C131.359 116.399 131.699 116.292 131.971 116.078C132.246 115.861 132.452 115.57 132.589 115.204C132.729 114.836 132.799 114.427 132.799 113.976C132.799 113.532 132.73 113.13 132.593 112.774C132.458 112.414 132.253 112.13 131.979 111.921C131.707 111.709 131.365 111.604 130.953 111.604C130.558 111.604 130.225 111.703 129.956 111.904C129.687 112.102 129.483 112.379 129.346 112.737C129.209 113.091 129.14 113.505 129.14 113.976ZM135.255 117.141V110.813H136.193V111.768H136.26C136.375 111.455 136.584 111.202 136.886 111.006C137.188 110.811 137.529 110.713 137.908 110.713C137.979 110.713 138.068 110.715 138.175 110.718C138.283 110.72 138.364 110.725 138.419 110.73V111.719C138.385 111.711 138.31 111.699 138.192 111.682C138.077 111.663 137.954 111.653 137.825 111.653C137.518 111.653 137.243 111.718 137.002 111.846C136.762 111.973 136.572 112.149 136.433 112.374C136.296 112.597 136.227 112.85 136.227 113.136V117.141H135.255ZM142.032 117.273C141.422 117.273 140.896 117.138 140.454 116.869C140.014 116.598 139.675 116.218 139.436 115.732C139.2 115.243 139.082 114.675 139.082 114.026C139.082 113.378 139.2 112.807 139.436 112.312C139.675 111.815 140.008 111.428 140.433 111.15C140.862 110.87 141.362 110.73 141.934 110.73C142.262 110.73 142.588 110.785 142.909 110.895C143.231 111.004 143.523 111.183 143.787 111.431C144.051 111.675 144.261 111.999 144.417 112.402C144.574 112.807 144.652 113.304 144.652 113.894V114.306H139.775V113.466H143.663C143.663 113.109 143.592 112.79 143.45 112.51C143.309 112.229 143.108 112.009 142.848 111.846C142.589 111.685 142.284 111.604 141.934 111.604C141.546 111.604 141.21 111.699 140.928 111.892C140.648 112.081 140.432 112.329 140.281 112.633C140.129 112.938 140.054 113.265 140.054 113.614V114.175C140.054 114.652 140.137 115.057 140.301 115.39C140.469 115.72 140.701 115.971 140.998 116.144C141.294 116.314 141.64 116.399 142.032 116.399C142.287 116.399 142.518 116.364 142.724 116.292C142.933 116.218 143.113 116.108 143.264 115.962C143.415 115.814 143.532 115.63 143.614 115.41L144.554 115.674C144.454 115.992 144.289 116.273 144.055 116.514C143.822 116.753 143.533 116.941 143.189 117.075C142.846 117.207 142.46 117.273 142.032 117.273ZM147.994 117.289C147.592 117.289 147.229 117.214 146.902 117.063C146.575 116.909 146.315 116.688 146.123 116.399C145.93 116.108 145.835 115.756 145.835 115.345C145.835 114.982 145.906 114.688 146.049 114.463C146.191 114.235 146.383 114.057 146.622 113.927C146.861 113.799 147.124 113.702 147.413 113.639C147.704 113.573 147.997 113.521 148.29 113.482C148.675 113.433 148.987 113.395 149.225 113.371C149.467 113.343 149.643 113.299 149.753 113.235C149.865 113.172 149.922 113.062 149.922 112.905V112.872C149.922 112.466 149.81 112.15 149.588 111.925C149.369 111.699 149.035 111.587 148.587 111.587C148.122 111.587 147.759 111.689 147.495 111.892C147.232 112.095 147.046 112.312 146.939 112.543L146.016 112.213C146.181 111.829 146.4 111.529 146.675 111.315C146.952 111.098 147.255 110.947 147.582 110.862C147.911 110.774 148.235 110.73 148.554 110.73C148.757 110.73 148.99 110.755 149.254 110.804C149.521 110.851 149.778 110.948 150.025 111.097C150.274 111.245 150.482 111.469 150.647 111.768C150.812 112.068 150.894 112.469 150.894 112.972V117.141H149.922V116.284H149.872C149.807 116.422 149.696 116.569 149.543 116.725C149.389 116.882 149.185 117.014 148.929 117.125C148.673 117.235 148.362 117.289 147.994 117.289ZM148.142 116.416C148.526 116.416 148.85 116.34 149.114 116.19C149.381 116.038 149.581 115.843 149.716 115.605C149.853 115.365 149.922 115.113 149.922 114.851V113.96C149.881 114.009 149.79 114.055 149.65 114.096C149.513 114.135 149.353 114.169 149.172 114.199C148.993 114.227 148.819 114.251 148.649 114.273C148.481 114.293 148.346 114.309 148.241 114.323C147.988 114.355 147.752 114.41 147.533 114.483C147.315 114.555 147.139 114.663 147.005 114.809C146.873 114.952 146.807 115.146 146.807 115.394C146.807 115.732 146.932 115.988 147.182 116.161C147.435 116.331 147.755 116.416 148.142 116.416ZM155.058 117.273C154.531 117.273 154.065 117.14 153.662 116.873C153.258 116.604 152.942 116.225 152.714 115.736C152.487 115.244 152.373 114.664 152.373 113.993C152.373 113.329 152.487 112.751 152.714 112.263C152.942 111.774 153.259 111.396 153.666 111.13C154.072 110.863 154.542 110.73 155.075 110.73C155.487 110.73 155.813 110.798 156.051 110.936C156.293 111.071 156.477 111.225 156.603 111.398C156.733 111.568 156.833 111.708 156.904 111.817H156.986V108.703H157.959V117.141H157.02V116.168H156.904C156.833 116.284 156.731 116.429 156.6 116.605C156.468 116.778 156.28 116.934 156.035 117.071C155.79 117.206 155.465 117.273 155.058 117.273ZM155.191 116.399C155.58 116.399 155.91 116.298 156.179 116.095C156.449 115.889 156.653 115.605 156.793 115.242C156.933 114.877 157.004 114.455 157.004 113.976C157.004 113.505 156.934 113.091 156.797 112.737C156.659 112.379 156.456 112.102 156.188 111.904C155.918 111.703 155.586 111.604 155.191 111.604C154.778 111.604 154.435 111.709 154.16 111.921C153.889 112.13 153.684 112.414 153.546 112.774C153.412 113.13 153.344 113.532 153.344 113.976C153.344 114.427 153.413 114.836 153.55 115.204C153.69 115.57 153.896 115.861 154.169 116.078C154.443 116.292 154.784 116.399 155.191 116.399ZM164.357 112.229L163.484 112.477C163.429 112.332 163.348 112.19 163.241 112.052C163.136 111.912 162.994 111.797 162.812 111.706C162.632 111.616 162.399 111.571 162.116 111.571C161.729 111.571 161.406 111.66 161.148 111.839C160.892 112.014 160.765 112.238 160.765 112.51C160.765 112.751 160.853 112.943 161.029 113.083C161.205 113.222 161.479 113.339 161.852 113.433L162.792 113.663C163.358 113.8 163.779 114.011 164.057 114.294C164.334 114.574 164.473 114.936 164.473 115.377C164.473 115.74 164.368 116.064 164.159 116.35C163.953 116.635 163.665 116.861 163.295 117.026C162.924 117.19 162.492 117.273 162.001 117.273C161.355 117.273 160.821 117.132 160.398 116.853C159.975 116.573 159.707 116.164 159.595 115.625L160.517 115.394C160.605 115.734 160.771 115.99 161.016 116.161C161.264 116.331 161.587 116.416 161.984 116.416C162.437 116.416 162.797 116.32 163.064 116.128C163.333 115.932 163.468 115.699 163.468 115.427C163.468 115.207 163.391 115.024 163.237 114.875C163.083 114.724 162.847 114.612 162.528 114.537L161.473 114.29C160.894 114.152 160.468 113.94 160.196 113.652C159.927 113.36 159.792 112.996 159.792 112.559C159.792 112.202 159.893 111.886 160.094 111.612C160.297 111.337 160.572 111.121 160.921 110.965C161.273 110.808 161.672 110.73 162.116 110.73C162.743 110.73 163.234 110.867 163.591 111.142C163.951 111.417 164.207 111.78 164.357 112.229ZM166.909 113.333V117.141H165.936V108.703H166.909V111.801H166.991C167.14 111.474 167.362 111.215 167.658 111.023C167.958 110.827 168.356 110.73 168.853 110.73C169.285 110.73 169.663 110.817 169.986 110.99C170.31 111.16 170.562 111.422 170.741 111.777C170.921 112.128 171.012 112.575 171.012 113.12V117.141H170.041V113.186C170.041 112.683 169.91 112.294 169.649 112.02C169.391 111.742 169.032 111.604 168.573 111.604C168.255 111.604 167.969 111.67 167.716 111.806C167.467 111.94 167.269 112.137 167.123 112.395C166.981 112.653 166.909 112.966 166.909 113.333ZM175.444 117.273C174.835 117.273 174.309 117.138 173.866 116.869C173.427 116.598 173.088 116.218 172.849 115.732C172.612 115.243 172.494 114.675 172.494 114.026C172.494 113.378 172.612 112.807 172.849 112.312C173.088 111.815 173.421 111.428 173.846 111.15C174.274 110.87 174.774 110.73 175.346 110.73C175.675 110.73 176.001 110.785 176.322 110.895C176.643 111.004 176.936 111.183 177.2 111.431C177.463 111.675 177.674 111.999 177.83 112.402C177.987 112.807 178.065 113.304 178.065 113.894V114.306H173.187V113.466H177.076C177.076 113.109 177.005 112.79 176.862 112.51C176.721 112.229 176.521 112.009 176.26 111.846C176.002 111.685 175.698 111.604 175.346 111.604C174.959 111.604 174.623 111.699 174.34 111.892C174.061 112.081 173.845 112.329 173.693 112.633C173.542 112.938 173.467 113.265 173.467 113.614V114.175C173.467 114.652 173.549 115.057 173.715 115.39C173.882 115.72 174.114 115.971 174.411 116.144C174.708 116.314 175.052 116.399 175.444 116.399C175.7 116.399 175.931 116.364 176.137 116.292C176.345 116.218 176.525 116.108 176.677 115.962C176.828 115.814 176.945 115.63 177.027 115.41L177.966 115.674C177.867 115.992 177.701 116.273 177.468 116.514C177.234 116.753 176.946 116.941 176.603 117.075C176.259 117.207 175.874 117.273 175.444 117.273ZM182.198 117.273C181.588 117.273 181.062 117.138 180.62 116.869C180.18 116.598 179.84 116.218 179.602 115.732C179.366 115.243 179.248 114.675 179.248 114.026C179.248 113.378 179.366 112.807 179.602 112.312C179.84 111.815 180.173 111.428 180.599 111.15C181.028 110.87 181.528 110.73 182.098 110.73C182.428 110.73 182.754 110.785 183.075 110.895C183.397 111.004 183.689 111.183 183.952 111.431C184.216 111.675 184.426 111.999 184.583 112.402C184.739 112.807 184.818 113.304 184.818 113.894V114.306H179.94V113.466H183.829C183.829 113.109 183.757 112.79 183.615 112.51C183.475 112.229 183.274 112.009 183.013 111.846C182.755 111.685 182.45 111.604 182.098 111.604C181.711 111.604 181.376 111.699 181.094 111.892C180.813 112.081 180.598 112.329 180.447 112.633C180.295 112.938 180.22 113.265 180.22 113.614V114.175C180.22 114.652 180.303 115.057 180.467 115.39C180.634 115.72 180.866 115.971 181.163 116.144C181.46 116.314 181.804 116.399 182.198 116.399C182.453 116.399 182.684 116.364 182.89 116.292C183.099 116.218 183.279 116.108 183.429 115.962C183.58 115.814 183.697 115.63 183.779 115.41L184.719 115.674C184.62 115.992 184.454 116.273 184.22 116.514C183.987 116.753 183.698 116.941 183.355 117.075C183.012 117.207 182.626 117.273 182.198 117.273ZM189.049 110.813V111.637H185.769V110.813H189.049ZM186.725 109.296H187.698V115.328C187.698 115.603 187.738 115.809 187.817 115.946C187.899 116.08 188.004 116.171 188.13 116.218C188.26 116.262 188.395 116.284 188.538 116.284C188.646 116.284 188.733 116.279 188.802 116.268C188.871 116.253 188.926 116.243 188.967 116.234L189.165 117.108C189.099 117.132 189.006 117.157 188.888 117.183C188.77 117.21 188.62 117.223 188.44 117.223C188.165 117.223 187.895 117.164 187.631 117.046C187.371 116.928 187.154 116.748 186.981 116.507C186.81 116.265 186.725 115.96 186.725 115.592V109.296ZM198.258 112.229L197.384 112.477C197.329 112.332 197.248 112.19 197.141 112.052C197.037 111.912 196.894 111.797 196.713 111.706C196.531 111.616 196.299 111.571 196.016 111.571C195.629 111.571 195.306 111.66 195.048 111.839C194.793 112.014 194.665 112.238 194.665 112.51C194.665 112.751 194.753 112.943 194.928 113.083C195.104 113.222 195.379 113.339 195.753 113.433L196.692 113.663C197.257 113.8 197.68 114.011 197.956 114.294C198.234 114.574 198.373 114.936 198.373 115.377C198.373 115.74 198.269 116.064 198.06 116.35C197.854 116.635 197.566 116.861 197.194 117.026C196.824 117.19 196.393 117.273 195.901 117.273C195.255 117.273 194.721 117.132 194.298 116.853C193.875 116.573 193.607 116.164 193.494 115.625L194.418 115.394C194.506 115.734 194.672 115.99 194.916 116.161C195.163 116.331 195.486 116.416 195.884 116.416C196.338 116.416 196.697 116.32 196.963 116.128C197.233 115.932 197.367 115.699 197.367 115.427C197.367 115.207 197.291 115.024 197.136 114.875C196.983 114.724 196.747 114.612 196.428 114.537L195.374 114.29C194.794 114.152 194.368 113.94 194.097 113.652C193.827 113.36 193.692 112.996 193.692 112.559C193.692 112.202 193.793 111.886 193.993 111.612C194.196 111.337 194.473 111.121 194.822 110.965C195.173 110.808 195.571 110.73 196.016 110.73C196.642 110.73 197.134 110.867 197.491 111.142C197.851 111.417 198.106 111.78 198.258 112.229ZM200.808 113.333V117.141H199.837V108.703H200.808V111.801H200.892C201.039 111.474 201.262 111.215 201.559 111.023C201.858 110.827 202.257 110.73 202.754 110.73C203.185 110.73 203.562 110.817 203.887 110.99C204.211 111.16 204.462 111.422 204.64 111.777C204.822 112.128 204.913 112.575 204.913 113.12V117.141H203.94V113.186C203.94 112.683 203.809 112.294 203.548 112.02C203.29 111.742 202.932 111.604 202.473 111.604C202.154 111.604 201.869 111.67 201.617 111.806C201.366 111.94 201.169 112.137 201.023 112.395C200.88 112.653 200.808 112.966 200.808 113.333ZM209.262 117.273C208.691 117.273 208.189 117.137 207.758 116.864C207.33 116.593 206.994 116.213 206.753 115.724C206.514 115.234 206.395 114.663 206.395 114.009C206.395 113.351 206.514 112.775 206.753 112.283C206.994 111.791 207.33 111.409 207.758 111.138C208.189 110.866 208.691 110.73 209.262 110.73C209.834 110.73 210.334 110.866 210.762 111.138C211.193 111.409 211.528 111.791 211.768 112.283C212.009 112.775 212.13 113.351 212.13 114.009C212.13 114.663 212.009 115.234 211.768 115.724C211.528 116.213 211.193 116.593 210.762 116.864C210.334 117.137 209.834 117.273 209.262 117.273ZM209.262 116.399C209.697 116.399 210.053 116.288 210.334 116.066C210.613 115.843 210.821 115.551 210.955 115.188C211.09 114.825 211.157 114.433 211.157 114.009C211.157 113.587 211.09 113.192 210.955 112.827C210.821 112.462 210.613 112.166 210.334 111.941C210.053 111.716 209.697 111.604 209.262 111.604C208.828 111.604 208.471 111.716 208.191 111.941C207.911 112.166 207.703 112.462 207.569 112.827C207.434 113.192 207.366 113.587 207.366 114.009C207.366 114.433 207.434 114.825 207.569 115.188C207.703 115.551 207.911 115.843 208.191 116.066C208.471 116.288 208.828 116.399 209.262 116.399ZM217.602 114.554V110.813H218.574V117.141H217.602V116.07H217.537C217.388 116.391 217.157 116.664 216.844 116.89C216.531 117.112 216.136 117.223 215.657 117.223C215.262 117.223 214.911 117.137 214.602 116.964C214.295 116.788 214.053 116.524 213.877 116.173C213.702 115.818 213.614 115.372 213.614 114.834V110.813H214.586V114.767C214.586 115.23 214.715 115.597 214.974 115.872C215.235 116.147 215.567 116.284 215.97 116.284C216.212 116.284 216.458 116.222 216.708 116.099C216.96 115.975 217.172 115.785 217.342 115.53C217.515 115.275 217.602 114.949 217.602 114.554ZM221.328 108.703V117.141H220.355V108.703H221.328ZM225.499 117.273C224.971 117.273 224.506 117.14 224.102 116.873C223.697 116.604 223.382 116.225 223.154 115.736C222.926 115.244 222.812 114.664 222.812 113.993C222.812 113.329 222.926 112.751 223.154 112.263C223.382 111.774 223.699 111.396 224.105 111.13C224.512 110.863 224.982 110.73 225.515 110.73C225.927 110.73 226.252 110.798 226.492 110.936C226.733 111.071 226.917 111.225 227.044 111.398C227.172 111.568 227.273 111.708 227.344 111.817H227.427V108.703H228.399V117.141H227.459V116.168H227.344C227.273 116.284 227.171 116.429 227.039 116.605C226.907 116.778 226.719 116.934 226.475 117.071C226.231 117.206 225.905 117.273 225.499 117.273ZM225.63 116.399C226.02 116.399 226.349 116.298 226.619 116.095C226.888 115.889 227.093 115.605 227.233 115.242C227.373 114.877 227.443 114.455 227.443 113.976C227.443 113.505 227.374 113.091 227.237 112.737C227.1 112.379 226.897 112.102 226.627 111.904C226.358 111.703 226.026 111.604 225.63 111.604C225.218 111.604 224.875 111.709 224.6 111.921C224.328 112.13 224.124 112.414 223.986 112.774C223.851 113.13 223.784 113.532 223.784 113.976C223.784 114.427 223.853 114.836 223.99 115.204C224.131 115.57 224.336 115.861 224.608 116.078C224.883 116.292 225.224 116.399 225.63 116.399ZM236.33 110.813V111.637H233.051V110.813H236.33ZM234.006 109.296H234.979V115.328C234.979 115.603 235.018 115.809 235.098 115.946C235.181 116.08 235.285 116.171 235.411 116.218C235.54 116.262 235.677 116.284 235.819 116.284C235.926 116.284 236.014 116.279 236.083 116.268C236.151 116.253 236.206 116.243 236.248 116.234L236.445 117.108C236.379 117.132 236.288 117.157 236.17 117.183C236.051 117.21 235.902 117.223 235.72 117.223C235.446 117.223 235.177 117.164 234.913 117.046C234.652 116.928 234.435 116.748 234.262 116.507C234.091 116.265 234.006 115.96 234.006 115.592V109.296ZM238.901 113.333V117.141H237.928V108.703H238.901V111.801H238.983C239.131 111.474 239.354 111.215 239.65 111.023C239.95 110.827 240.348 110.73 240.845 110.73C241.277 110.73 241.655 110.817 241.978 110.99C242.302 111.16 242.554 111.422 242.733 111.777C242.913 112.128 243.004 112.575 243.004 113.12V117.141H242.032V113.186C242.032 112.683 241.902 112.294 241.641 112.02C241.383 111.742 241.024 111.604 240.565 111.604C240.247 111.604 239.961 111.67 239.708 111.806C239.459 111.94 239.261 112.137 239.115 112.395C238.973 112.653 238.901 112.966 238.901 113.333ZM247.436 117.273C246.827 117.273 246.301 117.138 245.858 116.869C245.419 116.598 245.08 116.218 244.841 115.732C244.604 115.243 244.486 114.675 244.486 114.026C244.486 113.378 244.604 112.807 244.841 112.312C245.08 111.815 245.413 111.428 245.838 111.15C246.266 110.87 246.766 110.73 247.338 110.73C247.667 110.73 247.993 110.785 248.314 110.895C248.635 111.004 248.928 111.183 249.192 111.431C249.455 111.675 249.666 111.999 249.822 112.402C249.979 112.807 250.057 113.304 250.057 113.894V114.306H245.179V113.466H249.068C249.068 113.109 248.997 112.79 248.854 112.51C248.713 112.229 248.513 112.009 248.252 111.846C247.994 111.685 247.69 111.604 247.338 111.604C246.95 111.604 246.615 111.699 246.332 111.892C246.052 112.081 245.836 112.329 245.685 112.633C245.535 112.938 245.459 113.265 245.459 113.614V114.175C245.459 114.652 245.541 115.057 245.707 115.39C245.874 115.72 246.106 115.971 246.403 116.144C246.7 116.314 247.044 116.399 247.436 116.399C247.693 116.399 247.923 116.364 248.129 116.292C248.337 116.218 248.517 116.108 248.668 115.962C248.82 115.814 248.936 115.63 249.019 115.41L249.958 115.674C249.859 115.992 249.693 116.273 249.46 116.514C249.226 116.753 248.938 116.941 248.595 117.075C248.251 117.207 247.865 117.273 247.436 117.273ZM256.233 117.141L254.305 110.813H255.327L256.695 115.658H256.761L258.111 110.813H259.15L260.485 115.641H260.551L261.919 110.813H262.941L261.012 117.141H260.056L258.672 112.28H258.573L257.189 117.141H256.233ZM266.664 117.273C266.054 117.273 265.528 117.138 265.086 116.869C264.646 116.598 264.308 116.218 264.068 115.732C263.832 115.243 263.714 114.675 263.714 114.026C263.714 113.378 263.832 112.807 264.068 112.312C264.308 111.815 264.639 111.428 265.066 111.15C265.494 110.87 265.994 110.73 266.565 110.73C266.895 110.73 267.22 110.785 267.542 110.895C267.863 111.004 268.156 111.183 268.419 111.431C268.683 111.675 268.892 111.999 269.049 112.402C269.206 112.807 269.284 113.304 269.284 113.894V114.306H264.406V113.466H268.296C268.296 113.109 268.224 112.79 268.081 112.51C267.941 112.229 267.741 112.009 267.48 111.846C267.222 111.685 266.916 111.604 266.565 111.604C266.178 111.604 265.843 111.699 265.56 111.892C265.279 112.081 265.064 112.329 264.913 112.633C264.762 112.938 264.687 113.265 264.687 113.614V114.175C264.687 114.652 264.769 115.057 264.933 115.39C265.101 115.72 265.334 115.971 265.629 116.144C265.926 116.314 266.271 116.399 266.664 116.399C266.919 116.399 267.15 116.364 267.356 116.292C267.565 116.218 267.745 116.108 267.896 115.962C268.046 115.814 268.163 115.63 268.246 115.41L269.185 115.674C269.087 115.992 268.92 116.273 268.687 116.514C268.453 116.753 268.165 116.941 267.821 117.075C267.478 117.207 267.092 117.273 266.664 117.273ZM270.895 117.141V108.703H271.867V111.817H271.95C272.021 111.708 272.12 111.568 272.246 111.398C272.376 111.225 272.56 111.071 272.798 110.936C273.04 110.798 273.367 110.73 273.779 110.73C274.313 110.73 274.781 110.863 275.189 111.13C275.595 111.396 275.912 111.774 276.14 112.263C276.368 112.751 276.482 113.329 276.482 113.993C276.482 114.664 276.368 115.244 276.14 115.736C275.912 116.225 275.597 116.604 275.192 116.873C274.788 117.14 274.323 117.273 273.795 117.273C273.389 117.273 273.063 117.206 272.819 117.071C272.575 116.934 272.387 116.778 272.255 116.605C272.123 116.429 272.021 116.284 271.95 116.168H271.835V117.141H270.895ZM271.851 113.976C271.851 114.455 271.922 114.877 272.061 115.242C272.201 115.605 272.406 115.889 272.675 116.095C272.944 116.298 273.274 116.399 273.664 116.399C274.071 116.399 274.409 116.292 274.682 116.078C274.956 115.861 275.162 115.57 275.3 115.204C275.44 114.836 275.51 114.427 275.51 113.976C275.51 113.532 275.441 113.13 275.304 112.774C275.169 112.414 274.964 112.13 274.69 111.921C274.418 111.709 274.076 111.604 273.664 111.604C273.268 111.604 272.936 111.703 272.667 111.904C272.397 112.102 272.194 112.379 272.057 112.737C271.92 113.091 271.851 113.505 271.851 113.976ZM42.2439 132.742C41.6506 132.742 41.1397 132.602 40.7112 132.323C40.2827 132.042 39.9531 131.657 39.7224 131.164C39.4918 130.673 39.3763 130.112 39.3763 129.479C39.3763 128.837 39.4945 128.27 39.7307 127.778C39.9697 127.283 40.302 126.898 40.7278 126.62C41.1562 126.34 41.6561 126.2 42.2274 126.2C42.6724 126.2 43.0734 126.283 43.4305 126.447C43.7875 126.611 44.0801 126.843 44.3081 127.139C44.5361 127.436 44.6775 127.782 44.7324 128.178H43.7601C43.6859 127.889 43.5212 127.633 43.2657 127.411C43.013 127.186 42.6724 127.074 42.2439 127.074C41.8649 127.074 41.5326 127.172 41.2469 127.37C40.964 127.565 40.7429 127.841 40.5835 128.198C40.427 128.553 40.3487 128.969 40.3487 129.446C40.3487 129.936 40.4256 130.361 40.5795 130.724C40.736 131.086 40.9557 131.368 41.2386 131.569C41.5242 131.769 41.8594 131.869 42.2439 131.869C42.4966 131.869 42.7259 131.826 42.932 131.738C43.138 131.65 43.3124 131.523 43.4552 131.359C43.598 131.193 43.6996 130.996 43.7601 130.765H44.7324C44.6775 131.138 44.5416 131.475 44.3245 131.775C44.1103 132.071 43.826 132.307 43.4717 132.483C43.1201 132.656 42.7109 132.742 42.2439 132.742ZM48.7248 132.742C48.1535 132.742 47.6522 132.607 47.221 132.334C46.7925 132.063 46.4574 131.683 46.2157 131.193C45.9767 130.704 45.8572 130.133 45.8572 129.479C45.8572 128.821 45.9767 128.245 46.2157 127.753C46.4574 127.261 46.7925 126.879 47.221 126.608C47.6522 126.336 48.1535 126.2 48.7248 126.2C49.2961 126.2 49.796 126.336 50.2245 126.608C50.6557 126.879 50.9908 127.261 51.2298 127.753C51.4715 128.245 51.5924 128.821 51.5924 129.479C51.5924 130.133 51.4715 130.704 51.2298 131.193C50.9908 131.683 50.6557 132.063 50.2245 132.334C49.796 132.607 49.2961 132.742 48.7248 132.742ZM48.7248 131.869C49.1587 131.869 49.5159 131.758 49.796 131.536C50.0762 131.313 50.2836 131.02 50.4181 130.658C50.5527 130.295 50.62 129.903 50.62 129.479C50.62 129.057 50.5527 128.662 50.4181 128.297C50.2836 127.932 50.0762 127.636 49.796 127.411C49.5159 127.186 49.1587 127.074 48.7248 127.074C48.2908 127.074 47.9337 127.186 47.6535 127.411C47.3734 127.636 47.1661 127.932 47.0314 128.297C46.8968 128.662 46.8295 129.057 46.8295 129.479C46.8295 129.903 46.8968 130.295 47.0314 130.658C47.1661 131.02 47.3734 131.313 47.6535 131.536C47.9337 131.758 48.2908 131.869 48.7248 131.869ZM54.0489 128.803V132.611H53.0766V126.283H54.0159V127.271H54.0984C54.2467 126.95 54.4719 126.692 54.774 126.496C55.0762 126.299 55.4662 126.2 55.9441 126.2C56.3726 126.2 56.7476 126.288 57.0689 126.464C57.3903 126.637 57.6403 126.901 57.8188 127.254C57.9973 127.606 58.0866 128.051 58.0866 128.59V132.611H57.1143V128.655C57.1143 128.158 56.9851 127.771 56.727 127.493C56.4688 127.214 56.1145 127.074 55.664 127.074C55.3536 127.074 55.0762 127.14 54.8318 127.276C54.5901 127.41 54.3991 127.606 54.259 127.865C54.119 128.123 54.0489 128.436 54.0489 128.803ZM62.6156 126.283V127.107H59.336V126.283H62.6156ZM60.2918 124.766H61.2642V130.798C61.2642 131.073 61.304 131.279 61.3837 131.416C61.466 131.55 61.5705 131.641 61.6968 131.688C61.8259 131.732 61.9618 131.754 62.1046 131.754C62.2118 131.754 62.2998 131.748 62.3684 131.738C62.437 131.723 62.492 131.713 62.5331 131.704L62.731 132.578C62.665 132.602 62.573 132.627 62.4549 132.652C62.3368 132.68 62.1871 132.693 62.0058 132.693C61.7312 132.693 61.462 132.634 61.1982 132.516C60.9374 132.398 60.7203 132.218 60.5474 131.977C60.377 131.735 60.2918 131.429 60.2918 131.062V124.766ZM66.6635 132.742C66.0538 132.742 65.5277 132.608 65.0855 132.339C64.6461 132.068 64.3068 131.688 64.0679 131.202C63.8317 130.713 63.7136 130.144 63.7136 129.496C63.7136 128.848 63.8317 128.276 64.0679 127.782C64.3068 127.284 64.6392 126.898 65.0649 126.62C65.4934 126.34 65.9934 126.2 66.5647 126.2C66.8943 126.2 67.2197 126.255 67.5411 126.365C67.8625 126.474 68.155 126.653 68.4187 126.901C68.6824 127.145 68.8925 127.469 69.0491 127.872C69.2056 128.276 69.2839 128.773 69.2839 129.364V129.776H64.4057V128.936H68.295C68.295 128.579 68.2237 128.26 68.0809 127.98C67.9408 127.699 67.7403 127.479 67.4793 127.316C67.2212 127.155 66.9162 127.074 66.5647 127.074C66.1774 127.074 65.8423 127.169 65.5594 127.362C65.2792 127.551 65.0636 127.799 64.9125 128.103C64.7614 128.408 64.6859 128.735 64.6859 129.084V129.645C64.6859 130.122 64.7683 130.527 64.9331 130.86C65.1007 131.19 65.3327 131.441 65.6294 131.614C65.9261 131.784 66.2708 131.869 66.6635 131.869C66.919 131.869 67.1497 131.834 67.3558 131.762C67.5645 131.688 67.7443 131.578 67.8955 131.432C68.0465 131.284 68.1633 131.1 68.2456 130.88L69.185 131.144C69.0861 131.462 68.92 131.743 68.6865 131.984C68.453 132.223 68.1646 132.411 67.8213 132.545C67.478 132.677 67.092 132.742 66.6635 132.742ZM71.7354 128.803V132.611H70.763V126.283H71.7024V127.271H71.7848C71.9331 126.95 72.1584 126.692 72.4605 126.496C72.7626 126.299 73.1527 126.2 73.6306 126.2C74.0591 126.2 74.434 126.288 74.7554 126.464C75.0768 126.637 75.3267 126.901 75.5052 127.254C75.6838 127.606 75.773 128.051 75.773 128.59V132.611H74.8006V128.655C74.8006 128.158 74.6716 127.771 74.4134 127.493C74.1552 127.214 73.8009 127.074 73.3504 127.074C73.04 127.074 72.7626 127.14 72.5181 127.276C72.2764 127.41 72.0855 127.606 71.9455 127.865C71.8054 128.123 71.7354 128.436 71.7354 128.803ZM80.302 126.283V127.107H77.0224V126.283H80.302ZM77.9783 124.766H78.9506V130.798C78.9506 131.073 78.9904 131.279 79.0701 131.416C79.1525 131.55 79.2569 131.641 79.3832 131.688C79.5123 131.732 79.6483 131.754 79.7911 131.754C79.8982 131.754 79.9861 131.748 80.0547 131.738C80.1235 131.723 80.1784 131.713 80.2196 131.704L80.4173 132.578C80.3515 132.602 80.2594 132.627 80.1413 132.652C80.0232 132.68 79.8735 132.693 79.6922 132.693C79.4176 132.693 79.1483 132.634 78.8847 132.516C78.6237 132.398 78.4068 132.218 78.2337 131.977C78.0634 131.735 77.9783 131.429 77.9783 131.062V124.766ZM85.1596 132.611V124.173H86.1319V127.287H86.2143C86.2857 127.178 86.3846 127.038 86.5109 126.868C86.64 126.695 86.8241 126.541 87.063 126.406C87.3047 126.268 87.6316 126.2 88.0436 126.2C88.5765 126.2 89.0462 126.333 89.4526 126.6C89.8592 126.866 90.1764 127.244 90.4044 127.733C90.6324 128.221 90.7464 128.799 90.7464 129.463C90.7464 130.134 90.6324 130.714 90.4044 131.206C90.1764 131.695 89.8606 132.074 89.4568 132.343C89.053 132.61 88.5874 132.742 88.0601 132.742C87.6535 132.742 87.3281 132.676 87.0836 132.541C86.8392 132.404 86.651 132.248 86.5191 132.075C86.3874 131.899 86.2857 131.754 86.2143 131.638H86.099V132.611H85.1596ZM86.1154 129.446C86.1154 129.925 86.1855 130.347 86.3255 130.712C86.4656 131.075 86.6703 131.359 86.9394 131.565C87.2086 131.768 87.5382 131.869 87.9282 131.869C88.3348 131.869 88.674 131.762 88.9459 131.548C89.2206 131.331 89.4265 131.04 89.5639 130.674C89.704 130.306 89.774 129.897 89.774 129.446C89.774 129.002 89.7054 128.6 89.568 128.244C89.4334 127.884 89.2288 127.6 88.9541 127.391C88.6822 127.179 88.3402 127.074 87.9282 127.074C87.5327 127.074 87.2004 127.173 86.9312 127.374C86.662 127.572 86.4587 127.849 86.3214 128.207C86.184 128.561 86.1154 128.975 86.1154 129.446ZM94.8871 132.742C94.2773 132.742 93.7512 132.608 93.3091 132.339C92.8696 132.068 92.5304 131.688 92.2914 131.202C92.0552 130.713 91.937 130.144 91.937 129.496C91.937 128.848 92.0552 128.276 92.2914 127.782C92.5304 127.284 92.8627 126.898 93.2884 126.62C93.7169 126.34 94.2169 126.2 94.7882 126.2C95.1178 126.2 95.4432 126.255 95.7646 126.365C96.086 126.474 96.3785 126.653 96.6422 126.901C96.9057 127.145 97.1155 127.469 97.2722 127.872C97.4288 128.276 97.5071 128.773 97.5071 129.364V129.776H92.6292V128.936H96.5186C96.5186 128.579 96.4472 128.26 96.3044 127.98C96.1643 127.699 95.9637 127.479 95.7028 127.316C95.4447 127.155 95.1397 127.074 94.7882 127.074C94.4008 127.074 94.0657 127.169 93.7828 127.362C93.5027 127.551 93.287 127.799 93.136 128.103C92.9849 128.408 92.9094 128.735 92.9094 129.084V129.645C92.9094 130.122 92.9918 130.527 93.1566 130.86C93.3242 131.19 93.5562 131.441 93.8529 131.614C94.1496 131.784 94.4942 131.869 94.8871 131.869C95.1425 131.869 95.3732 131.834 95.5792 131.762C95.788 131.688 95.9679 131.578 96.1189 131.432C96.27 131.284 96.3867 131.1 96.4691 130.88L97.4085 131.144C97.3099 131.462 97.1436 131.743 96.9096 131.984C96.6765 132.223 96.3881 132.411 96.0448 132.545C95.7014 132.677 95.3155 132.742 94.8871 132.742ZM104.82 132.742C104.228 132.742 103.716 132.602 103.288 132.323C102.86 132.042 102.53 131.657 102.299 131.164C102.069 130.673 101.953 130.112 101.953 129.479C101.953 128.837 102.071 128.27 102.307 127.778C102.546 127.283 102.879 126.898 103.304 126.62C103.733 126.34 104.232 126.2 104.804 126.2C105.249 126.2 105.65 126.283 106.007 126.447C106.364 126.611 106.656 126.843 106.885 127.139C107.113 127.436 107.254 127.782 107.309 128.178H106.336C106.263 127.889 106.098 127.633 105.842 127.411C105.59 127.186 105.249 127.074 104.82 127.074C104.441 127.074 104.109 127.172 103.824 127.37C103.54 127.565 103.32 127.841 103.16 128.198C103.004 128.553 102.925 128.969 102.925 129.446C102.925 129.936 103.003 130.361 103.156 130.724C103.313 131.086 103.532 131.368 103.815 131.569C104.101 131.769 104.436 131.869 104.82 131.869C105.074 131.869 105.303 131.826 105.509 131.738C105.715 131.65 105.889 131.523 106.032 131.359C106.175 131.193 106.276 130.996 106.336 130.765H107.309C107.254 131.138 107.118 131.475 106.901 131.775C106.687 132.071 106.403 132.307 106.048 132.483C105.696 132.656 105.287 132.742 104.82 132.742ZM109.703 124.173V132.611H108.73V124.173H109.703ZM111.484 132.611V126.283H112.456V132.611H111.484ZM111.978 125.228C111.788 125.228 111.625 125.163 111.488 125.034C111.353 124.905 111.286 124.749 111.286 124.568C111.286 124.387 111.353 124.232 111.488 124.102C111.625 123.974 111.788 123.909 111.978 123.909C112.167 123.909 112.33 123.974 112.464 124.102C112.601 124.232 112.67 124.387 112.67 124.568C112.67 124.749 112.601 124.905 112.464 125.034C112.33 125.163 112.167 125.228 111.978 125.228ZM114.237 134.985V126.283H115.176V127.287H115.291C115.363 127.178 115.462 127.038 115.588 126.868C115.718 126.695 115.901 126.541 116.14 126.406C116.382 126.268 116.709 126.2 117.121 126.2C117.654 126.2 118.123 126.333 118.53 126.6C118.936 126.866 119.253 127.244 119.482 127.733C119.71 128.221 119.824 128.799 119.824 129.463C119.824 130.134 119.71 130.714 119.482 131.206C119.253 131.695 118.938 132.074 118.534 132.343C118.131 132.61 117.665 132.742 117.138 132.742C116.731 132.742 116.405 132.676 116.161 132.541C115.917 132.404 115.728 132.248 115.597 132.075C115.464 131.899 115.363 131.754 115.291 131.638H115.209V134.985H114.237ZM115.193 129.446C115.193 129.925 115.263 130.347 115.403 130.712C115.543 131.075 115.748 131.359 116.016 131.565C116.286 131.768 116.616 131.869 117.005 131.869C117.412 131.869 117.751 131.762 118.024 131.548C118.298 131.331 118.504 131.04 118.641 130.674C118.782 130.306 118.851 129.897 118.851 129.446C118.851 129.002 118.782 128.6 118.645 128.244C118.511 127.884 118.306 127.6 118.031 127.391C117.76 127.179 117.417 127.074 117.005 127.074C116.61 127.074 116.277 127.173 116.009 127.374C115.74 127.572 115.536 127.849 115.399 128.207C115.261 128.561 115.193 128.975 115.193 129.446ZM121.307 134.985V126.283H122.247V127.287H122.362C122.433 127.178 122.532 127.038 122.659 126.868C122.787 126.695 122.972 126.541 123.211 126.406C123.452 126.268 123.779 126.2 124.191 126.2C124.724 126.2 125.194 126.333 125.6 126.6C126.007 126.866 126.324 127.244 126.552 127.733C126.78 128.221 126.893 128.799 126.893 129.463C126.893 130.134 126.78 130.714 126.552 131.206C126.324 131.695 126.008 132.074 125.605 132.343C125.2 132.61 124.735 132.742 124.207 132.742C123.801 132.742 123.476 132.676 123.231 132.541C122.986 132.404 122.799 132.248 122.666 132.075C122.535 131.899 122.433 131.754 122.362 131.638H122.28V134.985H121.307ZM122.263 129.446C122.263 129.925 122.333 130.347 122.473 130.712C122.613 131.075 122.818 131.359 123.087 131.565C123.356 131.768 123.685 131.869 124.076 131.869C124.482 131.869 124.821 131.762 125.093 131.548C125.368 131.331 125.574 131.04 125.711 130.674C125.851 130.306 125.922 129.897 125.922 129.446C125.922 129.002 125.853 128.6 125.716 128.244C125.581 127.884 125.376 127.6 125.102 127.391C124.83 127.179 124.488 127.074 124.076 127.074C123.681 127.074 123.348 127.173 123.078 127.374C122.809 127.572 122.606 127.849 122.469 128.207C122.332 128.561 122.263 128.975 122.263 129.446ZM131.03 132.742C130.42 132.742 129.894 132.608 129.453 132.339C129.013 132.068 128.673 131.688 128.434 131.202C128.199 130.713 128.081 130.144 128.081 129.496C128.081 128.848 128.199 128.276 128.434 127.782C128.673 127.284 129.006 126.898 129.431 126.62C129.861 126.34 130.36 126.2 130.932 126.2C131.262 126.2 131.586 126.255 131.908 126.365C132.229 126.474 132.521 126.653 132.785 126.901C133.049 127.145 133.259 127.469 133.416 127.872C133.572 128.276 133.651 128.773 133.651 129.364V129.776H128.773V128.936H132.662C132.662 128.579 132.591 128.26 132.448 127.98C132.308 127.699 132.107 127.479 131.846 127.316C131.588 127.155 131.283 127.074 130.932 127.074C130.544 127.074 130.209 127.169 129.926 127.362C129.646 127.551 129.43 127.799 129.279 128.103C129.129 128.408 129.052 128.735 129.052 129.084V129.645C129.052 130.122 129.135 130.527 129.3 130.86C129.467 131.19 129.699 131.441 129.996 131.614C130.293 131.784 130.638 131.869 131.03 131.869C131.286 131.869 131.517 131.834 131.723 131.762C131.932 131.688 132.111 131.578 132.262 131.432C132.413 131.284 132.53 131.1 132.612 130.88L133.552 131.144C133.453 131.462 133.287 131.743 133.053 131.984C132.82 132.223 132.531 132.411 132.188 132.545C131.845 132.677 131.459 132.742 131.03 132.742ZM137.52 132.742C136.992 132.742 136.527 132.61 136.123 132.343C135.719 132.074 135.403 131.695 135.175 131.206C134.947 130.714 134.833 130.134 134.833 129.463C134.833 128.799 134.947 128.221 135.175 127.733C135.403 127.244 135.721 126.866 136.127 126.6C136.534 126.333 137.003 126.2 137.536 126.2C137.948 126.2 138.273 126.268 138.513 126.406C138.755 126.541 138.938 126.695 139.065 126.868C139.193 127.038 139.294 127.178 139.366 127.287H139.448V124.173H140.42V132.611H139.481V131.638H139.366C139.294 131.754 139.193 131.899 139.06 132.075C138.929 132.248 138.74 132.404 138.495 132.541C138.252 132.676 137.926 132.742 137.52 132.742ZM137.651 131.869C138.041 131.869 138.371 131.768 138.64 131.565C138.909 131.359 139.114 131.075 139.254 130.712C139.394 130.347 139.464 129.925 139.464 129.446C139.464 128.975 139.396 128.561 139.258 128.207C139.121 127.849 138.918 127.572 138.648 127.374C138.379 127.173 138.047 127.074 137.651 127.074C137.239 127.074 136.896 127.179 136.622 127.391C136.349 127.6 136.145 127.884 136.008 128.244C135.872 128.6 135.806 129.002 135.806 129.446C135.806 129.897 135.874 130.306 136.012 130.674C136.152 131.04 136.358 131.331 136.629 131.548C136.904 131.762 137.244 131.869 137.651 131.869ZM145.599 132.611V126.283H146.571V132.611H145.599ZM146.093 125.228C145.903 125.228 145.74 125.163 145.603 125.034C145.468 124.905 145.402 124.749 145.402 124.568C145.402 124.387 145.468 124.232 145.603 124.102C145.74 123.974 145.903 123.909 146.093 123.909C146.282 123.909 146.445 123.974 146.579 124.102C146.716 124.232 146.785 124.387 146.785 124.568C146.785 124.749 146.716 124.905 146.579 125.034C146.445 125.163 146.282 125.228 146.093 125.228ZM149.324 128.803V132.611H148.352V126.283H149.291V127.271H149.374C149.522 126.95 149.748 126.692 150.049 126.496C150.352 126.299 150.741 126.2 151.22 126.2C151.648 126.2 152.023 126.288 152.344 126.464C152.665 126.637 152.916 126.901 153.095 127.254C153.273 127.606 153.363 128.051 153.363 128.59V132.611H152.39V128.655C152.39 128.158 152.26 127.771 152.002 127.493C151.744 127.214 151.39 127.074 150.94 127.074C150.629 127.074 150.352 127.14 150.107 127.276C149.865 127.41 149.675 127.606 149.535 127.865C149.395 128.123 149.324 128.436 149.324 128.803ZM157.891 126.283V127.107H154.612V126.283H157.891ZM155.567 124.766H156.54V130.798C156.54 131.073 156.579 131.279 156.659 131.416C156.742 131.55 156.846 131.641 156.973 131.688C157.101 131.732 157.238 131.754 157.38 131.754C157.487 131.754 157.575 131.748 157.644 131.738C157.712 131.723 157.767 131.713 157.809 131.704L158.006 132.578C157.941 132.602 157.849 132.627 157.731 132.652C157.612 132.68 157.463 132.693 157.281 132.693C157.007 132.693 156.738 132.634 156.474 132.516C156.213 132.398 155.996 132.218 155.823 131.977C155.652 131.735 155.567 131.429 155.567 131.062V124.766ZM161.856 132.742C161.285 132.742 160.784 132.607 160.353 132.334C159.925 132.063 159.589 131.683 159.347 131.193C159.108 130.704 158.989 130.133 158.989 129.479C158.989 128.821 159.108 128.245 159.347 127.753C159.589 127.261 159.925 126.879 160.353 126.608C160.784 126.336 161.285 126.2 161.856 126.2C162.428 126.2 162.928 126.336 163.357 126.608C163.788 126.879 164.123 127.261 164.361 127.753C164.603 128.245 164.724 128.821 164.724 129.479C164.724 130.133 164.603 130.704 164.361 131.193C164.123 131.683 163.788 132.063 163.357 132.334C162.928 132.607 162.428 132.742 161.856 132.742ZM161.856 131.869C162.29 131.869 162.648 131.758 162.928 131.536C163.208 131.313 163.416 131.02 163.55 130.658C163.685 130.295 163.752 129.903 163.752 129.479C163.752 129.057 163.685 128.662 163.55 128.297C163.416 127.932 163.208 127.636 162.928 127.411C162.648 127.186 162.29 127.074 161.856 127.074C161.423 127.074 161.065 127.186 160.785 127.411C160.506 127.636 160.298 127.932 160.163 128.297C160.029 128.662 159.961 129.057 159.961 129.479C159.961 129.903 160.029 130.295 160.163 130.658C160.298 131.02 160.506 131.313 160.785 131.536C161.065 131.758 161.423 131.869 161.856 131.869ZM167.477 130.237V130.188C167.483 129.664 167.537 129.246 167.642 128.936C167.746 128.625 167.895 128.374 168.088 128.182C168.28 127.989 168.51 127.812 168.78 127.65C168.941 127.551 169.087 127.434 169.216 127.3C169.345 127.163 169.447 127.005 169.521 126.826C169.598 126.647 169.636 126.45 169.636 126.232C169.636 125.964 169.574 125.731 169.447 125.532C169.32 125.334 169.151 125.182 168.94 125.075C168.729 124.968 168.494 124.915 168.235 124.915C168.01 124.915 167.794 124.961 167.585 125.055C167.376 125.148 167.201 125.295 167.062 125.496C166.922 125.696 166.84 125.958 166.818 126.283H165.78C165.802 125.816 165.923 125.415 166.142 125.083C166.365 124.751 166.658 124.497 167.02 124.321C167.386 124.145 167.791 124.057 168.235 124.057C168.719 124.057 169.139 124.154 169.496 124.346C169.856 124.539 170.133 124.802 170.329 125.137C170.526 125.472 170.626 125.853 170.626 126.283C170.626 126.584 170.578 126.858 170.485 127.103C170.394 127.346 170.263 127.565 170.09 127.757C169.92 127.95 169.713 128.12 169.471 128.269C169.229 128.42 169.036 128.579 168.891 128.746C168.745 128.911 168.64 129.107 168.573 129.335C168.507 129.563 168.471 129.848 168.467 130.188V130.237H167.477ZM168.004 132.677C167.801 132.677 167.627 132.604 167.481 132.458C167.336 132.313 167.263 132.138 167.263 131.935C167.263 131.732 167.336 131.558 167.481 131.412C167.627 131.266 167.801 131.193 168.004 131.193C168.208 131.193 168.382 131.266 168.528 131.412C168.673 131.558 168.746 131.732 168.746 131.935C168.746 132.069 168.712 132.193 168.643 132.306C168.578 132.418 168.488 132.509 168.376 132.578C168.265 132.644 168.142 132.677 168.004 132.677Z" fill="#8A8F98"/>
<path d="M128.699 144.213H44.5841C41.3803 144.213 38.7831 146.811 38.7831 150.015V163.551C38.7831 166.755 41.3803 169.352 44.5841 169.352H128.699C131.903 169.352 134.5 166.755 134.5 163.551V150.015C134.5 146.811 131.903 144.213 128.699 144.213Z" fill="#313138"/>
<path d="M53.3076 154.849C53.217 154.571 53.0975 154.323 52.9492 154.103C52.8036 153.881 52.6292 153.692 52.426 153.535C52.2255 153.378 51.9975 153.258 51.742 153.176C51.4866 153.094 51.2064 153.052 50.9016 153.052C50.4016 153.052 49.9471 153.182 49.5378 153.44C49.1286 153.698 48.803 154.078 48.5613 154.581C48.3196 155.084 48.1988 155.701 48.1988 156.431C48.1988 157.162 48.3211 157.778 48.5655 158.281C48.8099 158.784 49.1409 159.164 49.5584 159.422C49.9759 159.68 50.4456 159.81 50.9675 159.81C51.4509 159.81 51.8766 159.706 52.2447 159.5C52.6155 159.292 52.9039 158.998 53.1099 158.619C53.3187 158.237 53.423 157.788 53.423 157.272L53.7361 157.338H51.1982V156.431H54.4119V157.338C54.4119 158.033 54.2636 158.637 53.9668 159.15C53.673 159.664 53.2665 160.062 52.7474 160.346C52.231 160.625 51.6377 160.765 50.9675 160.765C50.2203 160.765 49.5639 160.59 48.998 160.238C48.435 159.886 47.9955 159.386 47.6797 158.739C47.3665 158.09 47.21 157.321 47.21 156.431C47.21 155.764 47.2992 155.163 47.4778 154.63C47.6591 154.095 47.9145 153.639 48.2441 153.262C48.5737 152.886 48.9637 152.598 49.4142 152.397C49.8646 152.197 50.3604 152.096 50.9016 152.096C51.3465 152.096 51.7613 152.164 52.1458 152.298C52.5331 152.431 52.8778 152.618 53.1799 152.863C53.4849 153.105 53.7389 153.395 53.9422 153.732C54.1454 154.068 54.2855 154.44 54.3624 154.849H53.3076ZM58.6009 160.782C58.0296 160.782 57.5283 160.646 57.0971 160.374C56.6686 160.102 56.3335 159.722 56.0918 159.233C55.8529 158.743 55.7334 158.172 55.7334 157.518C55.7334 156.86 55.8529 156.284 56.0918 155.793C56.3335 155.3 56.6686 154.918 57.0971 154.647C57.5283 154.375 58.0296 154.239 58.6009 154.239C59.1722 154.239 59.6722 154.375 60.1007 154.647C60.5319 154.918 60.867 155.3 61.1059 155.793C61.3476 156.284 61.4685 156.86 61.4685 157.518C61.4685 158.172 61.3476 158.743 61.1059 159.233C60.867 159.722 60.5319 160.102 60.1007 160.374C59.6722 160.646 59.1722 160.782 58.6009 160.782ZM58.6009 159.908C59.0349 159.908 59.392 159.797 59.6722 159.575C59.9523 159.353 60.1597 159.06 60.2942 158.697C60.4288 158.334 60.4961 157.942 60.4961 157.518C60.4961 157.096 60.4288 156.701 60.2942 156.336C60.1597 155.971 59.9523 155.676 59.6722 155.45C59.392 155.225 59.0349 155.113 58.6009 155.113C58.167 155.113 57.8098 155.225 57.5297 155.45C57.2496 155.676 57.0422 155.971 56.9076 156.336C56.773 156.701 56.7057 157.096 56.7057 157.518C56.7057 157.942 56.773 158.334 56.9076 158.697C57.0422 159.06 57.2496 159.353 57.5297 159.575C57.8098 159.797 58.167 159.908 58.6009 159.908ZM65.5237 160.782C64.9524 160.782 64.4511 160.646 64.0199 160.374C63.5914 160.102 63.2563 159.722 63.0145 159.233C62.7755 158.743 62.6561 158.172 62.6561 157.518C62.6561 156.86 62.7755 156.284 63.0145 155.793C63.2563 155.3 63.5914 154.918 64.0199 154.647C64.4511 154.375 64.9524 154.239 65.5237 154.239C66.095 154.239 66.5949 154.375 67.0234 154.647C67.4546 154.918 67.7897 155.3 68.0287 155.793C68.2704 156.284 68.3912 156.86 68.3912 157.518C68.3912 158.172 68.2704 158.743 68.0287 159.233C67.7897 159.722 67.4546 160.102 67.0234 160.374C66.5949 160.646 66.095 160.782 65.5237 160.782ZM65.5237 159.908C65.9576 159.908 66.3148 159.797 66.5949 159.575C66.875 159.353 67.0824 159.06 67.217 158.697C67.3516 158.334 67.4189 157.942 67.4189 157.518C67.4189 157.096 67.3516 156.701 67.217 156.336C67.0824 155.971 66.875 155.676 66.5949 155.45C66.3148 155.225 65.9576 155.113 65.5237 155.113C65.0897 155.113 64.7326 155.225 64.4524 155.45C64.1722 155.676 63.9649 155.971 63.8303 156.336C63.6957 156.701 63.6284 157.096 63.6284 157.518C63.6284 157.942 63.6957 158.334 63.8303 158.697C63.9649 159.06 64.1722 159.353 64.4524 159.575C64.7326 159.797 65.0897 159.908 65.5237 159.908ZM72.4299 163.155C71.9602 163.155 71.5565 163.094 71.2186 162.973C70.8808 162.855 70.5992 162.699 70.374 162.505C70.1515 162.312 69.9744 162.106 69.8425 161.886L70.6171 161.342C70.705 161.457 70.8162 161.59 70.9509 161.738C71.0855 161.889 71.2694 162.019 71.5029 162.129C71.7391 162.242 72.0481 162.299 72.4299 162.299C72.9408 162.299 73.3625 162.175 73.6948 161.927C74.0272 161.68 74.1933 161.293 74.1933 160.765V159.48H74.1109C74.0395 159.595 73.9378 159.738 73.806 159.908C73.677 160.076 73.4902 160.226 73.2457 160.357C73.004 160.487 72.6772 160.551 72.2651 160.551C71.7542 160.551 71.2955 160.431 70.889 160.189C70.4852 159.947 70.1653 159.595 69.929 159.134C69.6956 158.673 69.5788 158.112 69.5788 157.453C69.5788 156.805 69.6928 156.24 69.9208 155.76C70.1488 155.276 70.466 154.902 70.8726 154.639C71.279 154.372 71.7487 154.239 72.2816 154.239C72.6936 154.239 73.0205 154.307 73.2622 154.445C73.5066 154.58 73.6934 154.734 73.8225 154.907C73.9544 155.077 74.056 155.217 74.1274 155.327H74.2262V154.322H75.1656V160.832C75.1656 161.375 75.0421 161.817 74.7948 162.158C74.5504 162.502 74.2208 162.753 73.806 162.912C73.394 163.074 72.9353 163.155 72.4299 163.155ZM72.397 159.677C72.787 159.677 73.1166 159.588 73.3858 159.41C73.6549 159.232 73.8596 158.974 73.9997 158.639C74.1397 158.304 74.2098 157.903 74.2098 157.436C74.2098 156.981 74.1412 156.578 74.0038 156.23C73.8665 155.881 73.6631 155.607 73.394 155.41C73.1248 155.211 72.7925 155.113 72.397 155.113C71.985 155.113 71.6416 155.217 71.3669 155.426C71.095 155.634 70.8904 155.914 70.753 156.266C70.6185 156.618 70.5512 157.008 70.5512 157.436C70.5512 157.876 70.6198 158.265 70.7572 158.602C70.8973 158.938 71.1032 159.201 71.3752 159.393C71.6499 159.583 71.9904 159.677 72.397 159.677ZM77.9178 152.212V160.65H76.9455V152.212H77.9178ZM82.3521 160.782C81.7423 160.782 81.2163 160.647 80.7741 160.378C80.3346 160.107 79.9954 159.727 79.7565 159.241C79.5202 158.752 79.4021 158.184 79.4021 157.535C79.4021 156.887 79.5202 156.316 79.7565 155.822C79.9954 155.324 80.3278 154.937 80.7535 154.659C81.182 154.379 81.6818 154.239 82.2532 154.239C82.5828 154.239 82.9083 154.294 83.2297 154.404C83.551 154.513 83.8435 154.692 84.1073 154.94C84.3709 155.184 84.581 155.508 84.7376 155.911C84.8942 156.316 84.9724 156.813 84.9724 157.403V157.815H80.0943V156.975H83.9836C83.9836 156.618 83.9122 156.299 83.7694 156.019C83.6293 155.738 83.4287 155.518 83.1679 155.356C82.9096 155.194 82.6048 155.113 82.2532 155.113C81.8659 155.113 81.5308 155.209 81.2479 155.401C80.9677 155.59 80.7521 155.838 80.601 156.143C80.45 156.447 80.3745 156.774 80.3745 157.123V157.684C80.3745 158.161 80.4569 158.566 80.6216 158.899C80.7892 159.229 81.0213 159.48 81.3179 159.653C81.6146 159.823 81.9593 159.908 82.3521 159.908C82.6075 159.908 82.8383 159.873 83.0442 159.801C83.253 159.727 83.4329 159.617 83.584 159.471C83.735 159.324 83.8517 159.139 83.9342 158.919L84.8736 159.183C84.7747 159.501 84.6085 159.782 84.375 160.024C84.1416 160.262 83.8532 160.45 83.5099 160.584C83.1664 160.716 82.7806 160.782 82.3521 160.782ZM94.461 154.322C94.4115 153.904 94.211 153.58 93.8594 153.349C93.5079 153.118 93.0766 153.003 92.5657 153.003C92.1922 153.003 91.8653 153.063 91.5851 153.184C91.3077 153.305 91.0908 153.471 90.9341 153.683C90.7803 153.895 90.7034 154.134 90.7034 154.404C90.7034 154.629 90.757 154.823 90.8641 154.985C90.974 155.144 91.1141 155.277 91.2843 155.385C91.4547 155.489 91.6332 155.575 91.82 155.644C92.0068 155.71 92.1785 155.764 92.335 155.805L93.192 156.035C93.4117 156.093 93.6562 156.173 93.9254 156.274C94.1972 156.377 94.4568 156.515 94.7041 156.691C94.954 156.864 95.16 157.086 95.3221 157.358C95.4841 157.63 95.5651 157.964 95.5651 158.36C95.5651 158.815 95.4456 159.227 95.2067 159.595C94.9704 159.964 94.6244 160.256 94.1684 160.473C93.7153 160.69 93.1644 160.798 92.5163 160.798C91.912 160.798 91.3888 160.701 90.9465 160.506C90.5071 160.311 90.161 160.039 89.9083 159.69C89.6583 159.341 89.5168 158.936 89.4839 158.475H90.5386C90.5661 158.794 90.6732 159.057 90.86 159.266C91.0495 159.471 91.2885 159.625 91.5769 159.727C91.868 159.826 92.1812 159.876 92.5163 159.876C92.9063 159.876 93.2565 159.813 93.5668 159.686C93.8773 159.557 94.1231 159.379 94.3044 159.15C94.4856 158.919 94.5763 158.651 94.5763 158.343C94.5763 158.063 94.498 157.835 94.3415 157.659C94.1849 157.483 93.9789 157.34 93.7235 157.23C93.468 157.12 93.192 157.024 92.8953 156.942L91.8571 156.645C91.1979 156.456 90.676 156.185 90.2915 155.833C89.9069 155.482 89.7147 155.022 89.7147 154.453C89.7147 153.981 89.8424 153.569 90.0978 153.217C90.356 152.863 90.7021 152.588 91.136 152.393C91.5727 152.196 92.0603 152.096 92.5987 152.096C93.1425 152.096 93.6259 152.194 94.0489 152.389C94.4719 152.582 94.807 152.846 95.0542 153.18C95.3042 153.516 95.436 153.896 95.4498 154.322H94.461ZM98.0853 156.843V160.65H97.1136V152.212H98.0853V155.31H98.1684C98.3164 154.983 98.5387 154.724 98.8356 154.532C99.1353 154.336 99.5327 154.239 100.031 154.239C100.462 154.239 100.839 154.326 101.164 154.499C101.488 154.669 101.739 154.931 101.917 155.286C102.099 155.637 102.19 156.085 102.19 156.629V160.65H101.217V156.695C101.217 156.192 101.086 155.803 100.825 155.529C100.567 155.251 100.208 155.113 99.7502 155.113C99.4311 155.113 99.1459 155.18 98.8936 155.315C98.6432 155.449 98.445 155.646 98.2999 155.904C98.1568 156.162 98.0853 156.475 98.0853 156.843ZM106.622 160.782C106.011 160.782 105.486 160.647 105.044 160.378C104.604 160.107 104.264 159.727 104.026 159.241C103.79 158.752 103.672 158.184 103.672 157.535C103.672 156.887 103.79 156.316 104.026 155.822C104.264 155.324 104.597 154.937 105.022 154.659C105.452 154.379 105.952 154.239 106.522 154.239C106.852 154.239 107.177 154.294 107.498 154.404C107.82 154.513 108.112 154.692 108.376 154.94C108.64 155.184 108.85 155.508 109.007 155.911C109.163 156.316 109.242 156.813 109.242 157.403V157.815H104.364V156.975H108.253C108.253 156.618 108.181 156.299 108.039 156.019C107.899 155.738 107.698 155.518 107.438 155.356C107.178 155.194 106.874 155.113 106.522 155.113C106.135 155.113 105.8 155.209 105.517 155.401C105.237 155.59 105.021 155.838 104.871 156.143C104.719 156.447 104.643 156.774 104.643 157.123V157.684C104.643 158.161 104.727 158.566 104.891 158.899C105.058 159.229 105.29 159.48 105.587 159.653C105.884 159.823 106.229 159.908 106.622 159.908C106.877 159.908 107.108 159.873 107.314 159.801C107.523 159.727 107.702 159.617 107.853 159.471C108.004 159.324 108.121 159.139 108.203 158.919L109.143 159.183C109.043 159.501 108.878 159.782 108.644 160.024C108.411 160.262 108.122 160.45 107.779 160.584C107.436 160.716 107.05 160.782 106.622 160.782ZM113.374 160.782C112.764 160.782 112.238 160.647 111.796 160.378C111.356 160.107 111.018 159.727 110.778 159.241C110.542 158.752 110.424 158.184 110.424 157.535C110.424 156.887 110.542 156.316 110.778 155.822C111.018 155.324 111.349 154.937 111.776 154.659C112.204 154.379 112.704 154.239 113.275 154.239C113.605 154.239 113.93 154.294 114.252 154.404C114.573 154.513 114.866 154.692 115.129 154.94C115.393 155.184 115.604 155.508 115.759 155.911C115.916 156.316 115.994 156.813 115.994 157.403V157.815H111.116V156.975H115.006C115.006 156.618 114.934 156.299 114.791 156.019C114.651 155.738 114.451 155.518 114.19 155.356C113.932 155.194 113.627 155.113 113.275 155.113C112.888 155.113 112.553 155.209 112.27 155.401C111.989 155.59 111.774 155.838 111.623 156.143C111.472 156.447 111.397 156.774 111.397 157.123V157.684C111.397 158.161 111.479 158.566 111.643 158.899C111.812 159.229 112.044 159.48 112.34 159.653C112.636 159.823 112.981 159.908 113.374 159.908C113.629 159.908 113.86 159.873 114.066 159.801C114.275 159.727 114.455 159.617 114.606 159.471C114.758 159.324 114.874 159.139 114.957 158.919L115.896 159.183C115.797 159.501 115.631 159.782 115.397 160.024C115.164 160.262 114.875 160.45 114.532 160.584C114.188 160.716 113.802 160.782 113.374 160.782ZM120.226 154.322V155.146H116.946V154.322H120.226ZM117.902 152.805H118.874V158.837C118.874 159.112 118.914 159.318 118.994 159.455C119.076 159.589 119.181 159.68 119.307 159.727C119.436 159.771 119.572 159.793 119.715 159.793C119.822 159.793 119.91 159.788 119.978 159.777C120.047 159.762 120.102 159.752 120.144 159.743L120.341 160.617C120.275 160.641 120.183 160.667 120.065 160.692C119.947 160.719 119.798 160.732 119.616 160.732C119.341 160.732 119.073 160.673 118.809 160.555C118.548 160.437 118.331 160.258 118.158 160.016C117.987 159.774 117.902 159.469 117.902 159.101V152.805ZM126.058 155.738L125.184 155.986C125.13 155.841 125.049 155.699 124.941 155.561C124.837 155.421 124.694 155.306 124.513 155.215C124.331 155.125 124.099 155.08 123.817 155.08C123.429 155.08 123.106 155.169 122.848 155.348C122.593 155.523 122.465 155.747 122.465 156.019C122.465 156.26 122.553 156.452 122.729 156.592C122.904 156.731 123.179 156.848 123.553 156.942L124.492 157.172C125.058 157.31 125.48 157.52 125.757 157.803C126.035 158.083 126.173 158.445 126.173 158.886C126.173 159.249 126.069 159.573 125.86 159.859C125.654 160.144 125.366 160.37 124.994 160.535C124.624 160.699 124.193 160.782 123.701 160.782C123.056 160.782 122.521 160.641 122.099 160.362C121.675 160.082 121.407 159.673 121.295 159.134L122.218 158.903C122.306 159.243 122.472 159.499 122.717 159.67C122.963 159.84 123.286 159.925 123.684 159.925C124.138 159.925 124.497 159.829 124.764 159.637C125.033 159.441 125.168 159.208 125.168 158.936C125.168 158.716 125.091 158.533 124.937 158.384C124.784 158.233 124.547 158.121 124.229 158.046L123.174 157.799C122.594 157.661 122.168 157.449 121.897 157.161C121.627 156.869 121.493 156.505 121.493 156.068C121.493 155.711 121.593 155.395 121.793 155.121C121.996 154.846 122.273 154.63 122.622 154.474C122.973 154.317 123.371 154.239 123.817 154.239C124.442 154.239 124.935 154.376 125.291 154.651C125.651 154.926 125.907 155.289 126.058 155.738Z" fill="#8A8F98"/>
<path d="M142.235 150.015C142.235 146.81 144.832 144.213 148.036 144.213H189.61C192.815 144.213 195.411 146.81 195.411 150.015V163.551C195.411 166.755 192.815 169.352 189.61 169.352H148.036C144.832 169.352 142.235 166.755 142.235 163.551V150.015Z" fill="#313138"/>
<path d="M157.708 152.212V160.65H156.538L152.249 154.461H152.17V160.65H150.897V152.212H152.076L156.368 158.409H156.447V152.212H157.708ZM162.131 160.778C161.538 160.778 161.02 160.641 160.578 160.37C160.136 160.098 159.792 159.718 159.548 159.229C159.304 158.74 159.181 158.168 159.181 157.515C159.181 156.858 159.304 156.284 159.548 155.793C159.792 155.3 160.136 154.919 160.578 154.647C161.02 154.375 161.538 154.239 162.131 154.239C162.724 154.239 163.243 154.375 163.685 154.647C164.126 154.919 164.471 155.3 164.714 155.793C164.959 156.284 165.082 156.858 165.082 157.515C165.082 158.168 164.959 158.74 164.714 159.229C164.471 159.718 164.126 160.098 163.685 160.37C163.243 160.641 162.724 160.778 162.131 160.778ZM162.136 159.743C162.52 159.743 162.839 159.642 163.091 159.439C163.344 159.236 163.531 158.965 163.652 158.627C163.775 158.289 163.837 157.917 163.837 157.511C163.837 157.107 163.775 156.736 163.652 156.398C163.531 156.058 163.344 155.784 163.091 155.578C162.839 155.372 162.52 155.27 162.136 155.27C161.748 155.27 161.427 155.372 161.172 155.578C160.918 155.784 160.731 156.058 160.607 156.398C160.486 156.736 160.425 157.107 160.425 157.511C160.425 157.917 160.486 158.289 160.607 158.627C160.731 158.965 160.918 159.236 161.172 159.439C161.427 159.642 161.748 159.743 162.136 159.743ZM169.41 154.322V155.31H165.954V154.322H169.41ZM166.881 152.805H168.113V158.792C168.113 159.031 168.148 159.21 168.22 159.331C168.292 159.45 168.383 159.531 168.496 159.575C168.612 159.616 168.736 159.637 168.871 159.637C168.969 159.637 169.056 159.63 169.13 159.616C169.204 159.602 169.262 159.591 169.303 159.583L169.526 160.601C169.455 160.628 169.353 160.656 169.221 160.683C169.089 160.713 168.924 160.729 168.727 160.732C168.403 160.738 168.1 160.68 167.82 160.559C167.54 160.438 167.313 160.252 167.14 159.999C166.967 159.746 166.881 159.429 166.881 159.047V152.805ZM170.773 160.65V154.322H172.005V160.65H170.773ZM171.395 153.345C171.181 153.345 170.997 153.274 170.843 153.131C170.692 152.985 170.617 152.812 170.617 152.612C170.617 152.409 170.692 152.236 170.843 152.092C170.997 151.947 171.181 151.874 171.395 151.874C171.61 151.874 171.793 151.947 171.943 152.092C172.097 152.236 172.174 152.409 172.174 152.612C172.174 152.812 172.097 152.985 171.943 153.131C171.793 153.274 171.61 153.345 171.395 153.345ZM176.328 160.778C175.734 160.778 175.217 160.641 174.775 160.37C174.332 160.098 173.989 159.718 173.745 159.229C173.5 158.74 173.378 158.168 173.378 157.515C173.378 156.858 173.5 156.284 173.745 155.793C173.989 155.3 174.332 154.919 174.775 154.647C175.217 154.375 175.734 154.239 176.328 154.239C176.922 154.239 177.439 154.375 177.882 154.647C178.324 154.919 178.667 155.3 178.911 155.793C179.156 156.284 179.278 156.858 179.278 157.515C179.278 158.168 179.156 158.74 178.911 159.229C178.667 159.718 178.324 160.098 177.882 160.37C177.439 160.641 176.922 160.778 176.328 160.778ZM176.332 159.743C176.717 159.743 177.036 159.642 177.288 159.439C177.54 159.236 177.728 158.965 177.849 158.627C177.972 158.289 178.033 157.917 178.033 157.511C178.033 157.107 177.972 156.736 177.849 156.398C177.728 156.058 177.54 155.784 177.288 155.578C177.036 155.372 176.717 155.27 176.332 155.27C175.945 155.27 175.623 155.372 175.368 155.578C175.116 155.784 174.927 156.058 174.803 156.398C174.682 156.736 174.622 157.107 174.622 157.511C174.622 157.917 174.682 158.289 174.803 158.627C174.927 158.965 175.116 159.236 175.368 159.439C175.623 159.642 175.945 159.743 176.332 159.743ZM181.885 156.893V160.65H180.653V154.322H181.835V155.352H181.913C182.059 155.016 182.288 154.747 182.598 154.544C182.911 154.34 183.305 154.239 183.78 154.239C184.212 154.239 184.589 154.33 184.914 154.512C185.237 154.689 185.489 154.956 185.668 155.31C185.846 155.665 185.935 156.103 185.935 156.625V160.65H184.703V156.773C184.703 156.315 184.584 155.956 184.345 155.698C184.105 155.437 183.777 155.306 183.36 155.306C183.075 155.306 182.82 155.368 182.598 155.492C182.378 155.616 182.203 155.796 182.075 156.035C181.948 156.272 181.885 156.557 181.885 156.893Z" fill="#8A8F98"/>
<path d="M257.289 144.213H208.947C205.743 144.213 203.146 146.811 203.146 150.015V163.551C203.146 166.755 205.743 169.352 208.947 169.352H257.289C260.493 169.352 263.09 166.755 263.09 163.551V150.015C263.09 146.811 260.493 144.213 257.289 144.213Z" fill="#313138"/>
<path d="M212.521 160.65H211.169L214.206 152.212H215.677L218.713 160.65H217.362L214.976 153.745H214.911L212.521 160.65ZM212.747 157.345H217.131V158.417H212.747V157.345ZM219.889 160.65V154.322H221.122V160.65H219.889ZM220.512 153.345C220.297 153.345 220.113 153.274 219.96 153.131C219.809 152.985 219.733 152.812 219.733 152.612C219.733 152.409 219.809 152.236 219.96 152.092C220.113 151.947 220.297 151.874 220.512 151.874C220.726 151.874 220.908 151.947 221.06 152.092C221.214 152.236 221.29 152.409 221.29 152.612C221.29 152.812 221.214 152.985 221.06 153.131C220.908 153.274 220.726 153.345 220.512 153.345ZM222.779 160.65V154.322H223.969V155.327H224.035C224.151 154.986 224.354 154.718 224.645 154.523C224.939 154.326 225.271 154.227 225.642 154.227C225.719 154.227 225.81 154.229 225.914 154.235C226.021 154.241 226.105 154.248 226.166 154.255V155.434C226.115 155.42 226.028 155.405 225.902 155.388C225.775 155.369 225.649 155.359 225.523 155.359C225.232 155.359 224.972 155.421 224.744 155.545C224.518 155.666 224.34 155.835 224.208 156.052C224.076 156.266 224.011 156.511 224.011 156.786V160.65H222.779ZM230.559 154.322V155.31H227.103V154.322H230.559ZM228.03 152.805H229.262V158.792C229.262 159.031 229.297 159.21 229.369 159.331C229.44 159.45 229.532 159.531 229.644 159.575C229.76 159.616 229.885 159.637 230.02 159.637C230.118 159.637 230.205 159.63 230.28 159.616C230.353 159.602 230.411 159.591 230.453 159.583L230.675 160.601C230.604 160.628 230.502 160.656 230.37 160.683C230.238 160.713 230.073 160.729 229.876 160.732C229.552 160.738 229.249 160.68 228.969 160.559C228.689 160.438 228.462 160.252 228.289 159.999C228.116 159.746 228.03 159.429 228.03 159.047V152.805ZM233.764 160.79C233.363 160.79 233 160.716 232.676 160.568C232.352 160.417 232.095 160.199 231.906 159.912C231.719 159.627 231.626 159.277 231.626 158.862C231.626 158.505 231.694 158.211 231.831 157.981C231.969 157.75 232.154 157.567 232.387 157.432C232.621 157.298 232.882 157.197 233.171 157.128C233.459 157.059 233.753 157.007 234.052 156.971C234.431 156.927 234.739 156.891 234.975 156.864C235.212 156.834 235.383 156.786 235.49 156.72C235.597 156.653 235.65 156.547 235.65 156.398V156.369C235.65 156.009 235.549 155.731 235.346 155.533C235.146 155.335 234.846 155.237 234.448 155.237C234.033 155.237 233.706 155.329 233.467 155.512C233.23 155.694 233.067 155.895 232.977 156.117L231.819 155.854C231.956 155.47 232.157 155.159 232.42 154.923C232.687 154.685 232.994 154.512 233.34 154.404C233.686 154.294 234.049 154.239 234.431 154.239C234.684 154.239 234.951 154.27 235.235 154.33C235.52 154.388 235.787 154.495 236.034 154.651C236.284 154.807 236.489 155.032 236.648 155.323C236.807 155.611 236.887 155.986 236.887 156.447V160.65H235.683V159.785H235.634C235.555 159.944 235.435 160.101 235.276 160.255C235.117 160.408 234.912 160.536 234.662 160.638C234.412 160.739 234.112 160.79 233.764 160.79ZM234.032 159.801C234.372 159.801 234.663 159.735 234.905 159.599C235.15 159.465 235.335 159.289 235.461 159.072C235.591 158.853 235.655 158.618 235.655 158.367V157.551C235.611 157.596 235.526 157.637 235.399 157.675C235.276 157.711 235.134 157.743 234.975 157.77C234.816 157.795 234.66 157.818 234.51 157.84C234.359 157.86 234.232 157.876 234.131 157.89C233.892 157.92 233.673 157.971 233.475 158.043C233.281 158.113 233.124 158.217 233.006 158.351C232.89 158.483 232.833 158.658 232.833 158.879C232.833 159.183 232.945 159.415 233.171 159.571C233.396 159.725 233.683 159.801 234.032 159.801ZM238.626 160.65V152.212H239.858V155.348H239.933C240.004 155.215 240.107 155.064 240.242 154.891C240.376 154.717 240.563 154.566 240.802 154.437C241.041 154.306 241.357 154.239 241.749 154.239C242.261 154.239 242.716 154.368 243.117 154.627C243.519 154.885 243.833 155.257 244.061 155.743C244.291 156.23 244.407 156.815 244.407 157.498C244.407 158.182 244.293 158.769 244.065 159.258C243.837 159.743 243.523 160.118 243.125 160.382C242.728 160.643 242.272 160.774 241.762 160.774C241.377 160.774 241.063 160.709 240.818 160.581C240.577 160.451 240.387 160.3 240.25 160.127C240.112 159.954 240.007 159.8 239.933 159.666H239.829V160.65H238.626ZM239.834 157.486C239.834 157.93 239.898 158.321 240.027 158.656C240.156 158.991 240.344 159.253 240.587 159.443C240.832 159.63 241.132 159.723 241.485 159.723C241.854 159.723 242.161 159.625 242.409 159.431C242.656 159.233 242.843 158.965 242.969 158.627C243.098 158.289 243.163 157.909 243.163 157.486C243.163 157.068 243.1 156.694 242.973 156.361C242.85 156.029 242.663 155.767 242.413 155.574C242.166 155.382 241.857 155.286 241.485 155.286C241.129 155.286 240.827 155.378 240.579 155.562C240.335 155.746 240.149 156.002 240.024 156.332C239.897 156.662 239.834 157.047 239.834 157.486ZM247.022 152.212V160.65H245.791V152.212H247.022ZM251.407 160.778C250.783 160.778 250.247 160.644 249.796 160.378C249.349 160.109 249.003 159.732 248.758 159.245C248.516 158.756 248.395 158.184 248.395 157.527C248.395 156.878 248.516 156.308 248.758 155.813C249.003 155.319 249.343 154.933 249.78 154.656C250.219 154.378 250.732 154.239 251.32 154.239C251.678 154.239 252.024 154.298 252.358 154.417C252.694 154.535 252.995 154.719 253.261 154.973C253.527 155.225 253.737 155.554 253.891 155.957C254.046 156.358 254.122 156.846 254.122 157.42V157.857H249.092V156.934H252.914C252.914 156.61 252.849 156.322 252.717 156.073C252.586 155.82 252.4 155.621 252.161 155.475C251.924 155.329 251.647 155.257 251.329 155.257C250.983 155.257 250.68 155.342 250.422 155.512C250.167 155.679 249.969 155.9 249.829 156.172C249.692 156.44 249.623 156.733 249.623 157.05V157.77C249.623 158.193 249.697 158.553 249.846 158.85C249.996 159.147 250.206 159.373 250.476 159.53C250.745 159.683 251.059 159.761 251.42 159.761C251.653 159.761 251.865 159.727 252.058 159.661C252.25 159.592 252.417 159.491 252.557 159.356C252.697 159.222 252.803 159.056 252.878 158.858L254.044 159.068C253.951 159.412 253.783 159.712 253.541 159.97C253.302 160.226 253.001 160.425 252.639 160.568C252.279 160.708 251.868 160.778 251.407 160.778Z" fill="#8A8F98"/>
<path d="M84.204 75.5657H82.6274L86.17 65.7213H87.886L91.4286 75.5657H89.852L87.0689 67.5094H86.9919L84.204 75.5657ZM84.4684 71.7106H89.5828V72.9604H84.4684V71.7106ZM94.3355 65.7213V75.5657H92.8501V65.7213H94.3355ZM102.008 75.5657L99.2784 65.7213H100.84L102.758 73.3449H102.849L104.844 65.7213H106.392L108.387 73.3498H108.478L110.391 65.7213H111.959L109.223 75.5657H107.729L105.657 68.192H105.579L103.508 75.5657H102.008ZM115.652 75.7147C114.925 75.7147 114.298 75.5594 113.772 75.2485C113.25 74.9345 112.847 74.4938 112.562 73.9266C112.279 73.3562 112.138 72.688 112.138 71.9221C112.138 71.1658 112.279 70.4992 112.562 69.9225C112.847 69.3457 113.244 68.8954 113.754 68.5717C114.266 68.2481 114.866 68.0862 115.551 68.0862C115.968 68.0862 116.371 68.1552 116.763 68.293C117.153 68.4307 117.504 68.647 117.816 68.9418C118.126 69.2367 118.372 69.6196 118.55 70.0907C118.73 70.5586 118.82 71.1274 118.82 71.7972V72.3067H112.95V71.2299H117.411C117.411 70.8518 117.334 70.5169 117.18 70.2253C117.027 69.9304 116.81 69.6981 116.532 69.5283C116.256 69.3584 115.932 69.2736 115.561 69.2736C115.157 69.2736 114.805 69.3728 114.503 69.5715C114.205 69.767 113.974 70.0235 113.811 70.3407C113.65 70.6547 113.571 70.996 113.571 71.3645V72.2058C113.571 72.6993 113.657 73.1191 113.83 73.4651C114.006 73.8113 114.252 74.0756 114.566 74.2582C114.88 74.4377 115.247 74.5274 115.666 74.5274C115.939 74.5274 116.187 74.489 116.412 74.4121C116.636 74.332 116.829 74.2134 116.993 74.0564C117.156 73.8993 117.282 73.7055 117.368 73.4748L118.728 73.7199C118.619 74.1205 118.424 74.4713 118.142 74.7726C117.863 75.0706 117.512 75.3029 117.09 75.4696C116.67 75.633 116.19 75.7147 115.652 75.7147ZM120.53 75.5657V65.7213H121.967V69.3793H122.053C122.136 69.2255 122.257 69.0476 122.414 68.8457C122.572 68.6438 122.789 68.4676 123.068 68.3169C123.347 68.1632 123.715 68.0862 124.174 68.0862C124.769 68.0862 125.301 68.2369 125.769 68.5381C126.237 68.8393 126.604 69.2736 126.87 69.8407C127.139 70.408 127.273 71.0905 127.273 71.8884C127.273 72.6864 127.141 73.3706 126.875 73.941C126.609 74.5082 126.244 74.9457 125.779 75.2532C125.314 75.5577 124.784 75.7099 124.188 75.7099C123.739 75.7099 123.372 75.6347 123.087 75.484C122.805 75.3334 122.584 75.1571 122.424 74.9553C122.263 74.7534 122.14 74.5739 122.053 74.4169H121.933V75.5657H120.53ZM121.938 71.874C121.938 72.3932 122.014 72.8483 122.164 73.2393C122.314 73.6302 122.533 73.9362 122.818 74.1573C123.103 74.3752 123.452 74.4842 123.866 74.4842C124.295 74.4842 124.654 74.3704 124.942 74.1429C125.23 73.9122 125.449 73.5997 125.596 73.2055C125.747 72.8114 125.822 72.3675 125.822 71.874C125.822 71.3869 125.749 70.9495 125.601 70.5618C125.457 70.174 125.239 69.868 124.947 69.6437C124.659 69.4194 124.298 69.3072 123.866 69.3072C123.449 69.3072 123.097 69.4145 122.808 69.6293C122.523 69.8439 122.307 70.1435 122.16 70.5282C122.012 70.9127 121.938 71.3613 121.938 71.874ZM140.762 68.9227H139.262C139.204 68.6022 139.097 68.3202 138.939 68.0767C138.783 67.8331 138.59 67.6264 138.363 67.4565C138.136 67.2867 137.881 67.1585 137.598 67.072C137.32 66.9855 137.023 66.9422 136.71 66.9422C136.142 66.9422 135.635 67.0849 135.186 67.37C134.74 67.6552 134.387 68.0734 134.128 68.6246C133.872 69.1758 133.743 69.8487 133.743 70.6435C133.743 71.4447 133.872 72.1208 134.128 72.672C134.387 73.2232 134.742 73.6397 135.191 73.9218C135.639 74.2038 136.144 74.3448 136.705 74.3448C137.015 74.3448 137.31 74.3031 137.589 74.2199C137.871 74.1333 138.126 74.0067 138.353 73.8401C138.581 73.6735 138.773 73.47 138.93 73.2296C139.09 72.986 139.201 72.7073 139.262 72.3932L140.762 72.398C140.681 72.8819 140.526 73.3273 140.295 73.7343C140.068 74.1381 139.775 74.4874 139.416 74.7822C139.06 75.0738 138.653 75.2998 138.195 75.46C137.736 75.6202 137.237 75.7003 136.695 75.7003C135.842 75.7003 135.083 75.4984 134.416 75.0947C133.75 74.6877 133.224 74.1061 132.839 73.3498C132.458 72.5935 132.268 71.6914 132.268 70.6435C132.268 69.5924 132.46 68.6903 132.844 67.9372C133.229 67.181 133.755 66.6009 134.421 66.1972C135.088 65.7901 135.845 65.5867 136.695 65.5867C137.217 65.5867 137.705 65.662 138.156 65.8126C138.611 65.96 139.019 66.1779 139.382 66.4663C139.744 66.7516 140.043 67.1008 140.281 67.5142C140.518 67.9244 140.679 68.3939 140.762 68.9227ZM143.86 65.7213V75.5657H142.424V65.7213H143.86ZM145.794 75.5657V68.1823H147.231V75.5657H145.794ZM146.52 67.0432C146.27 67.0432 146.055 66.9598 145.875 66.7931C145.699 66.6234 145.611 66.4215 145.611 66.1875C145.611 65.9504 145.699 65.7485 145.875 65.5819C146.055 65.412 146.27 65.3271 146.52 65.3271C146.77 65.3271 146.983 65.412 147.159 65.5819C147.338 65.7485 147.428 65.9504 147.428 66.1875C147.428 66.4215 147.338 66.6234 147.159 66.7931C146.983 66.9598 146.77 67.0432 146.52 67.0432ZM149.165 78.3345V68.1823H150.568V69.3793H150.688C150.771 69.2255 150.892 69.0476 151.049 68.8457C151.206 68.6438 151.424 68.4676 151.702 68.3169C151.982 68.1632 152.35 68.0862 152.809 68.0862C153.404 68.0862 153.936 68.2369 154.404 68.5381C154.872 68.8393 155.239 69.2736 155.505 69.8407C155.774 70.408 155.908 71.0905 155.908 71.8884C155.908 72.6864 155.776 73.3706 155.51 73.941C155.244 74.5082 154.879 74.9457 154.414 75.2532C153.949 75.5577 153.419 75.7099 152.823 75.7099C152.374 75.7099 152.007 75.6347 151.722 75.484C151.439 75.3334 151.219 75.1571 151.059 74.9553C150.898 74.7534 150.775 74.5739 150.688 74.4169H150.602V78.3345H149.165ZM150.573 71.874C150.573 72.3932 150.649 72.8483 150.799 73.2393C150.949 73.6302 151.168 73.9362 151.453 74.1573C151.738 74.3752 152.087 74.4842 152.501 74.4842C152.93 74.4842 153.289 74.3704 153.577 74.1429C153.865 73.9122 154.084 73.5997 154.231 73.2055C154.382 72.8114 154.457 72.3675 154.457 71.874C154.457 71.3869 154.384 70.9495 154.236 70.5618C154.092 70.174 153.874 69.868 153.582 69.6437C153.294 69.4194 152.933 69.3072 152.501 69.3072C152.084 69.3072 151.731 69.4145 151.443 69.6293C151.158 69.8439 150.942 70.1435 150.795 70.5282C150.647 70.9127 150.573 71.3613 150.573 71.874ZM157.519 78.3345V68.1823H158.923V69.3793H159.043C159.126 69.2255 159.246 69.0476 159.403 68.8457C159.56 68.6438 159.779 68.4676 160.057 68.3169C160.335 68.1632 160.704 68.0862 161.162 68.0862C161.759 68.0862 162.29 68.2369 162.758 68.5381C163.226 68.8393 163.593 69.2736 163.859 69.8407C164.128 70.408 164.263 71.0905 164.263 71.8884C164.263 72.6864 164.129 73.3706 163.863 73.941C163.598 74.5082 163.232 74.9457 162.768 75.2532C162.303 75.5577 161.773 75.7099 161.177 75.7099C160.728 75.7099 160.362 75.6347 160.076 75.484C159.794 75.3334 159.573 75.1571 159.413 74.9553C159.253 74.7534 159.129 74.5739 159.043 74.4169H158.956V78.3345H157.519ZM158.928 71.874C158.928 72.3932 159.002 72.8483 159.153 73.2393C159.304 73.6302 159.521 73.9362 159.807 74.1573C160.092 74.3752 160.442 74.4842 160.855 74.4842C161.284 74.4842 161.644 74.3704 161.932 74.1429C162.22 73.9122 162.437 73.5997 162.585 73.2055C162.736 72.8114 162.812 72.3675 162.812 71.874C162.812 71.3869 162.737 70.9495 162.59 70.5618C162.446 70.174 162.228 69.868 161.937 69.6437C161.647 69.4194 161.288 69.3072 160.855 69.3072C160.438 69.3072 160.086 69.4145 159.797 69.6293C159.512 69.8439 159.296 70.1435 159.148 70.5282C159.001 70.9127 158.928 71.3613 158.928 71.874ZM169.055 75.7147C168.327 75.7147 167.701 75.5594 167.176 75.2485C166.654 74.9345 166.25 74.4938 165.964 73.9266C165.682 73.3562 165.541 72.688 165.541 71.9221C165.541 71.1658 165.682 70.4992 165.964 69.9225C166.25 69.3457 166.647 68.8954 167.156 68.5717C167.669 68.2481 168.268 68.0862 168.954 68.0862C169.371 68.0862 169.775 68.1552 170.165 68.293C170.556 68.4307 170.907 68.647 171.218 68.9418C171.529 69.2367 171.774 69.6196 171.954 70.0907C172.133 70.5586 172.223 71.1274 172.223 71.7972V72.3067H166.354V71.2299H170.814C170.814 70.8518 170.738 70.5169 170.584 70.2253C170.43 69.9304 170.214 69.6981 169.935 69.5283C169.659 69.3584 169.336 69.2736 168.964 69.2736C168.56 69.2736 168.207 69.3728 167.906 69.5715C167.608 69.767 167.378 70.0235 167.215 70.3407C167.054 70.6547 166.974 70.996 166.974 71.3645V72.2058C166.974 72.6993 167.06 73.1191 167.233 73.4651C167.41 73.8113 167.654 74.0756 167.969 74.2582C168.283 74.4377 168.649 74.5274 169.07 74.5274C169.342 74.5274 169.59 74.489 169.814 74.4121C170.039 74.332 170.233 74.2134 170.396 74.0564C170.56 73.8993 170.684 73.7055 170.772 73.4748L172.132 73.7199C172.023 74.1205 171.827 74.4713 171.545 74.7726C171.267 75.0706 170.916 75.3029 170.492 75.4696C170.072 75.633 169.594 75.7147 169.055 75.7147ZM173.817 75.5657V68.1823H175.206V69.3553H175.284C175.418 68.9579 175.655 68.6455 175.994 68.4179C176.338 68.1872 176.725 68.0718 177.158 68.0718C177.247 68.0718 177.354 68.075 177.476 68.0814C177.6 68.0879 177.698 68.0958 177.769 68.1055V69.4803C177.711 69.4642 177.608 69.4466 177.461 69.4274C177.313 69.4049 177.166 69.3937 177.018 69.3937C176.679 69.3937 176.376 69.4659 176.11 69.61C175.847 69.751 175.64 69.9481 175.485 70.2013C175.331 70.4512 175.255 70.7364 175.255 71.0568V75.5657H173.817Z" fill="#8A8F98"/>
</g>
</g>
<defs>
<filter id="filter0_d_1_2948" x="-0.437729" y="10.0402" width="348.191" height="292.121" filterUnits="userSpaceOnUse" color-interpolation-filters="sRGB">
<feFlood flood-opacity="0" result="BackgroundImageFix"/>
<feColorMatrix in="SourceAlpha" type="matrix" values="0 0 0 0 0 0 0 0 0 0 0 0 0 0 0 0 0 0 127 0" result="hardAlpha"/>
<feOffset dy="-6"/>
<feGaussianBlur stdDeviation="8"/>
<feComposite in2="hardAlpha" operator="out"/>
<feColorMatrix type="matrix" values="0 0 0 0 0 0 0 0 0 0 0 0 0 0 0 0 0 0 0.3 0"/>
<feBlend mode="normal" in2="BackgroundImageFix" result="effect1_dropShadow_1_2948"/>
<feBlend mode="normal" in="SourceGraphic" in2="effect1_dropShadow_1_2948" result="shape"/>
</filter>
<filter id="filter1_d_1_2948" x="38.7831" y="55.2615" width="30.9389" height="31.9398" filterUnits="userSpaceOnUse" color-interpolation-filters="sRGB">
<feFlood flood-opacity="0" result="BackgroundImageFix"/>
<feColorMatrix in="SourceAlpha" type="matrix" values="0 0 0 0 0 0 0 0 0 0 0 0 0 0 0 0 0 0 127 0" result="hardAlpha"/>
<feOffset dy="1"/>
<feComposite in2="hardAlpha" operator="out"/>
<feColorMatrix type="matrix" values="0 0 0 0 1 0 0 0 0 1 0 0 0 0 1 0 0 0 0.15 0"/>
<feBlend mode="normal" in2="BackgroundImageFix" result="effect1_dropShadow_1_2948"/>
<feBlend mode="normal" in="SourceGraphic" in2="effect1_dropShadow_1_2948" result="shape"/>
</filter>
<filter id="filter2_di_1_2948" x="45.3755" y="62.614" width="16.882" height="19.3743" filterUnits="userSpaceOnUse" color-interpolation-filters="sRGB">
<feFlood flood-opacity="0" result="BackgroundImageFix"/>
<feColorMatrix in="SourceAlpha" type="matrix" values="0 0 0 0 0 0 0 0 0 0 0 0 0 0 0 0 0 0 127 0" result="hardAlpha"/>
<feOffset dy="1"/>
<feGaussianBlur stdDeviation="0.5"/>
<feComposite in2="hardAlpha" operator="out"/>
<feColorMatrix type="matrix" values="0 0 0 0 0 0 0 0 0 0 0 0 0 0 0 0 0 0 0.15 0"/>
<feBlend mode="normal" in2="BackgroundImageFix" result="effect1_dropShadow_1_2948"/>
<feBlend mode="normal" in="SourceGraphic" in2="effect1_dropShadow_1_2948" result="shape"/>
<feColorMatrix in="SourceAlpha" type="matrix" values="0 0 0 0 0 0 0 0 0 0 0 0 0 0 0 0 0 0 127 0" result="hardAlpha"/>
<feOffset dy="3"/>
<feGaussianBlur stdDeviation="2"/>
<feComposite in2="hardAlpha" operator="arithmetic" k2="-1" k3="1"/>
<feColorMatrix type="matrix" values="0 0 0 0 0 0 0 0 0 0 0 0 0 0 0 0 0 0 0.2 0"/>
<feBlend mode="normal" in2="shape" result="effect2_innerShadow_1_2948"/>
</filter>
<linearGradient id="paint0_linear_1_2948" x1="15.5788" y1="32.0567" x2="331.743" y2="292.136" gradientUnits="userSpaceOnUse">
<stop stop-color="white" stop-opacity="0.12"/>
<stop offset="0.3" stop-color="white" stop-opacity="0.06"/>
<stop offset="1" stop-color="white" stop-opacity="0"/>
</linearGradient>
<linearGradient id="paint1_linear_1_2948" x1="54.2525" y1="55.2615" x2="54.2525" y2="86.2013" gradientUnits="userSpaceOnUse">
<stop stop-color="#806CFF"/>
<stop offset="1" stop-color="#5E4CD3"/>
</linearGradient>
<linearGradient id="paint2_linear_1_2948" x1="54.6432" y1="59.3392" x2="54.6432" y2="78.9884" gradientUnits="userSpaceOnUse">
<stop stop-color="white"/>
<stop offset="1" stop-color="white" stop-opacity="0.4"/>
</linearGradient>
<clipPath id="clip0_1_2948">
<rect width="330.66" height="277.75" fill="white" transform="translate(0.109375 0.015625)"/>
</clipPath>
<clipPath id="clip1_1_2948">
<rect width="330.66" height="256.22" fill="white" transform="translate(0.109375 10.7856)"/>
</clipPath>
</defs>
</svg>
