<svg width="32" height="33" viewBox="0 0 32 33" fill="none" xmlns="http://www.w3.org/2000/svg">
<path d="M12 4.17188H6C4.89543 4.17188 4 5.06731 4 6.17188V12.1719C4 13.2764 4.89543 14.1719 6 14.1719H12C13.1046 14.1719 14 13.2764 14 12.1719V6.17188C14 5.06731 13.1046 4.17188 12 4.17188Z" fill="white" fill-opacity="0.4"/>
<path d="M26 4.17188H20C18.8954 4.17188 18 5.06731 18 6.17188V12.1719C18 13.2764 18.8954 14.1719 20 14.1719H26C27.1046 14.1719 28 13.2764 28 12.1719V6.17188C28 5.06731 27.1046 4.17188 26 4.17188Z" fill="#C568E5"/>
<path d="M12 18.1719H6C4.89543 18.1719 4 19.0673 4 20.1719V26.1719C4 27.2764 4.89543 28.1719 6 28.1719H12C13.1046 28.1719 14 27.2764 14 26.1719V20.1719C14 19.0673 13.1046 18.1719 12 18.1719Z" fill="white" fill-opacity="0.4"/>
<path d="M26 18.1719H20C18.8954 18.1719 18 19.0673 18 20.1719V26.1719C18 27.2764 18.8954 28.1719 20 28.1719H26C27.1046 28.1719 28 27.2764 28 26.1719V20.1719C28 19.0673 27.1046 18.1719 26 18.1719Z" fill="white" fill-opacity="0.4"/>
</svg>
