<svg width="30" height="30" viewBox="0 0 30 30" fill="none" xmlns="http://www.w3.org/2000/svg">
<path d="M26.7843 3.22287C26.1593 2.58412 25.2343 2.34787 24.3718 2.59787L4.25928 8.40912C3.34928 8.66162 2.70428 9.38287 2.53053 10.2979C2.35303 11.2304 2.97303 12.4154 3.78303 12.9104L10.0718 16.7504C10.7168 17.1454 11.5493 17.0466 12.083 16.5116L19.2843 9.31037C19.6468 8.93412 20.2468 8.93412 20.6093 9.31037C20.9718 9.67162 20.9718 10.2604 20.6093 10.6354L13.3955 17.8366C12.8605 18.3716 12.7605 19.2016 13.1543 19.8479L16.9968 26.1604C17.4468 26.9091 18.2218 27.3354 19.0718 27.3354C19.1718 27.3354 19.2843 27.3354 19.3843 27.3216C20.3593 27.1979 21.1343 26.5341 21.4218 25.5966L27.3843 5.63537C27.6468 4.78537 27.4093 3.86037 26.7843 3.22287Z" fill="#FFF9F8"/>
<path opacity="0.4" d="M11.8142 23.928C12.1792 24.2942 12.1792 24.888 11.8142 25.2542L10.1067 26.9605C9.92424 27.1442 9.68424 27.2355 9.44424 27.2355C9.20424 27.2355 8.96424 27.1442 8.78174 26.9605C8.41549 26.5942 8.41549 26.0017 8.78174 25.6355L10.488 23.928C10.8542 23.563 11.448 23.563 11.8142 23.928ZM10.8346 19.193C11.1996 19.5592 11.1996 20.153 10.8346 20.5192L9.12712 22.2255C8.94461 22.4092 8.70461 22.5005 8.46461 22.5005C8.22461 22.5005 7.98462 22.4092 7.80212 22.2255C7.43587 21.8592 7.43587 21.2667 7.80212 20.9005L9.50836 19.193C9.87461 18.828 10.4684 18.828 10.8346 19.193ZM6.13312 17.7025C6.49812 18.0687 6.49812 18.6625 6.13312 19.0287L4.42562 20.735C4.24312 20.9187 4.00312 21.01 3.76312 21.01C3.52312 21.01 3.28312 20.9187 3.10062 20.735C2.73437 20.3687 2.73437 19.7762 3.10062 19.41L4.80687 17.7025C5.17312 17.3375 5.76687 17.3375 6.13312 17.7025Z" fill="#FFF9F8"/>
</svg>
