<svg width="8" height="19" viewBox="0 0 8 19" fill="none" xmlns="http://www.w3.org/2000/svg">
<path d="M4.28153 7.568C3.25753 7.568 2.39353 7.22667 1.68953 6.544C0.985531 5.86133 0.633531 4.99733 0.633531 3.952C0.633531 2.864 0.985531 2 1.68953 1.36C2.39353 0.698666 3.25753 0.368 4.28153 0.368C5.30553 0.368 6.16953 0.698666 6.87353 1.36C7.57753 2 7.92953 2.864 7.92953 3.952C7.92953 4.99733 7.57753 5.86133 6.87353 6.544C6.16953 7.22667 5.30553 7.568 4.28153 7.568ZM4.28153 18.288C3.25753 18.288 2.39353 17.9467 1.68953 17.264C0.985531 16.5813 0.633531 15.7173 0.633531 14.672C0.633531 13.584 0.985531 12.72 1.68953 12.08C2.39353 11.4187 3.25753 11.088 4.28153 11.088C5.30553 11.088 6.16953 11.4187 6.87353 12.08C7.57753 12.72 7.92953 13.584 7.92953 14.672C7.92953 15.7173 7.57753 16.5813 6.87353 17.264C6.16953 17.9467 5.30553 18.288 4.28153 18.288Z" fill="white"/>
</svg>
