<svg width="564" height="324" viewBox="0 0 564 324" fill="none" xmlns="http://www.w3.org/2000/svg">
<path d="M24.63 1.33215H539.82C552.799 1.33242 563.32 11.8536 563.32 24.8322V299.492C563.32 312.471 552.799 322.992 539.82 322.992H24.63C11.6514 322.992 1.13009 312.471 1.13 299.492V24.8322C1.13 11.8535 11.6513 1.33215 24.63 1.33215Z" stroke="#222222"/>
<g clip-path="url(#clip0_1_2727)">
<g clip-path="url(#clip1_1_2727)">
<g clip-path="url(#clip2_1_2727)">
<path d="M26.1821 45.0678C26.1821 36.4892 33.1364 29.5348 41.715 29.5348H522.735C531.313 29.5348 538.268 36.4892 538.268 45.0678V325.163H26.1821V45.0678Z" fill="url(#paint0_linear_1_2727)"/>
<path d="M26.1821 45.0678C26.1821 36.4892 33.1364 29.5348 41.715 29.5348H522.735C531.313 29.5348 538.268 36.4892 538.268 45.0678V325.163H26.1821V45.0678Z" stroke="#313138"/>
<path d="M59.7163 168.33L56.1291 155.211H57.7433L60.4849 165.895H60.6131L63.4059 155.211H65.1995L67.9923 165.895H68.1204L70.862 155.211H72.4762L68.8891 168.33H67.2493L64.3539 157.875H64.2514L61.3561 168.33H59.7163ZM75.7623 162.411V168.33H74.2506V155.211H75.7623V160.028H75.8905C76.1211 159.52 76.467 159.116 76.9282 158.817C77.3937 158.514 78.0129 158.362 78.7858 158.362C79.4562 158.362 80.0435 158.497 80.5473 158.766C81.0512 159.031 81.442 159.439 81.7195 159.99C82.0014 160.536 82.1423 161.232 82.1423 162.077V168.33H80.6306V162.18C80.6306 161.399 80.4278 160.794 80.0221 160.368C79.6207 159.936 79.0634 159.72 78.3502 159.72C77.8548 159.72 77.4107 159.824 77.0179 160.034C76.6292 160.243 76.3218 160.549 76.0954 160.95C75.8733 161.352 75.7623 161.839 75.7623 162.411ZM84.908 168.33V158.491H86.4197V168.33H84.908ZM85.6766 156.85C85.382 156.85 85.1279 156.75 84.9144 156.549C84.7052 156.349 84.6005 156.108 84.6005 155.826C84.6005 155.543 84.7052 155.303 84.9144 155.101C85.1279 154.901 85.382 154.801 85.6766 154.801C85.9714 154.801 86.2233 154.901 86.4325 155.101C86.6461 155.303 86.7528 155.543 86.7528 155.826C86.7528 156.108 86.6461 156.349 86.4325 156.549C86.2233 156.75 85.9714 156.85 85.6766 156.85ZM93.1857 168.535C92.2633 168.535 91.4689 168.316 90.8028 167.882C90.1366 167.446 89.6241 166.845 89.2654 166.081C88.9067 165.317 88.7273 164.443 88.7273 163.461C88.7273 162.462 88.911 161.58 89.2783 160.816C89.6498 160.047 90.1665 159.447 90.8284 159.016C91.4946 158.58 92.2718 158.362 93.16 158.362C93.8519 158.362 94.4753 158.491 95.0305 158.747C95.5856 159.003 96.0404 159.361 96.3949 159.822C96.7493 160.284 96.9693 160.823 97.0547 161.437H95.5429C95.4276 160.989 95.1714 160.591 94.7742 160.245C94.3814 159.896 93.8519 159.72 93.1857 159.72C92.5963 159.72 92.0796 159.874 91.6355 160.181C91.1956 160.485 90.8519 160.914 90.6042 161.469C90.3608 162.02 90.2391 162.666 90.2391 163.41C90.2391 164.17 90.3587 164.832 90.5978 165.395C90.8412 165.959 91.1828 166.397 91.6226 166.709C92.0668 167.021 92.5878 167.176 93.1857 167.176C93.5786 167.176 93.9351 167.108 94.2554 166.972C94.5757 166.835 94.8469 166.638 95.0689 166.382C95.291 166.126 95.4489 165.818 95.5429 165.459H97.0547C96.9693 166.041 96.7578 166.564 96.4205 167.029C96.0874 167.491 95.6455 167.858 95.0945 168.131C94.5479 168.4 93.9116 168.535 93.1857 168.535ZM100.776 162.411V168.33H99.2646V155.211H100.776V160.028H100.904C101.135 159.52 101.481 159.116 101.942 158.817C102.408 158.514 103.027 158.362 103.8 158.362C104.47 158.362 105.057 158.497 105.561 158.766C106.065 159.031 106.456 159.439 106.734 159.99C107.015 160.536 107.157 161.232 107.157 162.077V168.33H105.645V162.18C105.645 161.399 105.442 160.794 105.036 160.368C104.634 159.936 104.077 159.72 103.364 159.72C102.869 159.72 102.425 159.824 102.032 160.034C101.643 160.243 101.336 160.549 101.109 160.95C100.887 161.352 100.776 161.839 100.776 162.411ZM214.14 172.019C213.884 172.019 213.656 171.998 213.454 171.955C213.254 171.917 213.115 171.878 213.038 171.84L213.422 170.507C213.79 170.601 214.115 170.635 214.396 170.61C214.678 170.584 214.928 170.458 215.146 170.232C215.367 170.01 215.571 169.649 215.754 169.149L216.036 168.381L212.398 158.491H214.037L216.753 166.331H216.856L219.572 158.491H221.212L217.036 169.765C216.847 170.273 216.615 170.694 216.337 171.026C216.06 171.364 215.737 171.613 215.37 171.776C215.006 171.938 214.597 172.019 214.14 172.019ZM226.852 168.535C225.964 168.535 225.184 168.324 224.514 167.901C223.847 167.478 223.327 166.886 222.951 166.126C222.58 165.366 222.393 164.477 222.393 163.461C222.393 162.436 222.58 161.542 222.951 160.777C223.327 160.013 223.847 159.42 224.514 158.997C225.184 158.574 225.964 158.362 226.852 158.362C227.74 158.362 228.517 158.574 229.184 158.997C229.854 159.42 230.375 160.013 230.747 160.777C231.123 161.542 231.31 162.436 231.31 163.461C231.31 164.477 231.123 165.366 230.747 166.126C230.375 166.886 229.854 167.478 229.184 167.901C228.517 168.324 227.74 168.535 226.852 168.535ZM226.852 167.176C227.527 167.176 228.082 167.004 228.517 166.658C228.953 166.312 229.276 165.857 229.484 165.293C229.694 164.73 229.799 164.119 229.799 163.461C229.799 162.804 229.694 162.19 229.484 161.623C229.276 161.055 228.953 160.596 228.517 160.245C228.082 159.896 227.527 159.72 226.852 159.72C226.177 159.72 225.622 159.896 225.186 160.245C224.751 160.596 224.428 161.055 224.219 161.623C224.01 162.19 223.905 162.804 223.905 163.461C223.905 164.119 224.01 164.73 224.219 165.293C224.428 165.857 224.751 166.312 225.186 166.658C225.622 167.004 226.177 167.176 226.852 167.176ZM239.818 164.307V158.491H241.33V168.33H239.818V166.664H239.716C239.485 167.164 239.127 167.589 238.64 167.939C238.153 168.284 237.538 168.458 236.795 168.458C236.18 168.458 235.633 168.324 235.155 168.054C234.677 167.78 234.301 167.37 234.028 166.824C233.754 166.273 233.618 165.58 233.618 164.742V158.491H235.129V164.64C235.129 165.357 235.331 165.929 235.731 166.356C236.137 166.783 236.654 166.997 237.282 166.997C237.657 166.997 238.04 166.901 238.428 166.709C238.821 166.517 239.151 166.222 239.415 165.825C239.684 165.427 239.818 164.921 239.818 164.307ZM251.402 168.33L248.403 158.491H249.993L252.119 166.024H252.221L254.323 158.491H255.936L258.012 165.998H258.115L260.241 158.491H261.83L258.832 168.33H257.346L255.194 160.77H255.04L252.888 168.33H251.402ZM266.724 168.56C266.1 168.56 265.535 168.443 265.027 168.208C264.518 167.969 264.115 167.625 263.816 167.176C263.516 166.724 263.367 166.177 263.367 165.537C263.367 164.973 263.478 164.516 263.701 164.166C263.922 163.811 264.219 163.533 264.591 163.333C264.962 163.132 265.372 162.983 265.82 162.885C266.273 162.782 266.728 162.702 267.185 162.641C267.782 162.564 268.267 162.507 268.639 162.468C269.015 162.426 269.289 162.355 269.459 162.257C269.634 162.158 269.722 161.988 269.722 161.745V161.693C269.722 161.061 269.548 160.57 269.202 160.22C268.861 159.87 268.343 159.695 267.646 159.695C266.925 159.695 266.358 159.852 265.948 160.169C265.539 160.485 265.25 160.823 265.084 161.18L263.649 160.668C263.905 160.071 264.247 159.605 264.674 159.272C265.106 158.935 265.575 158.7 266.083 158.568C266.596 158.43 267.1 158.362 267.595 158.362C267.911 158.362 268.273 158.4 268.684 158.478C269.098 158.55 269.497 158.702 269.882 158.933C270.271 159.163 270.592 159.511 270.849 159.977C271.105 160.442 271.234 161.065 271.234 161.847V168.33H269.722V166.997H269.644C269.542 167.211 269.372 167.44 269.132 167.682C268.893 167.926 268.575 168.133 268.178 168.303C267.78 168.475 267.296 168.56 266.724 168.56ZM266.955 167.202C267.552 167.202 268.056 167.085 268.466 166.849C268.881 166.615 269.192 166.312 269.401 165.94C269.615 165.569 269.722 165.178 269.722 164.768V163.384C269.657 163.461 269.517 163.531 269.299 163.595C269.085 163.656 268.838 163.709 268.556 163.756C268.278 163.799 268.007 163.837 267.742 163.871C267.482 163.901 267.27 163.927 267.108 163.948C266.715 163.999 266.348 164.082 266.007 164.198C265.669 164.309 265.395 164.477 265.187 164.704C264.981 164.926 264.879 165.229 264.879 165.614C264.879 166.139 265.074 166.536 265.461 166.805C265.854 167.07 266.352 167.202 266.955 167.202ZM275.505 162.411V168.33H273.993V158.491H275.453V160.028H275.581C275.811 159.528 276.162 159.127 276.632 158.823C277.101 158.516 277.707 158.362 278.451 158.362C279.117 158.362 279.7 158.499 280.2 158.772C280.699 159.042 281.088 159.452 281.365 160.002C281.643 160.549 281.782 161.24 281.782 162.077V168.33H280.27V162.18C280.27 161.407 280.069 160.805 279.668 160.374C279.267 159.938 278.716 159.72 278.015 159.72C277.533 159.72 277.101 159.824 276.721 160.034C276.346 160.243 276.049 160.549 275.83 160.95C275.613 161.352 275.505 161.839 275.505 162.411ZM288.823 158.491V159.771H283.724V158.491H288.823ZM285.21 156.134H286.723V165.512C286.723 165.938 286.784 166.258 286.908 166.472C287.036 166.681 287.199 166.822 287.395 166.894C287.595 166.963 287.807 166.997 288.029 166.997C288.196 166.997 288.332 166.989 288.439 166.972C288.545 166.951 288.631 166.934 288.695 166.921L289.002 168.278C288.9 168.316 288.757 168.356 288.573 168.394C288.39 168.437 288.157 168.458 287.875 168.458C287.448 168.458 287.029 168.366 286.619 168.182C286.213 167.999 285.877 167.719 285.607 167.343C285.343 166.968 285.21 166.494 285.21 165.921V156.134ZM300.45 158.491V159.771H295.351V158.491H300.45ZM296.837 156.134H298.348V165.512C298.348 165.938 298.41 166.258 298.535 166.472C298.662 166.681 298.824 166.822 299.021 166.894C299.222 166.963 299.434 166.997 299.655 166.997C299.821 166.997 299.959 166.989 300.065 166.972C300.172 166.951 300.257 166.934 300.321 166.921L300.629 168.278C300.526 168.316 300.384 168.356 300.199 168.394C300.016 168.437 299.783 168.458 299.502 168.458C299.075 168.458 298.656 168.366 298.246 168.182C297.84 167.999 297.502 167.719 297.234 167.343C296.969 166.968 296.837 166.494 296.837 165.921V156.134ZM306.615 168.535C305.727 168.535 304.947 168.324 304.277 167.901C303.61 167.478 303.089 166.886 302.713 166.126C302.343 165.366 302.156 164.477 302.156 163.461C302.156 162.436 302.343 161.542 302.713 160.777C303.089 160.013 303.61 159.42 304.277 158.997C304.947 158.574 305.727 158.362 306.615 158.362C307.503 158.362 308.28 158.574 308.947 158.997C309.617 159.42 310.138 160.013 310.509 160.777C310.885 161.542 311.073 162.436 311.073 163.461C311.073 164.477 310.885 165.366 310.509 166.126C310.138 166.886 309.617 167.478 308.947 167.901C308.28 168.324 307.503 168.535 306.615 168.535ZM306.615 167.176C307.289 167.176 307.844 167.004 308.28 166.658C308.716 166.312 309.038 165.857 309.247 165.293C309.457 164.73 309.561 164.119 309.561 163.461C309.561 162.804 309.457 162.19 309.247 161.623C309.038 161.055 308.716 160.596 308.28 160.245C307.844 159.896 307.289 159.72 306.615 159.72C305.94 159.72 305.385 159.896 304.949 160.245C304.513 160.596 304.192 161.055 303.982 161.623C303.773 162.19 303.668 162.804 303.668 163.461C303.668 164.119 303.773 164.73 303.982 165.293C304.192 165.857 304.513 166.312 304.949 166.658C305.385 167.004 305.94 167.176 306.615 167.176ZM387.84 158.491V159.771H382.741V158.491H387.84ZM384.227 156.134H385.739V165.512C385.739 165.938 385.801 166.258 385.925 166.472C386.052 166.681 386.215 166.822 386.411 166.894C386.612 166.963 386.824 166.997 387.045 166.997C387.212 166.997 387.349 166.989 387.455 166.972C387.562 166.951 387.648 166.934 387.712 166.921L388.019 168.278C387.917 168.316 387.774 168.356 387.59 168.394C387.406 168.437 387.174 168.458 386.892 168.458C386.465 168.458 386.046 168.366 385.636 168.182C385.23 167.999 384.893 167.719 384.624 167.343C384.36 166.968 384.227 166.494 384.227 165.921V156.134ZM391.836 162.411V168.33H390.325V155.211H391.836V160.028H391.965C392.195 159.52 392.542 159.116 393.003 158.817C393.468 158.514 394.087 158.362 394.86 158.362C395.531 158.362 396.118 158.497 396.622 158.766C397.126 159.031 397.516 159.439 397.794 159.99C398.076 160.536 398.217 161.232 398.217 162.077V168.33H396.705V162.18C396.705 161.399 396.502 160.794 396.097 160.368C395.696 159.936 395.137 159.72 394.425 159.72C393.93 159.72 393.485 159.824 393.092 160.034C392.703 160.243 392.397 160.549 392.17 160.95C391.948 161.352 391.836 161.839 391.836 162.411ZM405.108 168.535C404.16 168.535 403.342 168.326 402.654 167.907C401.971 167.484 401.444 166.894 401.072 166.139C400.705 165.378 400.521 164.494 400.521 163.487C400.521 162.479 400.705 161.591 401.072 160.823C401.444 160.049 401.961 159.447 402.622 159.016C403.289 158.58 404.065 158.362 404.954 158.362C405.466 158.362 405.972 158.448 406.473 158.619C406.972 158.789 407.426 159.067 407.836 159.452C408.246 159.831 408.573 160.336 408.816 160.963C409.06 161.591 409.182 162.364 409.182 163.282V163.922H401.597V162.615H407.644C407.644 162.06 407.534 161.565 407.311 161.129C407.094 160.694 406.782 160.351 406.376 160.098C405.974 159.846 405.5 159.72 404.954 159.72C404.352 159.72 403.831 159.87 403.391 160.169C402.955 160.464 402.62 160.848 402.386 161.322C402.15 161.796 402.033 162.304 402.033 162.846V163.718C402.033 164.46 402.161 165.091 402.418 165.607C402.677 166.12 403.039 166.511 403.5 166.779C403.961 167.044 404.497 167.176 405.108 167.176C405.504 167.176 405.863 167.121 406.184 167.01C406.509 166.894 406.788 166.724 407.023 166.498C407.258 166.267 407.44 165.981 407.568 165.639L409.028 166.049C408.875 166.545 408.616 166.98 408.253 167.355C407.889 167.727 407.442 168.018 406.907 168.227C406.374 168.432 405.774 168.535 405.108 168.535ZM420.834 158.491V159.771H415.735V158.491H420.834ZM417.221 156.134H418.732V165.512C418.732 165.938 418.795 166.258 418.918 166.472C419.046 166.681 419.208 166.822 419.405 166.894C419.605 166.963 419.817 166.997 420.039 166.997C420.206 166.997 420.343 166.989 420.449 166.972C420.556 166.951 420.642 166.934 420.706 166.921L421.013 168.278C420.91 168.316 420.768 168.356 420.583 168.394C420.4 168.437 420.167 168.458 419.886 168.458C419.458 168.458 419.04 168.366 418.63 168.182C418.224 167.999 417.887 167.719 417.618 167.343C417.354 166.968 417.221 166.494 417.221 165.921V156.134ZM427.127 168.535C426.179 168.535 425.362 168.326 424.674 167.907C423.991 167.484 423.464 166.894 423.092 166.139C422.724 165.378 422.541 164.494 422.541 163.487C422.541 162.479 422.724 161.591 423.092 160.823C423.464 160.049 423.98 159.447 424.642 159.016C425.307 158.58 426.085 158.362 426.973 158.362C427.486 158.362 427.992 158.448 428.491 158.619C428.991 158.789 429.446 159.067 429.856 159.452C430.266 159.831 430.593 160.336 430.836 160.963C431.08 161.591 431.201 162.364 431.201 163.282V163.922H423.617V162.615H429.664C429.664 162.06 429.552 161.565 429.331 161.129C429.112 160.694 428.801 160.351 428.395 160.098C427.994 159.846 427.52 159.72 426.973 159.72C426.372 159.72 425.851 159.87 425.411 160.169C424.975 160.464 424.64 160.848 424.405 161.322C424.17 161.796 424.053 162.304 424.053 162.846V163.718C424.053 164.46 424.18 165.091 424.437 165.607C424.697 166.12 425.058 166.511 425.519 166.779C425.981 167.044 426.516 167.176 427.127 167.176C427.524 167.176 427.883 167.121 428.204 167.01C428.528 166.894 428.808 166.724 429.042 166.498C429.277 166.267 429.459 165.981 429.587 165.639L431.048 166.049C430.893 166.545 430.636 166.98 430.272 167.355C429.909 167.727 429.461 168.018 428.927 168.227C428.393 168.432 427.794 168.535 427.127 168.535ZM434.364 158.491L436.722 162.513L439.079 158.491H440.82L437.644 163.41L440.82 168.33H439.079L436.722 164.511L434.364 168.33H432.622L435.748 163.41L432.622 158.491H434.364ZM447.257 158.491V159.771H442.158V158.491H447.257ZM443.644 156.134H445.155V165.512C445.155 165.938 445.218 166.258 445.342 166.472C445.469 166.681 445.632 166.822 445.828 166.894C446.029 166.963 446.241 166.997 446.462 166.997C446.629 166.997 446.766 166.989 446.872 166.972C446.979 166.951 447.065 166.934 447.129 166.921L447.436 168.278C447.334 168.316 447.191 168.356 447.007 168.394C446.823 168.437 446.591 168.458 446.309 168.458C445.882 168.458 445.463 168.366 445.053 168.182C444.647 167.999 444.31 167.719 444.041 167.343C443.777 166.968 443.644 166.494 443.644 165.921V156.134ZM458.986 158.491V159.771H453.682V158.491H458.986ZM455.27 168.33V157.133C455.27 156.569 455.402 156.099 455.668 155.723C455.932 155.347 456.276 155.065 456.699 154.878C457.122 154.69 457.568 154.595 458.038 154.595C458.409 154.595 458.712 154.625 458.947 154.686C459.182 154.746 459.357 154.801 459.472 154.852L459.037 156.159C458.96 156.134 458.854 156.102 458.716 156.062C458.584 156.024 458.409 156.005 458.191 156.005C457.691 156.005 457.33 156.131 457.109 156.383C456.89 156.635 456.782 157.004 456.782 157.491V168.33H455.27ZM461.104 168.33V158.491H462.616V168.33H461.104ZM461.873 156.85C461.578 156.85 461.324 156.75 461.11 156.549C460.901 156.349 460.797 156.108 460.797 155.826C460.797 155.543 460.901 155.303 461.11 155.101C461.324 154.901 461.578 154.801 461.873 154.801C462.168 154.801 462.419 154.901 462.629 155.101C462.842 155.303 462.949 155.543 462.949 155.826C462.949 156.108 462.842 156.349 462.629 156.549C462.419 156.75 462.168 156.85 461.873 156.85ZM466.897 155.211V168.33H465.384V155.211H466.897ZM473.79 168.535C472.842 168.535 472.024 168.326 471.337 167.907C470.654 167.484 470.126 166.894 469.755 166.139C469.388 165.378 469.205 164.494 469.205 163.487C469.205 162.479 469.388 161.591 469.755 160.823C470.126 160.049 470.644 159.447 471.305 159.016C471.971 158.58 472.748 158.362 473.637 158.362C474.149 158.362 474.655 158.448 475.155 158.619C475.654 158.789 476.109 159.067 476.519 159.452C476.929 159.831 477.256 160.336 477.499 160.963C477.743 161.591 477.865 162.364 477.865 163.282V163.922H470.28V162.615H476.328C476.328 162.06 476.216 161.565 475.994 161.129C475.776 160.694 475.465 160.351 475.059 160.098C474.657 159.846 474.183 159.72 473.637 159.72C473.035 159.72 472.514 159.87 472.074 160.169C471.639 160.464 471.303 160.848 471.068 161.322C470.833 161.796 470.716 162.304 470.716 162.846V163.718C470.716 164.46 470.844 165.091 471.101 165.607C471.361 166.12 471.722 166.511 472.183 166.779C472.644 167.044 473.18 167.176 473.79 167.176C474.188 167.176 474.547 167.121 474.866 167.01C475.191 166.894 475.471 166.724 475.705 166.498C475.941 166.267 476.122 165.981 476.25 165.639L477.711 166.049C477.557 166.545 477.299 166.98 476.936 167.355C476.573 167.727 476.124 168.018 475.59 168.227C475.057 168.432 474.457 168.535 473.79 168.535ZM61.1255 200.603C60.2031 200.603 59.4088 200.385 58.7426 199.95C58.0764 199.514 57.5639 198.913 57.2053 198.149C56.8465 197.385 56.6672 196.511 56.6672 195.529C56.6672 194.53 56.8508 193.648 57.2181 192.884C57.5896 192.115 58.1063 191.515 58.7682 191.084C59.4344 190.648 60.2116 190.43 61.0999 190.43C61.7917 190.43 62.4151 190.559 62.9703 190.815C63.5255 191.071 63.9802 191.43 64.3347 191.891C64.6891 192.353 64.9091 192.891 64.9945 193.505H63.4828C63.3674 193.057 63.1113 192.659 62.714 192.313C62.3212 191.964 61.7917 191.788 61.1255 191.788C60.5362 191.788 60.0194 191.942 59.5753 192.249C59.1354 192.553 58.7917 192.982 58.544 193.537C58.3006 194.088 58.1789 194.735 58.1789 195.478C58.1789 196.238 58.2985 196.9 58.5376 197.463C58.781 198.028 59.1226 198.466 59.5626 198.777C60.0066 199.089 60.5276 199.244 61.1255 199.244C61.5184 199.244 61.875 199.176 62.1952 199.04C62.5155 198.903 62.7867 198.706 63.0088 198.45C63.2308 198.194 63.3888 197.886 63.4828 197.528H64.9945C64.9091 198.109 64.6976 198.632 64.3603 199.097C64.0272 199.559 63.5853 199.926 63.0343 200.199C62.4878 200.468 61.8515 200.603 61.1255 200.603ZM71.2015 200.603C70.3133 200.603 69.5339 200.392 68.8635 199.969C68.1973 199.546 67.6763 198.955 67.3005 198.194C66.929 197.434 66.7432 196.545 66.7432 195.529C66.7432 194.504 66.929 193.61 67.3005 192.846C67.6763 192.081 68.1973 191.488 68.8635 191.065C69.5339 190.642 70.3133 190.43 71.2015 190.43C72.0898 190.43 72.867 190.642 73.5332 191.065C74.2036 191.488 74.7246 192.081 75.0962 192.846C75.472 193.61 75.6599 194.504 75.6599 195.529C75.6599 196.545 75.472 197.434 75.0962 198.194C74.7246 198.955 74.2036 199.546 73.5332 199.969C72.867 200.392 72.0898 200.603 71.2015 200.603ZM71.2015 199.244C71.8763 199.244 72.4314 199.072 72.867 198.726C73.3026 198.38 73.625 197.925 73.8342 197.361C74.0435 196.798 74.1481 196.187 74.1481 195.529C74.1481 194.872 74.0435 194.259 73.8342 193.691C73.625 193.123 73.3026 192.664 72.867 192.313C72.4314 191.964 71.8763 191.788 71.2015 191.788C70.5268 191.788 69.9716 191.964 69.5361 192.313C69.1005 192.664 68.7781 193.123 68.5688 193.691C68.3596 194.259 68.255 194.872 68.255 195.529C68.255 196.187 68.3596 196.798 68.5688 197.361C68.7781 197.925 69.1005 198.38 69.5361 198.726C69.9716 199.072 70.5268 199.244 71.2015 199.244ZM79.4792 194.479V200.398H77.9675V190.559H79.428V192.096H79.5561C79.7866 191.596 80.1369 191.195 80.6066 190.891C81.0764 190.584 81.6828 190.43 82.4258 190.43C83.0919 190.43 83.6749 190.567 84.1745 190.84C84.6742 191.11 85.0628 191.52 85.3403 192.07C85.6179 192.617 85.7567 193.309 85.7567 194.145V200.398H84.245V194.249C84.245 193.475 84.0443 192.873 83.6429 192.442C83.2415 192.006 82.6906 191.788 81.9902 191.788C81.5077 191.788 81.0764 191.893 80.6963 192.102C80.3205 192.311 80.0237 192.617 79.8059 193.018C79.5881 193.42 79.4792 193.907 79.4792 194.479ZM92.7981 190.559V191.839H87.6992V190.559H92.7981ZM89.1854 188.202H90.6971V197.58C90.6971 198.007 90.759 198.326 90.8829 198.54C91.0109 198.749 91.1732 198.89 91.3697 198.963C91.5703 199.031 91.7818 199.065 92.0038 199.065C92.1704 199.065 92.307 199.057 92.4138 199.04C92.5205 199.019 92.6059 199.002 92.67 198.989L92.9775 200.347C92.875 200.385 92.7319 200.424 92.5483 200.462C92.3647 200.505 92.1319 200.526 91.8501 200.526C91.423 200.526 91.0045 200.434 90.5946 200.25C90.1889 200.067 89.8515 199.787 89.5825 199.412C89.3177 199.036 89.1854 198.562 89.1854 197.99V188.202ZM99.0917 200.603C98.1436 200.603 97.3258 200.394 96.6383 199.975C95.955 199.552 95.4276 198.963 95.0561 198.207C94.6888 197.446 94.5052 196.562 94.5052 195.555C94.5052 194.547 94.6888 193.659 95.0561 192.891C95.4276 192.117 95.9443 191.515 96.6063 191.084C97.2724 190.648 98.0497 190.43 98.938 190.43C99.4503 190.43 99.9564 190.516 100.456 190.687C100.956 190.857 101.41 191.135 101.82 191.52C102.23 191.9 102.557 192.404 102.801 193.031C103.044 193.659 103.165 194.432 103.165 195.35V195.99H95.5813V194.683H101.628C101.628 194.128 101.517 193.633 101.295 193.197C101.077 192.762 100.766 192.419 100.36 192.166C99.9585 191.915 99.4845 191.788 98.938 191.788C98.3358 191.788 97.8148 191.938 97.3749 192.237C96.9393 192.532 96.6041 192.916 96.3693 193.39C96.1344 193.864 96.017 194.372 96.017 194.914V195.786C96.017 196.528 96.145 197.159 96.4013 197.675C96.6618 198.188 97.0226 198.579 97.4839 198.847C97.945 199.112 98.481 199.244 99.0917 199.244C99.4888 199.244 99.8475 199.189 100.168 199.078C100.492 198.963 100.772 198.792 101.007 198.566C101.242 198.335 101.423 198.049 101.551 197.707L103.012 198.117C102.858 198.613 102.6 199.048 102.236 199.424C101.874 199.795 101.425 200.086 100.892 200.295C100.358 200.5 99.7578 200.603 99.0917 200.603ZM106.977 194.479V200.398H105.465V190.559H106.925V192.096H107.054C107.284 191.596 107.635 191.195 108.105 190.891C108.574 190.584 109.18 190.43 109.924 190.43C110.59 190.43 111.172 190.567 111.672 190.84C112.172 191.11 112.56 191.52 112.838 192.07C113.115 192.617 113.255 193.309 113.255 194.145V200.398H111.742V194.249C111.742 193.475 111.542 192.873 111.14 192.442C110.739 192.006 110.188 191.788 109.488 191.788C109.006 191.788 108.574 191.893 108.194 192.102C107.818 192.311 107.522 192.617 107.304 193.018C107.086 193.42 106.977 193.907 106.977 194.479ZM120.296 190.559V191.839H115.197V190.559H120.296ZM116.683 188.202H118.195V197.58C118.195 198.007 118.256 198.326 118.381 198.54C118.509 198.749 118.671 198.89 118.868 198.963C119.068 199.031 119.279 199.065 119.502 199.065C119.668 199.065 119.805 199.057 119.912 199.04C120.018 199.019 120.103 199.002 120.167 198.989L120.475 200.347C120.373 200.385 120.229 200.424 120.046 200.462C119.863 200.505 119.629 200.526 119.348 200.526C118.921 200.526 118.502 200.434 118.092 200.25C117.687 200.067 117.349 199.787 117.08 199.412C116.815 199.036 116.683 198.562 116.683 197.99V188.202ZM131.922 190.559V191.839H126.823V190.559H131.922ZM128.31 188.202H129.821V197.58C129.821 198.007 129.883 198.326 130.007 198.54C130.134 198.749 130.297 198.89 130.493 198.963C130.695 199.031 130.906 199.065 131.128 199.065C131.294 199.065 131.431 199.057 131.537 199.04C131.645 199.019 131.73 199.002 131.794 198.989L132.102 200.347C131.999 200.385 131.856 200.424 131.673 200.462C131.488 200.505 131.256 200.526 130.974 200.526C130.547 200.526 130.128 200.434 129.719 200.25C129.313 200.067 128.975 199.787 128.706 199.412C128.442 199.036 128.31 198.562 128.31 197.99V188.202ZM138.087 200.603C137.199 200.603 136.42 200.392 135.749 199.969C135.083 199.546 134.562 198.955 134.186 198.194C133.815 197.434 133.629 196.545 133.629 195.529C133.629 194.504 133.815 193.61 134.186 192.846C134.562 192.081 135.083 191.488 135.749 191.065C136.42 190.642 137.199 190.43 138.087 190.43C138.976 190.43 139.753 190.642 140.419 191.065C141.09 191.488 141.611 192.081 141.983 192.846C142.358 193.61 142.546 194.504 142.546 195.529C142.546 196.545 142.358 197.434 141.983 198.194C141.611 198.955 141.09 199.546 140.419 199.969C139.753 200.392 138.976 200.603 138.087 200.603ZM138.087 199.244C138.762 199.244 139.317 199.072 139.753 198.726C140.189 198.38 140.511 197.925 140.72 197.361C140.929 196.798 141.034 196.187 141.034 195.529C141.034 194.872 140.929 194.259 140.72 193.691C140.511 193.123 140.189 192.664 139.753 192.313C139.317 191.964 138.762 191.788 138.087 191.788C137.413 191.788 136.858 191.964 136.422 192.313C135.987 192.664 135.664 193.123 135.455 193.691C135.245 194.259 135.141 194.872 135.141 195.529C135.141 196.187 135.245 196.798 135.455 197.361C135.664 197.925 135.987 198.38 136.422 198.726C136.858 199.072 137.413 199.244 138.087 199.244Z" fill="#9898A6"/>
<path d="M117.891 168.56C117.267 168.56 116.701 168.443 116.193 168.208C115.685 167.969 115.281 167.625 114.982 167.176C114.684 166.724 114.534 166.177 114.534 165.537C114.534 164.973 114.645 164.516 114.867 164.166C115.09 163.811 115.386 163.533 115.757 163.333C116.129 163.132 116.539 162.983 116.988 162.885C117.44 162.782 117.895 162.702 118.352 162.641C118.95 162.564 119.435 162.507 119.806 162.468C120.181 162.426 120.455 162.355 120.625 162.257C120.801 162.158 120.889 161.988 120.889 161.745V161.693C120.889 161.061 120.716 160.57 120.37 160.22C120.028 159.87 119.509 159.695 118.812 159.695C118.091 159.695 117.526 159.853 117.116 160.169C116.705 160.485 116.417 160.823 116.251 161.18L114.816 160.668C115.073 160.071 115.413 159.605 115.841 159.272C116.272 158.935 116.742 158.7 117.25 158.568C117.762 158.43 118.266 158.362 118.761 158.362C119.078 158.362 119.441 158.4 119.851 158.478C120.265 158.55 120.664 158.702 121.048 158.933C121.437 159.163 121.76 159.511 122.016 159.977C122.272 160.442 122.4 161.065 122.4 161.847V168.33H120.889V166.997H120.812C120.71 167.211 120.538 167.44 120.299 167.682C120.06 167.926 119.741 168.133 119.345 168.303C118.948 168.475 118.463 168.56 117.891 168.56ZM118.121 167.202C118.719 167.202 119.223 167.085 119.633 166.849C120.047 166.615 120.359 166.312 120.568 165.94C120.782 165.569 120.889 165.178 120.889 164.768V163.384C120.825 163.461 120.683 163.531 120.466 163.595C120.253 163.656 120.004 163.709 119.722 163.756C119.445 163.799 119.174 163.837 118.909 163.871C118.648 163.901 118.437 163.927 118.275 163.948C117.883 163.999 117.515 164.082 117.173 164.198C116.835 164.309 116.563 164.477 116.353 164.704C116.148 164.926 116.046 165.229 116.046 165.614C116.046 166.139 116.24 166.536 116.629 166.805C117.022 167.07 117.519 167.202 118.121 167.202ZM125.159 172.019V158.491H126.62V160.053H126.799C126.911 159.883 127.064 159.665 127.26 159.4C127.461 159.131 127.747 158.891 128.119 158.683C128.495 158.47 129.003 158.362 129.643 158.362C130.472 158.362 131.202 158.57 131.834 158.984C132.466 159.398 132.959 159.985 133.313 160.745C133.668 161.505 133.845 162.402 133.845 163.435C133.845 164.477 133.668 165.381 133.313 166.145C132.959 166.905 132.468 167.495 131.84 167.914C131.213 168.328 130.489 168.535 129.669 168.535C129.037 168.535 128.531 168.43 128.15 168.22C127.77 168.007 127.478 167.765 127.273 167.497C127.068 167.223 126.911 166.997 126.799 166.817H126.671V172.019H125.159ZM126.645 163.41C126.645 164.153 126.754 164.809 126.972 165.376C127.19 165.94 127.508 166.382 127.927 166.702C128.345 167.019 128.858 167.176 129.464 167.176C130.096 167.176 130.624 167.01 131.046 166.677C131.473 166.339 131.793 165.886 132.006 165.319C132.225 164.747 132.333 164.111 132.333 163.41C132.333 162.719 132.227 162.094 132.013 161.539C131.804 160.98 131.486 160.538 131.058 160.213C130.637 159.885 130.104 159.72 129.464 159.72C128.849 159.72 128.333 159.877 127.914 160.188C127.495 160.496 127.179 160.927 126.966 161.482C126.752 162.033 126.645 162.676 126.645 163.41ZM136.151 172.019V158.491H137.612V160.053H137.792C137.902 159.883 138.056 159.665 138.253 159.4C138.453 159.131 138.74 158.891 139.111 158.683C139.486 158.47 139.994 158.362 140.636 158.362C141.464 158.362 142.194 158.57 142.826 158.984C143.458 159.398 143.952 159.985 144.306 160.745C144.66 161.505 144.838 162.402 144.838 163.435C144.838 164.477 144.66 165.381 144.306 166.145C143.952 166.905 143.46 167.495 142.832 167.914C142.205 168.328 141.481 168.535 140.661 168.535C140.028 168.535 139.522 168.43 139.143 168.22C138.763 168.007 138.47 167.765 138.266 167.497C138.06 167.223 137.902 166.997 137.792 166.817H137.663V172.019H136.151ZM137.637 163.41C137.637 164.153 137.747 164.809 137.964 165.376C138.182 165.94 138.5 166.382 138.919 166.702C139.337 167.019 139.849 167.176 140.456 167.176C141.088 167.176 141.616 167.01 142.038 166.677C142.466 166.339 142.785 165.886 142.999 165.319C143.217 164.747 143.325 164.111 143.325 163.41C143.325 162.719 143.219 162.094 143.006 161.539C142.796 160.98 142.478 160.538 142.051 160.213C141.628 159.885 141.097 159.72 140.456 159.72C139.841 159.72 139.324 159.877 138.906 160.188C138.487 160.496 138.172 160.927 137.958 161.482C137.745 162.033 137.637 162.676 137.637 163.41ZM148.655 155.211V168.33H147.144V155.211H148.655ZM151.424 168.33V158.491H152.936V168.33H151.424ZM152.192 156.85C151.898 156.85 151.644 156.75 151.431 156.549C151.221 156.349 151.117 156.108 151.117 155.826C151.117 155.543 151.221 155.303 151.431 155.101C151.644 154.901 151.898 154.801 152.192 154.801C152.487 154.801 152.739 154.901 152.949 155.101C153.162 155.303 153.269 155.543 153.269 155.826C153.269 156.108 153.162 156.349 152.949 156.549C152.739 156.75 152.487 156.85 152.192 156.85ZM159.702 168.535C158.779 168.535 157.985 168.316 157.319 167.882C156.653 167.446 156.141 166.845 155.782 166.081C155.423 165.317 155.244 164.443 155.244 163.461C155.244 162.462 155.427 161.58 155.794 160.816C156.166 160.047 156.683 159.447 157.344 159.016C158.011 158.58 158.788 158.362 159.676 158.362C160.368 158.362 160.991 158.491 161.546 158.747C162.101 159.003 162.556 159.361 162.911 159.822C163.266 160.284 163.485 160.823 163.57 161.437H162.059C161.944 160.989 161.687 160.591 161.291 160.245C160.898 159.896 160.368 159.72 159.702 159.72C159.112 159.72 158.596 159.874 158.152 160.181C157.712 160.485 157.368 160.914 157.121 161.469C156.877 162.02 156.755 162.666 156.755 163.41C156.755 164.17 156.874 164.832 157.114 165.395C157.357 165.959 157.699 166.397 158.139 166.709C158.583 167.021 159.104 167.176 159.702 167.176C160.095 167.176 160.451 167.108 160.771 166.972C161.092 166.835 161.363 166.638 161.585 166.382C161.807 166.126 161.965 165.818 162.059 165.459H163.57C163.485 166.041 163.274 166.564 162.936 167.029C162.603 167.491 162.161 167.858 161.61 168.131C161.064 168.4 160.428 168.535 159.702 168.535ZM168.676 168.56C168.053 168.56 167.487 168.443 166.979 168.208C166.471 167.969 166.067 167.625 165.768 167.176C165.468 166.724 165.319 166.177 165.319 165.537C165.319 164.973 165.43 164.516 165.653 164.166C165.874 163.811 166.171 163.533 166.543 163.333C166.914 163.132 167.324 162.983 167.772 162.885C168.225 162.782 168.68 162.702 169.137 162.641C169.735 162.564 170.219 162.507 170.591 162.468C170.967 162.426 171.241 162.355 171.411 162.257C171.586 162.158 171.674 161.988 171.674 161.745V161.693C171.674 161.061 171.501 160.57 171.154 160.22C170.814 159.87 170.295 159.695 169.598 159.695C168.877 159.695 168.31 159.853 167.901 160.169C167.491 160.485 167.203 160.823 167.036 161.18L165.602 160.668C165.857 160.071 166.199 159.605 166.626 159.272C167.058 158.935 167.527 158.7 168.036 158.568C168.548 158.43 169.052 158.362 169.547 158.362C169.863 158.362 170.227 158.4 170.636 158.478C171.05 158.55 171.45 158.702 171.834 158.933C172.223 159.163 172.545 159.511 172.801 159.977C173.058 160.442 173.186 161.065 173.186 161.847V168.33H171.674V166.997H171.597C171.494 167.211 171.324 167.44 171.084 167.682C170.846 167.926 170.527 168.133 170.13 168.303C169.732 168.475 169.248 168.56 168.676 168.56ZM168.907 167.202C169.504 167.202 170.008 167.085 170.418 166.849C170.833 166.615 171.144 166.312 171.354 165.94C171.567 165.569 171.674 165.178 171.674 164.768V163.384C171.609 163.461 171.469 163.531 171.251 163.595C171.037 163.656 170.79 163.709 170.508 163.756C170.231 163.799 169.959 163.837 169.694 163.871C169.434 163.901 169.222 163.927 169.06 163.948C168.667 163.999 168.3 164.082 167.959 164.198C167.621 164.309 167.347 164.477 167.139 164.704C166.934 164.926 166.831 165.229 166.831 165.614C166.831 166.139 167.026 166.536 167.415 166.805C167.807 167.07 168.304 167.202 168.907 167.202ZM180.224 158.491V159.771H175.125V158.491H180.224ZM176.611 156.134H178.122V165.512C178.122 165.938 178.184 166.258 178.309 166.472C178.437 166.681 178.599 166.822 178.796 166.894C178.996 166.963 179.208 166.997 179.429 166.997C179.596 166.997 179.733 166.989 179.839 166.972C179.946 166.951 180.031 166.934 180.095 166.921L180.403 168.278C180.301 168.316 180.158 168.356 179.974 168.394C179.79 168.437 179.557 168.458 179.276 168.458C178.849 168.458 178.43 168.366 178.02 168.182C177.614 167.999 177.277 167.719 177.008 167.343C176.743 166.968 176.611 166.494 176.611 165.921V156.134ZM182.498 168.33V158.491H184.01V168.33H182.498ZM183.266 156.85C182.972 156.85 182.718 156.75 182.505 156.549C182.295 156.349 182.19 156.108 182.19 155.826C182.19 155.543 182.295 155.303 182.505 155.101C182.718 154.901 182.972 154.801 183.266 154.801C183.561 154.801 183.813 154.901 184.023 155.101C184.236 155.303 184.342 155.543 184.342 155.826C184.342 156.108 184.236 156.349 184.023 156.549C183.813 156.75 183.561 156.85 183.266 156.85ZM190.775 168.535C189.887 168.535 189.108 168.324 188.437 167.901C187.771 167.478 187.251 166.886 186.875 166.126C186.503 165.366 186.317 164.477 186.317 163.461C186.317 162.436 186.503 161.542 186.875 160.777C187.251 160.013 187.771 159.42 188.437 158.997C189.108 158.574 189.887 158.362 190.775 158.362C191.664 158.362 192.441 158.574 193.107 158.997C193.777 159.42 194.299 160.013 194.67 160.777C195.046 161.542 195.234 162.436 195.234 163.461C195.234 164.477 195.046 165.366 194.67 166.126C194.299 166.886 193.777 167.478 193.107 167.901C192.441 168.324 191.664 168.535 190.775 168.535ZM190.775 167.176C191.451 167.176 192.006 167.004 192.441 166.658C192.877 166.312 193.199 165.857 193.408 165.293C193.617 164.73 193.722 164.119 193.722 163.461C193.722 162.804 193.617 162.19 193.408 161.623C193.199 161.055 192.877 160.596 192.441 160.245C192.006 159.896 191.451 159.72 190.775 159.72C190.101 159.72 189.545 159.896 189.11 160.245C188.675 160.596 188.352 161.055 188.143 161.623C187.933 162.19 187.829 162.804 187.829 163.461C187.829 164.119 187.933 164.73 188.143 165.293C188.352 165.857 188.675 166.312 189.11 166.658C189.545 167.004 190.101 167.176 190.775 167.176ZM322.58 168.535C321.632 168.535 320.814 168.326 320.125 167.907C319.443 167.484 318.915 166.894 318.544 166.139C318.176 165.378 317.993 164.494 317.993 163.487C317.993 162.479 318.176 161.591 318.544 160.823C318.915 160.049 319.432 159.447 320.094 159.016C320.76 158.58 321.537 158.362 322.425 158.362C322.938 158.362 323.444 158.448 323.943 158.619C324.444 158.789 324.898 159.067 325.308 159.452C325.718 159.831 326.045 160.336 326.288 160.963C326.532 161.591 326.653 162.364 326.653 163.282V163.922H319.069V162.615H325.116C325.116 162.06 325.005 161.565 324.783 161.129C324.565 160.694 324.253 160.351 323.847 160.098C323.446 159.846 322.972 159.72 322.425 159.72C321.823 159.72 321.302 159.87 320.863 160.169C320.427 160.464 320.091 160.848 319.857 161.322C319.622 161.796 319.504 162.304 319.504 162.846V163.718C319.504 164.46 319.632 165.091 319.889 165.607C320.149 166.12 320.51 166.511 320.971 166.779C321.432 167.044 321.968 167.176 322.58 167.176C322.976 167.176 323.335 167.121 323.656 167.01C323.98 166.894 324.259 166.724 324.495 166.498C324.729 166.267 324.911 165.981 325.039 165.639L326.5 166.049C326.346 166.545 326.087 166.98 325.724 167.355C325.361 167.727 324.913 168.018 324.379 168.227C323.845 168.432 323.245 168.535 322.58 168.535ZM329.816 158.491L332.173 162.513L334.531 158.491H336.273L333.096 163.41L336.273 168.33H334.531L332.173 164.511L329.816 168.33H328.073L331.2 163.41L328.073 158.491H329.816ZM342.709 158.491V159.771H337.61V158.491H342.709ZM339.097 156.134H340.608V165.512C340.608 165.938 340.67 166.258 340.793 166.472C340.921 166.681 341.084 166.822 341.28 166.894C341.482 166.963 341.692 166.997 341.915 166.997C342.081 166.997 342.218 166.989 342.324 166.972C342.432 166.951 342.517 166.934 342.581 166.921L342.889 168.278C342.785 168.316 342.643 168.356 342.459 168.394C342.275 168.437 342.043 168.458 341.761 168.458C341.333 168.458 340.915 168.366 340.506 168.182C340.1 167.999 339.762 167.719 339.493 167.343C339.229 166.968 339.097 166.494 339.097 165.921V156.134ZM344.983 168.33V158.491H346.443V159.977H346.545C346.725 159.49 347.049 159.095 347.519 158.791C347.989 158.489 348.519 158.336 349.108 158.336C349.219 158.336 349.358 158.339 349.525 158.343C349.691 158.347 349.817 158.353 349.903 158.362V159.9C349.851 159.887 349.734 159.868 349.55 159.842C349.37 159.812 349.181 159.797 348.98 159.797C348.502 159.797 348.075 159.898 347.699 160.098C347.327 160.294 347.032 160.568 346.815 160.918C346.602 161.265 346.494 161.659 346.494 162.103V168.33H344.983ZM354.589 168.56C353.966 168.56 353.401 168.443 352.892 168.208C352.384 167.969 351.981 167.625 351.681 167.176C351.383 166.724 351.233 166.177 351.233 165.537C351.233 164.973 351.345 164.516 351.566 164.166C351.789 163.811 352.085 163.533 352.457 163.333C352.828 163.132 353.239 162.983 353.687 162.885C354.139 162.782 354.594 162.702 355.051 162.641C355.649 162.564 356.134 162.507 356.506 162.468C356.881 162.426 357.154 162.355 357.325 162.257C357.5 162.158 357.588 161.988 357.588 161.745V161.693C357.588 161.061 357.414 160.57 357.069 160.22C356.727 159.87 356.208 159.695 355.512 159.695C354.791 159.695 354.225 159.853 353.815 160.169C353.405 160.485 353.116 160.823 352.95 161.18L351.515 160.668C351.771 160.071 352.113 159.605 352.54 159.272C352.971 158.935 353.441 158.7 353.949 158.568C354.461 158.43 354.965 158.362 355.461 158.362C355.777 158.362 356.14 158.4 356.55 158.478C356.964 158.55 357.363 158.702 357.748 158.933C358.136 159.163 358.459 159.511 358.715 159.977C358.971 160.442 359.099 161.065 359.099 161.847V168.33H357.588V166.997H357.511C357.408 167.211 357.237 167.44 356.999 167.682C356.759 167.926 356.441 168.133 356.044 168.303C355.647 168.475 355.162 168.56 354.589 168.56ZM354.82 167.202C355.418 167.202 355.922 167.085 356.332 166.849C356.746 166.615 357.058 166.312 357.267 165.94C357.481 165.569 357.588 165.178 357.588 164.768V163.384C357.524 163.461 357.382 163.531 357.165 163.595C356.951 163.656 356.704 163.709 356.421 163.756C356.144 163.799 355.873 163.837 355.609 163.871C355.348 163.901 355.137 163.927 354.974 163.948C354.581 163.999 354.214 164.082 353.872 164.198C353.535 164.309 353.262 164.477 353.052 164.704C352.848 164.926 352.745 165.229 352.745 165.614C352.745 166.139 352.939 166.536 353.328 166.805C353.721 167.07 354.219 167.202 354.82 167.202ZM365.855 168.535C364.933 168.535 364.139 168.316 363.472 167.882C362.807 167.446 362.294 166.845 361.935 166.081C361.576 165.317 361.397 164.443 361.397 163.461C361.397 162.462 361.581 161.58 361.948 160.816C362.32 160.047 362.837 159.447 363.498 159.016C364.165 158.58 364.941 158.362 365.83 158.362C366.522 158.362 367.145 158.491 367.7 158.747C368.255 159.003 368.71 159.361 369.065 159.822C369.419 160.284 369.639 160.823 369.725 161.437H368.213C368.098 160.989 367.842 160.591 367.445 160.245C367.051 159.896 366.522 159.72 365.855 159.72C365.266 159.72 364.75 159.874 364.305 160.181C363.866 160.485 363.521 160.914 363.274 161.469C363.03 162.02 362.909 162.666 362.909 163.41C362.909 164.17 363.028 164.832 363.268 165.395C363.511 165.959 363.853 166.397 364.293 166.709C364.737 167.021 365.258 167.176 365.855 167.176C366.248 167.176 366.605 167.108 366.926 166.972C367.245 166.835 367.517 166.638 367.739 166.382C367.961 166.126 368.119 165.818 368.213 165.459H369.725C369.639 166.041 369.428 166.564 369.09 167.029C368.757 167.491 368.316 167.858 367.764 168.131C367.218 168.4 366.582 168.535 365.855 168.535ZM376.213 158.491V159.771H371.114V158.491H376.213ZM372.601 156.134H374.113V165.512C374.113 165.938 374.174 166.258 374.298 166.472C374.427 166.681 374.589 166.822 374.785 166.894C374.986 166.963 375.197 166.997 375.42 166.997C375.586 166.997 375.722 166.989 375.829 166.972C375.936 166.951 376.021 166.934 376.085 166.921L376.393 168.278C376.29 168.316 376.147 168.356 375.964 168.394C375.78 168.437 375.547 168.458 375.265 168.458C374.838 168.458 374.42 168.366 374.01 168.182C373.605 167.999 373.267 167.719 372.997 167.343C372.733 166.968 372.601 166.494 372.601 165.921V156.134Z" fill="#9080FF"/>
<path d="M209.07 221.442H67.7703C61.1288 221.442 55.7448 226.826 55.7448 233.468V259.523C55.7448 266.165 61.1288 271.549 67.7703 271.549H209.07C215.711 271.549 221.095 266.165 221.095 259.523V233.468C221.095 226.826 215.711 221.442 209.07 221.442Z" fill="#313138"/>
<path d="M86.3437 244.491C86.2028 244.06 86.017 243.674 85.7865 243.332C85.5601 242.986 85.2889 242.691 84.9729 242.448C84.6612 242.204 84.3067 242.019 83.9096 241.891C83.5124 241.762 83.0768 241.698 82.6028 241.698C81.8257 241.698 81.1189 241.899 80.4826 242.301C79.8463 242.701 79.3403 243.294 78.9645 244.075C78.5887 244.856 78.4008 245.815 78.4008 246.951C78.4008 248.087 78.5908 249.046 78.9708 249.828C79.3509 250.608 79.8655 251.201 80.5146 251.601C81.1638 252.003 81.894 252.204 82.7053 252.204C83.4569 252.204 84.1188 252.043 84.691 251.724C85.2676 251.399 85.716 250.942 86.0363 250.353C86.3608 249.758 86.5231 249.061 86.5231 248.258L87.0099 248.36H83.0641V246.951H88.0605V248.36C88.0605 249.441 87.8298 250.38 87.3686 251.178C86.9117 251.977 86.2797 252.596 85.4726 253.036C84.6697 253.472 83.7473 253.69 82.7053 253.69C81.5438 253.69 80.5232 253.416 79.6434 252.87C78.768 252.323 78.0847 251.546 77.5937 250.538C77.1068 249.53 76.8634 248.334 76.8634 246.951C76.8634 245.913 77.0022 244.98 77.2797 244.152C77.5616 243.319 77.9588 242.61 78.4712 242.025C78.9836 241.44 79.59 240.992 80.2904 240.68C80.9908 240.369 81.7615 240.212 82.6028 240.212C83.2947 240.212 83.9394 240.317 84.5373 240.526C85.1395 240.731 85.6754 241.024 86.1451 241.404C86.6191 241.779 87.0142 242.23 87.3302 242.756C87.6462 243.277 87.864 243.855 87.9836 244.491H86.3437ZM94.5734 253.716C93.6851 253.716 92.9058 253.504 92.2353 253.082C91.5691 252.659 91.0481 252.067 90.6723 251.307C90.3008 250.547 90.115 249.658 90.115 248.642C90.115 247.617 90.3008 246.723 90.6723 245.958C91.0481 245.194 91.5691 244.6 92.2353 244.178C92.9058 243.755 93.6851 243.543 94.5734 243.543C95.4616 243.543 96.2388 243.755 96.905 244.178C97.5755 244.6 98.0965 245.194 98.4679 245.958C98.8437 246.723 99.0316 247.617 99.0316 248.642C99.0316 249.658 98.8437 250.547 98.4679 251.307C98.0965 252.067 97.5755 252.659 96.905 253.082C96.2388 253.504 95.4616 253.716 94.5734 253.716ZM94.5734 252.357C95.2481 252.357 95.8032 252.185 96.2388 251.839C96.6744 251.493 96.9968 251.038 97.2061 250.474C97.4153 249.911 97.5199 249.299 97.5199 248.642C97.5199 247.985 97.4153 247.371 97.2061 246.804C96.9968 246.236 96.6744 245.777 96.2388 245.426C95.8032 245.076 95.2481 244.901 94.5734 244.901C93.8987 244.901 93.3435 245.076 92.9079 245.426C92.4723 245.777 92.1499 246.236 91.9406 246.804C91.7314 247.371 91.6267 247.985 91.6267 248.642C91.6267 249.299 91.7314 249.911 91.9406 250.474C92.1499 251.038 92.4723 251.493 92.9079 251.839C93.3435 252.185 93.8987 252.357 94.5734 252.357ZM105.337 253.716C104.448 253.716 103.668 253.504 102.998 253.082C102.333 252.659 101.811 252.067 101.435 251.307C101.064 250.547 100.878 249.658 100.878 248.642C100.878 247.617 101.064 246.723 101.435 245.958C101.811 245.194 102.333 244.6 102.998 244.178C103.668 243.755 104.448 243.543 105.337 243.543C106.225 243.543 107.001 243.755 107.668 244.178C108.338 244.6 108.859 245.194 109.231 245.958C109.607 246.723 109.794 247.617 109.794 248.642C109.794 249.658 109.607 250.547 109.231 251.307C108.859 252.067 108.338 252.659 107.668 253.082C107.001 253.504 106.225 253.716 105.337 253.716ZM105.337 252.357C106.011 252.357 106.567 252.185 107.001 251.839C107.437 251.493 107.76 251.038 107.969 250.474C108.178 249.911 108.283 249.299 108.283 248.642C108.283 247.985 108.178 247.371 107.969 246.804C107.76 246.236 107.437 245.777 107.001 245.426C106.567 245.076 106.011 244.901 105.337 244.901C104.661 244.901 104.106 245.076 103.671 245.426C103.235 245.777 102.913 246.236 102.703 246.804C102.495 247.371 102.39 247.985 102.39 248.642C102.39 249.299 102.495 249.911 102.703 250.474C102.913 251.038 103.235 251.493 103.671 251.839C104.106 252.185 104.661 252.357 105.337 252.357ZM116.074 257.405C115.343 257.405 114.716 257.311 114.191 257.123C113.666 256.94 113.228 256.696 112.878 256.393C112.531 256.094 112.257 255.774 112.051 255.432L113.256 254.587C113.392 254.766 113.565 254.971 113.774 255.202C113.983 255.437 114.27 255.639 114.633 255.81C114.999 255.985 115.48 256.073 116.074 256.073C116.868 256.073 117.524 255.88 118.041 255.497C118.557 255.112 118.815 254.51 118.815 253.69V251.692H118.687C118.576 251.871 118.419 252.092 118.213 252.357C118.013 252.618 117.722 252.851 117.342 253.055C116.967 253.256 116.458 253.357 115.817 253.357C115.023 253.357 114.31 253.169 113.679 252.793C113.05 252.417 112.553 251.871 112.185 251.153C111.823 250.436 111.641 249.564 111.641 248.54C111.641 247.532 111.819 246.654 112.172 245.907C112.527 245.156 113.02 244.574 113.653 244.165C114.285 243.751 115.014 243.543 115.843 243.543C116.484 243.543 116.992 243.65 117.367 243.864C117.748 244.072 118.038 244.312 118.239 244.58C118.444 244.846 118.602 245.063 118.713 245.234H118.867V243.672H120.327V253.792C120.327 254.638 120.135 255.325 119.75 255.854C119.371 256.389 118.859 256.779 118.213 257.027C117.573 257.279 116.859 257.405 116.074 257.405ZM116.023 251.998C116.629 251.998 117.142 251.86 117.56 251.582C117.979 251.305 118.296 250.906 118.515 250.385C118.732 249.864 118.842 249.24 118.842 248.514C118.842 247.805 118.734 247.18 118.521 246.637C118.307 246.095 117.992 245.67 117.573 245.362C117.154 245.054 116.638 244.901 116.023 244.901C115.382 244.901 114.848 245.063 114.421 245.388C113.998 245.713 113.681 246.148 113.467 246.695C113.258 247.241 113.152 247.847 113.152 248.514C113.152 249.197 113.26 249.802 113.473 250.327C113.691 250.848 114.011 251.258 114.434 251.556C114.861 251.851 115.39 251.998 116.023 251.998ZM124.606 240.392V253.51H123.095V240.392H124.606ZM131.5 253.716C130.552 253.716 129.735 253.506 129.047 253.088C128.364 252.665 127.837 252.075 127.465 251.32C127.097 250.559 126.914 249.675 126.914 248.668C126.914 247.66 127.097 246.772 127.465 246.003C127.837 245.23 128.353 244.628 129.015 244.197C129.681 243.761 130.458 243.543 131.346 243.543C131.859 243.543 132.365 243.628 132.864 243.8C133.364 243.97 133.819 244.248 134.229 244.633C134.639 245.012 134.966 245.516 135.209 246.144C135.453 246.772 135.574 247.545 135.574 248.463V249.103H127.99V247.796H134.037C134.037 247.241 133.926 246.746 133.704 246.31C133.486 245.875 133.174 245.531 132.768 245.279C132.367 245.027 131.893 244.901 131.346 244.901C130.745 244.901 130.224 245.05 129.784 245.35C129.348 245.645 129.013 246.029 128.778 246.503C128.543 246.977 128.426 247.485 128.426 248.027V248.899C128.426 249.641 128.553 250.272 128.81 250.788C129.07 251.301 129.431 251.692 129.892 251.96C130.354 252.225 130.889 252.357 131.5 252.357C131.897 252.357 132.256 252.302 132.577 252.191C132.901 252.075 133.181 251.905 133.415 251.679C133.65 251.448 133.832 251.161 133.96 250.82L135.421 251.23C135.266 251.726 135.009 252.161 134.645 252.536C134.282 252.908 133.834 253.199 133.3 253.408C132.766 253.613 132.167 253.716 131.5 253.716ZM150.326 243.672C150.249 243.022 149.937 242.518 149.391 242.159C148.844 241.801 148.174 241.621 147.38 241.621C146.799 241.621 146.291 241.715 145.855 241.904C145.424 242.091 145.086 242.35 144.843 242.678C144.604 243.007 144.484 243.381 144.484 243.8C144.484 244.15 144.568 244.451 144.734 244.703C144.905 244.95 145.123 245.158 145.388 245.324C145.652 245.486 145.93 245.621 146.221 245.728C146.511 245.83 146.778 245.913 147.021 245.977L148.353 246.336C148.695 246.425 149.075 246.55 149.494 246.708C149.916 246.865 150.32 247.082 150.704 247.354C151.093 247.624 151.414 247.97 151.665 248.393C151.917 248.815 152.043 249.334 152.043 249.949C152.043 250.657 151.858 251.299 151.486 251.871C151.119 252.443 150.581 252.897 149.871 253.235C149.167 253.573 148.311 253.741 147.303 253.741C146.363 253.741 145.55 253.59 144.863 253.286C144.179 252.983 143.641 252.56 143.248 252.018C142.859 251.475 142.64 250.846 142.588 250.128H144.228C144.27 250.623 144.438 251.033 144.727 251.358C145.022 251.679 145.394 251.918 145.843 252.075C146.295 252.23 146.782 252.306 147.303 252.306C147.909 252.306 148.453 252.208 148.936 252.011C149.418 251.811 149.801 251.533 150.083 251.178C150.364 250.82 150.506 250.402 150.506 249.923C150.506 249.488 150.384 249.133 150.141 248.86C149.897 248.587 149.577 248.364 149.18 248.194C148.783 248.023 148.353 247.873 147.892 247.745L146.278 247.284C145.254 246.99 144.442 246.569 143.844 246.023C143.246 245.475 142.947 244.76 142.947 243.876C142.947 243.141 143.146 242.501 143.543 241.955C143.944 241.404 144.482 240.977 145.157 240.673C145.836 240.366 146.594 240.212 147.431 240.212C148.277 240.212 149.029 240.363 149.686 240.667C150.343 240.966 150.864 241.376 151.248 241.897C151.637 242.418 151.843 243.009 151.864 243.672H150.326ZM155.961 247.592V253.51H154.45V240.392H155.961V245.209H156.09C156.32 244.701 156.667 244.297 157.128 243.998C157.593 243.695 158.212 243.543 158.985 243.543C159.656 243.543 160.242 243.678 160.746 243.947C161.25 244.212 161.641 244.62 161.919 245.171C162.201 245.717 162.342 246.413 162.342 247.258V253.51H160.83V247.361C160.83 246.58 160.627 245.975 160.221 245.548C159.82 245.117 159.262 244.901 158.55 244.901C158.055 244.901 157.61 245.005 157.217 245.215C156.828 245.424 156.521 245.73 156.295 246.131C156.073 246.533 155.961 247.02 155.961 247.592ZM169.232 253.716C168.284 253.716 167.467 253.506 166.779 253.088C166.096 252.665 165.569 252.075 165.197 251.32C164.83 250.559 164.646 249.675 164.646 248.668C164.646 247.66 164.83 246.772 165.197 246.003C165.569 245.23 166.086 244.628 166.747 244.197C167.414 243.761 168.19 243.543 169.079 243.543C169.591 243.543 170.097 243.628 170.597 243.8C171.096 243.97 171.551 244.248 171.961 244.633C172.371 245.012 172.698 245.516 172.941 246.144C173.185 246.772 173.306 247.545 173.306 248.463V249.103H165.722V247.796H171.769C171.769 247.241 171.659 246.746 171.436 246.31C171.219 245.875 170.907 245.531 170.501 245.279C170.099 245.027 169.625 244.901 169.079 244.901C168.477 244.901 167.956 245.05 167.516 245.35C167.08 245.645 166.745 246.029 166.511 246.503C166.275 246.977 166.158 247.485 166.158 248.027V248.899C166.158 249.641 166.286 250.272 166.542 250.788C166.802 251.301 167.164 251.692 167.625 251.96C168.086 252.225 168.622 252.357 169.232 252.357C169.629 252.357 169.988 252.302 170.309 252.191C170.633 252.075 170.913 251.905 171.147 251.679C171.383 251.448 171.564 251.161 171.693 250.82L173.153 251.23C172.999 251.726 172.741 252.161 172.378 252.536C172.014 252.908 171.566 253.199 171.032 253.408C170.499 253.613 169.899 253.716 169.232 253.716ZM179.732 253.716C178.784 253.716 177.966 253.506 177.278 253.088C176.595 252.665 176.067 252.075 175.696 251.32C175.328 250.559 175.145 249.675 175.145 248.668C175.145 247.66 175.328 246.772 175.696 246.003C176.067 245.23 176.584 244.628 177.246 244.197C177.912 243.761 178.689 243.543 179.577 243.543C180.09 243.543 180.597 243.628 181.096 243.8C181.596 243.97 182.051 244.248 182.46 244.633C182.87 245.012 183.197 245.516 183.441 246.144C183.684 246.772 183.805 247.545 183.805 248.463V249.103H176.221V247.796H182.268C182.268 247.241 182.157 246.746 181.935 246.31C181.717 245.875 181.405 245.531 180.999 245.279C180.599 245.027 180.125 244.901 179.577 244.901C178.975 244.901 178.455 245.05 178.015 245.35C177.579 245.645 177.243 246.029 177.009 246.503C176.774 246.977 176.657 247.485 176.657 248.027V248.899C176.657 249.641 176.784 250.272 177.041 250.788C177.302 251.301 177.662 251.692 178.123 251.96C178.585 252.225 179.12 252.357 179.732 252.357C180.129 252.357 180.487 252.302 180.808 252.191C181.132 252.075 181.412 251.905 181.647 251.679C181.881 251.448 182.063 251.161 182.191 250.82L183.652 251.23C183.498 251.726 183.239 252.161 182.876 252.536C182.514 252.908 182.066 253.199 181.531 253.408C180.997 253.613 180.397 253.716 179.732 253.716ZM190.384 243.672V244.952H185.285V243.672H190.384ZM186.772 241.315H188.283V250.692C188.283 251.119 188.345 251.439 188.468 251.652C188.596 251.862 188.759 252.003 188.955 252.075C189.157 252.143 189.367 252.178 189.59 252.178C189.756 252.178 189.893 252.17 189.999 252.153C190.107 252.131 190.192 252.114 190.256 252.101L190.564 253.459C190.46 253.497 190.318 253.536 190.134 253.575C189.95 253.618 189.718 253.639 189.436 253.639C189.009 253.639 188.59 253.546 188.181 253.363C187.775 253.18 187.437 252.9 187.168 252.524C186.904 252.149 186.772 251.675 186.772 251.102V241.315ZM199.451 245.875L198.094 246.259C198.007 246.033 197.882 245.813 197.715 245.6C197.552 245.381 197.331 245.203 197.049 245.061C196.767 244.92 196.406 244.85 195.966 244.85C195.365 244.85 194.863 244.988 194.461 245.266C194.064 245.539 193.866 245.887 193.866 246.31C193.866 246.686 194.002 246.984 194.276 247.201C194.549 247.418 194.976 247.6 195.556 247.745L197.017 248.104C197.896 248.317 198.553 248.644 198.983 249.084C199.414 249.52 199.631 250.081 199.631 250.769C199.631 251.333 199.469 251.837 199.144 252.281C198.823 252.725 198.375 253.074 197.798 253.331C197.222 253.588 196.551 253.716 195.787 253.716C194.784 253.716 193.953 253.497 193.295 253.062C192.638 252.627 192.221 251.99 192.046 251.153L193.481 250.795C193.618 251.324 193.876 251.721 194.256 251.986C194.64 252.251 195.142 252.383 195.762 252.383C196.466 252.383 197.025 252.234 197.44 251.935C197.858 251.631 198.068 251.269 198.068 250.846C198.068 250.504 197.948 250.217 197.709 249.987C197.469 249.752 197.103 249.577 196.607 249.462L194.967 249.078C194.066 248.865 193.405 248.533 192.982 248.085C192.563 247.632 192.353 247.067 192.353 246.387C192.353 245.832 192.51 245.341 192.821 244.914C193.137 244.487 193.566 244.152 194.109 243.908C194.655 243.664 195.275 243.543 195.966 243.543C196.94 243.543 197.705 243.757 198.26 244.184C198.819 244.61 199.216 245.175 199.451 245.875Z" fill="#E6E6E6"/>
<path d="M323.312 221.442H249.155C242.513 221.442 237.129 226.826 237.129 233.468V259.523C237.129 266.165 242.513 271.549 249.155 271.549H323.312C329.954 271.549 335.338 266.165 335.338 259.523V233.468C335.338 226.826 329.954 221.442 323.312 221.442Z" fill="#493D99"/>
<path d="M269.201 240.392V253.51H267.383L260.714 243.889H260.592V253.51H258.613V240.392H260.445L267.12 250.026H267.241V240.392H269.201ZM276.08 253.709C275.157 253.709 274.352 253.497 273.665 253.075C272.977 252.652 272.443 252.06 272.063 251.301C271.684 250.54 271.493 249.652 271.493 248.636C271.493 247.615 271.684 246.723 272.063 245.958C272.443 245.194 272.977 244.601 273.665 244.178C274.352 243.755 275.157 243.543 276.08 243.543C277.002 243.543 277.807 243.755 278.495 244.178C279.183 244.601 279.716 245.194 280.096 245.958C280.476 246.723 280.666 247.615 280.666 248.636C280.666 249.652 280.476 250.54 280.096 251.301C279.716 252.06 279.183 252.652 278.495 253.075C277.807 253.497 277.002 253.709 276.08 253.709ZM276.086 252.101C276.684 252.101 277.179 251.943 277.572 251.627C277.965 251.311 278.256 250.891 278.443 250.366C278.635 249.84 278.732 249.261 278.732 248.629C278.732 248.002 278.635 247.426 278.443 246.899C278.256 246.37 277.965 245.945 277.572 245.625C277.179 245.305 276.684 245.145 276.086 245.145C275.484 245.145 274.985 245.305 274.587 245.625C274.194 245.945 273.901 246.37 273.71 246.899C273.522 247.426 273.427 248.002 273.427 248.629C273.427 249.261 273.522 249.84 273.71 250.366C273.901 250.891 274.194 251.311 274.587 251.627C274.985 251.943 275.484 252.101 276.086 252.101ZM287.397 243.672V245.209H282.023V243.672H287.397ZM283.464 241.315H285.379V250.621C285.379 250.993 285.435 251.273 285.546 251.461C285.656 251.644 285.8 251.77 285.975 251.839C286.154 251.903 286.349 251.935 286.558 251.935C286.712 251.935 286.846 251.924 286.961 251.903C287.076 251.881 287.166 251.864 287.231 251.851L287.576 253.433C287.465 253.476 287.307 253.519 287.102 253.562C286.897 253.609 286.641 253.635 286.334 253.639C285.83 253.647 285.36 253.558 284.925 253.369C284.489 253.182 284.136 252.891 283.867 252.498C283.598 252.105 283.464 251.612 283.464 251.018V241.315ZM289.515 253.51V243.672H291.431V253.51H289.515ZM290.482 242.153C290.15 242.153 289.863 242.042 289.625 241.821C289.389 241.594 289.272 241.325 289.272 241.013C289.272 240.697 289.389 240.428 289.625 240.206C289.863 239.98 290.15 239.866 290.482 239.866C290.816 239.866 291.1 239.98 291.334 240.206C291.574 240.428 291.693 240.697 291.693 241.013C291.693 241.325 291.574 241.594 291.334 241.821C291.1 242.042 290.816 242.153 290.482 242.153ZM298.152 253.709C297.23 253.709 296.424 253.497 295.737 253.075C295.049 252.652 294.516 252.06 294.135 251.301C293.755 250.54 293.565 249.652 293.565 248.636C293.565 247.615 293.755 246.723 294.135 245.958C294.516 245.194 295.049 244.601 295.737 244.178C296.424 243.755 297.23 243.543 298.152 243.543C299.075 243.543 299.879 243.755 300.567 244.178C301.254 244.601 301.788 245.194 302.168 245.958C302.548 246.723 302.738 247.615 302.738 248.636C302.738 249.652 302.548 250.54 302.168 251.301C301.788 252.06 301.254 252.652 300.567 253.075C299.879 253.497 299.075 253.709 298.152 253.709ZM298.159 252.101C298.756 252.101 299.251 251.943 299.644 251.627C300.038 251.311 300.327 250.891 300.516 250.366C300.708 249.84 300.803 249.261 300.803 248.629C300.803 248.002 300.708 247.426 300.516 246.899C300.327 246.37 300.038 245.945 299.644 245.625C299.251 245.305 298.756 245.145 298.159 245.145C297.556 245.145 297.056 245.305 296.66 245.625C296.267 245.945 295.974 246.37 295.782 246.899C295.594 247.426 295.5 248.002 295.5 248.629C295.5 249.261 295.594 249.84 295.782 250.366C295.974 250.891 296.267 251.311 296.66 251.627C297.056 251.943 297.556 252.101 298.159 252.101ZM306.791 247.668V253.51H304.876V243.672H306.715V245.273H306.836C307.063 244.752 307.417 244.333 307.899 244.017C308.386 243.702 309 243.543 309.738 243.543C310.409 243.543 310.996 243.685 311.5 243.966C312.003 244.244 312.394 244.658 312.672 245.209C312.949 245.76 313.088 246.44 313.088 247.252V253.51H311.173V247.483C311.173 246.769 310.987 246.212 310.615 245.811C310.244 245.405 309.733 245.203 309.085 245.203C308.641 245.203 308.245 245.298 307.899 245.49C307.558 245.683 307.287 245.964 307.086 246.336C306.889 246.703 306.791 247.148 306.791 247.668Z" fill="#E6E6E6"/>
<path d="M447.576 221.442H363.397C356.756 221.442 351.372 226.826 351.372 233.468V259.523C351.372 266.165 356.756 271.549 363.397 271.549H447.576C454.217 271.549 459.601 266.165 459.601 259.523V233.468C459.601 226.826 454.217 221.442 447.576 221.442Z" fill="#313138"/>
<path d="M373.964 253.51H371.862L376.583 240.392H378.87L383.591 253.51H381.49L377.782 242.775H377.678L373.964 253.51ZM374.316 248.374H381.132V250.039H374.316V248.374ZM385.42 253.51V243.672H387.335V253.51H385.42ZM386.387 242.153C386.054 242.153 385.769 242.042 385.529 241.821C385.294 241.594 385.176 241.325 385.176 241.013C385.176 240.697 385.294 240.428 385.529 240.206C385.769 239.98 386.054 239.866 386.387 239.866C386.721 239.866 387.004 239.98 387.24 240.206C387.478 240.428 387.598 240.697 387.598 241.013C387.598 241.325 387.478 241.594 387.24 241.821C387.004 242.042 386.721 242.153 386.387 242.153ZM389.912 253.51V243.672H391.763V245.234H391.865C392.045 244.705 392.362 244.289 392.814 243.985C393.27 243.678 393.788 243.524 394.364 243.524C394.483 243.524 394.624 243.528 394.787 243.537C394.953 243.545 395.083 243.556 395.178 243.569V245.401C395.1 245.379 394.964 245.356 394.768 245.33C394.571 245.301 394.375 245.286 394.178 245.286C393.725 245.286 393.322 245.381 392.968 245.574C392.617 245.762 392.339 246.025 392.135 246.361C391.93 246.695 391.827 247.075 391.827 247.502V253.51H389.912ZM402.009 243.672V245.209H396.635V243.672H402.009ZM398.076 241.315H399.992V250.621C399.992 250.993 400.047 251.273 400.158 251.461C400.269 251.644 400.412 251.77 400.587 251.839C400.766 251.903 400.961 251.935 401.17 251.935C401.324 251.935 401.458 251.924 401.573 251.903C401.688 251.881 401.779 251.864 401.843 251.851L402.188 253.433C402.077 253.476 401.92 253.519 401.714 253.562C401.509 253.609 401.253 253.635 400.946 253.639C400.442 253.647 399.972 253.558 399.537 253.369C399.101 253.182 398.748 252.891 398.48 252.498C398.211 252.105 398.076 251.612 398.076 251.018V241.315ZM406.991 253.728C406.367 253.728 405.804 253.613 405.3 253.382C404.796 253.148 404.397 252.808 404.102 252.364C403.812 251.92 403.667 251.375 403.667 250.731C403.667 250.175 403.773 249.718 403.987 249.36C404.201 249.001 404.488 248.717 404.851 248.508C405.215 248.298 405.621 248.14 406.069 248.034C406.517 247.927 406.974 247.845 407.44 247.79C408.029 247.722 408.507 247.666 408.875 247.624C409.241 247.577 409.508 247.502 409.675 247.399C409.842 247.297 409.925 247.131 409.925 246.899V246.855C409.925 246.295 409.766 245.862 409.451 245.555C409.139 245.247 408.673 245.094 408.054 245.094C407.409 245.094 406.901 245.237 406.53 245.522C406.163 245.804 405.908 246.119 405.768 246.464L403.967 246.055C404.181 245.456 404.493 244.974 404.903 244.607C405.317 244.235 405.793 243.966 406.331 243.8C406.869 243.628 407.435 243.543 408.029 243.543C408.422 243.543 408.837 243.59 409.277 243.685C409.722 243.774 410.136 243.94 410.52 244.184C410.909 244.427 411.228 244.775 411.475 245.228C411.723 245.677 411.847 246.259 411.847 246.977V253.51H409.976V252.166H409.899C409.775 252.413 409.589 252.657 409.342 252.895C409.094 253.135 408.776 253.333 408.388 253.491C407.999 253.649 407.534 253.728 406.991 253.728ZM407.407 252.191C407.937 252.191 408.39 252.086 408.765 251.877C409.145 251.668 409.434 251.394 409.63 251.057C409.831 250.716 409.931 250.351 409.931 249.962V248.693C409.863 248.761 409.73 248.825 409.534 248.886C409.342 248.941 409.122 248.99 408.875 249.033C408.627 249.071 408.386 249.108 408.15 249.142C407.916 249.171 407.719 249.197 407.561 249.218C407.19 249.265 406.85 249.345 406.543 249.456C406.239 249.567 405.996 249.726 405.812 249.936C405.633 250.141 405.543 250.415 405.543 250.756C405.543 251.23 405.719 251.588 406.069 251.832C406.418 252.071 406.865 252.191 407.407 252.191ZM414.552 253.51V240.392H416.467V245.266H416.582C416.693 245.061 416.853 244.824 417.062 244.555C417.271 244.286 417.562 244.051 417.934 243.851C418.305 243.645 418.796 243.543 419.407 243.543C420.201 243.543 420.91 243.744 421.533 244.146C422.157 244.546 422.646 245.126 423 245.881C423.359 246.637 423.539 247.547 423.539 248.61C423.539 249.673 423.361 250.585 423.007 251.345C422.652 252.101 422.166 252.684 421.546 253.095C420.927 253.499 420.221 253.703 419.426 253.703C418.828 253.703 418.339 253.603 417.959 253.401C417.583 253.201 417.288 252.966 417.075 252.697C416.861 252.428 416.697 252.189 416.582 251.979H416.422V253.51H414.552ZM416.429 248.591C416.429 249.282 416.529 249.889 416.729 250.41C416.93 250.931 417.22 251.339 417.6 251.633C417.981 251.924 418.446 252.069 418.997 252.069C419.569 252.069 420.047 251.918 420.432 251.614C420.816 251.307 421.106 250.891 421.303 250.366C421.503 249.84 421.604 249.248 421.604 248.591C421.604 247.942 421.505 247.359 421.309 246.842C421.117 246.325 420.827 245.917 420.438 245.619C420.053 245.32 419.573 245.171 418.997 245.171C418.442 245.171 417.972 245.313 417.587 245.6C417.207 245.885 416.92 246.285 416.723 246.797C416.527 247.309 416.429 247.908 416.429 248.591ZM427.604 240.392V253.51H425.689V240.392H427.604ZM434.422 253.709C433.452 253.709 432.617 253.501 431.916 253.088C431.221 252.67 430.683 252.082 430.303 251.326C429.927 250.566 429.739 249.675 429.739 248.655C429.739 247.647 429.927 246.759 430.303 245.99C430.683 245.222 431.212 244.622 431.891 244.191C432.575 243.759 433.373 243.543 434.287 243.543C434.843 243.543 435.38 243.635 435.901 243.819C436.422 244.002 436.89 244.291 437.304 244.684C437.719 245.077 438.045 245.587 438.284 246.214C438.523 246.838 438.643 247.596 438.643 248.489V249.167H430.821V247.732H436.766C436.766 247.229 436.663 246.782 436.458 246.393C436.254 246 435.965 245.691 435.594 245.465C435.226 245.239 434.796 245.126 434.299 245.126C433.761 245.126 433.292 245.258 432.89 245.522C432.494 245.783 432.186 246.125 431.969 246.548C431.755 246.966 431.648 247.42 431.648 247.912V249.033C431.648 249.69 431.763 250.25 431.994 250.711C432.229 251.172 432.556 251.524 432.974 251.768C433.393 252.007 433.882 252.127 434.441 252.127C434.804 252.127 435.134 252.075 435.434 251.973C435.733 251.866 435.991 251.709 436.209 251.499C436.426 251.29 436.593 251.031 436.709 250.724L438.521 251.05C438.376 251.584 438.116 252.052 437.74 252.453C437.368 252.851 436.9 253.161 436.337 253.382C435.778 253.6 435.139 253.709 434.422 253.709Z" fill="#E6E6E6"/>
<path d="M99.8383 59.0975H67.7703C61.1288 59.0975 55.7448 64.4816 55.7448 71.1231V103.191C55.7448 109.833 61.1288 115.217 67.7703 115.217H99.8383C106.48 115.217 111.864 109.833 111.864 103.191V71.1231C111.864 64.4816 106.48 59.0975 99.8383 59.0975Z" fill="#313138"/>
<path d="M335.338 73.1273H139.923C133.282 73.1273 127.898 78.5113 127.898 85.1529V89.1614C127.898 95.8029 133.282 101.187 139.923 101.187H335.338C341.979 101.187 347.363 95.8029 347.363 89.1614V85.1529C347.363 78.5113 341.979 73.1273 335.338 73.1273Z" fill="white" fill-opacity="0.06"/>
<path d="M562.82 197.391H1.63V325.664H562.82V197.391Z" fill="url(#paint1_linear_1_2727)"/>
</g>
</g>
</g>
<rect width="563.19" height="112.63" transform="translate(0.630005 210.863)" fill="url(#paint2_linear_1_2727)"/>
<defs>
<linearGradient id="paint0_linear_1_2727" x1="59.7533" y1="29.0337" x2="538.77" y2="325.662" gradientUnits="userSpaceOnUse">
<stop stop-color="white" stop-opacity="0.06"/>
<stop offset="1" stop-color="white" stop-opacity="0"/>
</linearGradient>
<linearGradient id="paint1_linear_1_2727" x1="272.761" y1="325.664" x2="272.761" y2="197.391" gradientUnits="userSpaceOnUse">
<stop stop-color="#08090A"/>
<stop offset="1" stop-color="#08090A" stop-opacity="0"/>
</linearGradient>
<linearGradient id="paint2_linear_1_2727" x1="281.595" y1="112.63" x2="281.595" y2="0" gradientUnits="userSpaceOnUse">
<stop stop-color="#08090A"/>
<stop offset="1" stop-color="#08090A" stop-opacity="0"/>
</linearGradient>
<clipPath id="clip0_1_2727">
<rect width="561.19" height="320.66" fill="white" transform="translate(1.63 1.83215)"/>
</clipPath>
<clipPath id="clip1_1_2727">
<rect width="561.19" height="303.04" fill="white" transform="translate(1.63 25.8322)"/>
</clipPath>
<clipPath id="clip2_1_2727">
<rect width="561.19" height="296.63" fill="white" transform="translate(1.63 29.0337)"/>
</clipPath>
</defs>
</svg>
