<svg width="32" height="33" viewBox="0 0 32 33" fill="none" xmlns="http://www.w3.org/2000/svg">
<g clip-path="url(#clip0_1_3057)">
<path fill-rule="evenodd" clip-rule="evenodd" d="M4.33867 27.8576L7.70485 27.4972C8.60991 27.4003 9.47495 27.5869 10.2095 27.9489C11.9526 28.808 13.9157 29.2919 16 29.2919C23.246 29.2919 29.12 23.4179 29.12 16.1719C29.12 8.9259 23.246 3.05188 16 3.05188C8.75402 3.05188 2.88 8.9259 2.88 16.1719C2.88 18.4029 3.43452 20.4959 4.41087 22.329C4.8895 23.2276 5.09486 24.3223 4.85745 25.4322L4.33867 27.8576ZM32 16.1719C32 25.0085 24.8366 32.1719 16 32.1719C13.4645 32.1719 11.0667 31.5821 8.93641 30.5323C8.64949 30.3909 8.32954 30.3268 8.01148 30.3608L2.59186 30.9411C1.69985 31.0714 0.924448 29.6942 1.18527 28.8312L2.04116 24.8298C2.12454 24.44 2.05636 24.0347 1.86896 23.6829C0.676045 21.4433 0 18.8865 0 16.1719C0 7.33531 7.16344 0.171875 16 0.171875C24.8366 0.171875 32 7.33531 32 16.1719Z" fill="white" fill-opacity="0.4"/>
<path d="M18.9961 9.17188H14.4292C14.2128 9.17188 14.0101 9.32099 13.9219 9.57796L11.6395 16.0601C11.5775 16.3039 11.5775 16.4595 11.7199 16.7058C11.8457 16.8939 12.0101 16.9522 12.1472 16.9522H14.0649L12.7303 22.7427C12.6951 22.9042 12.7334 23.0333 12.8594 23.1311C12.983 23.21 13.1224 23.17 13.2047 23.0501L19.8423 15.7844C20.0356 15.5258 20.0356 15.2535 19.9261 15.0071C19.8315 14.7945 19.6192 14.683 19.4603 14.683H17.6633L19.4115 10.2249C19.544 10.0083 19.5769 9.76189 19.4454 9.47661C19.3249 9.24968 19.1323 9.17188 18.9961 9.17188Z" fill="#C568E6"/>
</g>
<defs>
<clipPath id="clip0_1_3057">
<rect width="32" height="32" fill="white" transform="translate(0 0.171875)"/>
</clipPath>
</defs>
</svg>
