<svg width="60" height="60" viewBox="0 0 60 60" fill="none" xmlns="http://www.w3.org/2000/svg">
<circle cx="30" cy="30" r="30" fill="#FFF9F8" fill-opacity="0.2"/>
<path d="M24.75 17.5H35.25C39.25 17.5 42.5 20.75 42.5 24.75V35.25C42.5 37.1728 41.7362 39.0169 40.3765 40.3765C39.0169 41.7362 37.1728 42.5 35.25 42.5H24.75C20.75 42.5 17.5 39.25 17.5 35.25V24.75C17.5 22.8272 18.2638 20.9831 19.6235 19.6235C20.9831 18.2638 22.8272 17.5 24.75 17.5ZM24.5 20C23.3065 20 22.1619 20.4741 21.318 21.318C20.4741 22.1619 20 23.3065 20 24.5V35.5C20 37.9875 22.0125 40 24.5 40H35.5C36.6935 40 37.8381 39.5259 38.682 38.682C39.5259 37.8381 40 36.6935 40 35.5V24.5C40 22.0125 37.9875 20 35.5 20H24.5ZM36.5625 21.875C36.9769 21.875 37.3743 22.0396 37.6674 22.3326C37.9604 22.6257 38.125 23.0231 38.125 23.4375C38.125 23.8519 37.9604 24.2493 37.6674 24.5424C37.3743 24.8354 36.9769 25 36.5625 25C36.1481 25 35.7507 24.8354 35.4576 24.5424C35.1646 24.2493 35 23.8519 35 23.4375C35 23.0231 35.1646 22.6257 35.4576 22.3326C35.7507 22.0396 36.1481 21.875 36.5625 21.875ZM30 23.75C31.6576 23.75 33.2473 24.4085 34.4194 25.5806C35.5915 26.7527 36.25 28.3424 36.25 30C36.25 31.6576 35.5915 33.2473 34.4194 34.4194C33.2473 35.5915 31.6576 36.25 30 36.25C28.3424 36.25 26.7527 35.5915 25.5806 34.4194C24.4085 33.2473 23.75 31.6576 23.75 30C23.75 28.3424 24.4085 26.7527 25.5806 25.5806C26.7527 24.4085 28.3424 23.75 30 23.75ZM30 26.25C29.0054 26.25 28.0516 26.6451 27.3483 27.3483C26.6451 28.0516 26.25 29.0054 26.25 30C26.25 30.9946 26.6451 31.9484 27.3483 32.6517C28.0516 33.3549 29.0054 33.75 30 33.75C30.9946 33.75 31.9484 33.3549 32.6517 32.6517C33.3549 31.9484 33.75 30.9946 33.75 30C33.75 29.0054 33.3549 28.0516 32.6517 27.3483C31.9484 26.6451 30.9946 26.25 30 26.25Z" fill="#FFF9F8"/>
</svg>
