<svg width="42" height="42" viewBox="0 0 42 42" fill="none" xmlns="http://www.w3.org/2000/svg">
<circle cx="21" cy="21" r="21" fill="#631AFF"/>
<path fill-rule="evenodd" clip-rule="evenodd" d="M21 13.3C21.2918 13.3 21.5716 13.4159 21.7779 13.6222C21.9842 13.8285 22.1 14.1083 22.1 14.4V19.9H27.6C27.8918 19.9 28.1716 20.0159 28.3779 20.2222C28.5842 20.4285 28.7 20.7083 28.7 21C28.7 21.2918 28.5842 21.5716 28.3779 21.7779C28.1716 21.9842 27.8918 22.1 27.6 22.1H22.1V27.6C22.1 27.8918 21.9842 28.1716 21.7779 28.3779C21.5716 28.5842 21.2918 28.7 21 28.7C20.7083 28.7 20.4285 28.5842 20.2222 28.3779C20.0159 28.1716 19.9 27.8918 19.9 27.6V22.1H14.4C14.1083 22.1 13.8285 21.9842 13.6222 21.7779C13.4159 21.5716 13.3 21.2918 13.3 21C13.3 20.7083 13.4159 20.4285 13.6222 20.2222C13.8285 20.0159 14.1083 19.9 14.4 19.9H19.9V14.4C19.9 14.1083 20.0159 13.8285 20.2222 13.6222C20.4285 13.4159 20.7083 13.3 21 13.3Z" fill="#FFF9F8"/>
</svg>
