<svg width="60" height="60" viewBox="0 0 60 60" fill="none" xmlns="http://www.w3.org/2000/svg">
<circle cx="30" cy="30" r="30" fill="#FFF9F8" fill-opacity="0.2"/>
<path d="M38.8125 21.1376C37.6665 19.98 36.3015 19.0622 34.797 18.4376C33.2926 17.8131 31.6789 17.4944 30.05 17.5001C23.225 17.5001 17.6625 23.0626 17.6625 29.8876C17.6625 32.0751 18.2375 34.2001 19.3125 36.0751L17.5625 42.5001L24.125 40.7751C25.9375 41.7626 27.975 42.2876 30.05 42.2876C36.875 42.2876 42.4375 36.7251 42.4375 29.9001C42.4375 26.5876 41.15 23.4751 38.8125 21.1376ZM30.05 40.1876C28.2 40.1876 26.3875 39.6876 24.8 38.7501L24.425 38.5251L20.525 39.5501L21.5625 35.7501L21.3125 35.3626C20.2847 33.7213 19.7389 31.8241 19.7375 29.8876C19.7375 24.2126 24.3625 19.5876 30.0375 19.5876C32.7875 19.5876 35.375 20.6626 37.3125 22.6126C38.2719 23.5675 39.0321 24.7034 39.5492 25.9544C40.0664 27.2053 40.33 28.5465 40.325 29.9001C40.35 35.5751 35.725 40.1876 30.05 40.1876ZM35.7 32.4876C35.3875 32.3376 33.8625 31.5876 33.5875 31.4751C33.3 31.3751 33.1 31.3251 32.8875 31.6251C32.675 31.9376 32.0875 32.6376 31.9125 32.8376C31.7375 33.0501 31.55 33.0751 31.2375 32.9126C30.925 32.7626 29.925 32.4251 28.75 31.3751C27.825 30.5501 27.2125 29.5376 27.025 29.2251C26.85 28.9126 27 28.7501 27.1625 28.5876C27.3 28.4501 27.475 28.2251 27.625 28.0501C27.775 27.8751 27.8375 27.7376 27.9375 27.5376C28.0375 27.3251 27.9875 27.1501 27.9125 27.0001C27.8375 26.8501 27.2125 25.3251 26.9625 24.7001C26.7125 24.1001 26.45 24.1751 26.2625 24.1626H25.6625C25.45 24.1626 25.125 24.2376 24.8375 24.5501C24.5625 24.8626 23.7625 25.6126 23.7625 27.1376C23.7625 28.6626 24.875 30.1376 25.025 30.3376C25.175 30.5501 27.2125 33.6751 30.3125 35.0126C31.05 35.3376 31.625 35.5251 32.075 35.6626C32.8125 35.9001 33.4875 35.8626 34.025 35.7876C34.625 35.7001 35.8625 35.0376 36.1125 34.3126C36.375 33.5876 36.375 32.9751 36.2875 32.8376C36.2 32.7001 36.0125 32.6376 35.7 32.4876Z" fill="#FFF9F8"/>
</svg>
