<svg width="32" height="33" viewBox="0 0 32 33" fill="none" xmlns="http://www.w3.org/2000/svg">
<path d="M27 2.67188H5C3.61929 2.67188 2.5 3.79116 2.5 5.17188V20.1719C2.5 21.5526 3.61929 22.6719 5 22.6719H27C28.3807 22.6719 29.5 21.5526 29.5 20.1719V5.17188C29.5 3.79116 28.3807 2.67188 27 2.67188Z" stroke="white" stroke-opacity="0.4" stroke-width="3"/>
<path d="M18 24.1719H14V28.1719H18V24.1719Z" fill="white" fill-opacity="0.4"/>
<path d="M24.5 28.1719H7.5C6.67157 28.1719 6 28.8434 6 29.6719C6 30.5003 6.67157 31.1719 7.5 31.1719H24.5C25.3284 31.1719 26 30.5003 26 29.6719C26 28.8434 25.3284 28.1719 24.5 28.1719Z" fill="white" fill-opacity="0.4"/>
<path d="M22.5 8.17188H9.5C8.67157 8.17188 8 8.84345 8 9.67188C8 10.5003 8.67157 11.1719 9.5 11.1719H22.5C23.3284 11.1719 24 10.5003 24 9.67188C24 8.84345 23.3284 8.17188 22.5 8.17188Z" fill="#C568E5"/>
<path d="M15.5 14.1719H9.5C8.67157 14.1719 8 14.8434 8 15.6719C8 16.5003 8.67157 17.1719 9.5 17.1719H15.5C16.3284 17.1719 17 16.5003 17 15.6719C17 14.8434 16.3284 14.1719 15.5 14.1719Z" fill="#C568E5"/>
</svg>
