<svg width="13" height="12" viewBox="0 0 13 12" fill="none" xmlns="http://www.w3.org/2000/svg">
<g clip-path="url(#clip0_1_4464)">
<path d="M6.73438 11.4001C9.71672 11.4001 12.1344 8.98244 12.1344 6.0001C12.1344 3.01776 9.71672 0.600098 6.73438 0.600098C3.75204 0.600098 1.33438 3.01776 1.33438 6.0001C1.33438 8.98244 3.75204 11.4001 6.73438 11.4001Z" stroke="#8D8D99" stroke-width="1.2"/>
<path d="M5.68549 7.81781L5.68692 7.81935C5.71487 7.84946 5.74502 7.8758 5.77679 7.89838C5.99915 8.05645 6.30133 8.03011 6.49708 7.81935L9.06658 5.05291C9.2903 4.81204 9.2903 4.42152 9.06658 4.18065C8.84286 3.93978 8.48013 3.93978 8.25641 4.18065L6.09199 6.51096L5.21234 5.56387C4.98862 5.323 4.62589 5.323 4.40216 5.56387C4.17844 5.80474 4.17844 6.19526 4.40216 6.43613L5.68549 7.81781Z" fill="#8D8D99"/>
</g>
<defs>
<clipPath id="clip0_1_4464">
<rect width="12" height="12" fill="white" transform="translate(0.734375)"/>
</clipPath>
</defs>
</svg>
