<svg width="23" height="23" viewBox="0 0 23 23" fill="none" xmlns="http://www.w3.org/2000/svg">
<g clip-path="url(#clip0_1_3304)">
<path d="M4.76558 15.239C4.76558 11.8883 7.57849 9.17243 10.8337 9.17243L12.7065 9.17188C15.9623 9.17188 18.7659 11.8883 18.7659 15.2384V18.6715C18.7659 18.9368 18.6605 19.1913 18.4729 19.3789C18.2853 19.5665 18.0309 19.6719 17.7656 19.6719H5.76594C5.50063 19.6719 5.24618 19.5665 5.05858 19.3789C4.87097 19.1913 4.76558 18.9368 4.76558 18.6715V15.239ZM10.8337 11.1724C8.66192 11.1724 6.76558 13.0139 6.76558 15.239V17.6719H16.7659V15.2384C16.7659 13.0101 14.8746 11.1722 12.7065 11.1719L10.8337 11.1724Z" fill="#8A8F98"/>
<path d="M14.2407 6.14706C13.5905 6.79731 12.7108 7.16529 11.7919 7.17214L11.7657 7.17224L11.7416 7.17215C10.822 7.16582 9.94148 6.79779 9.29076 6.14706C8.63435 5.49065 8.26558 4.60037 8.26558 3.67206C8.26558 2.74375 8.63435 1.85346 9.29076 1.19705C9.94717 0.540643 10.8374 0.171875 11.7657 0.171875C12.694 0.171875 13.5843 0.540643 14.2407 1.19705C14.8972 1.85346 15.2659 2.74375 15.2659 3.67206C15.2659 4.60037 14.8972 5.49065 14.2407 6.14706ZM11.7657 2.17188C11.3679 2.17188 10.9863 2.32993 10.705 2.61126C10.4236 2.8926 10.2656 3.27418 10.2656 3.67206C10.2656 4.06993 10.4236 4.4515 10.705 4.73284C10.9863 5.01418 11.3679 5.17224 11.7657 5.17224C12.1636 5.17224 12.5452 5.01418 12.8265 4.73284C13.1079 4.4515 13.2659 4.06994 13.2659 3.67206C13.2659 3.27418 13.1079 2.8926 12.8265 2.61126C12.5452 2.32993 12.1636 2.17188 11.7657 2.17188Z" fill="#8A8F98"/>
<path d="M7.26558 6.92188C7.26558 8.16452 6.25822 9.17188 5.01558 9.17188C3.77294 9.17188 2.76558 8.16452 2.76558 6.92188C2.76558 5.67923 3.77294 4.67188 5.01558 4.67188C6.25822 4.67188 7.26558 5.67923 7.26558 6.92188Z" fill="#8A8F98"/>
<path d="M4.81005 10.1719C2.36859 10.1719 1.26587 12.2092 1.26587 14.7221V17.4221C1.26587 17.8366 1.60187 18.1721 2.01587 18.1721H3.26587V15.1721C3.26587 11.5431 4.97471 10.7236 5.99144 10.236L6.09078 10.1883C5.96641 10.1774 5.84097 10.1719 5.71442 10.1719H4.81005Z" fill="#8A8F98"/>
<path d="M18.7196 10.1719C21.1611 10.1719 22.2638 12.2092 22.2638 14.7221V17.4221C22.2638 17.8366 21.9278 18.1721 21.5138 18.1721H20.2638V15.1721C20.2638 11.5431 18.555 10.7236 17.5382 10.236L17.4389 10.1883C17.5633 10.1774 17.6887 10.1719 17.8153 10.1719H18.7196Z" fill="#8A8F98"/>
<path d="M18.5156 9.17188C19.7582 9.17188 20.7656 8.16452 20.7656 6.92188C20.7656 5.67923 19.7582 4.67188 18.5156 4.67188C17.2729 4.67188 16.2656 5.67923 16.2656 6.92188C16.2656 8.16452 17.2729 9.17188 18.5156 9.17188Z" fill="#8A8F98"/>
</g>
<defs>
<clipPath id="clip0_1_3304">
<rect width="22" height="22" fill="white" transform="translate(0.765625 0.171875)"/>
</clipPath>
</defs>
</svg>
