<svg width="75" height="74" viewBox="0 0 75 74" fill="none" xmlns="http://www.w3.org/2000/svg">
<rect x="0.516602" y="0.5" width="73" height="73" rx="36.5" fill="#141414"/>
<rect x="0.516602" y="0.5" width="73" height="73" rx="36.5" stroke="#703BF7"/>
<path fill-rule="evenodd" clip-rule="evenodd" d="M35.2998 24.5485C35.935 23.0214 38.0983 23.0214 38.7334 24.5485L41.6829 31.6399L49.3387 32.2537C50.9873 32.3858 51.6558 34.4433 50.3997 35.5192L44.5668 40.5157L46.3489 47.9865C46.7326 49.5953 44.9825 50.8668 43.571 50.0047L37.0166 46.0013L30.4622 50.0047C29.0507 50.8668 27.3006 49.5953 27.6843 47.9865L29.4664 40.5157L23.6335 35.5192C22.3774 34.4433 23.0459 32.3858 24.6945 32.2537L32.3503 31.6399L35.2998 24.5485Z" fill="#A685FA"/>
</svg>
