<svg width="32" height="33" viewBox="0 0 32 33" fill="none" xmlns="http://www.w3.org/2000/svg">
<path d="M30.6667 5.50528C30.6667 4.03862 29.4667 2.83862 28 2.83862H4C2.53334 2.83862 1.33334 4.03862 1.33334 5.50528V22.8534C1.33334 24.2002 2.53334 25.5201 4 25.5201H10.3448L13.9699 29.5053C14.6429 30.1743 15.0888 30.3468 16 30.4399C16.552 30.448 17.4003 30.1843 18 29.5053L21.6552 25.5201H28C29.4667 25.5201 30.6667 24.3201 30.6667 22.8534V5.50528ZM4 5.50528H28V22.8534H20.6667L16 27.7339L11.3333 22.8534H4V5.50528Z" fill="white"/>
<path d="M10.6667 9.50537H21.3333C22.0697 9.50537 22.6667 10.1023 22.6667 10.8387C22.6667 11.5751 22.0697 12.1721 21.3333 12.1721H10.6667C9.9303 12.1721 9.33334 11.5751 9.33334 10.8387C9.33334 10.1023 9.9303 9.50537 10.6667 9.50537Z" fill="#60646B"/>
<path d="M10.6667 14.8387H16C16.7364 14.8387 17.3333 15.4357 17.3333 16.1721C17.3333 16.9084 16.7364 17.5054 16 17.5054H10.6667C9.9303 17.5054 9.33334 16.9084 9.33334 16.1721C9.33334 15.4357 9.9303 14.8387 10.6667 14.8387Z" fill="#60646B"/>
</svg>
