<svg width="75" height="74" viewBox="0 0 75 74" fill="none" xmlns="http://www.w3.org/2000/svg">
<rect x="1.38788" y="0.5" width="73" height="73" rx="36.5" fill="#141414"/>
<rect x="1.38788" y="0.5" width="73" height="73" rx="36.5" stroke="#703BF7"/>
<path d="M37.4626 23.9742C37.7338 23.8557 38.0422 23.8557 38.3134 23.9742C43.5817 26.276 48.5748 29.0899 53.2297 32.3527C53.5666 32.5888 53.7369 32.9982 53.6669 33.4036C53.5968 33.809 53.2991 34.1375 52.9026 34.247C51.9323 34.5148 50.9703 34.8032 50.0171 35.1107C46.1481 36.3584 42.4237 37.9284 38.8755 39.7891L38.8709 39.7915C38.71 39.8759 38.5495 39.9609 38.3893 40.0464C38.0765 40.2136 37.7008 40.2136 37.3879 40.0464C37.2262 39.9601 37.0642 39.8743 36.9018 39.7891C35.1473 38.8691 33.3497 38.0201 31.5129 37.246V36.9291C31.5129 36.743 31.6084 36.5779 31.7562 36.4884C33.8884 35.1966 36.0878 34.0047 38.3479 32.9191C38.8769 32.665 39.0997 32.0303 38.8456 31.5013C38.5916 30.9724 37.9568 30.7495 37.4278 31.0036C35.1056 32.1191 32.8458 33.3437 30.6551 34.6709C30.0128 35.06 29.581 35.6969 29.439 36.4103C28.2278 35.9445 27.0008 35.5105 25.7588 35.11C24.8056 34.8026 23.8437 34.5148 22.8734 34.2469C22.4768 34.1375 22.1791 33.8089 22.1091 33.4036C22.0391 32.9982 22.2094 32.5888 22.5462 32.3527C27.2012 29.0898 32.1943 26.276 37.4626 23.9742Z" fill="#A685FA"/>
<path d="M39.3908 41.9207C42.8458 40.0746 46.4758 38.514 50.2494 37.27C50.4396 39.2743 50.561 41.2985 50.6113 43.3403C50.6221 43.7783 50.3629 44.1781 49.9585 44.3469C45.9194 46.0333 42.0775 48.0982 38.4771 50.4975C38.1203 50.7353 37.6555 50.7353 37.2987 50.4975C33.6983 48.0982 29.8564 46.0333 25.8173 44.3469C25.4129 44.1781 25.1537 43.7783 25.1645 43.3403C25.2148 41.2984 25.3362 39.274 25.5264 37.2695C26.8312 37.6996 28.1188 38.1676 29.3879 38.6721V40.4718C28.7527 40.8392 28.3254 41.5259 28.3254 42.3125C28.3254 43.0142 28.6655 43.6365 29.1899 44.0234C29.063 44.5627 28.8754 45.0903 28.6268 45.5956C29.2681 45.8983 29.9039 46.2107 30.5341 46.5327C30.893 45.8027 31.1532 45.0366 31.3147 44.2543C32.0576 43.9232 32.5754 43.1783 32.5754 42.3125C32.5754 41.5259 32.148 40.8392 31.5129 40.4718V39.5584C33.1724 40.2834 34.7979 41.0719 36.3865 41.9207C37.3251 42.4222 38.4521 42.4222 39.3908 41.9207Z" fill="#A685FA"/>
<path d="M27.2094 47.5716C27.8031 46.9778 28.2758 46.309 28.6268 45.5956C29.2681 45.8983 29.9039 46.2107 30.5341 46.5327C30.0828 47.4505 29.4752 48.3109 28.712 49.0742C28.297 49.4891 27.6243 49.4891 27.2094 49.0742C26.7944 48.6593 26.7944 47.9865 27.2094 47.5716Z" fill="#A685FA"/>
</svg>
