<svg width="560" height="291" viewBox="0 0 560 291" fill="none" xmlns="http://www.w3.org/2000/svg">
<g clip-path="url(#clip0_1_2606)">
<g filter="url(#filter0_d_1_2606)">
<path d="M217.305 28.5666C217.305 22.1303 217.305 18.9122 218.557 16.4538C219.659 14.2915 221.417 12.5333 223.579 11.4315C226.038 10.179 229.255 10.179 235.692 10.179H331.075C337.511 10.179 340.729 10.179 343.187 11.4315C345.35 12.5333 347.108 14.2915 348.209 16.4538C349.462 18.9122 349.462 22.1303 349.462 28.5666V37.7604C349.462 44.1967 349.462 47.4148 348.209 49.8732C347.108 52.0355 345.35 53.7937 343.187 54.8955C340.729 56.1481 337.511 56.1481 331.075 56.1481H235.692C229.255 56.1481 226.038 56.1481 223.579 54.8955C221.417 53.7937 219.659 52.0355 218.557 49.8732C217.305 47.4148 217.305 44.1967 217.305 37.7604V28.5666Z" fill="white" fill-opacity="0.06"/>
<path d="M217.783 28.5666C217.783 25.3406 217.783 22.9499 217.939 21.0575C218.093 19.1707 218.397 17.8216 218.983 16.6713C220.04 14.5989 221.724 12.9142 223.797 11.8582C224.947 11.2721 226.296 10.967 228.183 10.8128C230.075 10.6582 232.465 10.6578 235.692 10.6578H331.075C334.301 10.6578 336.692 10.6582 338.584 10.8128C340.47 10.967 341.82 11.2721 342.97 11.8582C345.042 12.9142 346.727 14.5989 347.783 16.6713C348.369 17.8216 348.674 19.1707 348.828 21.0575C348.983 22.9499 348.983 25.3406 348.983 28.5666V37.7605C348.983 40.9865 348.983 43.3772 348.828 45.2696C348.674 47.1563 348.369 48.5054 347.783 49.6558C346.727 51.7282 345.042 53.4129 342.97 54.4689C341.82 55.055 340.47 55.3601 338.584 55.5143C336.692 55.6689 334.301 55.6693 331.075 55.6693H235.692C232.465 55.6693 230.075 55.6689 228.183 55.5143C226.296 55.3601 224.947 55.055 223.797 54.4689C221.724 53.4129 220.04 51.7282 218.983 49.6558C218.397 48.5054 218.093 47.1563 217.939 45.2696C217.783 43.3772 217.783 40.9865 217.783 37.7605V28.5666Z" stroke="white" stroke-opacity="0.1"/>
<path d="M228.797 27.8005C228.797 25.6551 228.797 24.5824 229.214 23.7629C229.581 23.0421 230.167 22.4561 230.888 22.0888C231.708 21.6713 232.78 21.6713 234.926 21.6713H245.651C247.797 21.6713 248.869 21.6713 249.689 22.0888C250.41 22.4561 250.996 23.0421 251.363 23.7629C251.78 24.5824 251.78 25.6551 251.78 27.8005V38.5266C251.78 40.672 251.78 41.7447 251.363 42.5642C250.996 43.285 250.41 43.871 249.689 44.2383C248.869 44.6558 247.797 44.6558 245.651 44.6558H234.926C232.78 44.6558 231.708 44.6558 230.888 44.2383C230.167 43.871 229.581 43.285 229.214 42.5642C228.797 41.7447 228.797 40.672 228.797 38.5266V27.8005Z" fill="white" fill-opacity="0.1"/>
<path d="M332.224 27.4174H265.188C262.014 27.4174 259.442 29.99 259.442 33.1635C259.442 36.337 262.014 38.9096 265.188 38.9096H332.224C335.397 38.9096 337.97 36.337 337.97 33.1635C337.97 29.99 335.397 27.4174 332.224 27.4174Z" fill="white" fill-opacity="0.06"/>
</g>
<g filter="url(#filter1_d_1_2606)">
<path d="M20.0262 135.828C20.0262 129.391 20.0262 126.173 21.2787 123.715C22.3805 121.553 24.1386 119.794 26.3009 118.693C28.7592 117.44 31.9773 117.44 38.4133 117.44H170.188C176.624 117.44 179.842 117.44 182.3 118.693C184.463 119.794 186.221 121.553 187.322 123.715C188.575 126.173 188.575 129.391 188.575 135.828V145.022C188.575 151.458 188.575 154.676 187.322 157.135C186.221 159.297 184.463 161.055 182.3 162.157C179.842 163.409 176.624 163.409 170.188 163.409H38.4133C31.9773 163.409 28.7592 163.409 26.3009 162.157C24.1386 161.055 22.3805 159.297 21.2787 157.135C20.0262 154.676 20.0262 151.458 20.0262 145.022V135.828Z" fill="white" fill-opacity="0.06"/>
<path d="M38.4133 117.919H170.188C173.414 117.919 175.804 117.919 177.697 118.074C179.583 118.228 180.933 118.533 182.083 119.119C184.155 120.175 185.84 121.86 186.896 123.932C187.482 125.083 187.787 126.432 187.941 128.319C188.096 130.211 188.096 132.601 188.096 135.828V145.022C188.096 148.248 188.096 150.639 187.941 152.531C187.787 154.418 187.482 155.767 186.896 156.917C185.84 158.99 184.155 160.674 182.083 161.73C180.933 162.317 179.583 162.621 177.697 162.775C175.804 162.93 173.414 162.93 170.188 162.93H38.4133C35.1873 162.93 32.7967 162.93 30.9044 162.775C29.0177 162.621 27.6686 162.317 26.5183 161.73C24.446 160.674 22.7613 158.99 21.7054 156.917C21.1193 155.767 20.8142 154.418 20.66 152.531C20.5054 150.639 20.505 148.248 20.505 145.022V135.828C20.505 132.601 20.5054 130.211 20.66 128.319C20.8142 126.432 21.1193 125.083 21.7054 123.932C22.7613 121.86 24.446 120.175 26.5183 119.119C27.6686 118.533 29.0177 118.228 30.9044 118.074C32.7967 117.919 35.1873 117.919 38.4133 117.919Z" stroke="white" stroke-opacity="0.1"/>
<mask id="mask0_1_2606" style="mask-type:luminance" maskUnits="userSpaceOnUse" x="31" y="128" width="24" height="24">
<path d="M31.5182 135.062C31.5182 132.916 31.5182 131.844 31.9357 131.024C32.303 130.303 32.889 129.717 33.6097 129.35C34.4292 128.932 35.5018 128.932 37.6472 128.932H48.373C50.5184 128.932 51.591 128.932 52.4105 129.35C53.1313 129.717 53.7172 130.303 54.0845 131.024C54.502 131.844 54.502 132.916 54.502 135.062V145.788C54.502 147.933 54.502 149.006 54.0845 149.825C53.7172 150.547 53.1313 151.133 52.4105 151.499C51.591 151.917 50.5184 151.917 48.373 151.917H37.6472C35.5018 151.917 34.4292 151.917 33.6097 151.499C32.889 151.133 32.303 150.547 31.9357 149.825C31.5182 149.006 31.5182 147.933 31.5182 145.788V135.062Z" fill="white"/>
</mask>
<g mask="url(#mask0_1_2606)">
<path d="M31.5182 135.062C31.5182 132.916 31.5182 131.844 31.9357 131.024C32.303 130.303 32.889 129.717 33.6097 129.35C34.4292 128.932 35.5018 128.932 37.6472 128.932H48.373C50.5184 128.932 51.591 128.932 52.4105 129.35C53.1313 129.717 53.7172 130.303 54.0845 131.024C54.502 131.844 54.502 132.916 54.502 135.062V145.788C54.502 147.933 54.502 149.006 54.0845 149.825C53.7172 150.547 53.1313 151.133 52.4105 151.499C51.591 151.917 50.5184 151.917 48.373 151.917H37.6472C35.5018 151.917 34.4292 151.917 33.6097 151.499C32.889 151.133 32.303 150.547 31.9357 149.825C31.5182 149.006 31.5182 147.933 31.5182 145.788V135.062Z" fill="white" fill-opacity="0.1"/>
<path d="M31.5182 136.813C31.5182 134.054 31.5182 132.675 32.0549 131.622C32.5272 130.695 33.2806 129.942 34.2073 129.47C35.2609 128.932 36.64 128.932 39.3984 128.932H46.6218C49.3802 128.932 50.7593 128.932 51.8129 129.47C52.7396 129.942 53.4931 130.695 53.9653 131.622C54.502 132.675 54.502 134.054 54.502 136.813V144.036C54.502 146.795 54.502 148.174 53.9653 149.228C53.4931 150.155 52.7396 150.908 51.8129 151.38C50.7593 151.917 49.3802 151.917 46.6218 151.917H39.3984C36.64 151.917 35.2609 151.917 34.2073 151.38C33.2806 150.908 32.5272 150.155 32.0549 149.228C31.5182 148.174 31.5182 146.795 31.5182 144.036V136.813Z" fill="white" fill-opacity="0.1"/>
</g>
<path d="M171.337 134.679H71.74C68.5665 134.679 65.994 137.251 65.994 140.425C65.994 143.598 68.5665 146.171 71.74 146.171H171.337C174.51 146.171 177.083 143.598 177.083 140.425C177.083 137.251 174.51 134.679 171.337 134.679Z" fill="white" fill-opacity="0.06"/>
</g>
<g filter="url(#filter2_d_1_2606)">
<path d="M339.885 82.1972C339.885 75.761 339.885 72.5428 341.138 70.0845C342.239 67.9221 343.998 66.164 346.16 65.0621C348.618 63.8096 351.836 63.8096 358.273 63.8096H493.877C500.314 63.8096 503.532 63.8096 505.99 65.0621C508.152 66.164 509.911 67.9221 511.012 70.0845C512.265 72.5428 512.265 75.761 512.265 82.1972V91.391C512.265 97.8277 512.265 101.046 511.012 103.504C509.911 105.666 508.152 107.425 505.99 108.526C503.532 109.779 500.314 109.779 493.877 109.779H358.273C351.836 109.779 348.618 109.779 346.16 108.526C343.998 107.425 342.239 105.666 341.138 103.504C339.885 101.046 339.885 97.8277 339.885 91.391V82.1972Z" fill="white" fill-opacity="0.06"/>
<path d="M340.364 82.1972C340.364 78.9712 340.364 76.5805 340.519 74.6881C340.674 72.8014 340.978 71.4523 341.564 70.3019C342.62 68.2295 344.305 66.5448 346.377 65.4888C347.528 64.9027 348.877 64.5976 350.763 64.4434C352.656 64.2888 355.046 64.2885 358.273 64.2885H493.877C497.104 64.2885 499.494 64.2888 501.386 64.4434C503.273 64.5976 504.622 64.9027 505.773 65.4888C507.845 66.5448 509.529 68.2295 510.586 70.3019C511.172 71.4523 511.476 72.8014 511.631 74.6881C511.786 76.5805 511.786 78.9712 511.786 82.1972V91.3911C511.786 94.6171 511.786 97.0079 511.631 98.9003C511.476 100.787 511.172 102.136 510.586 103.287C509.529 105.359 507.845 107.044 505.773 108.1C504.622 108.686 503.273 108.991 501.386 109.145C499.494 109.3 497.104 109.3 493.877 109.3H358.273C355.046 109.3 352.656 109.3 350.763 109.145C348.877 108.991 347.528 108.686 346.377 108.1C344.305 107.044 342.62 105.359 341.564 103.287C340.978 102.136 340.674 100.787 340.519 98.9003C340.364 97.0079 340.364 94.6171 340.364 91.3911V82.1972Z" stroke="white" stroke-opacity="0.1"/>
<path d="M370.531 75.3019H355.208C353.092 75.3019 351.377 77.017 351.377 79.1326V94.4557C351.377 96.5713 353.092 98.2864 355.208 98.2864H370.531C372.646 98.2864 374.361 96.5713 374.361 94.4557V79.1326C374.361 77.017 372.646 75.3019 370.531 75.3019Z" fill="white" fill-opacity="0.1"/>
<path d="M495.027 81.048H391.599C388.426 81.048 385.853 83.6206 385.853 86.7941C385.853 89.9676 388.426 92.5402 391.599 92.5402H495.027C498.2 92.5402 500.773 89.9676 500.773 86.7941C500.773 83.6206 498.2 81.048 495.027 81.048Z" fill="white" fill-opacity="0.06"/>
</g>
<g filter="url(#filter3_d_1_2606)">
<path d="M49.7137 82.1972C49.7137 75.761 49.7137 72.5428 50.9663 70.0845C52.0681 67.9221 53.8261 66.164 55.9884 65.0621C58.4468 63.8096 61.6648 63.8096 68.1009 63.8096H180.722C187.158 63.8096 190.376 63.8096 192.834 65.0621C194.997 66.164 196.755 67.9221 197.856 70.0845C199.109 72.5428 199.109 75.761 199.109 82.1972V91.391C199.109 97.8277 199.109 101.046 197.856 103.504C196.755 105.666 194.997 107.425 192.834 108.526C190.376 109.779 187.158 109.779 180.722 109.779H68.1009C61.6648 109.779 58.4468 109.779 55.9884 108.526C53.8261 107.425 52.0681 105.666 50.9663 103.504C49.7137 101.046 49.7137 97.8277 49.7137 91.391V82.1972Z" fill="white" fill-opacity="0.06"/>
<path d="M50.1926 82.1972C50.1926 78.9712 50.1929 76.5805 50.3475 74.6881C50.5017 72.8014 50.8068 71.4523 51.3929 70.3019C52.4488 68.2295 54.1335 66.5448 56.2058 65.4888C57.3562 64.9027 58.7052 64.5976 60.5919 64.4434C62.4843 64.2888 64.8749 64.2885 68.1008 64.2885H180.722C183.948 64.2885 186.339 64.2888 188.231 64.4434C190.118 64.5976 191.467 64.9027 192.617 65.4888C194.689 66.5448 196.374 68.2295 197.43 70.3019C198.016 71.4523 198.321 72.8014 198.475 74.6881C198.63 76.5805 198.63 78.9712 198.63 82.1972V91.3911C198.63 94.6171 198.63 97.0079 198.475 98.9003C198.321 100.787 198.016 102.136 197.43 103.287C196.374 105.359 194.689 107.044 192.617 108.1C191.467 108.686 190.118 108.991 188.231 109.145C186.339 109.3 183.948 109.3 180.722 109.3H68.1008C64.8749 109.3 62.4843 109.3 60.5919 109.145C58.7052 108.991 57.3562 108.686 56.2058 108.1C54.1335 107.044 52.4488 105.359 51.3929 103.287C50.8068 102.136 50.5017 100.787 50.3475 98.9003C50.1929 97.0079 50.1926 94.6171 50.1926 91.3911V82.1972Z" stroke="white" stroke-opacity="0.1"/>
<path d="M61.2057 81.4311C61.2057 79.2857 61.2057 78.213 61.6232 77.3935C61.9905 76.6727 62.5765 76.0867 63.2972 75.7194C64.1167 75.3019 65.1894 75.3019 67.3347 75.3019H78.0605C80.2059 75.3019 81.2786 75.3019 82.098 75.7194C82.8188 76.0867 83.4048 76.6727 83.772 77.3935C84.1896 78.213 84.1896 79.2857 84.1896 81.4311V92.1572C84.1896 94.3026 84.1896 95.3753 83.772 96.1948C83.4048 96.916 82.8188 97.5021 82.098 97.8689C81.2786 98.2864 80.2059 98.2864 78.0605 98.2864H67.3347C65.1894 98.2864 64.1167 98.2864 63.2972 97.8689C62.5765 97.5021 61.9905 96.916 61.6232 96.1948C61.2057 95.3753 61.2057 94.3026 61.2057 92.1572V81.4311Z" fill="white" fill-opacity="0.1"/>
<path d="M181.871 81.048H101.427C98.2541 81.048 95.6815 83.6206 95.6815 86.7941C95.6815 89.9676 98.2541 92.5402 101.427 92.5402H181.871C185.045 92.5402 187.617 89.9676 187.617 86.7941C187.617 83.6206 185.045 81.048 181.871 81.048Z" fill="white" fill-opacity="0.06"/>
</g>
<g filter="url(#filter4_d_1_2606)">
<path d="M206.77 82.1972C206.77 75.761 206.77 72.5428 208.023 70.0845C209.124 67.9221 210.883 66.164 213.045 65.0621C215.503 63.8096 218.721 63.8096 225.157 63.8096H313.837C320.273 63.8096 323.491 63.8096 325.949 65.0621C328.112 66.164 329.87 67.9221 330.971 70.0845C332.224 72.5428 332.224 75.761 332.224 82.1972V91.391C332.224 97.8277 332.224 101.046 330.971 103.504C329.87 105.666 328.112 107.425 325.949 108.526C323.491 109.779 320.273 109.779 313.837 109.779H225.157C218.721 109.779 215.503 109.779 213.045 108.526C210.883 107.425 209.124 105.666 208.023 103.504C206.77 101.046 206.77 97.8277 206.77 91.391V82.1972Z" fill="white" fill-opacity="0.06"/>
<path d="M207.249 82.1972C207.249 78.9712 207.249 76.5805 207.404 74.6881C207.558 72.8014 207.863 71.4523 208.449 70.3019C209.505 68.2295 211.19 66.5448 213.262 65.4888C214.412 64.9027 215.762 64.5976 217.648 64.4434C219.541 64.2888 221.931 64.2885 225.157 64.2885H313.837C317.063 64.2885 319.454 64.2888 321.346 64.4434C323.233 64.5976 324.582 64.9027 325.732 65.4888C327.804 66.5448 329.489 68.2295 330.545 70.3019C331.131 71.4523 331.436 72.8014 331.59 74.6881C331.745 76.5805 331.745 78.9712 331.745 82.1972V91.3911C331.745 94.6171 331.745 97.0079 331.59 98.9003C331.436 100.787 331.131 102.136 330.545 103.287C329.489 105.359 327.804 107.044 325.732 108.1C324.582 108.686 323.233 108.991 321.346 109.145C319.454 109.3 317.063 109.3 313.837 109.3H225.157C221.931 109.3 219.541 109.3 217.648 109.145C215.762 108.991 214.412 108.686 213.262 108.1C211.19 107.044 209.505 105.359 208.449 103.287C207.863 102.136 207.558 100.787 207.404 98.9003C207.249 97.0079 207.249 94.6171 207.249 91.3911V82.1972Z" stroke="white" stroke-opacity="0.1"/>
<path d="M218.262 81.4311C218.262 79.2857 218.262 78.213 218.68 77.3935C219.047 76.6727 219.633 76.0867 220.354 75.7194C221.174 75.3019 222.246 75.3019 224.391 75.3019H235.117C237.262 75.3019 238.335 75.3019 239.155 75.7194C239.876 76.0867 240.462 76.6727 240.829 77.3935C241.246 78.213 241.246 79.2857 241.246 81.4311V92.1572C241.246 94.3026 241.246 95.3753 240.829 96.1948C240.462 96.916 239.876 97.5021 239.155 97.8689C238.335 98.2864 237.262 98.2864 235.117 98.2864H224.391C222.246 98.2864 221.174 98.2864 220.354 97.8689C219.633 97.5021 219.047 96.916 218.68 96.1948C218.262 95.3753 218.262 94.3026 218.262 92.1572V81.4311Z" fill="white" fill-opacity="0.1"/>
<path d="M314.986 81.048H258.484C255.311 81.048 252.738 83.6206 252.738 86.7941C252.738 89.9676 255.311 92.5402 258.484 92.5402H314.986C318.16 92.5402 320.732 89.9676 320.732 86.7941C320.732 83.6206 318.16 81.048 314.986 81.048Z" fill="white" fill-opacity="0.06"/>
</g>
<g filter="url(#filter5_d_1_2606)">
<path d="M357.123 28.5666C357.123 22.1303 357.123 18.9122 358.376 16.4538C359.477 14.2915 361.235 12.5333 363.398 11.4315C365.856 10.179 369.074 10.179 375.51 10.179H511.115C517.552 10.179 520.77 10.179 523.228 11.4315C525.39 12.5333 527.149 14.2915 528.25 16.4538C529.502 18.9122 529.502 22.1303 529.502 28.5666V37.7604C529.502 44.1967 529.502 47.4148 528.25 49.8732C527.149 52.0355 525.39 53.7937 523.228 54.8955C520.77 56.1481 517.552 56.1481 511.115 56.1481H375.51C369.074 56.1481 365.856 56.1481 363.398 54.8955C361.235 53.7937 359.477 52.0355 358.376 49.8732C357.123 47.4148 357.123 44.1967 357.123 37.7604V28.5666Z" fill="white" fill-opacity="0.06"/>
<path d="M357.602 28.5666C357.602 25.3406 357.602 22.9499 357.757 21.0575C357.911 19.1707 358.216 17.8216 358.802 16.6713C359.858 14.5989 361.543 12.9142 363.615 11.8582C364.765 11.2721 366.115 10.967 368.001 10.8128C369.894 10.6582 372.284 10.6578 375.51 10.6578H511.115C514.342 10.6578 516.732 10.6582 518.624 10.8128C520.511 10.967 521.86 11.2721 523.011 11.8582C525.083 12.9142 526.767 14.5989 527.824 16.6713C528.41 17.8216 528.714 19.1707 528.869 21.0575C529.024 22.9499 529.024 25.3406 529.024 28.5666V37.7605C529.024 40.9865 529.024 43.3772 528.869 45.2696C528.714 47.1563 528.41 48.5054 527.824 49.6558C526.767 51.7282 525.083 53.4129 523.011 54.4689C521.86 55.055 520.511 55.3601 518.624 55.5143C516.732 55.6689 514.342 55.6693 511.115 55.6693H375.51C372.284 55.6693 369.894 55.6689 368.001 55.5143C366.115 55.3601 364.765 55.055 363.615 54.4689C361.543 53.4129 359.858 51.7282 358.802 49.6558C358.216 48.5054 357.911 47.1563 357.757 45.2696C357.602 43.3772 357.602 40.9865 357.602 37.7605V28.5666Z" stroke="white" stroke-opacity="0.1"/>
<path d="M368.615 27.8005C368.615 25.6551 368.615 24.5824 369.033 23.7629C369.4 23.0421 369.986 22.4561 370.707 22.0888C371.527 21.6713 372.599 21.6713 374.744 21.6713H385.47C387.615 21.6713 388.688 21.6713 389.508 22.0888C390.229 22.4561 390.815 23.0421 391.182 23.7629C391.599 24.5824 391.599 25.6551 391.599 27.8005V38.5266C391.599 40.672 391.599 41.7447 391.182 42.5642C390.815 43.285 390.229 43.871 389.508 44.2383C388.688 44.6558 387.615 44.6558 385.47 44.6558H374.744C372.599 44.6558 371.527 44.6558 370.707 44.2383C369.986 43.871 369.4 43.285 369.033 42.5642C368.615 41.7447 368.615 40.672 368.615 38.5266V27.8005Z" fill="white" fill-opacity="0.1"/>
<path d="M512.265 27.4174H408.837C405.664 27.4174 403.091 29.99 403.091 33.1635C403.091 36.337 405.664 38.9096 408.837 38.9096H512.265C515.438 38.9096 518.011 36.337 518.011 33.1635C518.011 29.99 515.438 27.4174 512.265 27.4174Z" fill="white" fill-opacity="0.06"/>
</g>
<g filter="url(#filter6_d_1_2606)">
<path d="M37.2642 28.5666C37.2642 22.1303 37.2642 18.9122 38.5167 16.4538C39.6185 14.2915 41.3766 12.5333 43.5389 11.4315C45.9972 10.179 49.2152 10.179 55.6513 10.179H191.256C197.693 10.179 200.91 10.179 203.369 11.4315C205.531 12.5333 207.289 14.2915 208.391 16.4538C209.643 18.9122 209.643 22.1303 209.643 28.5666V37.7604C209.643 44.1967 209.643 47.4148 208.391 49.8732C207.289 52.0355 205.531 53.7937 203.369 54.8955C200.91 56.1481 197.693 56.1481 191.256 56.1481H55.6513C49.2152 56.1481 45.9972 56.1481 43.5389 54.8955C41.3766 53.7937 39.6185 52.0355 38.5167 49.8732C37.2642 47.4148 37.2642 44.1967 37.2642 37.7604V28.5666Z" fill="white" fill-opacity="0.06"/>
<path d="M37.743 28.5666C37.743 25.3406 37.7434 22.9499 37.8979 21.0575C38.0521 19.1707 38.3572 17.8216 38.9433 16.6713C39.9992 14.5989 41.684 12.9142 43.7562 11.8582C44.9066 11.2721 46.2556 10.967 48.1423 10.8128C50.0347 10.6582 52.4253 10.6578 55.6513 10.6578H191.256C194.483 10.6578 196.873 10.6582 198.765 10.8128C200.652 10.967 202.001 11.2721 203.151 11.8582C205.224 12.9142 206.908 14.5989 207.965 16.6713C208.551 17.8216 208.855 19.1707 209.009 21.0575C209.165 22.9499 209.165 25.3406 209.165 28.5666V37.7605C209.165 40.9865 209.165 43.3772 209.009 45.2696C208.855 47.1563 208.551 48.5054 207.965 49.6558C206.908 51.7282 205.224 53.4129 203.151 54.4689C202.001 55.055 200.652 55.3601 198.765 55.5143C196.873 55.6689 194.483 55.6693 191.256 55.6693H55.6513C52.4253 55.6693 50.0347 55.6689 48.1423 55.5143C46.2556 55.3601 44.9066 55.055 43.7562 54.4689C41.684 53.4129 39.9992 51.7282 38.9433 49.6558C38.3572 48.5054 38.0521 47.1563 37.8979 45.2696C37.7434 43.3772 37.743 40.9865 37.743 37.7605V28.5666Z" stroke="white" stroke-opacity="0.1"/>
<path d="M48.7561 27.8005C48.7561 25.6551 48.7561 24.5824 49.1736 23.7629C49.5409 23.0421 50.1269 22.4561 50.8476 22.0888C51.6671 21.6713 52.7398 21.6713 54.8851 21.6713H65.611C67.7563 21.6713 68.829 21.6713 69.6485 22.0888C70.3692 22.4561 70.9552 23.0421 71.3225 23.7629C71.74 24.5824 71.74 25.6551 71.74 27.8005V38.5266C71.74 40.672 71.74 41.7447 71.3225 42.5642C70.9552 43.285 70.3692 43.871 69.6485 44.2383C68.829 44.6558 67.7563 44.6558 65.611 44.6558H54.8851C52.7398 44.6558 51.6671 44.6558 50.8476 44.2383C50.1269 43.871 49.5409 43.285 49.1736 42.5642C48.7561 41.7447 48.7561 40.672 48.7561 38.5266V27.8005Z" fill="white" fill-opacity="0.1"/>
<path d="M192.405 27.4174H88.9779C85.8045 27.4174 83.2319 29.99 83.2319 33.1635C83.2319 36.337 85.8045 38.9096 88.9779 38.9096H192.405C195.579 38.9096 198.151 36.337 198.151 33.1635C198.151 29.99 195.579 27.4174 192.405 27.4174Z" fill="white" fill-opacity="0.06"/>
</g>
<g filter="url(#filter7_d_1_2606)">
<path d="M13.3226 242.131C13.3226 235.695 13.3226 232.477 14.5751 230.019C15.6769 227.856 17.435 226.098 19.5973 224.996C22.0556 223.744 25.2737 223.744 31.7097 223.744H167.315C173.751 223.744 176.969 223.744 179.427 224.996C181.59 226.098 183.348 227.856 184.449 230.019C185.702 232.477 185.702 235.695 185.702 242.131V251.325C185.702 257.762 185.702 260.98 184.449 263.438C183.348 265.601 181.59 267.359 179.427 268.46C176.969 269.713 173.751 269.713 167.315 269.713H31.7097C25.2737 269.713 22.0556 269.713 19.5973 268.46C17.435 267.359 15.6769 265.601 14.5751 263.438C13.3226 260.98 13.3226 257.762 13.3226 251.325V242.131Z" fill="white" fill-opacity="0.06"/>
<path d="M13.8014 242.131C13.8014 238.905 13.8018 236.515 13.9564 234.622C14.1106 232.736 14.4157 231.386 15.0018 230.236C16.0577 228.164 17.7424 226.479 19.8147 225.423C20.965 224.837 22.3141 224.532 24.2008 224.378C26.0931 224.223 28.4837 224.223 31.7097 224.223H167.315C170.541 224.223 172.931 224.223 174.824 224.378C176.71 224.532 178.06 224.837 179.21 225.423C181.282 226.479 182.967 228.164 184.023 230.236C184.609 231.386 184.914 232.736 185.068 234.622C185.223 236.515 185.223 238.905 185.223 242.131V251.325C185.223 254.552 185.223 256.942 185.068 258.835C184.914 260.721 184.609 262.071 184.023 263.221C182.967 265.293 181.282 266.978 179.21 268.034C178.06 268.62 176.71 268.925 174.824 269.079C172.931 269.234 170.541 269.234 167.315 269.234H31.7097C28.4837 269.234 26.0931 269.234 24.2008 269.079C22.3141 268.925 20.965 268.62 19.8147 268.034C17.7424 266.978 16.0577 265.293 15.0018 263.221C14.4157 262.071 14.1106 260.721 13.9564 258.835C13.8018 256.942 13.8014 254.552 13.8014 251.325V242.131Z" stroke="white" stroke-opacity="0.1"/>
<path d="M24.8145 241.365C24.8145 239.22 24.8145 238.147 25.2321 237.328C25.5993 236.607 26.1853 236.02 26.9061 235.654C27.7256 235.236 28.7982 235.236 30.9436 235.236H41.6694C43.8148 235.236 44.8874 235.236 45.7069 235.654C46.4276 236.02 47.0136 236.607 47.3809 237.328C47.7984 238.147 47.7984 239.22 47.7984 241.365V252.091C47.7984 254.237 47.7984 255.309 47.3809 256.129C47.0136 256.85 46.4276 257.436 45.7069 257.803C44.8874 258.221 43.8148 258.221 41.6694 258.221H30.9436C28.7982 258.221 27.7256 258.221 26.9061 257.803C26.1853 257.436 25.5993 256.85 25.2321 256.129C24.8145 255.309 24.8145 254.237 24.8145 252.091V241.365Z" fill="white" fill-opacity="0.1"/>
<path d="M168.464 240.982H65.0363C61.8629 240.982 59.2904 243.555 59.2904 246.728C59.2904 249.902 61.8629 252.474 65.0363 252.474H168.464C171.637 252.474 174.21 249.902 174.21 246.728C174.21 243.555 171.637 240.982 168.464 240.982Z" fill="white" fill-opacity="0.06"/>
</g>
<g filter="url(#filter8_d_1_2606)">
<path d="M193.363 242.131C193.363 235.695 193.363 232.477 194.616 230.019C195.717 227.856 197.475 226.098 199.638 224.996C202.096 223.744 205.314 223.744 211.75 223.744H347.355C353.792 223.744 357.009 223.744 359.468 224.996C361.63 226.098 363.388 227.856 364.49 230.019C365.742 232.477 365.742 235.695 365.742 242.131V251.325C365.742 257.762 365.742 260.98 364.49 263.438C363.388 265.601 361.63 267.359 359.468 268.46C357.009 269.713 353.792 269.713 347.355 269.713H211.75C205.314 269.713 202.096 269.713 199.638 268.46C197.475 267.359 195.717 265.601 194.616 263.438C193.363 260.98 193.363 257.762 193.363 251.325V242.131Z" fill="white" fill-opacity="0.06"/>
<path d="M193.842 242.131C193.842 238.905 193.842 236.515 193.997 234.622C194.151 232.736 194.456 231.386 195.042 230.236C196.098 228.164 197.783 226.479 199.855 225.423C201.005 224.837 202.355 224.532 204.241 224.378C206.133 224.223 208.524 224.223 211.75 224.223H347.355C350.581 224.223 352.972 224.223 354.864 224.378C356.751 224.532 358.1 224.837 359.25 225.423C361.323 226.479 363.007 228.164 364.063 230.236C364.65 231.386 364.954 232.736 365.108 234.622C365.263 236.515 365.263 238.905 365.263 242.131V251.325C365.263 254.552 365.263 256.942 365.108 258.835C364.954 260.721 364.65 262.071 364.063 263.221C363.007 265.293 361.323 266.978 359.25 268.034C358.1 268.62 356.751 268.925 354.864 269.079C352.972 269.234 350.581 269.234 347.355 269.234H211.75C208.524 269.234 206.133 269.234 204.241 269.079C202.355 268.925 201.005 268.62 199.855 268.034C197.783 266.978 196.098 265.293 195.042 263.221C194.456 262.071 194.151 260.721 193.997 258.835C193.842 256.942 193.842 254.552 193.842 251.325V242.131Z" stroke="white" stroke-opacity="0.1"/>
<path d="M204.855 241.365C204.855 239.22 204.855 238.147 205.273 237.328C205.639 236.607 206.225 236.02 206.947 235.654C207.766 235.236 208.839 235.236 210.984 235.236H221.71C223.855 235.236 224.928 235.236 225.747 235.654C226.468 236.02 227.055 236.607 227.421 237.328C227.839 238.147 227.839 239.22 227.839 241.365V252.091C227.839 254.237 227.839 255.309 227.421 256.129C227.055 256.85 226.468 257.436 225.747 257.803C224.928 258.221 223.855 258.221 221.71 258.221H210.984C208.839 258.221 207.766 258.221 206.947 257.803C206.225 257.436 205.639 256.85 205.273 256.129C204.855 255.309 204.855 254.237 204.855 252.091V241.365Z" fill="white" fill-opacity="0.1"/>
<path d="M348.504 240.982H245.077C241.903 240.982 239.331 243.555 239.331 246.728C239.331 249.902 241.903 252.474 245.077 252.474H348.504C351.678 252.474 354.25 249.902 354.25 246.728C354.25 243.555 351.678 240.982 348.504 240.982Z" fill="white" fill-opacity="0.06"/>
</g>
<g filter="url(#filter9_d_1_2606)">
<path d="M371.488 242.131C371.488 235.695 371.488 232.477 372.741 230.019C373.842 227.856 375.6 226.098 377.763 224.996C380.221 223.744 383.439 223.744 389.875 223.744H525.48C531.917 223.744 535.134 223.744 537.593 224.996C539.755 226.098 541.513 227.856 542.615 230.019C543.867 232.477 543.867 235.695 543.867 242.131V251.325C543.867 257.762 543.867 260.98 542.615 263.438C541.513 265.601 539.755 267.359 537.593 268.46C535.134 269.713 531.917 269.713 525.48 269.713H389.875C383.439 269.713 380.221 269.713 377.763 268.46C375.6 267.359 373.842 265.601 372.741 263.438C371.488 260.98 371.488 257.762 371.488 251.325V242.131Z" fill="white" fill-opacity="0.06"/>
<path d="M371.967 242.131C371.967 238.905 371.967 236.515 372.122 234.622C372.276 232.736 372.581 231.386 373.167 230.236C374.223 228.164 375.908 226.479 377.98 225.423C379.13 224.837 380.48 224.532 382.366 224.378C384.259 224.223 386.649 224.223 389.875 224.223H525.48C528.707 224.223 531.097 224.223 532.989 224.378C534.876 224.532 536.225 224.837 537.375 225.423C539.448 226.479 541.132 228.164 542.189 230.236C542.775 231.386 543.079 232.736 543.233 234.622C543.389 236.515 543.389 238.905 543.389 242.131V251.325C543.389 254.552 543.389 256.942 543.233 258.835C543.079 260.721 542.775 262.071 542.189 263.221C541.132 265.293 539.448 266.978 537.375 268.034C536.225 268.62 534.876 268.925 532.989 269.079C531.097 269.234 528.707 269.234 525.48 269.234H389.875C386.649 269.234 384.259 269.234 382.366 269.079C380.48 268.925 379.13 268.62 377.98 268.034C375.908 266.978 374.223 265.293 373.167 263.221C372.581 262.071 372.276 260.721 372.122 258.835C371.967 256.942 371.967 254.552 371.967 251.325V242.131Z" stroke="white" stroke-opacity="0.1"/>
<path d="M382.98 241.365C382.98 239.22 382.98 238.147 383.398 237.328C383.765 236.607 384.351 236.02 385.072 235.654C385.891 235.236 386.964 235.236 389.109 235.236H399.835C401.98 235.236 403.053 235.236 403.873 235.654C404.594 236.02 405.18 236.607 405.547 237.328C405.964 238.147 405.964 239.22 405.964 241.365V252.091C405.964 254.237 405.964 255.309 405.547 256.129C405.18 256.85 404.594 257.436 403.873 257.803C403.053 258.221 401.98 258.221 399.835 258.221H389.109C386.964 258.221 385.891 258.221 385.072 257.803C384.351 257.436 383.765 256.85 383.398 256.129C382.98 255.309 382.98 254.237 382.98 252.091V241.365Z" fill="white" fill-opacity="0.1"/>
<path d="M526.629 240.982H423.202C420.029 240.982 417.456 243.555 417.456 246.728C417.456 249.902 420.029 252.474 423.202 252.474H526.629C529.803 252.474 532.375 249.902 532.375 246.728C532.375 243.555 529.803 240.982 526.629 240.982Z" fill="white" fill-opacity="0.06"/>
</g>
<g filter="url(#filter10_d_1_2606)">
<path d="M39.1795 188.501C39.1795 182.064 39.1795 178.846 40.432 176.388C41.5338 174.225 43.2919 172.467 45.4542 171.366C47.9125 170.113 51.1305 170.113 57.5666 170.113H193.172C199.608 170.113 202.826 170.113 205.284 171.366C207.446 172.467 209.205 174.225 210.306 176.388C211.559 178.846 211.559 182.064 211.559 188.501V197.695C211.559 204.131 211.559 207.349 210.306 209.807C209.205 211.97 207.446 213.728 205.284 214.83C202.826 216.082 199.608 216.082 193.172 216.082H57.5666C51.1305 216.082 47.9125 216.082 45.4542 214.83C43.2919 213.728 41.5338 211.97 40.432 209.807C39.1795 207.349 39.1795 204.131 39.1795 197.695V188.501Z" fill="white" fill-opacity="0.06"/>
<path d="M39.6583 188.501C39.6583 185.274 39.6587 182.884 39.8132 180.992C39.9674 179.105 40.2725 177.756 40.8586 176.605C41.9145 174.533 43.5993 172.848 45.6715 171.792C46.8219 171.206 48.171 170.901 50.0576 170.747C51.95 170.592 54.3406 170.592 57.5666 170.592H193.172C196.398 170.592 198.788 170.592 200.681 170.747C202.567 170.901 203.917 171.206 205.067 171.792C207.139 172.848 208.824 174.533 209.88 176.605C210.466 177.756 210.77 179.105 210.925 180.992C211.08 182.884 211.08 185.274 211.08 188.501V197.695C211.08 200.921 211.08 203.312 210.925 205.204C210.77 207.091 210.466 208.44 209.88 209.59C208.824 211.663 207.139 213.347 205.067 214.403C203.917 214.99 202.567 215.294 200.681 215.448C198.788 215.603 196.398 215.603 193.172 215.603H57.5666C54.3406 215.603 51.95 215.603 50.0576 215.448C48.171 215.294 46.8219 214.99 45.6715 214.403C43.5993 213.347 41.9145 211.663 40.8586 209.59C40.2725 208.44 39.9674 207.091 39.8132 205.204C39.6587 203.312 39.6583 200.921 39.6583 197.695V188.501Z" stroke="white" stroke-opacity="0.1"/>
<path d="M50.6714 187.735C50.6714 185.589 50.6714 184.517 51.089 183.697C51.4562 182.976 52.0422 182.39 52.7629 182.023C53.5824 181.605 54.6551 181.605 56.8005 181.605H67.5263C69.6716 181.605 70.7443 181.605 71.5638 182.023C72.2845 182.39 72.8705 182.976 73.2378 183.697C73.6553 184.517 73.6553 185.589 73.6553 187.735V198.461C73.6553 200.606 73.6553 201.679 73.2378 202.498C72.8705 203.22 72.2845 203.806 71.5638 204.172C70.7443 204.59 69.6716 204.59 67.5263 204.59H56.8005C54.6551 204.59 53.5824 204.59 52.7629 204.172C52.0422 203.806 51.4562 203.22 51.089 202.498C50.6714 201.679 50.6714 200.606 50.6714 198.461V187.735Z" fill="white" fill-opacity="0.1"/>
<path d="M194.321 187.352H90.8932C87.7198 187.352 85.1472 189.924 85.1472 193.098C85.1472 196.271 87.7198 198.844 90.8932 198.844H194.321C197.494 198.844 200.067 196.271 200.067 193.098C200.067 189.924 197.494 187.352 194.321 187.352Z" fill="white" fill-opacity="0.06"/>
</g>
<g filter="url(#filter11_d_1_2606)">
<path d="M366.7 188.501C366.7 182.064 366.7 178.846 367.953 176.388C369.054 174.225 370.812 172.467 372.975 171.366C375.433 170.113 378.651 170.113 385.087 170.113H520.692C527.128 170.113 530.346 170.113 532.804 171.366C534.967 172.467 536.725 174.225 537.826 176.388C539.079 178.846 539.079 182.064 539.079 188.501V197.695C539.079 204.131 539.079 207.349 537.826 209.807C536.725 211.97 534.967 213.728 532.804 214.83C530.346 216.082 527.128 216.082 520.692 216.082H385.087C378.651 216.082 375.433 216.082 372.975 214.83C370.812 213.728 369.054 211.97 367.953 209.807C366.7 207.349 366.7 204.131 366.7 197.695V188.501Z" fill="white" fill-opacity="0.06"/>
<path d="M367.179 188.501C367.179 185.274 367.179 182.884 367.334 180.992C367.488 179.105 367.793 177.756 368.379 176.605C369.435 174.533 371.12 172.848 373.192 171.792C374.342 171.206 375.691 170.901 377.578 170.747C379.47 170.592 381.861 170.592 385.087 170.592H520.692C523.918 170.592 526.309 170.592 528.201 170.747C530.088 170.901 531.437 171.206 532.587 171.792C534.659 172.848 536.344 174.533 537.4 176.605C537.986 177.756 538.291 179.105 538.445 180.992C538.6 182.884 538.6 185.274 538.6 188.501V197.695C538.6 200.921 538.6 203.312 538.445 205.204C538.291 207.091 537.986 208.44 537.4 209.59C536.344 211.663 534.659 213.347 532.587 214.403C531.437 214.99 530.088 215.294 528.201 215.448C526.309 215.603 523.918 215.603 520.692 215.603H385.087C381.861 215.603 379.47 215.603 377.578 215.448C375.691 215.294 374.342 214.99 373.192 214.403C371.12 213.347 369.435 211.663 368.379 209.59C367.793 208.44 367.488 207.091 367.334 205.204C367.179 203.312 367.179 200.921 367.179 197.695V188.501Z" stroke="white" stroke-opacity="0.1"/>
<path d="M378.192 187.735C378.192 185.589 378.192 184.517 378.609 183.697C378.976 182.976 379.562 182.39 380.283 182.023C381.103 181.605 382.176 181.605 384.321 181.605H395.047C397.192 181.605 398.264 181.605 399.084 182.023C399.805 182.39 400.391 182.976 400.758 183.697C401.176 184.517 401.176 185.589 401.176 187.735V198.461C401.176 200.606 401.176 201.679 400.758 202.498C400.391 203.22 399.805 203.806 399.084 204.172C398.264 204.59 397.192 204.59 395.047 204.59H384.321C382.176 204.59 381.103 204.59 380.283 204.172C379.562 203.806 378.976 203.22 378.609 202.498C378.192 201.679 378.192 200.606 378.192 198.461V187.735Z" fill="white" fill-opacity="0.1"/>
<path d="M521.841 187.352H418.414C415.24 187.352 412.668 189.924 412.668 193.098C412.668 196.271 415.24 198.844 418.414 198.844H521.841C525.015 198.844 527.587 196.271 527.587 193.098C527.587 189.924 525.015 187.352 521.841 187.352Z" fill="white" fill-opacity="0.06"/>
</g>
<g filter="url(#filter12_d_1_2606)">
<path d="M219.22 188.501C219.22 182.064 219.22 178.846 220.473 176.388C221.574 174.225 223.332 172.467 225.495 171.366C227.953 170.113 231.171 170.113 237.607 170.113H340.652C347.088 170.113 350.306 170.113 352.764 171.366C354.926 172.467 356.685 174.225 357.786 176.388C359.039 178.846 359.039 182.064 359.039 188.501V197.695C359.039 204.131 359.039 207.349 357.786 209.807C356.685 211.97 354.926 213.728 352.764 214.83C350.306 216.082 347.088 216.082 340.652 216.082H237.607C231.171 216.082 227.953 216.082 225.495 214.83C223.332 213.728 221.574 211.97 220.473 209.807C219.22 207.349 219.22 204.131 219.22 197.695V188.501Z" fill="white" fill-opacity="0.06"/>
<path d="M219.699 188.501C219.699 185.274 219.699 182.884 219.854 180.992C220.008 179.105 220.313 177.756 220.899 176.605C221.955 174.533 223.64 172.848 225.712 171.792C226.862 171.206 228.211 170.901 230.098 170.747C231.99 170.592 234.381 170.592 237.607 170.592H340.652C343.878 170.592 346.268 170.592 348.161 170.747C350.047 170.901 351.396 171.206 352.547 171.792C354.619 172.848 356.304 174.533 357.36 176.605C357.946 177.756 358.25 179.105 358.405 180.992C358.56 182.884 358.56 185.274 358.56 188.501V197.695C358.56 200.921 358.56 203.312 358.405 205.204C358.25 207.091 357.946 208.44 357.36 209.59C356.304 211.663 354.619 213.347 352.547 214.403C351.396 214.99 350.047 215.294 348.161 215.448C346.268 215.603 343.878 215.603 340.652 215.603H237.607C234.381 215.603 231.99 215.603 230.098 215.448C228.211 215.294 226.862 214.99 225.712 214.403C223.64 213.347 221.955 211.663 220.899 209.59C220.313 208.44 220.008 207.091 219.854 205.204C219.699 203.312 219.699 200.921 219.699 197.695V188.501Z" stroke="white" stroke-opacity="0.1"/>
<path d="M230.712 187.735C230.712 185.589 230.712 184.517 231.129 183.697C231.496 182.976 232.082 182.39 232.803 182.023C233.623 181.605 234.696 181.605 236.841 181.605H247.567C249.712 181.605 250.785 181.605 251.604 182.023C252.325 182.39 252.911 182.976 253.278 183.697C253.696 184.517 253.696 185.589 253.696 187.735V198.461C253.696 200.606 253.696 201.679 253.278 202.498C252.911 203.22 252.325 203.806 251.604 204.172C250.785 204.59 249.712 204.59 247.567 204.59H236.841C234.696 204.59 233.623 204.59 232.803 204.172C232.082 203.806 231.496 203.22 231.129 202.498C230.712 201.679 230.712 200.606 230.712 198.461V187.735Z" fill="white" fill-opacity="0.1"/>
<path d="M341.801 187.352H270.934C267.76 187.352 265.188 189.924 265.188 193.098C265.188 196.271 267.76 198.844 270.934 198.844H341.801C344.974 198.844 347.547 196.271 347.547 193.098C347.547 189.924 344.974 187.352 341.801 187.352Z" fill="white" fill-opacity="0.06"/>
</g>
<g filter="url(#filter13_d_1_2606)">
<path d="M372.446 135.828C372.446 129.391 372.446 126.173 373.699 123.715C374.8 121.553 376.558 119.794 378.72 118.693C381.179 117.44 384.397 117.44 390.833 117.44H523.565C530.001 117.44 533.219 117.44 535.677 118.693C537.84 119.794 539.598 121.553 540.699 123.715C541.952 126.173 541.952 129.391 541.952 135.828V145.022C541.952 151.458 541.952 154.676 540.699 157.135C539.598 159.297 537.84 161.055 535.677 162.157C533.219 163.409 530.001 163.409 523.565 163.409H390.833C384.397 163.409 381.179 163.409 378.72 162.157C376.558 161.055 374.8 159.297 373.699 157.135C372.446 154.676 372.446 151.458 372.446 145.022V135.828Z" fill="white" fill-opacity="0.06"/>
<path d="M372.925 135.828C372.925 132.601 372.925 130.211 373.08 128.319C373.234 126.432 373.539 125.083 374.125 123.932C375.181 121.86 376.865 120.175 378.938 119.119C380.088 118.533 381.437 118.228 383.324 118.074C385.216 117.919 387.607 117.919 390.833 117.919H523.565C526.791 117.919 529.182 117.919 531.074 118.074C532.961 118.228 534.31 118.533 535.46 119.119C537.532 120.175 539.217 121.86 540.273 123.932C540.859 125.083 541.164 126.432 541.318 128.319C541.473 130.211 541.473 132.601 541.473 135.828V145.022C541.473 148.248 541.473 150.639 541.318 152.531C541.164 154.418 540.859 155.767 540.273 156.917C539.217 158.99 537.532 160.674 535.46 161.73C534.31 162.317 532.961 162.621 531.074 162.775C529.182 162.93 526.791 162.93 523.565 162.93H390.833C387.607 162.93 385.216 162.93 383.324 162.775C381.437 162.621 380.088 162.317 378.938 161.73C376.865 160.674 375.181 158.99 374.125 156.917C373.539 155.767 373.234 154.418 373.08 152.531C372.925 150.639 372.925 148.248 372.925 145.022V135.828Z" stroke="white" stroke-opacity="0.1"/>
<path d="M383.938 135.062C383.938 132.916 383.938 131.844 384.355 131.024C384.722 130.303 385.308 129.717 386.029 129.35C386.849 128.932 387.922 128.932 390.067 128.932H400.793C402.938 128.932 404.01 128.932 404.83 129.35C405.551 129.717 406.137 130.303 406.504 131.024C406.922 131.844 406.922 132.916 406.922 135.062V145.788C406.922 147.933 406.922 149.006 406.504 149.825C406.137 150.547 405.551 151.133 404.83 151.499C404.01 151.917 402.938 151.917 400.793 151.917H390.067C387.922 151.917 386.849 151.917 386.029 151.499C385.308 151.133 384.722 150.547 384.355 149.825C383.938 149.006 383.938 147.933 383.938 145.788V135.062Z" fill="white" fill-opacity="0.1"/>
<path d="M524.714 134.679H424.16C420.986 134.679 418.414 137.251 418.414 140.425C418.414 143.598 420.986 146.171 424.16 146.171H524.714C527.888 146.171 530.46 143.598 530.46 140.425C530.46 137.251 527.888 134.679 524.714 134.679Z" fill="white" fill-opacity="0.06"/>
</g>
<g filter="url(#filter14_d_1_2606)">
<path d="M196.236 135.828C196.236 129.391 196.236 126.173 197.489 123.715C198.59 121.553 200.348 119.794 202.511 118.693C204.969 117.44 208.187 117.44 214.623 117.44H346.397C352.834 117.44 356.052 117.44 358.51 118.693C360.672 119.794 362.431 121.553 363.532 123.715C364.785 126.173 364.785 129.391 364.785 135.828V145.022C364.785 151.458 364.785 154.676 363.532 157.135C362.431 159.297 360.672 161.055 358.51 162.157C356.052 163.409 352.834 163.409 346.397 163.409H214.623C208.187 163.409 204.969 163.409 202.511 162.157C200.348 161.055 198.59 159.297 197.489 157.135C196.236 154.676 196.236 151.458 196.236 145.022V135.828Z" fill="white" fill-opacity="0.06"/>
<path d="M196.715 135.828C196.715 132.601 196.715 130.211 196.87 128.319C197.024 126.432 197.329 125.083 197.915 123.932C198.971 121.86 200.656 120.175 202.728 119.119C203.878 118.533 205.228 118.228 207.114 118.074C209.006 117.919 211.397 117.919 214.623 117.919H346.397C349.624 117.919 352.014 117.919 353.907 118.074C355.793 118.228 357.142 118.533 358.293 119.119C360.365 120.175 362.05 121.86 363.106 123.932C363.692 125.083 363.996 126.432 364.151 128.319C364.306 130.211 364.306 132.601 364.306 135.828V145.022C364.306 148.248 364.306 150.639 364.151 152.531C363.996 154.418 363.692 155.767 363.106 156.917C362.05 158.99 360.365 160.674 358.293 161.73C357.142 162.317 355.793 162.621 353.907 162.775C352.014 162.93 349.624 162.93 346.397 162.93H214.623C211.397 162.93 209.006 162.93 207.114 162.775C205.228 162.621 203.878 162.317 202.728 161.73C200.656 160.674 198.971 158.99 197.915 156.917C197.329 155.767 197.024 154.418 196.87 152.531C196.715 150.639 196.715 148.248 196.715 145.022V135.828Z" stroke="white" stroke-opacity="0.1"/>
<mask id="mask1_1_2606" style="mask-type:luminance" maskUnits="userSpaceOnUse" x="207" y="128" width="24" height="24">
<path d="M224.966 128.932H213.474C210.301 128.932 207.728 131.505 207.728 134.679V146.171C207.728 149.344 210.301 151.917 213.474 151.917H224.966C228.139 151.917 230.712 149.344 230.712 146.171V134.679C230.712 131.505 228.139 128.932 224.966 128.932Z" fill="white"/>
</mask>
<g mask="url(#mask1_1_2606)">
<path d="M224.966 128.932H213.474C210.301 128.932 207.728 131.505 207.728 134.679V146.171C207.728 149.344 210.301 151.917 213.474 151.917H224.966C228.139 151.917 230.712 149.344 230.712 146.171V134.679C230.712 131.505 228.139 128.932 224.966 128.932Z" fill="url(#paint0_linear_1_2606)"/>
<g filter="url(#filter15_di_1_2606)">
<path d="M211.012 134.843C211.012 133.923 211.012 133.463 211.19 133.113C211.348 132.803 211.599 132.553 211.908 132.396C212.259 132.216 212.718 132.216 213.638 132.216H219.877C220.796 132.216 221.256 132.216 221.607 132.396C221.916 132.553 222.167 132.803 222.325 133.113C222.504 133.463 222.504 133.923 222.504 134.843V141.903C222.504 142.822 222.504 143.282 222.325 143.633C222.167 143.941 221.916 144.193 221.607 144.35C221.256 144.529 220.796 144.529 219.877 144.529H213.638C212.718 144.529 212.259 144.529 211.908 144.35C211.599 144.193 211.348 143.941 211.19 143.633C211.012 143.282 211.012 142.822 211.012 141.903V134.843Z" fill="url(#paint1_linear_1_2606)"/>
<path d="M211.617 143.416C211.728 143.634 211.906 143.812 212.126 143.924C212.222 143.973 212.354 144.009 212.599 144.03C212.849 144.05 213.17 144.051 213.638 144.051H219.877C220.344 144.051 220.666 144.05 220.916 144.03C221.16 144.009 221.292 143.973 221.39 143.924C221.608 143.812 221.786 143.634 221.898 143.416C221.947 143.319 221.984 143.186 222.004 142.942C222.024 142.692 222.025 142.37 222.025 141.903V134.843C222.025 134.375 222.024 134.053 222.004 133.803C221.984 133.559 221.947 133.427 221.898 133.33C221.786 133.111 221.608 132.933 221.39 132.822C221.292 132.773 221.16 132.736 220.916 132.715C220.666 132.695 220.344 132.695 219.877 132.695H213.638C213.17 132.695 212.849 132.695 212.599 132.715C212.354 132.736 212.222 132.773 212.126 132.822C211.906 132.933 211.728 133.111 211.617 133.33C211.567 133.427 211.531 133.559 211.511 133.803C211.491 134.053 211.491 134.375 211.491 134.843V141.903C211.491 142.37 211.491 142.692 211.511 142.942C211.531 143.186 211.567 143.319 211.617 143.416ZM211.617 143.416L211.19 143.633" stroke="white" stroke-opacity="0.06"/>
</g>
<path d="M212.817 141.917C212.365 141.497 212.854 140.921 214.182 140.309L215.016 139.924L215.341 139.262C215.52 138.899 215.788 138.306 215.935 137.944L216.203 137.287L216.018 136.802C215.792 136.203 215.71 135.305 215.854 134.982C216.049 134.545 216.689 134.59 216.942 135.059C217.14 135.425 217.12 136.088 216.885 136.925L216.693 137.611L216.862 137.877C216.955 138.025 217.227 138.372 217.466 138.652L217.916 139.171L218.476 139.103C220.253 138.888 220.861 139.255 220.861 139.779C220.861 140.441 219.466 140.496 218.294 139.731C218.031 139.56 217.85 139.389 217.85 139.389C217.85 139.389 217.115 139.527 216.754 139.618C216.38 139.711 216.195 139.77 215.648 139.941C215.648 139.941 215.456 140.2 215.331 140.387C214.866 141.088 214.323 141.667 213.936 141.878C213.502 142.114 213.047 142.13 212.817 141.917ZM213.527 141.682C213.78 141.537 214.295 140.972 214.651 140.448L214.795 140.235L214.139 140.542C213.125 141.015 212.662 141.461 212.902 141.73C213.038 141.882 213.2 141.869 213.527 141.682ZM220.11 139.966C220.358 139.805 220.321 139.48 220.041 139.347C219.822 139.246 219.646 139.225 219.078 139.233C218.729 139.255 218.167 139.32 218.073 139.34C218.073 139.34 218.381 139.538 218.518 139.61C218.7 139.707 219.143 139.887 219.466 139.979C219.785 140.069 219.97 140.059 220.11 139.966ZM217.463 138.945C217.312 138.798 217.057 138.492 216.895 138.264C216.682 138.006 216.576 137.824 216.576 137.824C216.576 137.824 216.421 138.286 216.293 138.565L215.897 139.476L215.782 139.683C215.782 139.683 216.394 139.496 216.704 139.42C217.035 139.341 217.703 139.218 217.703 139.218L217.463 138.945ZM216.609 135.769C216.648 135.47 216.664 135.171 216.561 135.021C216.274 134.729 215.928 134.973 215.986 135.665C216.006 135.898 216.068 136.295 216.152 136.541L216.303 136.988L216.41 136.652C216.469 136.467 216.559 136.069 216.609 135.769Z" fill="#F03E35"/>
<g filter="url(#filter16_di_1_2606)">
<path d="M217.578 142.231C217.578 141.312 217.579 140.852 217.758 140.5C217.915 140.192 218.166 139.94 218.475 139.783C218.825 139.604 219.285 139.604 220.205 139.604H224.802C225.721 139.604 226.181 139.604 226.532 139.783C226.841 139.94 227.092 140.192 227.25 140.5C227.428 140.852 227.428 141.312 227.428 142.231V146.007C227.428 146.926 227.428 147.386 227.25 147.738C227.092 148.046 226.841 148.297 226.532 148.455C226.181 148.634 225.721 148.634 224.802 148.634H220.205C219.285 148.634 218.825 148.634 218.475 148.455C218.166 148.297 217.915 148.046 217.758 147.738C217.579 147.386 217.578 146.926 217.578 146.007V142.231Z" fill="url(#paint2_linear_1_2606)"/>
<path d="M218.057 142.231C218.057 141.764 218.057 141.441 218.077 141.192C218.098 140.948 218.135 140.815 218.184 140.718C218.295 140.499 218.473 140.321 218.692 140.209C218.789 140.16 218.921 140.124 219.165 140.104C219.415 140.083 219.737 140.083 220.205 140.083H224.802C225.269 140.083 225.591 140.083 225.841 140.104C226.085 140.124 226.218 140.16 226.314 140.209C226.534 140.321 226.712 140.499 226.823 140.718C226.873 140.815 226.909 140.948 226.929 141.192C226.949 141.441 226.949 141.764 226.949 142.231V146.007C226.949 146.474 226.949 146.796 226.929 147.046C226.909 147.29 226.873 147.424 226.823 147.52C226.712 147.739 226.534 147.917 226.314 148.028C226.218 148.078 226.085 148.114 225.841 148.134C225.591 148.154 225.269 148.155 224.802 148.155H220.205C219.737 148.155 219.415 148.154 219.165 148.134C218.921 148.114 218.789 148.078 218.692 148.028C218.473 147.917 218.295 147.739 218.184 147.52C218.135 147.424 218.098 147.29 218.077 147.046C218.057 146.796 218.057 146.474 218.057 146.007V142.231Z" stroke="white" stroke-opacity="0.06"/>
</g>
<path fill-rule="evenodd" clip-rule="evenodd" d="M225.787 142.066H219.22V146.992H225.787V142.066ZM219.22 140.425C218.767 140.425 218.399 140.793 218.399 141.246V146.992C218.399 147.446 218.767 147.812 219.22 147.812H225.787C226.241 147.812 226.607 147.446 226.607 146.992V141.246C226.607 140.793 226.241 140.425 225.787 140.425H219.22Z" fill="#FF625A"/>
<path fill-rule="evenodd" clip-rule="evenodd" d="M220.861 146.992V145.842H219.22V145.186H220.861V144.037H219.22V143.38H220.861V142.066H221.518V143.38H223.324V142.066H223.98V143.38H225.787V144.037H223.98V145.186H225.787V145.842H223.98V146.992H223.324V145.842H221.518V146.992H220.861ZM223.324 145.186V144.037H221.518V145.186H223.324Z" fill="#FF8983"/>
</g>
<path d="M242.632 144V136.727H244.17V142.732H247.288V144H242.632ZM250.763 144.107C250.202 144.107 249.719 143.993 249.314 143.766C248.912 143.536 248.602 143.212 248.384 142.793C248.166 142.371 248.057 141.873 248.057 141.298C248.057 140.737 248.166 140.244 248.384 139.82C248.602 139.397 248.908 139.066 249.304 138.83C249.702 138.593 250.168 138.474 250.703 138.474C251.063 138.474 251.398 138.532 251.708 138.648C252.02 138.762 252.293 138.934 252.525 139.163C252.759 139.393 252.941 139.682 253.072 140.03C253.202 140.375 253.267 140.78 253.267 141.244V141.66H248.661V140.722H251.843C251.843 140.504 251.796 140.312 251.701 140.143C251.606 139.975 251.475 139.844 251.307 139.749C251.141 139.652 250.948 139.604 250.728 139.604C250.498 139.604 250.295 139.657 250.117 139.763C249.942 139.868 249.805 140.009 249.705 140.186C249.606 140.361 249.555 140.557 249.552 140.772V141.663C249.552 141.933 249.602 142.166 249.702 142.363C249.803 142.559 249.947 142.711 250.131 142.817C250.316 142.924 250.535 142.977 250.788 142.977C250.956 142.977 251.11 142.954 251.25 142.906C251.39 142.859 251.509 142.788 251.608 142.693C251.708 142.598 251.784 142.482 251.836 142.345L253.235 142.438C253.164 142.774 253.018 143.067 252.798 143.318C252.58 143.567 252.299 143.761 251.953 143.901C251.61 144.038 251.213 144.107 250.763 144.107ZM257.155 138.545V139.682H253.871V138.545H257.155ZM254.616 137.239H256.129V142.324C256.129 142.464 256.15 142.572 256.193 142.651C256.236 142.726 256.295 142.78 256.371 142.81C256.449 142.841 256.539 142.857 256.64 142.857C256.711 142.857 256.782 142.851 256.854 142.839C256.925 142.825 256.979 142.814 257.017 142.807L257.255 143.933C257.179 143.956 257.073 143.983 256.935 144.014C256.798 144.047 256.631 144.067 256.434 144.075C256.07 144.089 255.75 144.04 255.476 143.929C255.203 143.818 254.992 143.645 254.84 143.411C254.689 143.176 254.614 142.88 254.616 142.523V137.239ZM259.653 136.727V137.494C259.653 137.712 259.61 137.935 259.525 138.162C259.442 138.387 259.331 138.6 259.191 138.801C259.051 139 258.899 139.169 258.733 139.309L258.065 138.915C258.184 138.728 258.288 138.521 258.378 138.293C258.47 138.066 258.516 137.802 258.516 137.501V136.727H259.653ZM264.515 140.101L263.13 140.186C263.106 140.068 263.056 139.961 262.977 139.866C262.899 139.769 262.796 139.692 262.669 139.636C262.543 139.576 262.393 139.547 262.218 139.547C261.983 139.547 261.785 139.597 261.624 139.696C261.463 139.793 261.383 139.923 261.383 140.087C261.383 140.217 261.435 140.327 261.539 140.417C261.643 140.507 261.822 140.579 262.075 140.634L263.063 140.832C263.593 140.941 263.988 141.116 264.249 141.358C264.509 141.599 264.639 141.917 264.639 142.31C264.639 142.667 264.534 142.981 264.323 143.251C264.115 143.521 263.829 143.731 263.464 143.883C263.102 144.032 262.684 144.107 262.21 144.107C261.488 144.107 260.913 143.956 260.485 143.656C260.058 143.353 259.809 142.941 259.735 142.42L261.223 142.342C261.268 142.562 261.377 142.73 261.55 142.846C261.723 142.96 261.944 143.016 262.214 143.016C262.479 143.016 262.692 142.965 262.853 142.864C263.017 142.759 263.099 142.626 263.102 142.462C263.099 142.325 263.041 142.213 262.928 142.125C262.814 142.035 262.639 141.966 262.402 141.919L261.458 141.731C260.925 141.624 260.528 141.44 260.268 141.177C260.01 140.914 259.881 140.579 259.881 140.172C259.881 139.821 259.976 139.52 260.165 139.266C260.357 139.013 260.625 138.818 260.971 138.68C261.319 138.543 261.726 138.474 262.193 138.474C262.882 138.474 263.424 138.62 263.819 138.911C264.217 139.202 264.449 139.599 264.515 140.101ZM267.935 144V136.727H270.847C271.382 136.727 271.828 136.807 272.186 136.965C272.543 137.124 272.812 137.344 272.992 137.626C273.172 137.905 273.262 138.227 273.262 138.592C273.262 138.876 273.205 139.125 273.091 139.341C272.977 139.554 272.821 139.729 272.622 139.866C272.426 140.001 272.201 140.097 271.948 140.154V140.225C272.225 140.237 272.484 140.315 272.725 140.46C272.969 140.604 273.167 140.806 273.318 141.067C273.47 141.325 273.546 141.633 273.546 141.99C273.546 142.376 273.45 142.72 273.258 143.023C273.069 143.324 272.788 143.562 272.416 143.737C272.045 143.912 271.587 144 271.042 144H267.935ZM269.472 142.743H270.726C271.155 142.743 271.467 142.661 271.664 142.498C271.86 142.332 271.958 142.112 271.958 141.837C271.958 141.636 271.91 141.459 271.813 141.305C271.716 141.151 271.577 141.03 271.397 140.942C271.22 140.855 271.008 140.811 270.762 140.811H269.472V142.743ZM269.472 139.771H270.612C270.823 139.771 271.01 139.734 271.173 139.661C271.339 139.585 271.469 139.478 271.564 139.341C271.661 139.204 271.71 139.039 271.71 138.847C271.71 138.585 271.616 138.373 271.429 138.212C271.244 138.051 270.982 137.97 270.641 137.97H269.472V139.771ZM278.016 141.678V138.545H279.528V144H278.076V143.009H278.019C277.896 143.329 277.691 143.586 277.405 143.78C277.121 143.974 276.774 144.071 276.364 144.071C276 144.071 275.679 143.988 275.402 143.822C275.125 143.657 274.908 143.421 274.752 143.116C274.598 142.81 274.52 142.445 274.518 142.018V138.545H276.031V141.749C276.033 142.071 276.119 142.325 276.29 142.512C276.46 142.699 276.689 142.793 276.975 142.793C277.157 142.793 277.328 142.751 277.487 142.668C277.645 142.583 277.773 142.458 277.87 142.292C277.969 142.126 278.018 141.921 278.016 141.678ZM280.738 144V138.545H282.251V144H280.738ZM281.498 137.842C281.273 137.842 281.081 137.768 280.92 137.619C280.761 137.467 280.682 137.286 280.682 137.075C280.682 136.867 280.761 136.688 280.92 136.539C281.081 136.388 281.273 136.312 281.498 136.312C281.723 136.312 281.915 136.388 282.074 136.539C282.235 136.688 282.315 136.867 282.315 137.075C282.315 137.286 282.235 137.467 282.074 137.619C281.915 137.768 281.723 137.842 281.498 137.842ZM284.976 136.727V144H283.463V136.727H284.976ZM288.198 144.089C287.783 144.089 287.408 143.982 287.072 143.769C286.738 143.554 286.473 143.238 286.276 142.821C286.082 142.402 285.985 141.888 285.985 141.28C285.985 140.655 286.086 140.135 286.287 139.721C286.488 139.304 286.756 138.993 287.09 138.787C287.426 138.579 287.794 138.474 288.194 138.474C288.499 138.474 288.754 138.527 288.958 138.631C289.164 138.732 289.329 138.86 289.455 139.014C289.583 139.166 289.68 139.315 289.746 139.462H289.792V136.727H291.301V144H289.81V143.126H289.746C289.675 143.278 289.574 143.428 289.444 143.577C289.316 143.724 289.149 143.846 288.943 143.943C288.74 144.04 288.491 144.089 288.198 144.089ZM288.677 142.885C288.921 142.885 289.127 142.819 289.295 142.686C289.465 142.551 289.596 142.363 289.686 142.121C289.778 141.88 289.824 141.597 289.824 141.273C289.824 140.948 289.779 140.667 289.689 140.428C289.599 140.188 289.469 140.004 289.298 139.874C289.128 139.743 288.921 139.678 288.677 139.678C288.428 139.678 288.219 139.746 288.048 139.881C287.878 140.016 287.749 140.203 287.661 140.442C287.574 140.681 287.53 140.958 287.53 141.273C287.53 141.59 287.574 141.871 287.661 142.114C287.751 142.356 287.88 142.545 288.048 142.683C288.219 142.817 288.428 142.885 288.677 142.885ZM294.611 137.995V136.727H300.584V137.995H298.357V144H296.838V137.995H294.611ZM303.213 144.107C302.661 144.107 302.184 143.989 301.782 143.755C301.382 143.518 301.073 143.189 300.855 142.768C300.637 142.344 300.528 141.853 300.528 141.294C300.528 140.731 300.637 140.238 300.855 139.817C301.073 139.393 301.382 139.064 301.782 138.83C302.184 138.593 302.661 138.474 303.213 138.474C303.764 138.474 304.24 138.593 304.64 138.83C305.043 139.064 305.353 139.393 305.571 139.817C305.788 140.238 305.897 140.731 305.897 141.294C305.897 141.853 305.788 142.344 305.571 142.768C305.353 143.189 305.043 143.518 304.64 143.755C304.24 143.989 303.764 144.107 303.213 144.107ZM303.22 142.935C303.471 142.935 303.68 142.864 303.848 142.722C304.016 142.577 304.143 142.381 304.228 142.132C304.316 141.884 304.36 141.601 304.36 141.283C304.36 140.966 304.316 140.683 304.228 140.435C304.143 140.186 304.016 139.99 303.848 139.845C303.68 139.701 303.471 139.629 303.22 139.629C302.967 139.629 302.753 139.701 302.581 139.845C302.41 139.99 302.281 140.186 302.194 140.435C302.108 140.683 302.066 140.966 302.066 141.283C302.066 141.601 302.108 141.884 302.194 142.132C302.281 142.381 302.41 142.577 302.581 142.722C302.753 142.864 302.967 142.935 303.22 142.935ZM309.338 146.159C308.848 146.159 308.428 146.092 308.078 145.957C307.73 145.824 307.453 145.643 307.247 145.413C307.041 145.184 306.907 144.926 306.846 144.639L308.245 144.451C308.287 144.56 308.355 144.662 308.447 144.756C308.539 144.851 308.661 144.927 308.813 144.984C308.967 145.043 309.154 145.072 309.374 145.072C309.703 145.072 309.974 144.992 310.187 144.831C310.403 144.672 310.51 144.406 310.51 144.032V143.034H310.446C310.38 143.186 310.281 143.329 310.148 143.464C310.016 143.599 309.845 143.709 309.637 143.794C309.428 143.879 309.18 143.922 308.891 143.922C308.481 143.922 308.109 143.827 307.772 143.638C307.439 143.446 307.172 143.154 306.973 142.761C306.777 142.365 306.679 141.866 306.679 141.262C306.679 140.644 306.779 140.128 306.98 139.714C307.182 139.299 307.449 138.989 307.783 138.783C308.119 138.577 308.487 138.474 308.887 138.474C309.193 138.474 309.449 138.527 309.654 138.631C309.86 138.732 310.026 138.86 310.152 139.014C310.279 139.166 310.378 139.315 310.446 139.462H310.503V138.545H312.005V144.053C312.005 144.517 311.892 144.906 311.664 145.218C311.437 145.531 311.122 145.765 310.72 145.921C310.32 146.08 309.859 146.159 309.338 146.159ZM309.37 142.786C309.614 142.786 309.82 142.725 309.988 142.604C310.159 142.481 310.289 142.306 310.379 142.079C310.471 141.849 310.517 141.575 310.517 141.255C310.517 140.935 310.472 140.658 310.382 140.424C310.292 140.187 310.162 140.004 309.992 139.874C309.821 139.743 309.614 139.678 309.37 139.678C309.122 139.678 308.912 139.746 308.742 139.881C308.571 140.013 308.442 140.198 308.355 140.435C308.267 140.671 308.223 140.945 308.223 141.255C308.223 141.57 308.267 141.842 308.355 142.072C308.445 142.299 308.574 142.475 308.742 142.601C308.912 142.724 309.122 142.786 309.37 142.786ZM315.695 144.107C315.134 144.107 314.651 143.993 314.246 143.766C313.844 143.536 313.533 143.212 313.316 142.793C313.098 142.371 312.989 141.873 312.989 141.298C312.989 140.737 313.098 140.244 313.316 139.82C313.533 139.397 313.84 139.066 314.235 138.83C314.633 138.593 315.1 138.474 315.635 138.474C315.994 138.474 316.329 138.532 316.64 138.648C316.952 138.762 317.224 138.934 317.456 139.163C317.691 139.393 317.873 139.682 318.003 140.03C318.133 140.375 318.199 140.78 318.199 141.244V141.66H313.593V140.722H316.775C316.775 140.504 316.727 140.312 316.632 140.143C316.538 139.975 316.406 139.844 316.238 139.749C316.073 139.652 315.88 139.604 315.659 139.604C315.43 139.604 315.226 139.657 315.049 139.763C314.873 139.868 314.736 140.009 314.637 140.186C314.537 140.361 314.486 140.557 314.484 140.772V141.663C314.484 141.933 314.534 142.166 314.633 142.363C314.735 142.559 314.878 142.711 315.063 142.817C315.248 142.924 315.467 142.977 315.72 142.977C315.888 142.977 316.042 142.954 316.181 142.906C316.321 142.859 316.441 142.788 316.54 142.693C316.64 142.598 316.715 142.482 316.767 142.345L318.167 142.438C318.096 142.774 317.95 143.067 317.73 143.318C317.512 143.567 317.23 143.761 316.885 143.901C316.541 144.038 316.145 144.107 315.695 144.107ZM322.087 138.545V139.682H318.802V138.545H322.087ZM319.548 137.239H321.061V142.324C321.061 142.464 321.082 142.572 321.125 142.651C321.167 142.726 321.226 142.78 321.302 142.81C321.38 142.841 321.47 142.857 321.572 142.857C321.643 142.857 321.714 142.851 321.785 142.839C321.856 142.825 321.911 142.814 321.949 142.807L322.186 143.933C322.111 143.956 322.004 143.983 321.867 144.014C321.73 144.047 321.563 144.067 321.366 144.075C321.002 144.089 320.682 144.04 320.407 143.929C320.135 143.818 319.923 143.645 319.772 143.411C319.62 143.176 319.546 142.88 319.548 142.523V137.239ZM324.702 140.847V144H323.19V136.727H324.66V139.508H324.724C324.847 139.186 325.046 138.934 325.32 138.751C325.595 138.567 325.939 138.474 326.354 138.474C326.732 138.474 327.063 138.557 327.344 138.723C327.629 138.886 327.849 139.122 328.005 139.43C328.164 139.735 328.242 140.101 328.239 140.527V144H326.727V140.797C326.729 140.461 326.644 140.199 326.471 140.012C326.3 139.825 326.061 139.732 325.754 139.732C325.548 139.732 325.365 139.775 325.207 139.863C325.05 139.951 324.927 140.078 324.837 140.246C324.75 140.412 324.705 140.612 324.702 140.847ZM331.916 144.107C331.355 144.107 330.872 143.993 330.467 143.766C330.064 143.536 329.754 143.212 329.536 142.793C329.319 142.371 329.21 141.873 329.21 141.298C329.21 140.737 329.319 140.244 329.536 139.82C329.754 139.397 330.061 139.066 330.456 138.83C330.854 138.593 331.32 138.474 331.855 138.474C332.215 138.474 332.55 138.532 332.86 138.648C333.173 138.762 333.445 138.934 333.677 139.163C333.911 139.393 334.094 139.682 334.224 140.03C334.354 140.375 334.419 140.78 334.419 141.244V141.66H329.813V140.722H332.995C332.995 140.504 332.948 140.312 332.853 140.143C332.758 139.975 332.627 139.844 332.459 139.749C332.293 139.652 332.1 139.604 331.88 139.604C331.651 139.604 331.447 139.657 331.269 139.763C331.094 139.868 330.957 140.009 330.857 140.186C330.758 140.361 330.707 140.557 330.705 140.772V141.663C330.705 141.933 330.754 142.166 330.854 142.363C330.956 142.559 331.099 142.711 331.284 142.817C331.468 142.924 331.687 142.977 331.941 142.977C332.109 142.977 332.262 142.954 332.402 142.906C332.542 142.859 332.661 142.788 332.761 142.693C332.86 142.598 332.936 142.482 332.988 142.345L334.387 142.438C334.316 142.774 334.171 143.067 333.95 143.318C333.733 143.567 333.451 143.761 333.105 143.901C332.762 144.038 332.365 144.107 331.916 144.107ZM335.406 144V138.545H336.873V139.497H336.93C337.029 139.159 337.196 138.903 337.431 138.73C337.665 138.555 337.935 138.467 338.24 138.467C338.316 138.467 338.398 138.472 338.485 138.482C338.573 138.491 338.65 138.504 338.716 138.521V139.863C338.645 139.842 338.547 139.823 338.421 139.806C338.296 139.79 338.181 139.781 338.077 139.781C337.854 139.781 337.655 139.83 337.48 139.927C337.307 140.022 337.17 140.154 337.068 140.325C336.969 140.495 336.919 140.692 336.919 140.914V144H335.406Z" fill="white"/>
</g>
</g>
<defs>
<filter id="filter0_d_1_2606" x="201.283" y="0.157837" width="164.2" height="78.0115" filterUnits="userSpaceOnUse" color-interpolation-filters="sRGB">
<feFlood flood-opacity="0" result="BackgroundImageFix"/>
<feColorMatrix in="SourceAlpha" type="matrix" values="0 0 0 0 0 0 0 0 0 0 0 0 0 0 0 0 0 0 127 0" result="hardAlpha"/>
<feOffset dy="6"/>
<feGaussianBlur stdDeviation="8"/>
<feComposite in2="hardAlpha" operator="out"/>
<feColorMatrix type="matrix" values="0 0 0 0 0 0 0 0 0 0 0 0 0 0 0 0 0 0 0.3 0"/>
<feBlend mode="normal" in2="BackgroundImageFix" result="effect1_dropShadow_1_2606"/>
<feBlend mode="normal" in="SourceGraphic" in2="effect1_dropShadow_1_2606" result="shape"/>
</filter>
<filter id="filter1_d_1_2606" x="4.00504" y="107.419" width="200.591" height="78.0115" filterUnits="userSpaceOnUse" color-interpolation-filters="sRGB">
<feFlood flood-opacity="0" result="BackgroundImageFix"/>
<feColorMatrix in="SourceAlpha" type="matrix" values="0 0 0 0 0 0 0 0 0 0 0 0 0 0 0 0 0 0 127 0" result="hardAlpha"/>
<feOffset dy="6"/>
<feGaussianBlur stdDeviation="8"/>
<feComposite in2="hardAlpha" operator="out"/>
<feColorMatrix type="matrix" values="0 0 0 0 0 0 0 0 0 0 0 0 0 0 0 0 0 0 0.3 0"/>
<feBlend mode="normal" in2="BackgroundImageFix" result="effect1_dropShadow_1_2606"/>
<feBlend mode="normal" in="SourceGraphic" in2="effect1_dropShadow_1_2606" result="shape"/>
</filter>
<filter id="filter2_d_1_2606" x="323.864" y="53.7885" width="204.422" height="78.0115" filterUnits="userSpaceOnUse" color-interpolation-filters="sRGB">
<feFlood flood-opacity="0" result="BackgroundImageFix"/>
<feColorMatrix in="SourceAlpha" type="matrix" values="0 0 0 0 0 0 0 0 0 0 0 0 0 0 0 0 0 0 127 0" result="hardAlpha"/>
<feOffset dy="6"/>
<feGaussianBlur stdDeviation="8"/>
<feComposite in2="hardAlpha" operator="out"/>
<feColorMatrix type="matrix" values="0 0 0 0 0 0 0 0 0 0 0 0 0 0 0 0 0 0 0.3 0"/>
<feBlend mode="normal" in2="BackgroundImageFix" result="effect1_dropShadow_1_2606"/>
<feBlend mode="normal" in="SourceGraphic" in2="effect1_dropShadow_1_2606" result="shape"/>
</filter>
<filter id="filter3_d_1_2606" x="33.6926" y="53.7885" width="181.438" height="78.0115" filterUnits="userSpaceOnUse" color-interpolation-filters="sRGB">
<feFlood flood-opacity="0" result="BackgroundImageFix"/>
<feColorMatrix in="SourceAlpha" type="matrix" values="0 0 0 0 0 0 0 0 0 0 0 0 0 0 0 0 0 0 127 0" result="hardAlpha"/>
<feOffset dy="6"/>
<feGaussianBlur stdDeviation="8"/>
<feComposite in2="hardAlpha" operator="out"/>
<feColorMatrix type="matrix" values="0 0 0 0 0 0 0 0 0 0 0 0 0 0 0 0 0 0 0.3 0"/>
<feBlend mode="normal" in2="BackgroundImageFix" result="effect1_dropShadow_1_2606"/>
<feBlend mode="normal" in="SourceGraphic" in2="effect1_dropShadow_1_2606" result="shape"/>
</filter>
<filter id="filter4_d_1_2606" x="190.749" y="53.7885" width="157.496" height="78.0115" filterUnits="userSpaceOnUse" color-interpolation-filters="sRGB">
<feFlood flood-opacity="0" result="BackgroundImageFix"/>
<feColorMatrix in="SourceAlpha" type="matrix" values="0 0 0 0 0 0 0 0 0 0 0 0 0 0 0 0 0 0 127 0" result="hardAlpha"/>
<feOffset dy="6"/>
<feGaussianBlur stdDeviation="8"/>
<feComposite in2="hardAlpha" operator="out"/>
<feColorMatrix type="matrix" values="0 0 0 0 0 0 0 0 0 0 0 0 0 0 0 0 0 0 0.3 0"/>
<feBlend mode="normal" in2="BackgroundImageFix" result="effect1_dropShadow_1_2606"/>
<feBlend mode="normal" in="SourceGraphic" in2="effect1_dropShadow_1_2606" result="shape"/>
</filter>
<filter id="filter5_d_1_2606" x="341.102" y="0.157837" width="204.422" height="78.0115" filterUnits="userSpaceOnUse" color-interpolation-filters="sRGB">
<feFlood flood-opacity="0" result="BackgroundImageFix"/>
<feColorMatrix in="SourceAlpha" type="matrix" values="0 0 0 0 0 0 0 0 0 0 0 0 0 0 0 0 0 0 127 0" result="hardAlpha"/>
<feOffset dy="6"/>
<feGaussianBlur stdDeviation="8"/>
<feComposite in2="hardAlpha" operator="out"/>
<feColorMatrix type="matrix" values="0 0 0 0 0 0 0 0 0 0 0 0 0 0 0 0 0 0 0.3 0"/>
<feBlend mode="normal" in2="BackgroundImageFix" result="effect1_dropShadow_1_2606"/>
<feBlend mode="normal" in="SourceGraphic" in2="effect1_dropShadow_1_2606" result="shape"/>
</filter>
<filter id="filter6_d_1_2606" x="21.243" y="0.157837" width="204.422" height="78.0115" filterUnits="userSpaceOnUse" color-interpolation-filters="sRGB">
<feFlood flood-opacity="0" result="BackgroundImageFix"/>
<feColorMatrix in="SourceAlpha" type="matrix" values="0 0 0 0 0 0 0 0 0 0 0 0 0 0 0 0 0 0 127 0" result="hardAlpha"/>
<feOffset dy="6"/>
<feGaussianBlur stdDeviation="8"/>
<feComposite in2="hardAlpha" operator="out"/>
<feColorMatrix type="matrix" values="0 0 0 0 0 0 0 0 0 0 0 0 0 0 0 0 0 0 0.3 0"/>
<feBlend mode="normal" in2="BackgroundImageFix" result="effect1_dropShadow_1_2606"/>
<feBlend mode="normal" in="SourceGraphic" in2="effect1_dropShadow_1_2606" result="shape"/>
</filter>
<filter id="filter7_d_1_2606" x="-2.69858" y="213.723" width="204.422" height="78.0115" filterUnits="userSpaceOnUse" color-interpolation-filters="sRGB">
<feFlood flood-opacity="0" result="BackgroundImageFix"/>
<feColorMatrix in="SourceAlpha" type="matrix" values="0 0 0 0 0 0 0 0 0 0 0 0 0 0 0 0 0 0 127 0" result="hardAlpha"/>
<feOffset dy="6"/>
<feGaussianBlur stdDeviation="8"/>
<feComposite in2="hardAlpha" operator="out"/>
<feColorMatrix type="matrix" values="0 0 0 0 0 0 0 0 0 0 0 0 0 0 0 0 0 0 0.3 0"/>
<feBlend mode="normal" in2="BackgroundImageFix" result="effect1_dropShadow_1_2606"/>
<feBlend mode="normal" in="SourceGraphic" in2="effect1_dropShadow_1_2606" result="shape"/>
</filter>
<filter id="filter8_d_1_2606" x="177.342" y="213.723" width="204.422" height="78.0115" filterUnits="userSpaceOnUse" color-interpolation-filters="sRGB">
<feFlood flood-opacity="0" result="BackgroundImageFix"/>
<feColorMatrix in="SourceAlpha" type="matrix" values="0 0 0 0 0 0 0 0 0 0 0 0 0 0 0 0 0 0 127 0" result="hardAlpha"/>
<feOffset dy="6"/>
<feGaussianBlur stdDeviation="8"/>
<feComposite in2="hardAlpha" operator="out"/>
<feColorMatrix type="matrix" values="0 0 0 0 0 0 0 0 0 0 0 0 0 0 0 0 0 0 0.3 0"/>
<feBlend mode="normal" in2="BackgroundImageFix" result="effect1_dropShadow_1_2606"/>
<feBlend mode="normal" in="SourceGraphic" in2="effect1_dropShadow_1_2606" result="shape"/>
</filter>
<filter id="filter9_d_1_2606" x="355.467" y="213.723" width="204.422" height="78.0115" filterUnits="userSpaceOnUse" color-interpolation-filters="sRGB">
<feFlood flood-opacity="0" result="BackgroundImageFix"/>
<feColorMatrix in="SourceAlpha" type="matrix" values="0 0 0 0 0 0 0 0 0 0 0 0 0 0 0 0 0 0 127 0" result="hardAlpha"/>
<feOffset dy="6"/>
<feGaussianBlur stdDeviation="8"/>
<feComposite in2="hardAlpha" operator="out"/>
<feColorMatrix type="matrix" values="0 0 0 0 0 0 0 0 0 0 0 0 0 0 0 0 0 0 0.3 0"/>
<feBlend mode="normal" in2="BackgroundImageFix" result="effect1_dropShadow_1_2606"/>
<feBlend mode="normal" in="SourceGraphic" in2="effect1_dropShadow_1_2606" result="shape"/>
</filter>
<filter id="filter10_d_1_2606" x="23.1583" y="160.092" width="204.422" height="78.0115" filterUnits="userSpaceOnUse" color-interpolation-filters="sRGB">
<feFlood flood-opacity="0" result="BackgroundImageFix"/>
<feColorMatrix in="SourceAlpha" type="matrix" values="0 0 0 0 0 0 0 0 0 0 0 0 0 0 0 0 0 0 127 0" result="hardAlpha"/>
<feOffset dy="6"/>
<feGaussianBlur stdDeviation="8"/>
<feComposite in2="hardAlpha" operator="out"/>
<feColorMatrix type="matrix" values="0 0 0 0 0 0 0 0 0 0 0 0 0 0 0 0 0 0 0.3 0"/>
<feBlend mode="normal" in2="BackgroundImageFix" result="effect1_dropShadow_1_2606"/>
<feBlend mode="normal" in="SourceGraphic" in2="effect1_dropShadow_1_2606" result="shape"/>
</filter>
<filter id="filter11_d_1_2606" x="350.679" y="160.092" width="204.422" height="78.0115" filterUnits="userSpaceOnUse" color-interpolation-filters="sRGB">
<feFlood flood-opacity="0" result="BackgroundImageFix"/>
<feColorMatrix in="SourceAlpha" type="matrix" values="0 0 0 0 0 0 0 0 0 0 0 0 0 0 0 0 0 0 127 0" result="hardAlpha"/>
<feOffset dy="6"/>
<feGaussianBlur stdDeviation="8"/>
<feComposite in2="hardAlpha" operator="out"/>
<feColorMatrix type="matrix" values="0 0 0 0 0 0 0 0 0 0 0 0 0 0 0 0 0 0 0.3 0"/>
<feBlend mode="normal" in2="BackgroundImageFix" result="effect1_dropShadow_1_2606"/>
<feBlend mode="normal" in="SourceGraphic" in2="effect1_dropShadow_1_2606" result="shape"/>
</filter>
<filter id="filter12_d_1_2606" x="203.199" y="160.092" width="171.861" height="78.0115" filterUnits="userSpaceOnUse" color-interpolation-filters="sRGB">
<feFlood flood-opacity="0" result="BackgroundImageFix"/>
<feColorMatrix in="SourceAlpha" type="matrix" values="0 0 0 0 0 0 0 0 0 0 0 0 0 0 0 0 0 0 127 0" result="hardAlpha"/>
<feOffset dy="6"/>
<feGaussianBlur stdDeviation="8"/>
<feComposite in2="hardAlpha" operator="out"/>
<feColorMatrix type="matrix" values="0 0 0 0 0 0 0 0 0 0 0 0 0 0 0 0 0 0 0.3 0"/>
<feBlend mode="normal" in2="BackgroundImageFix" result="effect1_dropShadow_1_2606"/>
<feBlend mode="normal" in="SourceGraphic" in2="effect1_dropShadow_1_2606" result="shape"/>
</filter>
<filter id="filter13_d_1_2606" x="356.425" y="107.419" width="201.549" height="78.0115" filterUnits="userSpaceOnUse" color-interpolation-filters="sRGB">
<feFlood flood-opacity="0" result="BackgroundImageFix"/>
<feColorMatrix in="SourceAlpha" type="matrix" values="0 0 0 0 0 0 0 0 0 0 0 0 0 0 0 0 0 0 127 0" result="hardAlpha"/>
<feOffset dy="6"/>
<feGaussianBlur stdDeviation="8"/>
<feComposite in2="hardAlpha" operator="out"/>
<feColorMatrix type="matrix" values="0 0 0 0 0 0 0 0 0 0 0 0 0 0 0 0 0 0 0.3 0"/>
<feBlend mode="normal" in2="BackgroundImageFix" result="effect1_dropShadow_1_2606"/>
<feBlend mode="normal" in="SourceGraphic" in2="effect1_dropShadow_1_2606" result="shape"/>
</filter>
<filter id="filter14_d_1_2606" x="180.215" y="107.419" width="200.591" height="78.0115" filterUnits="userSpaceOnUse" color-interpolation-filters="sRGB">
<feFlood flood-opacity="0" result="BackgroundImageFix"/>
<feColorMatrix in="SourceAlpha" type="matrix" values="0 0 0 0 0 0 0 0 0 0 0 0 0 0 0 0 0 0 127 0" result="hardAlpha"/>
<feOffset dy="6"/>
<feGaussianBlur stdDeviation="8"/>
<feComposite in2="hardAlpha" operator="out"/>
<feColorMatrix type="matrix" values="0 0 0 0 0 0 0 0 0 0 0 0 0 0 0 0 0 0 0.3 0"/>
<feBlend mode="normal" in2="BackgroundImageFix" result="effect1_dropShadow_1_2606"/>
<feBlend mode="normal" in="SourceGraphic" in2="effect1_dropShadow_1_2606" result="shape"/>
</filter>
<filter id="filter15_di_1_2606" x="209.963" y="132.195" width="13.5618" height="15.3553" filterUnits="userSpaceOnUse" color-interpolation-filters="sRGB">
<feFlood flood-opacity="0" result="BackgroundImageFix"/>
<feColorMatrix in="SourceAlpha" type="matrix" values="0 0 0 0 0 0 0 0 0 0 0 0 0 0 0 0 0 0 127 0" result="hardAlpha"/>
<feOffset dy="1"/>
<feGaussianBlur stdDeviation="0.5"/>
<feComposite in2="hardAlpha" operator="out"/>
<feColorMatrix type="matrix" values="0 0 0 0 0 0 0 0 0 0 0 0 0 0 0 0 0 0 0.15 0"/>
<feBlend mode="normal" in2="BackgroundImageFix" result="effect1_dropShadow_1_2606"/>
<feBlend mode="normal" in="SourceGraphic" in2="effect1_dropShadow_1_2606" result="shape"/>
<feColorMatrix in="SourceAlpha" type="matrix" values="0 0 0 0 0 0 0 0 0 0 0 0 0 0 0 0 0 0 127 0" result="hardAlpha"/>
<feOffset dy="3"/>
<feGaussianBlur stdDeviation="2"/>
<feComposite in2="hardAlpha" operator="arithmetic" k2="-1" k3="1"/>
<feColorMatrix type="matrix" values="0 0 0 0 0 0 0 0 0 0 0 0 0 0 0 0 0 0 0.2 0"/>
<feBlend mode="normal" in2="shape" result="effect2_innerShadow_1_2606"/>
</filter>
<filter id="filter16_di_1_2606" x="216.557" y="139.583" width="11.8919" height="12.0724" filterUnits="userSpaceOnUse" color-interpolation-filters="sRGB">
<feFlood flood-opacity="0" result="BackgroundImageFix"/>
<feColorMatrix in="SourceAlpha" type="matrix" values="0 0 0 0 0 0 0 0 0 0 0 0 0 0 0 0 0 0 127 0" result="hardAlpha"/>
<feOffset dy="1"/>
<feGaussianBlur stdDeviation="0.5"/>
<feComposite in2="hardAlpha" operator="out"/>
<feColorMatrix type="matrix" values="0 0 0 0 0 0 0 0 0 0 0 0 0 0 0 0 0 0 0.15 0"/>
<feBlend mode="normal" in2="BackgroundImageFix" result="effect1_dropShadow_1_2606"/>
<feBlend mode="normal" in="SourceGraphic" in2="effect1_dropShadow_1_2606" result="shape"/>
<feColorMatrix in="SourceAlpha" type="matrix" values="0 0 0 0 0 0 0 0 0 0 0 0 0 0 0 0 0 0 127 0" result="hardAlpha"/>
<feOffset dy="3"/>
<feGaussianBlur stdDeviation="2"/>
<feComposite in2="hardAlpha" operator="arithmetic" k2="-1" k3="1"/>
<feColorMatrix type="matrix" values="0 0 0 0 0 0 0 0 0 0 0 0 0 0 0 0 0 0 0.2 0"/>
<feBlend mode="normal" in2="shape" result="effect2_innerShadow_1_2606"/>
</filter>
<linearGradient id="paint0_linear_1_2606" x1="219.22" y1="128.932" x2="219.22" y2="151.917" gradientUnits="userSpaceOnUse">
<stop stop-color="#FF5C2D"/>
<stop offset="1" stop-color="#D63D0E"/>
</linearGradient>
<linearGradient id="paint1_linear_1_2606" x1="217.396" y1="132.216" x2="217.396" y2="144.529" gradientUnits="userSpaceOnUse">
<stop stop-color="white"/>
<stop offset="1" stop-color="#FFE0D7"/>
</linearGradient>
<linearGradient id="paint2_linear_1_2606" x1="223.051" y1="139.604" x2="223.051" y2="148.634" gradientUnits="userSpaceOnUse">
<stop stop-color="white"/>
<stop offset="1" stop-color="#FFE0D7"/>
</linearGradient>
<clipPath id="clip0_1_2606">
<rect width="561.19" height="290.18" fill="white" transform="translate(-2 0.602051)"/>
</clipPath>
</defs>
</svg>
