<svg width="564" height="325" viewBox="0 0 564 325" fill="none" xmlns="http://www.w3.org/2000/svg">
<path d="M24.63 0.652588H539.82C552.799 0.652852 563.32 11.1741 563.32 24.1526V300.153C563.32 313.131 552.799 323.652 539.82 323.653H24.63C11.6513 323.653 1.13 313.131 1.13 300.153V24.1526C1.13001 11.1739 11.6513 0.652588 24.63 0.652588Z" stroke="#222222"/>
<g clip-path="url(#clip0_1_2814)">
<g clip-path="url(#clip1_1_2814)">
<g clip-path="url(#clip2_1_2814)">
<path d="M26.7169 231.474C26.7169 225.051 31.9242 219.843 38.3478 219.843H216.35C222.773 219.843 227.981 225.051 227.981 231.474V275.975C227.981 282.398 222.773 287.605 216.35 287.605H38.3478C31.9242 287.605 26.7169 282.398 26.7169 275.975V231.474Z" stroke="#313138"/>
<path d="M183.986 263.838H44.416C41.0646 263.838 38.3478 266.555 38.3478 269.906C38.3478 273.258 41.0646 275.975 44.416 275.975H183.986C187.338 275.975 190.054 273.258 190.054 269.906C190.054 266.555 187.338 263.838 183.986 263.838Z" fill="white" fill-opacity="0.06"/>
<path d="M52.507 231.474H44.416C41.0646 231.474 38.3478 234.191 38.3478 237.542V245.633C38.3478 248.985 41.0646 251.701 44.416 251.701H52.507C55.8584 251.701 58.5753 248.985 58.5753 245.633V237.542C58.5753 234.191 55.8584 231.474 52.507 231.474Z" fill="#313138"/>
<path d="M141.508 235.52H72.7346C69.3832 235.52 66.6663 238.236 66.6663 241.588C66.6663 244.939 69.3832 247.656 72.7346 247.656H141.508C144.86 247.656 147.577 244.939 147.577 241.588C147.577 238.236 144.86 235.52 141.508 235.52Z" fill="white" fill-opacity="0.06"/>
<path d="M26.7169 37.2891C26.7169 30.8655 31.9242 25.6582 38.3478 25.6582H216.35C222.773 25.6582 227.981 30.8655 227.981 37.2891V81.7898C227.981 88.2133 222.773 93.4206 216.35 93.4206H38.3478C31.9242 93.4206 26.7169 88.2133 26.7169 81.7898V37.2891Z" stroke="#313138"/>
<path d="M183.986 69.6533H44.416C41.0646 69.6533 38.3478 72.3702 38.3478 75.7216C38.3478 79.073 41.0646 81.7899 44.416 81.7899H183.986C187.338 81.7899 190.054 79.073 190.054 75.7216C190.054 72.3702 187.338 69.6533 183.986 69.6533Z" fill="white" fill-opacity="0.06"/>
<path d="M52.507 37.2891H44.416C41.0646 37.2891 38.3478 40.0059 38.3478 43.3573V51.4484C38.3478 54.7998 41.0646 57.5166 44.416 57.5166H52.507C55.8584 57.5166 58.5753 54.7998 58.5753 51.4484V43.3573C58.5753 40.0059 55.8584 37.2891 52.507 37.2891Z" fill="#313138"/>
<path d="M141.508 41.3347H72.7346C69.3832 41.3347 66.6663 44.0516 66.6663 47.403C66.6663 50.7544 69.3832 53.4713 72.7346 53.4713H141.508C144.86 53.4713 147.577 50.7544 147.577 47.403C147.577 44.0516 144.86 41.3347 141.508 41.3347Z" fill="white" fill-opacity="0.06"/>
<path d="M26.7169 134.382C26.7169 127.958 31.9242 122.751 38.3478 122.751H216.35C222.773 122.751 227.981 127.958 227.981 134.382V178.882C227.981 185.306 222.773 190.513 216.35 190.513H38.3478C31.9242 190.513 26.7169 185.306 26.7169 178.882V134.382Z" fill="#402F4E" stroke="#8255A5"/>
<path d="M54.5298 133.37H42.3933C40.159 133.37 38.3478 135.181 38.3478 137.416V149.552C38.3478 151.786 40.159 153.598 42.3933 153.598H54.5298C56.7641 153.598 58.5753 151.786 58.5753 149.552V137.416C58.5753 135.181 56.7641 133.37 54.5298 133.37Z" fill="#9A39E6"/>
<path d="M49.5309 138.872C49.5298 138.452 49.0002 138.267 48.7365 138.594L44.7675 143.521C44.5793 143.755 44.6715 144.103 44.9508 144.213L46.7423 144.922L46.713 148.724C46.7097 149.144 47.2374 149.334 47.5044 149.009L51.5206 144.128C51.7111 143.896 51.6227 143.548 51.3449 143.433L49.5399 142.696L49.5309 138.872Z" fill="white"/>
<path d="M44.0719 138.426C43.8658 138.498 43.8658 138.801 44.0719 138.873L44.4383 139C44.7082 139.094 44.9201 139.314 45.0101 139.594L45.1322 139.975C45.2008 140.19 45.4923 140.19 45.5611 139.975L45.6832 139.594C45.7732 139.314 45.9851 139.094 46.255 139L46.6213 138.873C46.8274 138.801 46.8274 138.498 46.6213 138.426L46.255 138.3C45.9851 138.206 45.7732 137.985 45.6832 137.705L45.5611 137.324C45.4923 137.109 45.2008 137.109 45.1322 137.324L45.0101 137.705C44.9201 137.985 44.7082 138.206 44.4383 138.3L44.0719 138.426Z" fill="white" fill-opacity="0.6"/>
<path d="M42.2641 141.474C42.0992 141.418 42.0992 141.175 42.2641 141.118L42.494 141.039C42.629 140.991 42.7349 140.882 42.7799 140.741L42.8566 140.501C42.9115 140.331 43.1447 140.331 43.1996 140.501L43.2763 140.741C43.3213 140.882 43.4272 140.991 43.5622 141.039L43.7921 141.118C43.957 141.175 43.957 141.418 43.7921 141.474L43.5622 141.554C43.4272 141.602 43.3213 141.712 43.2763 141.852L43.1996 142.091C43.1447 142.262 42.9115 142.262 42.8566 142.091L42.7799 141.852C42.7349 141.712 42.629 141.602 42.494 141.554L42.2641 141.474Z" fill="white" fill-opacity="0.6"/>
<path d="M53.7291 138.005C53.9897 138.005 54.1044 138.272 54.237 138.581C54.3402 138.821 54.4541 139.087 54.6562 139.27C54.8583 139.454 55.15 139.557 55.4141 139.651C55.7533 139.771 56.0469 139.875 56.0469 140.113C56.0469 140.35 55.7533 140.454 55.4141 140.574C55.15 140.668 54.8583 140.771 54.6562 140.956C54.4541 141.14 54.3402 141.405 54.237 141.644C54.1044 141.953 53.9897 142.22 53.7291 142.22C53.4686 142.22 53.3538 141.953 53.2213 141.644C53.1181 141.405 53.0041 141.14 52.8021 140.956C52.6 140.771 52.3082 140.668 52.0441 140.574C51.705 140.454 51.4114 140.35 51.4114 140.113C51.4114 139.875 51.705 139.771 52.0441 139.651C52.3082 139.557 52.6 139.454 52.8021 139.27C53.0041 139.087 53.1181 138.821 53.2213 138.581C53.3538 138.272 53.4686 138.005 53.7291 138.005Z" fill="white" fill-opacity="0.6"/>
<path d="M67.2007 139.849V138.703H74.0319V139.849H71.2779V147.529H69.9505V139.849H67.2007ZM76.7266 143.599V147.529H75.4379V138.703H76.7093V141.987H76.7912C76.9464 141.631 77.1834 141.348 77.5023 141.137C77.8213 140.928 78.2379 140.823 78.7522 140.823C79.2062 140.823 79.6026 140.917 79.9418 141.103C80.2836 141.29 80.548 141.569 80.7348 141.94C80.9244 142.308 81.0192 142.767 81.0192 143.319V147.529H79.7306V143.474C79.7306 142.988 79.6056 142.612 79.3556 142.345C79.1057 142.075 78.7579 141.94 78.3126 141.94C78.008 141.94 77.735 142.004 77.4937 142.134C77.2552 142.263 77.067 142.452 76.9292 142.702C76.7941 142.95 76.7266 143.248 76.7266 143.599ZM86.9323 144.785V140.91H88.2252V147.529H86.9582V146.383H86.8892C86.7369 146.736 86.4927 147.031 86.1566 147.266C85.8232 147.499 85.4081 147.615 84.911 147.615C84.4858 147.615 84.1093 147.522 83.7818 147.335C83.4571 147.146 83.2014 146.866 83.0146 146.495C82.8308 146.125 82.7388 145.666 82.7388 145.12V140.91H84.0274V144.965C84.0274 145.417 84.1524 145.776 84.4024 146.043C84.6523 146.31 84.9771 146.443 85.3764 146.443C85.6178 146.443 85.8577 146.383 86.0962 146.262C86.3375 146.142 86.5373 145.959 86.6952 145.715C86.8561 145.47 86.9351 145.161 86.9323 144.785ZM91.2454 143.599V147.529H89.9567V140.91H91.1936V141.987H91.2756C91.4279 141.636 91.6664 141.355 91.991 141.143C92.3185 140.929 92.7308 140.823 93.2279 140.823C93.679 140.823 94.074 140.918 94.4132 141.108C94.7522 141.294 95.015 141.573 95.2018 141.944C95.3885 142.315 95.482 142.773 95.482 143.319V147.529H94.1933V143.474C94.1933 142.994 94.0684 142.619 93.8184 142.349C93.5684 142.076 93.225 141.94 92.7883 141.94C92.4895 141.94 92.2237 142.004 91.991 142.134C91.7611 142.263 91.5787 142.452 91.4436 142.702C91.3115 142.95 91.2454 143.248 91.2454 143.599ZM99.6884 147.659C99.154 147.659 98.677 147.522 98.2575 147.249C97.8409 146.973 97.5133 146.581 97.2748 146.073C97.0393 145.561 96.9215 144.947 96.9215 144.232C96.9215 143.517 97.0407 142.905 97.2792 142.397C97.5205 141.888 97.8509 141.499 98.2704 141.229C98.69 140.958 99.1654 140.823 99.697 140.823C100.108 140.823 100.438 140.893 100.688 141.03C100.941 141.165 101.136 141.324 101.274 141.505C101.415 141.686 101.524 141.844 101.602 141.983H101.679V138.703H102.968V147.529H101.71V146.5H101.602C101.524 146.64 101.412 146.801 101.266 146.982C101.122 147.163 100.924 147.321 100.671 147.457C100.418 147.591 100.091 147.659 99.6884 147.659ZM99.9728 146.56C100.343 146.56 100.657 146.462 100.912 146.266C101.171 146.068 101.366 145.794 101.498 145.444C101.634 145.093 101.701 144.684 101.701 144.219C101.701 143.76 101.635 143.357 101.503 143.013C101.371 142.668 101.177 142.4 100.921 142.207C100.665 142.014 100.349 141.918 99.9728 141.918C99.5849 141.918 99.2617 142.018 99.0031 142.22C98.7445 142.421 98.5491 142.695 98.417 143.043C98.2876 143.391 98.223 143.782 98.223 144.219C98.223 144.662 98.2891 145.06 98.4212 145.414C98.5534 145.767 98.7488 146.047 99.0074 146.254C99.2689 146.457 99.5907 146.56 99.9728 146.56ZM107.66 147.663C107.008 147.663 106.447 147.523 105.975 147.245C105.507 146.963 105.145 146.569 104.889 146.06C104.636 145.548 104.51 144.949 104.51 144.263C104.51 143.584 104.636 142.987 104.889 142.469C105.145 141.953 105.501 141.549 105.958 141.259C106.418 140.969 106.955 140.823 107.57 140.823C107.944 140.823 108.306 140.885 108.656 141.009C109.007 141.132 109.321 141.326 109.6 141.591C109.879 141.855 110.098 142.198 110.259 142.62C110.42 143.04 110.501 143.55 110.501 144.15V144.608H105.238V143.642H109.238C109.238 143.303 109.169 143.002 109.031 142.742C108.893 142.477 108.699 142.268 108.449 142.117C108.202 141.964 107.912 141.888 107.579 141.888C107.217 141.888 106.901 141.977 106.63 142.155C106.363 142.33 106.156 142.561 106.01 142.845C105.866 143.126 105.794 143.432 105.794 143.763V144.517C105.794 144.96 105.872 145.336 106.027 145.646C106.185 145.957 106.405 146.193 106.687 146.357C106.968 146.518 107.297 146.599 107.673 146.599C107.918 146.599 108.14 146.564 108.341 146.495C108.543 146.423 108.716 146.317 108.863 146.176C109.009 146.036 109.122 145.862 109.199 145.654L110.419 145.875C110.321 146.234 110.146 146.548 109.893 146.818C109.643 147.085 109.328 147.294 108.949 147.443C108.573 147.59 108.143 147.663 107.66 147.663ZM111.931 147.529V140.91H113.176V141.961H113.245C113.366 141.605 113.578 141.325 113.883 141.12C114.19 140.914 114.538 140.811 114.926 140.811C115.006 140.811 115.101 140.813 115.21 140.819C115.322 140.825 115.41 140.832 115.473 140.84V142.073C115.421 142.059 115.33 142.043 115.197 142.025C115.065 142.005 114.933 141.995 114.801 141.995C114.496 141.995 114.225 142.06 113.986 142.189C113.751 142.316 113.564 142.493 113.426 142.719C113.288 142.944 113.219 143.2 113.219 143.487V147.529H111.931ZM116.692 147.529V138.703H117.98V141.983H118.058C118.133 141.844 118.24 141.686 118.381 141.505C118.522 141.324 118.717 141.165 118.967 141.03C119.217 140.893 119.548 140.823 119.959 140.823C120.493 140.823 120.97 140.958 121.39 141.229C121.809 141.499 122.138 141.888 122.377 142.397C122.618 142.905 122.738 143.517 122.738 144.232C122.738 144.947 122.619 145.561 122.381 146.073C122.142 146.581 121.815 146.973 121.398 147.249C120.982 147.522 120.506 147.659 119.972 147.659C119.569 147.659 119.24 147.591 118.985 147.457C118.732 147.321 118.533 147.163 118.39 146.982C118.246 146.801 118.136 146.64 118.058 146.5H117.95V147.529H116.692ZM117.955 144.219C117.955 144.684 118.022 145.093 118.157 145.444C118.292 145.794 118.488 146.068 118.743 146.266C118.999 146.462 119.312 146.56 119.683 146.56C120.068 146.56 120.39 146.457 120.648 146.254C120.907 146.047 121.102 145.767 121.234 145.414C121.369 145.06 121.437 144.662 121.437 144.219C121.437 143.782 121.371 143.391 121.239 143.043C121.109 142.695 120.914 142.421 120.653 142.22C120.394 142.018 120.071 141.918 119.683 141.918C119.309 141.918 118.993 142.014 118.735 142.207C118.479 142.4 118.285 142.668 118.153 143.013C118.021 143.357 117.955 143.76 117.955 144.219ZM124.186 147.529V140.91H125.474V147.529H124.186ZM124.836 139.888C124.612 139.888 124.42 139.814 124.259 139.664C124.101 139.511 124.022 139.33 124.022 139.121C124.022 138.908 124.101 138.727 124.259 138.578C124.42 138.426 124.612 138.349 124.836 138.349C125.06 138.349 125.251 138.426 125.41 138.578C125.57 138.727 125.651 138.908 125.651 139.121C125.651 139.33 125.57 139.511 125.41 139.664C125.251 139.814 125.06 139.888 124.836 139.888ZM130.298 140.91V141.944H126.682V140.91H130.298ZM127.651 139.323H128.941V145.586C128.941 145.835 128.977 146.023 129.052 146.15C129.127 146.274 129.223 146.358 129.341 146.405C129.462 146.447 129.592 146.469 129.734 146.469C129.837 146.469 129.927 146.462 130.005 146.447C130.083 146.433 130.142 146.422 130.186 146.413L130.418 147.478C130.344 147.506 130.237 147.535 130.1 147.564C129.961 147.595 129.789 147.612 129.582 147.615C129.243 147.621 128.928 147.561 128.634 147.434C128.341 147.308 128.104 147.113 127.923 146.849C127.742 146.584 127.651 146.252 127.651 145.853V139.323ZM135.785 147.529H134.371L137.547 138.703H139.086L142.262 147.529H140.849L138.353 140.306H138.284L135.785 147.529ZM136.022 144.073H140.607V145.193H136.022V144.073ZM144.868 138.703V147.529H143.537V138.703H144.868Z" fill="white" fill-opacity="0.6"/>
<path d="M39.3175 175.848V167.022H44.8513V168.168H40.6492V170.857H44.5626V172H40.6492V174.701H44.903V175.848H39.3175ZM47.5439 169.229L49.0049 171.806L50.4789 169.229H51.8882L49.8238 172.538L51.9055 175.848H50.4961L49.0049 173.374L47.518 175.848H46.1044L48.1645 172.538L46.1303 169.229H47.5439ZM56.3015 169.229V170.262H52.6856V169.229H56.3015ZM53.6553 167.642H54.9439V173.904C54.9439 174.154 54.9813 174.342 55.0559 174.469C55.1307 174.593 55.2269 174.677 55.3448 174.723C55.4654 174.766 55.5961 174.788 55.7369 174.788C55.8403 174.788 55.9309 174.781 56.0084 174.766C56.086 174.752 56.1464 174.741 56.1895 174.732L56.4222 175.797C56.3474 175.825 56.2411 175.854 56.1033 175.882C55.9653 175.914 55.7929 175.931 55.5861 175.934C55.2471 175.94 54.931 175.879 54.6379 175.753C54.3448 175.627 54.1077 175.431 53.9268 175.167C53.7458 174.902 53.6553 174.571 53.6553 174.171V167.642ZM57.727 175.848V169.229H58.9726V170.279H59.0414C59.1622 169.923 59.3748 169.643 59.6793 169.439C59.9868 169.233 60.3344 169.13 60.7224 169.13C60.8028 169.13 60.8976 169.132 61.0068 169.138C61.1188 169.144 61.2065 169.151 61.2697 169.159V170.392C61.2179 170.378 61.126 170.361 60.9938 170.344C60.8617 170.324 60.7295 170.314 60.5974 170.314C60.2928 170.314 60.0213 170.379 59.7828 170.508C59.5471 170.634 59.3604 170.811 59.2225 171.038C59.0846 171.263 59.0157 171.518 59.0157 171.806V175.848H57.727ZM64.2521 175.995C63.8326 175.995 63.4534 175.917 63.1143 175.762C62.7753 175.604 62.5066 175.376 62.3084 175.076C62.113 174.778 62.0153 174.412 62.0153 173.978C62.0153 173.604 62.0871 173.296 62.2307 173.056C62.3744 172.814 62.5684 172.623 62.8126 172.482C63.0568 172.342 63.3298 172.235 63.6315 172.164C63.9332 172.092 64.2406 172.037 64.5538 172C64.9503 171.953 65.272 171.916 65.5192 171.888C65.7663 171.856 65.9458 171.806 66.0579 171.737C66.1699 171.667 66.226 171.556 66.226 171.4V171.37C66.226 170.994 66.1197 170.702 65.9071 170.495C65.6973 170.289 65.3841 170.185 64.9675 170.185C64.5336 170.185 64.1918 170.281 63.9418 170.474C63.6947 170.664 63.5238 170.874 63.4289 171.107L62.2179 170.832C62.3615 170.429 62.5713 170.104 62.8471 169.858C63.1258 169.608 63.4462 169.427 63.8082 169.315C64.1702 169.199 64.5509 169.142 64.9503 169.142C65.2146 169.142 65.4947 169.174 65.7907 169.237C66.0895 169.297 66.3683 169.41 66.6268 169.573C66.8883 169.736 67.1023 169.971 67.269 170.275C67.4357 170.577 67.5189 170.969 67.5189 171.452V175.848H66.2605V174.943H66.2088C66.1254 175.11 66.0004 175.274 65.8338 175.434C65.6672 175.595 65.4531 175.729 65.1916 175.835C64.9302 175.941 64.617 175.995 64.2521 175.995ZM64.5322 174.96C64.8885 174.96 65.1931 174.89 65.4459 174.749C65.7017 174.608 65.8956 174.424 66.0277 174.198C66.1628 173.968 66.2303 173.722 66.2303 173.46V172.607C66.1843 172.653 66.0953 172.697 65.9631 172.736C65.8338 172.774 65.6858 172.807 65.5192 172.835C65.3525 172.862 65.1902 172.886 65.0321 172.909C64.8742 172.929 64.742 172.946 64.6357 172.961C64.3857 172.992 64.1573 173.046 63.9504 173.12C63.7464 173.194 63.5826 173.302 63.459 173.443C63.3384 173.582 63.2781 173.765 63.2781 173.995C63.2781 174.314 63.3958 174.556 63.6315 174.719C63.867 174.88 64.1673 174.96 64.5322 174.96ZM72.0238 175.982C71.3831 175.982 70.8315 175.837 70.3689 175.547C69.9091 175.253 69.5557 174.85 69.3086 174.335C69.0616 173.821 68.938 173.232 68.938 172.568C68.938 171.896 69.0644 171.303 69.3172 170.788C69.5701 170.271 69.9264 169.868 70.3861 169.578C70.8458 169.287 71.3874 169.142 72.0108 169.142C72.5137 169.142 72.9619 169.236 73.3556 169.422C73.7492 169.606 74.0667 169.865 74.3081 170.198C74.5522 170.531 74.6974 170.921 74.7434 171.366H73.4892C73.4202 171.055 73.2622 170.788 73.015 170.565C72.7709 170.34 72.4433 170.228 72.0325 170.228C71.6733 170.228 71.3587 170.323 71.0886 170.512C70.8214 170.699 70.613 170.966 70.4636 171.314C70.3143 171.659 70.2395 172.067 70.2395 172.538C70.2395 173.021 70.3128 173.437 70.4594 173.788C70.6058 174.139 70.8128 174.41 71.08 174.602C71.35 174.795 71.6676 174.891 72.0325 174.891C72.2766 174.891 72.4979 174.847 72.6962 174.758C72.8973 174.666 73.0654 174.535 73.2004 174.365C73.3383 174.196 73.4346 173.992 73.4892 173.754H74.7434C74.6974 174.181 74.558 174.564 74.3253 174.899C74.0926 175.236 73.7808 175.5 73.3901 175.693C73.0022 175.886 72.5468 175.982 72.0238 175.982ZM79.2116 169.229V170.262H75.5956V169.229H79.2116ZM76.5653 167.642H77.854V173.904C77.854 174.154 77.8913 174.342 77.966 174.469C78.0407 174.593 78.137 174.677 78.2548 174.723C78.3754 174.766 78.5062 174.788 78.647 174.788C78.7505 174.788 78.8409 174.781 78.9185 174.766C78.9961 174.752 79.0564 174.741 79.0995 174.732L79.3322 175.797C79.2576 175.825 79.1513 175.854 79.0133 175.882C78.8754 175.914 78.703 175.931 78.4961 175.934C78.1571 175.94 77.841 175.879 77.5479 175.753C77.2549 175.627 77.0179 175.431 76.8368 175.167C76.6558 174.902 76.5653 174.571 76.5653 174.171V167.642ZM85.2842 167.022V175.848H83.9524V167.022H85.2842ZM88.4088 171.918V175.848H87.1201V169.229H88.357V170.306H88.439C88.5913 169.955 88.8298 169.674 89.1544 169.461C89.4819 169.248 89.8942 169.142 90.3913 169.142C90.8424 169.142 91.2374 169.237 91.5765 169.427C91.9156 169.613 92.1784 169.892 92.3652 170.262C92.552 170.633 92.6454 171.092 92.6454 171.638V175.848H91.3567V171.792C91.3567 171.313 91.2318 170.938 90.9818 170.668C90.7318 170.395 90.3885 170.258 89.9517 170.258C89.6529 170.258 89.3871 170.323 89.1544 170.452C88.9245 170.582 88.7421 170.771 88.607 171.021C88.4749 171.269 88.4088 171.567 88.4088 171.918ZM97.5242 169.229V170.262H93.7832V169.229H97.5242ZM94.8089 175.848V168.461C94.8089 168.047 94.8994 167.703 95.0805 167.431C95.2614 167.155 95.5014 166.95 95.8002 166.814C96.099 166.677 96.4237 166.608 96.7742 166.608C97.0328 166.608 97.254 166.629 97.4379 166.673C97.6218 166.712 97.7583 166.75 97.8474 166.784L97.5457 167.828C97.4853 167.811 97.4078 167.79 97.3129 167.767C97.2181 167.741 97.1032 167.729 96.9681 167.729C96.655 167.729 96.4309 167.806 96.2958 167.961C96.1637 168.116 96.0975 168.341 96.0975 168.633V175.848H94.8089ZM101.381 175.982C100.761 175.982 100.219 175.839 99.7566 175.555C99.2941 175.271 98.9348 174.873 98.6792 174.361C98.4235 173.85 98.2955 173.252 98.2955 172.568C98.2955 171.881 98.4235 171.281 98.6792 170.767C98.9348 170.252 99.2941 169.853 99.7566 169.568C100.219 169.284 100.761 169.142 101.381 169.142C102.002 169.142 102.544 169.284 103.006 169.568C103.469 169.853 103.828 170.252 104.084 170.767C104.339 171.281 104.467 171.881 104.467 172.568C104.467 173.252 104.339 173.85 104.084 174.361C103.828 174.873 103.469 175.271 103.006 175.555C102.544 175.839 102.002 175.982 101.381 175.982ZM101.386 174.899C101.788 174.899 102.121 174.793 102.386 174.581C102.65 174.368 102.845 174.085 102.972 173.732C103.101 173.378 103.166 172.989 103.166 172.564C103.166 172.141 103.101 171.754 102.972 171.4C102.845 171.044 102.65 170.758 102.386 170.542C102.121 170.327 101.788 170.22 101.386 170.22C100.981 170.22 100.644 170.327 100.377 170.542C100.113 170.758 99.9161 171.044 99.7868 171.4C99.6604 171.754 99.5972 172.141 99.5972 172.564C99.5972 172.989 99.6604 173.378 99.7868 173.732C99.9161 174.085 100.113 174.368 100.377 174.581C100.644 174.793 100.981 174.899 101.386 174.899ZM105.906 175.848V169.229H107.151V170.279H107.22C107.341 169.923 107.553 169.643 107.858 169.439C108.165 169.233 108.513 169.13 108.901 169.13C108.981 169.13 109.076 169.132 109.185 169.138C109.298 169.144 109.385 169.151 109.448 169.159V170.392C109.397 170.378 109.305 170.361 109.173 170.344C109.04 170.324 108.908 170.314 108.776 170.314C108.472 170.314 108.2 170.379 107.961 170.508C107.726 170.634 107.539 170.811 107.401 171.038C107.263 171.263 107.194 171.518 107.194 171.806V175.848H105.906ZM110.564 175.848V169.229H111.8V170.306H111.882C112.02 169.941 112.246 169.656 112.559 169.452C112.872 169.246 113.247 169.142 113.684 169.142C114.126 169.142 114.497 169.246 114.796 169.452C115.098 169.659 115.32 169.944 115.464 170.306H115.533C115.691 169.952 115.942 169.671 116.287 169.461C116.632 169.248 117.043 169.142 117.52 169.142C118.12 169.142 118.61 169.33 118.989 169.707C119.371 170.083 119.562 170.651 119.562 171.409V175.848H118.274V171.53C118.274 171.081 118.152 170.757 117.908 170.556C117.663 170.354 117.372 170.254 117.033 170.254C116.613 170.254 116.287 170.384 116.054 170.642C115.822 170.897 115.705 171.226 115.705 171.629V175.848H114.421V171.448C114.421 171.089 114.309 170.8 114.085 170.582C113.861 170.363 113.569 170.254 113.21 170.254C112.966 170.254 112.74 170.319 112.533 170.448C112.329 170.575 112.164 170.751 112.038 170.978C111.914 171.205 111.852 171.468 111.852 171.766V175.848H110.564ZM123.216 175.995C122.797 175.995 122.417 175.917 122.078 175.762C121.739 175.604 121.471 175.376 121.272 175.076C121.077 174.778 120.979 174.412 120.979 173.978C120.979 173.604 121.051 173.296 121.195 173.056C121.339 172.814 121.532 172.623 121.777 172.482C122.021 172.342 122.294 172.235 122.596 172.164C122.897 172.092 123.205 172.037 123.518 172C123.914 171.953 124.236 171.916 124.483 171.888C124.73 171.856 124.91 171.806 125.022 171.737C125.134 171.667 125.19 171.556 125.19 171.4V171.37C125.19 170.994 125.084 170.702 124.871 170.495C124.661 170.289 124.348 170.185 123.932 170.185C123.498 170.185 123.156 170.281 122.906 170.474C122.659 170.664 122.488 170.874 122.393 171.107L121.182 170.832C121.326 170.429 121.535 170.104 121.811 169.858C122.09 169.608 122.41 169.427 122.772 169.315C123.134 169.199 123.515 169.142 123.914 169.142C124.179 169.142 124.459 169.174 124.755 169.237C125.054 169.297 125.332 169.41 125.591 169.573C125.852 169.736 126.066 169.971 126.233 170.275C126.4 170.577 126.483 170.969 126.483 171.452V175.848H125.225V174.943H125.173C125.09 175.11 124.965 175.274 124.798 175.434C124.631 175.595 124.417 175.729 124.156 175.835C123.894 175.941 123.581 175.995 123.216 175.995ZM123.496 174.96C123.853 174.96 124.157 174.89 124.41 174.749C124.666 174.608 124.86 174.424 124.992 174.198C125.127 173.968 125.194 173.722 125.194 173.46V172.607C125.148 172.653 125.059 172.697 124.927 172.736C124.798 172.774 124.65 172.807 124.483 172.835C124.317 172.862 124.154 172.886 123.996 172.909C123.838 172.929 123.706 172.946 123.6 172.961C123.35 172.992 123.121 173.046 122.914 173.12C122.71 173.194 122.547 173.302 122.423 173.443C122.303 173.582 122.242 173.765 122.242 173.995C122.242 174.314 122.36 174.556 122.596 174.719C122.831 174.88 123.131 174.96 123.496 174.96ZM131.289 169.229V170.262H127.674V169.229H131.289ZM128.644 167.642H129.932V173.904C129.932 174.154 129.969 174.342 130.044 174.469C130.119 174.593 130.215 174.677 130.333 174.723C130.454 174.766 130.584 174.788 130.725 174.788C130.828 174.788 130.919 174.781 130.997 174.766C131.074 174.752 131.135 174.741 131.178 174.732L131.411 175.797C131.336 175.825 131.23 175.854 131.091 175.882C130.954 175.914 130.781 175.931 130.574 175.934C130.235 175.94 129.919 175.879 129.626 175.753C129.333 175.627 129.096 175.431 128.915 175.167C128.734 174.902 128.644 174.571 128.644 174.171V167.642ZM132.715 175.848V169.229H134.004V175.848H132.715ZM133.366 168.207C133.142 168.207 132.949 168.132 132.788 167.983C132.63 167.83 132.551 167.649 132.551 167.44C132.551 167.227 132.63 167.046 132.788 166.896C132.949 166.745 133.142 166.668 133.366 166.668C133.59 166.668 133.781 166.745 133.939 166.896C134.1 167.046 134.181 167.227 134.181 167.44C134.181 167.649 134.1 167.83 133.939 167.983C133.781 168.132 133.59 168.207 133.366 168.207ZM138.526 175.982C137.906 175.982 137.364 175.839 136.901 175.555C136.438 175.271 136.079 174.873 135.823 174.361C135.567 173.85 135.44 173.252 135.44 172.568C135.44 171.881 135.567 171.281 135.823 170.767C136.079 170.252 136.438 169.853 136.901 169.568C137.364 169.284 137.906 169.142 138.526 169.142C139.147 169.142 139.688 169.284 140.151 169.568C140.613 169.853 140.972 170.252 141.228 170.767C141.484 171.281 141.611 171.881 141.611 172.568C141.611 173.252 141.484 173.85 141.228 174.361C140.972 174.873 140.613 175.271 140.151 175.555C139.688 175.839 139.147 175.982 138.526 175.982ZM138.53 174.899C138.932 174.899 139.266 174.793 139.53 174.581C139.794 174.368 139.99 174.085 140.117 173.732C140.245 173.378 140.31 172.989 140.31 172.564C140.31 172.141 140.245 171.754 140.117 171.4C139.99 171.044 139.794 170.758 139.53 170.542C139.266 170.327 138.932 170.22 138.53 170.22C138.125 170.22 137.788 170.327 137.521 170.542C137.257 170.758 137.06 171.044 136.931 171.4C136.804 171.754 136.742 172.141 136.742 172.564C136.742 172.989 136.804 173.378 136.931 173.732C137.06 174.085 137.257 174.368 137.521 174.581C137.788 174.793 138.125 174.899 138.53 174.899ZM144.339 171.918V175.848H143.051V169.229H144.288V170.306H144.368C144.521 169.955 144.76 169.674 145.084 169.461C145.412 169.248 145.824 169.142 146.321 169.142C146.772 169.142 147.168 169.237 147.507 169.427C147.846 169.613 148.109 169.892 148.296 170.262C148.482 170.633 148.576 171.092 148.576 171.638V175.848H147.286V171.792C147.286 171.313 147.162 170.938 146.912 170.668C146.662 170.395 146.318 170.258 145.881 170.258C145.583 170.258 145.317 170.323 145.084 170.452C144.855 170.582 144.672 170.771 144.537 171.021C144.405 171.269 144.339 171.567 144.339 171.918Z" fill="white"/>
<path d="M127.349 121.234L130.269 116.177H124.429L127.349 121.234ZM126.843 94.9377V116.682H127.855V94.9377H126.843Z" fill="#545454"/>
<path d="M127.349 218.326L130.269 213.269H124.429L127.349 218.326ZM126.843 192.03V213.775H127.855V192.03H126.843Z" fill="#545454"/>
<g filter="url(#filter0_d_1_2814)">
<path d="M268.942 41.3347C268.942 32.3975 276.186 25.1526 285.124 25.1526H568.309C577.247 25.1526 584.492 32.3975 584.492 41.3347V327.555H268.942V41.3347Z" fill="url(#paint0_linear_1_2814)"/>
<path d="M269.447 41.3346C269.447 32.6768 276.466 25.6582 285.124 25.6582H568.309C576.967 25.6582 583.986 32.6768 583.986 41.3346V327.049H269.447V41.3346Z" stroke="#313138"/>
</g>
<path d="M285.124 116.177C285.124 112.825 287.84 110.108 291.192 110.108H570.332C573.684 110.108 576.401 112.825 576.401 116.177V185.962C576.401 189.314 573.684 192.03 570.332 192.03H291.192C287.84 192.03 285.124 189.314 285.124 185.962V116.177Z" fill="#222222"/>
<path d="M295.238 124.268C295.238 122.033 297.049 120.222 299.283 120.222H333.67C335.904 120.222 337.715 122.033 337.715 124.268C337.715 126.502 335.904 128.313 333.67 128.313H299.283C297.049 128.313 295.238 126.502 295.238 124.268Z" fill="white" fill-opacity="0.06"/>
<path d="M341.761 124.268C341.761 122.033 343.572 120.222 345.806 120.222H412.557C414.792 120.222 416.603 122.033 416.603 124.268C416.603 126.502 414.792 128.313 412.557 128.313H345.806C343.572 128.313 341.761 126.502 341.761 124.268Z" fill="white" fill-opacity="0.06"/>
<path d="M420.648 124.268C420.648 122.033 422.46 120.222 424.694 120.222H491.445C493.679 120.222 495.49 122.033 495.49 124.268C495.49 126.502 493.679 128.313 491.445 128.313H424.694C422.46 128.313 420.648 126.502 420.648 124.268Z" fill="white" fill-opacity="0.06"/>
<path d="M499.536 124.268C499.536 122.033 501.347 120.222 503.581 120.222H570.332C572.566 120.222 574.378 122.033 574.378 124.268C574.378 126.502 572.566 128.313 570.332 128.313H503.581C501.347 128.313 499.536 126.502 499.536 124.268Z" fill="white" fill-opacity="0.06"/>
<path d="M295.238 140.45C295.238 138.216 297.049 136.404 299.283 136.404H323.556C325.79 136.404 327.602 138.216 327.602 140.45C327.602 142.684 325.79 144.495 323.556 144.495H299.283C297.049 144.495 295.238 142.684 295.238 140.45Z" fill="white" fill-opacity="0.06"/>
<path d="M331.647 140.45C331.647 138.216 333.459 136.404 335.693 136.404H382.216C384.45 136.404 386.262 138.216 386.262 140.45C386.262 142.684 384.45 144.495 382.216 144.495H335.693C333.459 144.495 331.647 142.684 331.647 140.45Z" fill="white" fill-opacity="0.06"/>
<path d="M390.307 140.45C390.307 138.216 392.119 136.404 394.353 136.404H411.546C413.78 136.404 415.592 138.216 415.592 140.45C415.592 142.684 413.78 144.495 411.546 144.495H394.353C392.119 144.495 390.307 142.684 390.307 140.45Z" fill="white" fill-opacity="0.06"/>
<path d="M419.637 140.45C419.637 138.216 421.448 136.404 423.683 136.404H465.149C467.383 136.404 469.195 138.216 469.195 140.45C469.195 142.684 467.383 144.495 465.149 144.495H423.683C421.448 144.495 419.637 142.684 419.637 140.45Z" fill="white" fill-opacity="0.06"/>
<path d="M473.24 140.45C473.24 138.216 475.051 136.404 477.286 136.404H560.219C562.453 136.404 564.264 138.216 564.264 140.45C564.264 142.684 562.453 144.495 560.219 144.495H477.286C475.051 144.495 473.24 142.684 473.24 140.45Z" fill="white" fill-opacity="0.06"/>
<path d="M309.397 41.3347H293.215C288.746 41.3347 285.124 44.9572 285.124 49.4258V65.6078C285.124 70.0764 288.746 73.6989 293.215 73.6989H309.397C313.865 73.6989 317.488 70.0764 317.488 65.6078V49.4258C317.488 44.9572 313.865 41.3347 309.397 41.3347Z" fill="#9A39E6"/>
<path d="M303.017 50.1378C303.015 49.466 302.168 49.1697 301.746 49.6933L295.395 57.576C295.094 57.9498 295.242 58.5075 295.689 58.6843L298.555 59.8182L298.508 65.9C298.503 66.5716 299.347 66.8765 299.775 66.3574L306.2 58.5476C306.505 58.1772 306.364 57.6184 305.919 57.4366L303.031 56.2561L303.017 50.1378Z" fill="white"/>
<path d="M294.283 49.4247C293.953 49.5391 293.953 50.0242 294.283 50.1385L294.868 50.3417C295.3 50.4915 295.639 50.8441 295.784 51.2934L295.979 51.9031C296.089 52.2462 296.555 52.2462 296.665 51.9031L296.861 51.2934C297.005 50.8441 297.343 50.4915 297.775 50.3417L298.362 50.1385C298.691 50.0242 298.691 49.5391 298.362 49.4247L297.775 49.2215C297.343 49.0717 297.005 48.7191 296.861 48.2697L296.665 47.6601C296.555 47.3171 296.089 47.3171 295.979 47.6601L295.784 48.2697C295.639 48.7191 295.3 49.0717 294.868 49.2215L294.283 49.4247Z" fill="white" fill-opacity="0.6"/>
<path d="M291.39 54.3022C291.126 54.2107 291.126 53.8226 291.39 53.7311L291.757 53.6036C291.974 53.5287 292.143 53.3524 292.216 53.1277L292.338 52.7451C292.426 52.4707 292.799 52.4707 292.887 52.7451L293.01 53.1277C293.081 53.3524 293.251 53.5287 293.467 53.6036L293.835 53.7311C294.099 53.8226 294.099 54.2107 293.835 54.3022L293.467 54.4298C293.251 54.5046 293.081 54.6809 293.01 54.9056L292.887 55.2882C292.799 55.5626 292.426 55.5626 292.338 55.2882L292.216 54.9056C292.143 54.6809 291.974 54.5046 291.757 54.4298L291.39 54.3022Z" fill="white" fill-opacity="0.6"/>
<path d="M309.734 48.7515C310.151 48.7515 310.334 49.1786 310.547 49.6718C310.712 50.056 310.894 50.4803 311.217 50.7742C311.541 51.0682 312.007 51.234 312.43 51.3841C312.972 51.5769 313.442 51.7437 313.442 52.1228C313.442 52.5018 312.972 52.6686 312.43 52.8614C312.007 53.0115 311.541 53.1774 311.217 53.4713C310.894 53.7652 310.712 54.1896 310.547 54.5737C310.334 55.0669 310.151 55.494 309.734 55.494C309.317 55.494 309.134 55.0669 308.922 54.5737C308.757 54.1896 308.574 53.7652 308.251 53.4713C307.927 53.1774 307.461 53.0115 307.038 52.8614C306.495 52.6686 306.026 52.5018 306.026 52.1228C306.026 51.7437 306.495 51.5769 307.038 51.3841C307.461 51.234 307.927 51.0682 308.251 50.7742C308.574 50.4803 308.757 50.056 308.922 49.6718C309.134 49.1786 309.317 48.7515 309.734 48.7515Z" fill="white" fill-opacity="0.6"/>
<path d="M331.079 64.5963V51.3564H339.38V53.0761H333.076V57.1101H338.946V58.8232H333.076V62.8766H339.457V64.5963H331.079ZM343.419 54.6664L345.61 58.5324L347.821 54.6664H349.935L346.838 59.6313L349.961 64.5963H347.847L345.61 60.8855L343.38 64.5963H341.259L344.349 59.6313L341.298 54.6664H343.419ZM356.555 54.6664V56.2179H351.131V54.6664H356.555ZM352.586 52.2873H354.519V61.6807C354.519 62.0556 354.575 62.3379 354.686 62.5275C354.799 62.7129 354.943 62.84 355.12 62.909C355.301 62.9736 355.497 63.006 355.708 63.006C355.864 63.006 355.999 62.9952 356.115 62.9736C356.232 62.9521 356.323 62.9348 356.387 62.922L356.736 64.5187C356.624 64.5618 356.464 64.6049 356.258 64.648C356.051 64.6954 355.792 64.7213 355.482 64.7255C354.974 64.7342 354.499 64.6437 354.059 64.4541C353.62 64.2645 353.264 63.9714 352.993 63.5749C352.721 63.1783 352.586 62.6805 352.586 62.0815V52.2873ZM358.693 64.5963V54.6664H360.561V56.2438H360.665C360.846 55.7094 361.165 55.2892 361.621 54.9831C362.083 54.6728 362.604 54.5177 363.186 54.5177C363.307 54.5177 363.449 54.522 363.613 54.5306C363.781 54.5392 363.912 54.5501 364.007 54.5629V56.4119C363.929 56.3904 363.792 56.3666 363.594 56.3408C363.395 56.3106 363.197 56.2955 362.999 56.2955C362.542 56.2955 362.135 56.3925 361.777 56.5865C361.423 56.7761 361.143 57.0411 360.937 57.3816C360.729 57.7178 360.626 58.1013 360.626 58.5324V64.5963H358.693ZM368.481 64.8161C367.852 64.8161 367.283 64.6998 366.774 64.467C366.266 64.23 365.863 63.8873 365.566 63.4391C365.272 62.9908 365.126 62.4413 365.126 61.7906C365.126 61.2303 365.233 60.7691 365.449 60.4072C365.665 60.0451 365.955 59.7585 366.321 59.5473C366.688 59.3361 367.097 59.1766 367.55 59.0689C368.002 58.9612 368.463 58.8793 368.934 58.8232C369.528 58.7543 370.011 58.6982 370.382 58.6551C370.752 58.6077 371.021 58.5324 371.19 58.4289C371.358 58.3254 371.442 58.1573 371.442 57.9246V57.8794C371.442 57.3148 371.282 56.8773 370.963 56.567C370.649 56.2568 370.179 56.1016 369.554 56.1016C368.903 56.1016 368.391 56.2459 368.015 56.5347C367.645 56.8192 367.388 57.1359 367.247 57.4851L365.429 57.0713C365.645 56.4679 365.959 55.9809 366.374 55.6103C366.792 55.2353 367.272 54.9638 367.815 54.7957C368.358 54.6233 368.93 54.5371 369.528 54.5371C369.925 54.5371 370.345 54.5845 370.789 54.6793C371.238 54.7698 371.655 54.9379 372.043 55.1836C372.435 55.4292 372.757 55.7805 373.007 56.2373C373.256 56.6898 373.382 57.2781 373.382 58.0022V64.5963H371.493V63.2387H371.416C371.291 63.4886 371.103 63.7343 370.853 63.9757C370.603 64.217 370.283 64.4175 369.89 64.5769C369.498 64.7364 369.029 64.8161 368.481 64.8161ZM368.901 63.2645C369.435 63.2645 369.892 63.1589 370.272 62.9477C370.655 62.7366 370.946 62.4608 371.145 62.1202C371.347 61.7754 371.448 61.407 371.448 61.0148V59.7348C371.379 59.8038 371.246 59.8684 371.047 59.9287C370.853 59.9847 370.632 60.0343 370.382 60.0774C370.131 60.1162 369.888 60.1528 369.651 60.1873C369.414 60.2175 369.216 60.2433 369.056 60.2649C368.682 60.3123 368.339 60.392 368.028 60.504C367.722 60.6161 367.476 60.7777 367.291 60.9889C367.11 61.1958 367.02 61.4716 367.02 61.8164C367.02 62.2948 367.197 62.6569 367.55 62.9025C367.903 63.1438 368.354 63.2645 368.901 63.2645ZM380.139 64.7967C379.178 64.7967 378.35 64.5791 377.656 64.1438C376.966 63.7042 376.436 63.0986 376.066 62.3272C375.695 61.5557 375.51 60.6721 375.51 59.6766C375.51 58.6681 375.7 57.7781 376.079 57.0066C376.458 56.2309 376.992 55.6254 377.682 55.1901C378.372 54.7548 379.184 54.5371 380.12 54.5371C380.873 54.5371 381.546 54.6772 382.136 54.9573C382.727 55.2331 383.203 55.621 383.565 56.1209C383.931 56.6209 384.149 57.2049 384.218 57.8729H382.336C382.233 57.4074 381.996 57.0066 381.625 56.6705C381.259 56.3343 380.768 56.1662 380.152 56.1662C379.613 56.1662 379.14 56.3084 378.736 56.5928C378.334 56.873 378.023 57.2738 377.798 57.7954C377.574 58.3125 377.463 58.9245 377.463 59.6313C377.463 60.3554 377.572 60.9803 377.792 61.5061C378.012 62.0319 378.322 62.4392 378.723 62.728C379.128 63.0167 379.604 63.1611 380.152 63.1611C380.518 63.1611 380.85 63.0943 381.147 62.9607C381.448 62.8227 381.701 62.6267 381.904 62.3724C382.11 62.1181 382.255 61.8122 382.336 61.4544H384.218C384.149 62.0966 383.939 62.6698 383.591 63.1741C383.242 63.6783 382.774 64.0748 382.188 64.3636C381.606 64.6523 380.923 64.7967 380.139 64.7967ZM390.92 54.6664V56.2179H385.496V54.6664H390.92ZM386.95 52.2873H388.884V61.6807C388.884 62.0556 388.94 62.3379 389.052 62.5275C389.164 62.7129 389.308 62.84 389.485 62.909C389.666 62.9736 389.862 63.006 390.073 63.006C390.228 63.006 390.364 62.9952 390.481 62.9736C390.597 62.9521 390.687 62.9348 390.752 62.922L391.101 64.5187C390.989 64.5618 390.83 64.6049 390.623 64.648C390.416 64.6954 390.157 64.7213 389.847 64.7255C389.338 64.7342 388.865 64.6437 388.425 64.4541C387.985 64.2645 387.63 63.9714 387.358 63.5749C387.087 63.1783 386.95 62.6805 386.95 62.0815V52.2873ZM400.029 51.3564V64.5963H398.031V51.3564H400.029ZM404.716 58.7005V64.5963H402.783V54.6664H404.638V56.2825H404.762C404.989 55.7567 405.347 55.3344 405.835 55.0155C406.325 54.6965 406.944 54.5371 407.69 54.5371C408.366 54.5371 408.959 54.6793 409.468 54.9638C409.976 55.2439 410.371 55.662 410.651 56.2179C410.931 56.7739 411.071 57.4613 411.071 58.2802V64.5963H409.138V58.5129C409.138 57.7931 408.951 57.2307 408.576 56.8257C408.2 56.4161 407.686 56.2114 407.03 56.2114C406.582 56.2114 406.184 56.3084 405.835 56.5024C405.49 56.6963 405.216 56.9808 405.014 57.3557C404.815 57.7264 404.716 58.1746 404.716 58.7005ZM418.389 54.6664V56.2179H412.778V54.6664H418.389ZM414.316 64.5963V53.5156C414.316 52.895 414.452 52.38 414.724 51.9705C414.995 51.5568 415.355 51.2487 415.803 51.0461C416.251 50.8392 416.738 50.7358 417.264 50.7358C417.652 50.7358 417.983 50.7681 418.26 50.8327C418.536 50.8931 418.74 50.9491 418.873 51.0008L418.421 52.5653C418.33 52.5394 418.214 52.5093 418.072 52.4748C417.93 52.4361 417.758 52.4167 417.555 52.4167C417.085 52.4167 416.75 52.533 416.546 52.7658C416.348 52.9985 416.249 53.3347 416.249 53.7742V64.5963H414.316ZM424.175 64.7967C423.244 64.7967 422.431 64.5833 421.738 64.1566C421.044 63.73 420.505 63.1331 420.122 62.3659C419.738 61.5988 419.546 60.7024 419.546 59.6766C419.546 58.6465 419.738 57.7458 420.122 56.9743C420.505 56.2029 421.044 55.6038 421.738 55.1771C422.431 54.7504 423.244 54.5371 424.175 54.5371C425.106 54.5371 425.919 54.7504 426.613 55.1771C427.306 55.6038 427.844 56.2029 428.229 56.9743C428.612 57.7458 428.804 58.6465 428.804 59.6766C428.804 60.7024 428.612 61.5988 428.229 62.3659C427.844 63.1331 427.306 63.73 426.613 64.1566C425.919 64.5833 425.106 64.7967 424.175 64.7967ZM424.181 63.1741C424.785 63.1741 425.285 63.0146 425.681 62.6956C426.078 62.3767 426.371 61.9522 426.561 61.4221C426.754 60.892 426.851 60.3079 426.851 59.6702C426.851 59.0365 426.754 58.4548 426.561 57.9246C426.371 57.3902 426.078 56.9614 425.681 56.6381C425.285 56.3149 424.785 56.1533 424.181 56.1533C423.573 56.1533 423.07 56.3149 422.669 56.6381C422.272 56.9614 421.977 57.3902 421.783 57.9246C421.593 58.4548 421.499 59.0365 421.499 59.6702C421.499 60.3079 421.593 60.892 421.783 61.4221C421.977 61.9522 422.272 62.3767 422.669 62.6956C423.07 63.0146 423.573 63.1741 424.181 63.1741ZM430.961 64.5963V54.6664H432.829V56.2438H432.933C433.114 55.7094 433.433 55.2892 433.89 54.9831C434.351 54.6728 434.872 54.5177 435.454 54.5177C435.575 54.5177 435.717 54.522 435.881 54.5306C436.049 54.5392 436.18 54.5501 436.275 54.5629V56.4119C436.197 56.3904 436.06 56.3666 435.862 56.3408C435.663 56.3106 435.465 56.2955 435.267 56.2955C434.81 56.2955 434.403 56.3925 434.045 56.5865C433.691 56.7761 433.411 57.0411 433.205 57.3816C432.997 57.7178 432.894 58.1013 432.894 58.5324V64.5963H430.961ZM437.948 64.5963V54.6664H439.804V56.2825H439.926C440.134 55.7352 440.471 55.3086 440.942 55.0025C441.411 54.6923 441.973 54.5371 442.629 54.5371C443.292 54.5371 443.848 54.6923 444.296 55.0025C444.75 55.3128 445.083 55.7395 445.299 56.2825H445.402C445.64 55.7525 446.016 55.3301 446.534 55.0155C447.05 54.6965 447.666 54.5371 448.382 54.5371C449.283 54.5371 450.018 54.8194 450.587 55.3839C451.16 55.9486 451.447 56.7998 451.447 57.9376V64.5963H449.513V58.1186C449.513 57.4462 449.33 56.9593 448.964 56.6576C448.598 56.3559 448.16 56.205 447.652 56.205C447.022 56.205 446.534 56.399 446.185 56.7868C445.835 57.1704 445.661 57.6639 445.661 58.2673V64.5963H443.734V57.9957C443.734 57.4571 443.566 57.0239 443.229 56.6963C442.894 56.3688 442.457 56.205 441.918 56.205C441.552 56.205 441.213 56.302 440.902 56.4959C440.597 56.6856 440.349 56.9506 440.159 57.2911C439.974 57.6315 439.881 58.026 439.881 58.4741V64.5963H437.948ZM456.928 64.8161C456.297 64.8161 455.729 64.6998 455.22 64.467C454.712 64.23 454.309 63.8873 454.012 63.4391C453.718 62.9908 453.572 62.4413 453.572 61.7906C453.572 61.2303 453.68 60.7691 453.895 60.4072C454.111 60.0451 454.401 59.7585 454.768 59.5473C455.134 59.3361 455.544 59.1766 455.996 59.0689C456.449 58.9612 456.91 58.8793 457.38 58.8232C457.974 58.7543 458.457 58.6982 458.828 58.6551C459.198 58.6077 459.468 58.5324 459.636 58.4289C459.804 58.3254 459.888 58.1573 459.888 57.9246V57.8794C459.888 57.3148 459.728 56.8773 459.409 56.567C459.095 56.2568 458.626 56.1016 458.001 56.1016C457.349 56.1016 456.837 56.2459 456.461 56.5347C456.091 56.8192 455.834 57.1359 455.693 57.4851L453.876 57.0713C454.092 56.4679 454.406 55.9809 454.82 55.6103C455.238 55.2353 455.718 54.9638 456.261 54.7957C456.804 54.6233 457.376 54.5371 457.974 54.5371C458.371 54.5371 458.792 54.5845 459.236 54.6793C459.684 54.7698 460.101 54.9379 460.49 55.1836C460.881 55.4292 461.203 55.7805 461.452 56.2373C461.702 56.6898 461.828 57.2781 461.828 58.0022V64.5963H459.939V63.2387H459.863C459.737 63.4886 459.55 63.7343 459.299 63.9757C459.049 64.217 458.729 64.4175 458.336 64.5769C457.944 64.7364 457.475 64.8161 456.928 64.8161ZM457.347 63.2645C457.881 63.2645 458.338 63.1589 458.718 62.9477C459.101 62.7366 459.392 62.4608 459.591 62.1202C459.793 61.7754 459.895 61.407 459.895 61.0148V59.7348C459.825 59.8038 459.692 59.8684 459.493 59.9287C459.299 59.9847 459.078 60.0343 458.828 60.0774C458.578 60.1162 458.334 60.1528 458.098 60.1873C457.86 60.2175 457.662 60.2433 457.502 60.2649C457.128 60.3123 456.785 60.392 456.474 60.504C456.169 60.6161 455.923 60.7777 455.737 60.9889C455.556 61.1958 455.466 61.4716 455.466 61.8164C455.466 62.2948 455.643 62.6569 455.996 62.9025C456.35 63.1438 456.8 63.2645 457.347 63.2645ZM469.037 54.6664V56.2179H463.614V54.6664H469.037ZM465.068 52.2873H467.001V61.6807C467.001 62.0556 467.057 62.3379 467.169 62.5275C467.281 62.7129 467.426 62.84 467.602 62.909C467.783 62.9736 467.979 63.006 468.19 63.006C468.346 63.006 468.482 62.9952 468.598 62.9736C468.714 62.9521 468.804 62.9348 468.869 62.922L469.218 64.5187C469.107 64.5618 468.947 64.6049 468.739 64.648C468.533 64.6954 468.274 64.7213 467.964 64.7255C467.456 64.7342 466.982 64.6437 466.542 64.4541C466.102 64.2645 465.747 63.9714 465.475 63.5749C465.204 63.1783 465.068 62.6805 465.068 62.0815V52.2873ZM471.176 64.5963V54.6664H473.109V64.5963H471.176ZM472.152 53.1342C471.815 53.1342 471.527 53.0222 471.285 52.798C471.048 52.5697 470.93 52.2981 470.93 51.9835C470.93 51.6646 471.048 51.393 471.285 51.1689C471.527 50.9405 471.815 50.8263 472.152 50.8263C472.488 50.8263 472.775 50.9405 473.011 51.1689C473.253 51.393 473.374 51.6646 473.374 51.9835C473.374 52.2981 473.253 52.5697 473.011 52.798C472.775 53.0222 472.488 53.1342 472.152 53.1342ZM479.892 64.7967C478.96 64.7967 478.148 64.5833 477.454 64.1566C476.761 63.73 476.222 63.1331 475.838 62.3659C475.455 61.5988 475.263 60.7024 475.263 59.6766C475.263 58.6465 475.455 57.7458 475.838 56.9743C476.222 56.2029 476.761 55.6038 477.454 55.1771C478.148 54.7504 478.96 54.5371 479.892 54.5371C480.822 54.5371 481.634 54.7504 482.329 55.1771C483.023 55.6038 483.561 56.2029 483.945 56.9743C484.329 57.7458 484.52 58.6465 484.52 59.6766C484.52 60.7024 484.329 61.5988 483.945 62.3659C483.561 63.1331 483.023 63.73 482.329 64.1566C481.634 64.5833 480.822 64.7967 479.892 64.7967ZM479.898 63.1741C480.502 63.1741 481.001 63.0146 481.398 62.6956C481.794 62.3767 482.088 61.9522 482.277 61.4221C482.471 60.892 482.568 60.3079 482.568 59.6702C482.568 59.0365 482.471 58.4548 482.277 57.9246C482.088 57.3902 481.794 56.9614 481.398 56.6381C481.001 56.3149 480.502 56.1533 479.898 56.1533C479.29 56.1533 478.786 56.3149 478.385 56.6381C477.988 56.9614 477.693 57.3902 477.5 57.9246C477.31 58.4548 477.215 59.0365 477.215 59.6702C477.215 60.3079 477.31 60.892 477.5 61.4221C477.693 61.9522 477.988 62.3767 478.385 62.6956C478.786 63.0146 479.29 63.1741 479.898 63.1741ZM488.611 58.7005V64.5963H486.678V54.6664H488.533V56.2825H488.656C488.885 55.7567 489.242 55.3344 489.73 55.0155C490.221 54.6965 490.839 54.5371 491.584 54.5371C492.261 54.5371 492.854 54.6793 493.362 54.9638C493.871 55.2439 494.266 55.662 494.546 56.2179C494.826 56.7739 494.965 57.4613 494.965 58.2802V64.5963H493.033V58.5129C493.033 57.7931 492.846 57.2307 492.47 56.8257C492.095 56.4161 491.58 56.2114 490.925 56.2114C490.477 56.2114 490.078 56.3084 489.73 56.5024C489.385 56.6963 489.111 56.9808 488.908 57.3557C488.71 57.7264 488.611 58.1746 488.611 58.7005Z" fill="white"/>
<path d="M289.962 99.9946H287.105V91.168H290.053C290.918 91.168 291.66 91.3447 292.281 91.6982C292.901 92.0487 293.378 92.5529 293.707 93.2109C294.041 93.866 294.208 94.6518 294.208 95.5684C294.208 96.4879 294.039 97.278 293.703 97.9388C293.37 98.5996 292.887 99.1083 292.255 99.4646C291.623 99.8179 290.858 99.9946 289.962 99.9946ZM288.437 98.8309H289.889C290.561 98.8309 291.12 98.7045 291.565 98.4517C292.011 98.196 292.344 97.8267 292.566 97.3441C292.787 96.8585 292.897 96.2666 292.897 95.5684C292.897 94.8759 292.787 94.2884 292.566 93.8057C292.347 93.323 292.021 92.9566 291.588 92.7066C291.154 92.4567 290.615 92.3317 289.971 92.3317H288.437V98.8309ZM297.687 100.141C297.267 100.141 296.888 100.064 296.549 99.9085C296.21 99.7504 295.942 99.522 295.743 99.2232C295.547 98.9244 295.45 98.558 295.45 98.1242C295.45 97.7506 295.522 97.4432 295.665 97.2018C295.809 96.9605 296.003 96.7694 296.247 96.6287C296.492 96.4879 296.765 96.3816 297.066 96.3097C297.368 96.2379 297.675 96.1833 297.989 96.1459C298.385 96.0999 298.707 96.0626 298.953 96.0339C299.201 96.0023 299.38 95.9519 299.492 95.8831C299.605 95.8141 299.66 95.702 299.66 95.5469V95.5167C299.66 95.1403 299.554 94.8486 299.342 94.6418C299.131 94.4349 298.819 94.3315 298.402 94.3315C297.968 94.3315 297.626 94.4277 297.377 94.6203C297.129 94.8099 296.958 95.0211 296.864 95.2538L295.652 94.978C295.796 94.5757 296.006 94.251 296.281 94.0039C296.561 93.7539 296.881 93.573 297.243 93.4609C297.605 93.3459 297.986 93.2885 298.385 93.2885C298.649 93.2885 298.929 93.3201 299.225 93.3833C299.524 93.4436 299.803 93.5557 300.062 93.7195C300.323 93.8833 300.537 94.1174 300.703 94.422C300.87 94.7237 300.954 95.1158 300.954 95.5986V99.9946H299.695V99.0896H299.643C299.56 99.2562 299.435 99.42 299.268 99.5809C299.102 99.7418 298.888 99.8754 298.626 99.9817C298.365 100.088 298.051 100.141 297.687 100.141ZM297.967 99.1068C298.323 99.1068 298.628 99.0365 298.881 98.8957C299.136 98.7548 299.331 98.5709 299.462 98.344C299.598 98.1141 299.664 97.8684 299.664 97.607V96.7537C299.619 96.7996 299.53 96.8427 299.397 96.8829C299.268 96.9202 299.12 96.9533 298.953 96.982C298.788 97.0079 298.625 97.0323 298.467 97.0554C298.309 97.0754 298.177 97.0927 298.07 97.107C297.821 97.1386 297.592 97.1918 297.385 97.2665C297.181 97.3412 297.018 97.449 296.893 97.5898C296.773 97.7276 296.712 97.9115 296.712 98.1414C296.712 98.4604 296.831 98.7017 297.066 98.8654C297.302 99.0263 297.602 99.1068 297.967 99.1068ZM305.76 93.3746V94.4091H302.144V93.3746H305.76ZM303.114 91.7887H304.403V98.0509C304.403 98.3009 304.44 98.4891 304.515 98.6155C304.589 98.739 304.686 98.8238 304.803 98.8698C304.924 98.9129 305.055 98.9344 305.196 98.9344C305.299 98.9344 305.39 98.9272 305.467 98.9129C305.545 98.8985 305.605 98.887 305.648 98.8784L305.88 99.943C305.807 99.9717 305.699 100 305.562 100.029C305.424 100.061 305.251 100.078 305.045 100.081C304.706 100.087 304.39 100.026 304.096 99.8998C303.803 99.7733 303.566 99.578 303.385 99.3137C303.204 99.0493 303.114 98.7175 303.114 98.3181V91.7887ZM309.112 100.141C308.693 100.141 308.314 100.064 307.974 99.9085C307.635 99.7504 307.367 99.522 307.169 99.2232C306.973 98.9244 306.876 98.558 306.876 98.1242C306.876 97.7506 306.947 97.4432 307.091 97.2018C307.235 96.9605 307.429 96.7694 307.673 96.6287C307.917 96.4879 308.189 96.3816 308.492 96.3097C308.793 96.2379 309.101 96.1833 309.414 96.1459C309.811 96.0999 310.132 96.0626 310.379 96.0339C310.627 96.0023 310.806 95.9519 310.918 95.8831C311.03 95.8141 311.086 95.702 311.086 95.5469V95.5167C311.086 95.1403 310.98 94.8486 310.767 94.6418C310.557 94.4349 310.244 94.3315 309.828 94.3315C309.394 94.3315 309.052 94.4277 308.802 94.6203C308.554 94.8099 308.383 95.0211 308.288 95.2538L307.078 94.978C307.221 94.5757 307.431 94.251 307.707 94.0039C307.986 93.7539 308.307 93.573 308.668 93.4609C309.03 93.3459 309.411 93.2885 309.811 93.2885C310.075 93.2885 310.355 93.3201 310.651 93.3833C310.949 93.4436 311.229 93.5557 311.486 93.7195C311.748 93.8833 311.963 94.1174 312.129 94.422C312.295 94.7237 312.379 95.1158 312.379 95.5986V99.9946H311.12V99.0896H311.069C310.986 99.2562 310.86 99.42 310.694 99.5809C310.528 99.7418 310.313 99.8754 310.051 99.9817C309.79 100.088 309.477 100.141 309.112 100.141ZM309.392 99.1068C309.749 99.1068 310.053 99.0365 310.306 98.8957C310.562 98.7548 310.755 98.5709 310.888 98.344C311.023 98.1141 311.09 97.8684 311.09 97.607V96.7537C311.044 96.7996 310.955 96.8427 310.823 96.8829C310.693 96.9202 310.546 96.9533 310.379 96.982C310.212 97.0079 310.05 97.0323 309.892 97.0554C309.734 97.0754 309.602 97.0927 309.496 97.107C309.245 97.1386 309.018 97.1918 308.81 97.2665C308.606 97.3412 308.442 97.449 308.319 97.5898C308.198 97.7276 308.138 97.9115 308.138 98.1414C308.138 98.4604 308.256 98.7017 308.492 98.8654C308.727 99.0263 309.028 99.1068 309.392 99.1068ZM322.225 93.4867C322.179 93.0787 321.99 92.7627 321.656 92.5385C321.323 92.3116 320.903 92.1981 320.398 92.1981C320.036 92.1981 319.722 92.2556 319.458 92.3705C319.193 92.4825 318.988 92.6378 318.841 92.836C318.698 93.0314 318.626 93.254 318.626 93.504C318.626 93.7138 318.675 93.8947 318.772 94.047C318.873 94.1993 319.004 94.3272 319.165 94.4306C319.329 94.5312 319.504 94.6159 319.691 94.6849C319.878 94.7509 320.057 94.8056 320.23 94.8486L321.091 95.0728C321.373 95.1417 321.662 95.2351 321.957 95.3529C322.254 95.4707 322.528 95.6259 322.78 95.8183C323.033 96.0109 323.238 96.2494 323.392 96.5338C323.551 96.8183 323.63 97.1587 323.63 97.5553C323.63 98.0552 323.501 98.4991 323.242 98.887C322.986 99.2749 322.615 99.5809 322.126 99.805C321.64 100.029 321.053 100.141 320.363 100.141C319.702 100.141 319.13 100.036 318.648 99.8265C318.165 99.6168 317.787 99.3194 317.514 98.9344C317.241 98.5465 317.09 98.0868 317.061 97.5553H318.398C318.423 97.8742 318.527 98.14 318.708 98.3526C318.892 98.5623 319.126 98.7189 319.411 98.8223C319.698 98.9229 320.012 98.9732 320.354 98.9732C320.73 98.9732 321.065 98.9143 321.358 98.7965C321.655 98.6758 321.887 98.5091 322.056 98.2965C322.226 98.0811 322.311 97.8297 322.311 97.5423C322.311 97.2809 322.236 97.0668 322.087 96.9001C321.94 96.7335 321.741 96.5956 321.488 96.4864C321.238 96.3772 320.955 96.2809 320.638 96.1976L319.596 95.9132C318.889 95.7206 318.328 95.4377 317.915 95.0642C317.504 94.6907 317.299 94.1964 317.299 93.5816C317.299 93.073 317.436 92.6291 317.712 92.2498C317.989 91.8705 318.362 91.576 318.833 91.3664C319.304 91.1537 319.835 91.0474 320.428 91.0474C321.026 91.0474 321.553 91.1522 322.01 91.362C322.469 91.5718 322.831 91.8605 323.095 92.2283C323.36 92.5932 323.498 93.0127 323.509 93.4867H322.225ZM327.906 100.128C327.286 100.128 326.744 99.986 326.282 99.7015C325.819 99.4171 325.46 99.0192 325.204 98.5077C324.948 97.9963 324.82 97.3986 324.82 96.7148C324.82 96.0281 324.948 95.4276 325.204 94.9134C325.46 94.399 325.819 93.9996 326.282 93.7152C326.744 93.4307 327.286 93.2885 327.906 93.2885C328.527 93.2885 329.068 93.4307 329.531 93.7152C329.994 93.9996 330.353 94.399 330.609 94.9134C330.864 95.4276 330.992 96.0281 330.992 96.7148C330.992 97.3986 330.864 97.9963 330.609 98.5077C330.353 99.0192 329.994 99.4171 329.531 99.7015C329.068 99.986 328.527 100.128 327.906 100.128ZM327.91 99.0465C328.313 99.0465 328.646 98.9402 328.91 98.7276C329.174 98.5149 329.371 98.2319 329.497 97.8785C329.625 97.525 329.69 97.1358 329.69 96.7105C329.69 96.2881 329.625 95.9003 329.497 95.5469C329.371 95.1906 329.174 94.9047 328.91 94.6892C328.646 94.4737 328.313 94.366 327.91 94.366C327.506 94.366 327.169 94.4737 326.902 94.6892C326.638 94.9047 326.441 95.1906 326.311 95.5469C326.185 95.9003 326.122 96.2881 326.122 96.7105C326.122 97.1358 326.185 97.525 326.311 97.8785C326.441 98.2319 326.638 98.5149 326.902 98.7276C327.169 98.9402 327.506 99.0465 327.91 99.0465ZM336.624 97.2492V93.3746H337.917V99.9946H336.649V98.8482H336.581C336.429 99.2016 336.184 99.4961 335.848 99.7318C335.515 99.9645 335.1 100.081 334.602 100.081C334.178 100.081 333.801 99.9875 333.474 99.8006C333.149 99.611 332.893 99.331 332.706 98.9603C332.522 98.5896 332.431 98.1314 332.431 97.5854V93.3746H333.72V97.4303C333.72 97.8814 333.844 98.2405 334.094 98.5077C334.345 98.7749 334.669 98.9085 335.068 98.9085C335.309 98.9085 335.549 98.8482 335.788 98.7276C336.029 98.6068 336.229 98.4244 336.387 98.1802C336.548 97.936 336.627 97.6257 336.624 97.2492ZM339.648 99.9946V93.3746H340.894V94.4263H340.963C341.083 94.07 341.296 93.7899 341.601 93.5859C341.909 93.379 342.256 93.2755 342.644 93.2755C342.724 93.2755 342.819 93.2785 342.928 93.2842C343.04 93.2899 343.128 93.2971 343.191 93.3058V94.5383C343.139 94.524 343.047 94.5082 342.915 94.4909C342.783 94.4709 342.651 94.4608 342.518 94.4608C342.214 94.4608 341.943 94.5254 341.704 94.6548C341.469 94.7812 341.282 94.9579 341.144 95.1848C341.007 95.4089 340.937 95.6646 340.937 95.9519V99.9946H339.648ZM346.857 100.128C346.217 100.128 345.665 99.9831 345.203 99.6929C344.744 99.3998 344.39 98.9962 344.143 98.4819C343.895 97.9675 343.772 97.3786 343.772 96.7148C343.772 96.0425 343.898 95.4492 344.151 94.9349C344.404 94.4177 344.761 94.0139 345.22 93.7238C345.68 93.4336 346.221 93.2885 346.845 93.2885C347.348 93.2885 347.796 93.3818 348.189 93.5686C348.583 93.7525 348.9 94.0111 349.142 94.3445C349.386 94.6777 349.531 95.067 349.577 95.5124H348.323C348.254 95.2021 348.096 94.9349 347.849 94.7108C347.605 94.4867 347.277 94.3746 346.866 94.3746C346.507 94.3746 346.193 94.4694 345.923 94.659C345.655 94.8458 345.447 95.113 345.298 95.4606C345.148 95.8055 345.073 96.2135 345.073 96.6847C345.073 97.1673 345.147 97.584 345.294 97.9346C345.439 98.2851 345.647 98.5566 345.914 98.7491C346.184 98.9416 346.501 99.0379 346.866 99.0379C347.11 99.0379 347.332 98.9933 347.53 98.9043C347.731 98.8123 347.899 98.6816 348.035 98.5121C348.172 98.3425 348.268 98.1386 348.323 97.9001H349.577C349.531 98.3282 349.392 98.7103 349.159 99.0465C348.927 99.3826 348.615 99.6469 348.224 99.8395C347.836 100.032 347.38 100.128 346.857 100.128ZM353.808 100.128C353.156 100.128 352.595 99.9889 352.124 99.7102C351.655 99.4286 351.293 99.0335 351.037 98.525C350.784 98.0135 350.658 97.4145 350.658 96.7278C350.658 96.0496 350.784 95.452 351.037 94.9349C351.293 94.4177 351.649 94.0139 352.106 93.7238C352.566 93.4336 353.103 93.2885 353.717 93.2885C354.092 93.2885 354.454 93.3503 354.804 93.4739C355.155 93.5974 355.469 93.7913 355.748 94.0556C356.026 94.32 356.246 94.6634 356.408 95.0857C356.569 95.5052 356.648 96.0152 356.648 96.6157V97.0726H351.386V96.1071H355.386C355.386 95.7681 355.316 95.4678 355.179 95.2064C355.041 94.9421 354.847 94.7337 354.597 94.5814C354.35 94.4292 354.06 94.3531 353.727 94.3531C353.365 94.3531 353.049 94.4421 352.778 94.6203C352.511 94.7955 352.305 95.0253 352.158 95.3098C352.014 95.5914 351.943 95.8974 351.943 96.2278V96.982C351.943 97.4245 352.019 97.801 352.175 98.1112C352.333 98.4215 352.552 98.6586 352.835 98.8223C353.116 98.9833 353.445 99.0637 353.822 99.0637C354.065 99.0637 354.288 99.0293 354.489 98.9603C354.69 98.8884 354.864 98.7821 355.011 98.6413C355.158 98.5005 355.27 98.3268 355.347 98.1198L356.567 98.3396C356.469 98.6988 356.293 99.0134 356.041 99.2835C355.791 99.5507 355.476 99.759 355.097 99.9085C354.721 100.055 354.291 100.128 353.808 100.128Z" fill="#8A8F98"/>
<path d="M285.124 238.554C285.124 235.202 287.84 232.485 291.192 232.485H571.344C574.695 232.485 577.412 235.202 577.412 238.554V258.781C577.412 262.133 574.695 264.849 571.344 264.849H291.192C287.84 264.849 285.124 262.133 285.124 258.781V238.554Z" fill="#222222"/>
<path d="M287.105 222.371V213.545H288.437V217.76H288.544L292.247 213.545H293.923L290.363 217.519L293.936 222.371H292.333L289.48 218.428L288.437 219.627V222.371H287.105ZM297.428 222.505C296.776 222.505 296.215 222.365 295.743 222.087C295.275 221.805 294.913 221.411 294.657 220.902C294.404 220.39 294.278 219.791 294.278 219.105C294.278 218.426 294.404 217.829 294.657 217.312C294.913 216.795 295.269 216.391 295.726 216.101C296.185 215.811 296.722 215.665 297.337 215.665C297.711 215.665 298.074 215.727 298.423 215.851C298.774 215.974 299.089 216.168 299.367 216.433C299.646 216.697 299.866 217.04 300.026 217.462C300.188 217.882 300.268 218.392 300.268 218.992V219.45H295.006V218.484H299.005C299.005 218.145 298.936 217.845 298.799 217.584C298.661 217.319 298.467 217.11 298.217 216.959C297.969 216.806 297.679 216.73 297.346 216.73C296.984 216.73 296.668 216.819 296.398 216.997C296.131 217.172 295.924 217.403 295.778 217.687C295.634 217.968 295.562 218.274 295.562 218.605V219.359C295.562 219.802 295.639 220.178 295.795 220.488C295.953 220.799 296.172 221.035 296.454 221.199C296.735 221.36 297.064 221.441 297.441 221.441C297.685 221.441 297.908 221.406 298.109 221.337C298.31 221.265 298.484 221.159 298.631 221.018C298.777 220.878 298.889 220.704 298.967 220.496L300.186 220.717C300.089 221.076 299.913 221.39 299.66 221.66C299.411 221.927 299.096 222.136 298.717 222.286C298.341 222.432 297.911 222.505 297.428 222.505ZM302.323 224.854C302.13 224.854 301.955 224.838 301.797 224.807C301.64 224.778 301.521 224.746 301.443 224.712L301.754 223.656C301.99 223.719 302.2 223.746 302.383 223.738C302.567 223.729 302.73 223.66 302.87 223.531C303.014 223.401 303.141 223.191 303.25 222.897L303.41 222.457L300.987 215.752H302.366L304.043 220.889H304.111L305.788 215.752H307.172L304.443 223.255C304.317 223.599 304.156 223.892 303.961 224.13C303.766 224.371 303.533 224.552 303.263 224.673C302.993 224.794 302.679 224.854 302.323 224.854ZM309.818 222.371L307.87 215.752H309.202L310.498 220.613H310.563L311.865 215.752H313.197L314.49 220.591H314.554L315.843 215.752H317.174L315.231 222.371H313.917L312.572 217.592H312.472L311.128 222.371H309.818ZM320.984 222.505C320.364 222.505 319.822 222.362 319.36 222.078C318.897 221.794 318.538 221.397 318.283 220.885C318.027 220.373 317.899 219.775 317.899 219.092C317.899 218.405 318.027 217.804 318.283 217.29C318.538 216.776 318.897 216.376 319.36 216.092C319.822 215.808 320.364 215.665 320.984 215.665C321.605 215.665 322.147 215.808 322.61 216.092C323.072 216.376 323.431 216.776 323.687 217.29C323.943 217.804 324.071 218.405 324.071 219.092C324.071 219.775 323.943 220.373 323.687 220.885C323.431 221.397 323.072 221.794 322.61 222.078C322.147 222.362 321.605 222.505 320.984 222.505ZM320.989 221.423C321.391 221.423 321.725 221.317 321.989 221.104C322.254 220.892 322.449 220.609 322.575 220.256C322.705 219.902 322.769 219.512 322.769 219.088C322.769 218.665 322.705 218.277 322.575 217.923C322.449 217.567 322.254 217.281 321.989 217.066C321.725 216.85 321.391 216.743 320.989 216.743C320.584 216.743 320.248 216.85 319.98 217.066C319.716 217.281 319.52 217.567 319.39 217.923C319.264 218.277 319.2 218.665 319.2 219.088C319.2 219.512 319.264 219.902 319.39 220.256C319.52 220.609 319.716 220.892 319.98 221.104C320.248 221.317 320.584 221.423 320.989 221.423ZM325.509 222.371V215.752H326.754V216.803H326.823C326.944 216.447 327.157 216.167 327.461 215.962C327.769 215.756 328.116 215.653 328.504 215.653C328.585 215.653 328.68 215.655 328.789 215.661C328.9 215.667 328.988 215.674 329.052 215.682V216.915C328.999 216.901 328.908 216.885 328.776 216.868C328.643 216.847 328.512 216.837 328.379 216.837C328.075 216.837 327.803 216.902 327.564 217.031C327.329 217.158 327.143 217.335 327.004 217.561C326.866 217.786 326.798 218.042 326.798 218.329V222.371H325.509ZM332.408 222.501C331.874 222.501 331.396 222.364 330.977 222.091C330.56 221.815 330.233 221.423 329.995 220.915C329.759 220.403 329.641 219.789 329.641 219.074C329.641 218.359 329.76 217.747 329.999 217.239C330.24 216.73 330.57 216.341 330.99 216.071C331.41 215.801 331.885 215.665 332.417 215.665C332.827 215.665 333.158 215.735 333.408 215.872C333.661 216.007 333.856 216.166 333.994 216.347C334.135 216.528 334.243 216.687 334.321 216.825H334.399V213.545H335.688V222.371H334.43V221.342H334.321C334.243 221.482 334.132 221.643 333.986 221.824C333.842 222.005 333.644 222.163 333.391 222.299C333.138 222.433 332.81 222.501 332.408 222.501ZM332.692 221.402C333.063 221.402 333.377 221.304 333.632 221.108C333.89 220.91 334.086 220.636 334.218 220.286C334.353 219.935 334.42 219.526 334.42 219.061C334.42 218.602 334.355 218.2 334.222 217.855C334.09 217.51 333.897 217.242 333.641 217.049C333.385 216.856 333.069 216.76 332.692 216.76C332.305 216.76 331.981 216.86 331.723 217.062C331.464 217.263 331.269 217.537 331.136 217.885C331.007 218.233 330.942 218.624 330.942 219.061C330.942 219.504 331.009 219.902 331.14 220.256C331.273 220.609 331.468 220.889 331.727 221.096C331.988 221.299 332.311 221.402 332.692 221.402ZM342.487 217.368L341.32 217.575C341.27 217.425 341.194 217.283 341.086 217.148C340.983 217.013 340.843 216.902 340.665 216.816C340.487 216.73 340.264 216.687 339.996 216.687C339.632 216.687 339.327 216.768 339.083 216.932C338.838 217.093 338.717 217.301 338.717 217.557C338.717 217.779 338.799 217.957 338.963 218.091C339.126 218.227 339.39 218.337 339.755 218.424L340.806 218.665C341.416 218.805 341.87 219.023 342.169 219.316C342.468 219.608 342.617 219.99 342.617 220.458C342.617 220.854 342.502 221.207 342.272 221.518C342.045 221.825 341.728 222.067 341.32 222.242C340.914 222.417 340.445 222.505 339.91 222.505C339.169 222.505 338.564 222.347 338.096 222.031C337.627 221.712 337.34 221.26 337.234 220.673L338.479 220.484C338.557 220.809 338.717 221.054 338.957 221.221C339.199 221.384 339.514 221.466 339.902 221.466C340.324 221.466 340.662 221.378 340.914 221.203C341.167 221.025 341.294 220.809 341.294 220.553C341.294 220.346 341.216 220.172 341.061 220.031C340.908 219.891 340.675 219.784 340.358 219.713L339.238 219.467C338.621 219.326 338.164 219.102 337.867 218.794C337.574 218.487 337.428 218.097 337.428 217.626C337.428 217.236 337.537 216.894 337.755 216.601C337.973 216.307 338.276 216.079 338.66 215.915C339.045 215.749 339.486 215.665 339.984 215.665C340.699 215.665 341.262 215.821 341.673 216.131C342.084 216.439 342.356 216.85 342.487 217.368ZM350.335 215.752V216.786H346.72V215.752H350.335ZM347.69 214.165H348.978V220.428C348.978 220.677 349.016 220.866 349.09 220.992C349.165 221.116 349.261 221.2 349.379 221.247C349.5 221.289 349.631 221.312 349.771 221.312C349.874 221.312 349.965 221.304 350.043 221.289C350.12 221.275 350.181 221.264 350.224 221.255L350.457 222.32C350.382 222.348 350.276 222.378 350.137 222.406C350 222.437 349.827 222.454 349.62 222.457C349.282 222.464 348.965 222.403 348.672 222.276C348.379 222.15 348.142 221.955 347.961 221.691C347.78 221.426 347.69 221.094 347.69 220.695V214.165ZM354.479 222.505C353.858 222.505 353.316 222.362 352.854 222.078C352.392 221.794 352.033 221.397 351.777 220.885C351.521 220.373 351.392 219.775 351.392 219.092C351.392 218.405 351.521 217.804 351.777 217.29C352.033 216.776 352.392 216.376 352.854 216.092C353.316 215.808 353.858 215.665 354.479 215.665C355.099 215.665 355.641 215.808 356.103 216.092C356.566 216.376 356.926 216.776 357.18 217.29C357.436 217.804 357.565 218.405 357.565 219.092C357.565 219.775 357.436 220.373 357.18 220.885C356.926 221.397 356.566 221.794 356.103 222.078C355.641 222.362 355.099 222.505 354.479 222.505ZM354.483 221.423C354.886 221.423 355.218 221.317 355.482 221.104C355.747 220.892 355.943 220.609 356.069 220.256C356.198 219.902 356.263 219.512 356.263 219.088C356.263 218.665 356.198 218.277 356.069 217.923C355.943 217.567 355.747 217.281 355.482 217.066C355.218 216.85 354.886 216.743 354.483 216.743C354.078 216.743 353.742 216.85 353.475 217.066C353.21 217.281 353.014 217.567 352.884 217.923C352.758 218.277 352.694 218.665 352.694 219.088C352.694 219.512 352.758 219.902 352.884 220.256C353.014 220.609 353.21 220.892 353.475 221.104C353.742 221.317 354.078 221.423 354.483 221.423ZM362.318 222.371V213.545H367.853V214.691H363.65V217.38H367.563V218.523H363.65V221.225H367.904V222.371H362.318ZM370.545 215.752L372.005 218.329L373.48 215.752H374.889L372.824 219.061L374.906 222.371H373.497L372.005 219.898L370.518 222.371H369.106L371.166 219.061L369.131 215.752H370.545ZM379.302 215.752V216.786H375.687V215.752H379.302ZM376.656 214.165H377.945V220.428C377.945 220.677 377.982 220.866 378.056 220.992C378.131 221.116 378.227 221.2 378.346 221.247C378.466 221.289 378.597 221.312 378.738 221.312C378.841 221.312 378.931 221.304 379.009 221.289C379.087 221.275 379.148 221.264 379.19 221.255L379.423 222.32C379.348 222.348 379.242 222.378 379.104 222.406C378.967 222.437 378.794 222.454 378.587 222.457C378.247 222.464 377.932 222.403 377.639 222.276C377.345 222.15 377.109 221.955 376.928 221.691C376.747 221.426 376.656 221.094 376.656 220.695V214.165ZM380.727 222.371V215.752H381.973V216.803H382.042C382.162 216.447 382.376 216.167 382.68 215.962C382.988 215.756 383.336 215.653 383.723 215.653C383.804 215.653 383.898 215.655 384.007 215.661C384.119 215.667 384.207 215.674 384.27 215.682V216.915C384.219 216.901 384.127 216.885 383.995 216.868C383.863 216.847 383.73 216.837 383.598 216.837C383.293 216.837 383.022 216.902 382.783 217.031C382.548 217.158 382.361 217.335 382.223 217.561C382.086 217.786 382.017 218.042 382.017 218.329V222.371H380.727ZM387.253 222.518C386.833 222.518 386.454 222.44 386.115 222.286C385.776 222.128 385.507 221.899 385.309 221.6C385.114 221.301 385.016 220.935 385.016 220.501C385.016 220.127 385.087 219.82 385.232 219.579C385.376 219.337 385.569 219.146 385.814 219.006C386.057 218.865 386.33 218.759 386.632 218.687C386.934 218.615 387.242 218.561 387.554 218.523C387.951 218.477 388.273 218.439 388.52 218.411C388.767 218.38 388.947 218.329 389.059 218.26C389.17 218.19 389.227 218.079 389.227 217.923V217.893C389.227 217.517 389.121 217.226 388.907 217.018C388.698 216.812 388.384 216.709 387.969 216.709C387.535 216.709 387.192 216.805 386.942 216.997C386.695 217.187 386.525 217.398 386.429 217.63L385.219 217.355C385.362 216.953 385.572 216.628 385.848 216.381C386.126 216.131 386.447 215.95 386.809 215.838C387.171 215.723 387.552 215.665 387.951 215.665C388.216 215.665 388.496 215.697 388.791 215.76C389.09 215.821 389.369 215.933 389.627 216.096C389.889 216.26 390.103 216.494 390.27 216.799C390.437 217.1 390.519 217.493 390.519 217.975V222.371H389.261V221.466H389.21C389.126 221.633 389.001 221.797 388.835 221.958C388.668 222.119 388.454 222.252 388.192 222.358C387.931 222.465 387.618 222.518 387.253 222.518ZM387.533 221.483C387.889 221.483 388.194 221.414 388.447 221.272C388.702 221.132 388.896 220.947 389.029 220.721C389.163 220.491 389.231 220.246 389.231 219.984V219.13C389.185 219.177 389.096 219.22 388.964 219.259C388.835 219.297 388.687 219.33 388.52 219.359C388.353 219.385 388.191 219.409 388.033 219.432C387.875 219.453 387.742 219.47 387.636 219.484C387.386 219.515 387.158 219.569 386.951 219.644C386.747 219.718 386.583 219.826 386.46 219.966C386.339 220.105 386.279 220.288 386.279 220.519C386.279 220.837 386.397 221.079 386.632 221.243C386.867 221.404 387.168 221.483 387.533 221.483ZM395.024 222.505C394.384 222.505 393.832 222.36 393.37 222.07C392.91 221.777 392.556 221.373 392.31 220.858C392.062 220.345 391.938 219.755 391.938 219.092C391.938 218.419 392.065 217.826 392.318 217.312C392.571 216.795 392.928 216.391 393.387 216.101C393.847 215.811 394.388 215.665 395.012 215.665C395.515 215.665 395.963 215.759 396.356 215.945C396.75 216.129 397.067 216.388 397.309 216.721C397.553 217.055 397.698 217.444 397.744 217.889H396.49C396.421 217.579 396.263 217.312 396.016 217.088C395.772 216.864 395.444 216.751 395.033 216.751C394.674 216.751 394.36 216.846 394.09 217.035C393.822 217.223 393.614 217.49 393.465 217.837C393.315 218.182 393.24 218.59 393.24 219.061C393.24 219.545 393.314 219.96 393.461 220.311C393.606 220.662 393.814 220.933 394.081 221.125C394.351 221.319 394.668 221.415 395.033 221.415C395.277 221.415 395.499 221.37 395.697 221.281C395.898 221.189 396.066 221.059 396.201 220.889C396.339 220.719 396.435 220.516 396.49 220.277H397.744C397.698 220.705 397.559 221.087 397.326 221.423C397.093 221.76 396.782 222.024 396.391 222.217C396.003 222.409 395.547 222.505 395.024 222.505ZM402.212 215.752V216.786H398.596V215.752H402.212ZM399.566 214.165H400.855V220.428C400.855 220.677 400.892 220.866 400.967 220.992C401.042 221.116 401.138 221.2 401.255 221.247C401.377 221.289 401.507 221.312 401.648 221.312C401.751 221.312 401.842 221.304 401.92 221.289C401.997 221.275 402.057 221.264 402.101 221.255L402.333 222.32C402.259 222.348 402.152 222.378 402.014 222.406C401.876 222.437 401.703 222.454 401.497 222.457C401.158 222.464 400.842 222.403 400.548 222.276C400.256 222.15 400.018 221.955 399.837 221.691C399.656 221.426 399.566 221.094 399.566 220.695V214.165Z" fill="#8A8F98"/>
<path d="M303.332 243.887V252.713H302.108L297.621 246.239H297.54V252.713H296.208V243.887H297.44L301.931 250.369H302.013V243.887H303.332ZM307.097 252.86C306.677 252.86 306.298 252.782 305.959 252.627C305.62 252.469 305.351 252.241 305.153 251.941C304.958 251.643 304.861 251.277 304.861 250.843C304.861 250.469 304.933 250.161 305.076 249.921C305.22 249.679 305.413 249.488 305.658 249.347C305.902 249.207 306.175 249.1 306.477 249.029C306.778 248.957 307.086 248.902 307.399 248.865C307.796 248.818 308.118 248.781 308.364 248.752C308.611 248.721 308.791 248.671 308.903 248.602C309.016 248.532 309.071 248.421 309.071 248.265V248.235C309.071 247.858 308.965 247.567 308.753 247.36C308.542 247.153 308.23 247.05 307.813 247.05C307.379 247.05 307.037 247.146 306.787 247.339C306.54 247.529 306.369 247.739 306.274 247.972L305.063 247.697C305.207 247.294 305.416 246.969 305.692 246.723C305.971 246.473 306.291 246.292 306.653 246.18C307.015 246.064 307.396 246.007 307.796 246.007C308.06 246.007 308.34 246.039 308.636 246.102C308.935 246.162 309.214 246.275 309.472 246.437C309.734 246.601 309.947 246.836 310.114 247.14C310.281 247.442 310.364 247.834 310.364 248.317V252.713H309.106V251.808H309.054C308.97 251.975 308.846 252.139 308.679 252.299C308.512 252.46 308.299 252.594 308.037 252.7C307.776 252.806 307.462 252.86 307.097 252.86ZM307.377 251.825C307.733 251.825 308.039 251.755 308.292 251.614C308.546 251.473 308.741 251.289 308.873 251.062C309.008 250.833 309.075 250.587 309.075 250.325V249.472C309.03 249.518 308.941 249.562 308.808 249.601C308.679 249.638 308.531 249.672 308.364 249.7C308.197 249.726 308.036 249.751 307.878 249.774C307.719 249.794 307.588 249.811 307.48 249.826C307.231 249.857 307.002 249.91 306.796 249.985C306.591 250.059 306.428 250.167 306.304 250.308C306.184 250.447 306.123 250.63 306.123 250.86C306.123 251.179 306.241 251.42 306.477 251.584C306.713 251.745 307.012 251.825 307.377 251.825ZM312.08 252.713V246.094H313.317V247.171H313.399C313.538 246.806 313.763 246.521 314.076 246.317C314.389 246.111 314.764 246.007 315.201 246.007C315.643 246.007 316.014 246.111 316.313 246.317C316.614 246.524 316.838 246.809 316.981 247.171H317.05C317.208 246.817 317.46 246.536 317.804 246.326C318.148 246.113 318.56 246.007 319.036 246.007C319.637 246.007 320.127 246.195 320.506 246.572C320.888 246.948 321.079 247.516 321.079 248.274V252.713H319.791V248.394C319.791 247.946 319.668 247.622 319.425 247.42C319.18 247.219 318.889 247.119 318.55 247.119C318.13 247.119 317.803 247.249 317.571 247.506C317.338 247.762 317.222 248.091 317.222 248.494V252.713H315.938V248.313C315.938 247.953 315.826 247.665 315.602 247.447C315.377 247.228 315.086 247.119 314.727 247.119C314.482 247.119 314.257 247.184 314.05 247.313C313.846 247.44 313.681 247.616 313.555 247.843C313.431 248.07 313.37 248.333 313.37 248.631V252.713H312.08ZM325.66 252.847C325.008 252.847 324.446 252.707 323.975 252.429C323.507 252.147 323.145 251.752 322.889 251.243C322.636 250.732 322.509 250.133 322.509 249.446C322.509 248.768 322.636 248.171 322.889 247.653C323.145 247.136 323.501 246.733 323.958 246.442C324.417 246.152 324.954 246.007 325.569 246.007C325.943 246.007 326.305 246.068 326.655 246.193C327.006 246.316 327.321 246.509 327.6 246.774C327.878 247.038 328.097 247.382 328.259 247.804C328.42 248.224 328.5 248.733 328.5 249.334V249.791H323.238V248.825H327.238C327.238 248.486 327.168 248.186 327.03 247.925C326.893 247.66 326.699 247.452 326.449 247.3C326.201 247.147 325.911 247.072 325.578 247.072C325.216 247.072 324.899 247.161 324.629 247.339C324.362 247.514 324.156 247.744 324.009 248.028C323.866 248.309 323.794 248.616 323.794 248.947V249.7C323.794 250.143 323.871 250.519 324.026 250.83C324.184 251.14 324.404 251.377 324.686 251.541C324.967 251.702 325.297 251.783 325.673 251.783C325.917 251.783 326.139 251.747 326.341 251.678C326.542 251.607 326.716 251.5 326.862 251.36C327.009 251.219 327.121 251.045 327.198 250.838L328.418 251.058C328.321 251.417 328.145 251.732 327.892 252.002C327.642 252.269 327.328 252.477 326.948 252.627C326.572 252.774 326.142 252.847 325.66 252.847Z" fill="#8A8F98"/>
</g>
</g>
</g>
<rect width="563.19" height="112.63" transform="translate(0.630005 211.528)" fill="url(#paint1_linear_1_2814)"/>
<defs>
<filter id="filter0_d_1_2814" x="236.942" y="25.1526" width="355.55" height="342.402" filterUnits="userSpaceOnUse" color-interpolation-filters="sRGB">
<feFlood flood-opacity="0" result="BackgroundImageFix"/>
<feColorMatrix in="SourceAlpha" type="matrix" values="0 0 0 0 0 0 0 0 0 0 0 0 0 0 0 0 0 0 127 0" result="hardAlpha"/>
<feOffset dx="-12" dy="20"/>
<feGaussianBlur stdDeviation="10"/>
<feComposite in2="hardAlpha" operator="out"/>
<feColorMatrix type="matrix" values="0 0 0 0 0 0 0 0 0 0 0 0 0 0 0 0 0 0 0.4 0"/>
<feBlend mode="normal" in2="BackgroundImageFix" result="effect1_dropShadow_1_2814"/>
<feBlend mode="normal" in="SourceGraphic" in2="effect1_dropShadow_1_2814" result="shape"/>
</filter>
<linearGradient id="paint0_linear_1_2814" x1="276.021" y1="25.1526" x2="569.763" y2="148.874" gradientUnits="userSpaceOnUse">
<stop stop-color="white" stop-opacity="0.06"/>
<stop offset="1" stop-color="white" stop-opacity="0"/>
</linearGradient>
<linearGradient id="paint1_linear_1_2814" x1="281.595" y1="112.63" x2="281.595" y2="0" gradientUnits="userSpaceOnUse">
<stop stop-color="#08090A"/>
<stop offset="1" stop-color="#08090A" stop-opacity="0"/>
</linearGradient>
<clipPath id="clip0_1_2814">
<rect width="561.19" height="320.66" fill="white" transform="translate(1.63 1.15259)"/>
</clipPath>
<clipPath id="clip1_1_2814">
<rect width="537.19" height="293.3" fill="white" transform="translate(25.63 25.1526)"/>
</clipPath>
<clipPath id="clip2_1_2814">
<rect width="536.03" height="293.3" fill="white" transform="translate(26.2112 25.1526)"/>
</clipPath>
</defs>
</svg>
