<svg width="25" height="25" viewBox="0 0 25 25" fill="none" xmlns="http://www.w3.org/2000/svg">
<path d="M14.573 15.2427H9.98958C7.88016 15.2427 5.40625 16.7477 5.40625 19.4502C5.40625 21.5088 8.15625 22.2552 9.07292 22.2552H14.1145C16.2362 22.2552 19.1562 21.5088 19.1562 19.4502C19.1562 16.7454 16.6824 15.2427 14.573 15.2427Z" fill="#8A8F98"/>
<path d="M8.46181 10.5677C8.46181 12.7193 10.1718 14.4636 12.2813 14.4636C14.3907 14.4636 16.1007 12.7193 16.1007 10.5677C16.1007 8.41609 14.3907 6.67188 12.2813 6.67188C10.1718 6.67188 8.46181 8.41609 8.46181 10.5677Z" fill="#8A8F98"/>
<path fill-rule="evenodd" clip-rule="evenodd" d="M12.2812 21.3386C17.3438 21.3386 21.448 17.2345 21.448 12.1719C21.448 7.10926 17.3438 3.0052 12.2812 3.0052C7.21864 3.0052 3.11458 7.10926 3.11458 12.1719C3.11458 17.2345 7.21864 21.3386 12.2812 21.3386ZM12.2812 23.1719C18.3563 23.1719 23.2812 18.247 23.2812 12.1719C23.2812 6.09675 18.3563 1.17188 12.2812 1.17188C6.20612 1.17188 1.28125 6.09675 1.28125 12.1719C1.28125 18.247 6.20612 23.1719 12.2812 23.1719Z" fill="#8A8F98"/>
</svg>
