<svg width="40" height="41" viewBox="0 0 40 41" fill="none" xmlns="http://www.w3.org/2000/svg">
<g clip-path="url(#clip0_1_2980)">
<path d="M32 0.171875H8C3.58172 0.171875 0 3.7536 0 8.17188V32.1719C0 36.5902 3.58172 40.1719 8 40.1719H32C36.4183 40.1719 40 36.5902 40 32.1719V8.17188C40 3.7536 36.4183 0.171875 32 0.171875Z" fill="white" fill-opacity="0.098"/>
<path d="M8.47887 19.1179C9.17795 18.7091 24.1957 9.97036 24.539 9.76785C24.8823 9.56785 24.9011 8.95286 24.5141 8.73036C24.1296 8.50911 23.3993 8.0891 23.1284 7.92785C22.7416 7.71478 22.2715 7.72048 21.89 7.94285C21.6978 8.05535 8.86586 15.5179 8.43768 15.7629C7.9221 16.0579 7.28918 16.0629 6.77736 15.7629L0 11.7804V15.1654C1.64784 16.1379 5.7512 18.5529 6.7449 19.1216C7.33787 19.4591 7.90463 19.4516 8.47887 19.1179Z" fill="white" fill-opacity="0.294"/>
<path d="M8.47887 25.5179C9.17795 25.1092 24.1957 16.3705 24.539 16.1679C24.8823 15.968 24.9011 15.353 24.5141 15.1305C24.1296 14.9092 23.3993 14.4892 23.1284 14.328C22.7416 14.1149 22.2715 14.1206 21.89 14.343C21.6978 14.4555 8.86586 21.918 8.43768 22.163C7.9221 22.458 7.28918 22.4629 6.77736 22.163L0 18.1805V21.5654C1.64784 22.538 5.7512 24.953 6.7449 25.5217C7.33787 25.8592 7.90463 25.8517 8.47887 25.5179Z" fill="white" fill-opacity="0.294"/>
<path d="M8.47887 32.3178C9.17795 31.909 24.1957 23.1703 24.539 22.9678C24.8823 22.7678 24.9011 22.1528 24.5141 21.9303C24.1296 21.709 23.3993 21.289 23.1284 21.1278C22.7416 20.9147 22.2715 20.9204 21.89 21.1428C21.6978 21.2553 8.86586 28.7178 8.43768 28.9628C7.9221 29.2578 7.28918 29.2628 6.77736 28.9628L0 24.9803V28.3653C1.64784 29.3378 5.7512 31.7528 6.7449 32.3215C7.33787 32.659 7.90463 32.6515 8.47887 32.3178Z" fill="white" fill-opacity="0.294"/>
</g>
<defs>
<clipPath id="clip0_1_2980">
<rect width="40" height="40" fill="white" transform="translate(0 0.171875)"/>
</clipPath>
</defs>
</svg>
