<svg width="36" height="37" viewBox="0 0 36 37" fill="none" xmlns="http://www.w3.org/2000/svg">
<path fill-rule="evenodd" clip-rule="evenodd" d="M3 6.14258C3 4.49258 4.35 3.14258 6 3.14258H13.5C15.15 3.14258 16.5 4.49258 16.5 6.14258V13.6426C16.5 15.2926 15.15 16.6426 13.5 16.6426H6C4.35 16.6426 3 15.2926 3 13.6426V6.14258ZM6 6.14258V13.6426H13.5V6.14258H6Z" fill="white"/>
<path fill-rule="evenodd" clip-rule="evenodd" d="M19.5 6.14258C19.5 4.49258 20.85 3.14258 22.5 3.14258H30C31.65 3.14258 33 4.49258 33 6.14258V13.6426C33 15.2926 31.65 16.6426 30 16.6426H22.5C20.85 16.6426 19.5 15.2926 19.5 13.6426V6.14258ZM22.5 6.14258V13.6426H30V6.14258H22.5Z" fill="white"/>
<path fill-rule="evenodd" clip-rule="evenodd" d="M6 19.6426C4.35 19.6426 3 20.9926 3 22.6426V30.1426C3 31.7926 4.35 33.1426 6 33.1426H13.5C15.15 33.1426 16.5 31.7926 16.5 30.1426V22.6426C16.5 20.9926 15.15 19.6426 13.5 19.6426H6ZM6 30.1426V22.6426H13.5V30.1426H6Z" fill="white"/>
<path fill-rule="evenodd" clip-rule="evenodd" d="M22.5 22.6426V30.1426H30V22.6426H22.5ZM19.5 22.6426C19.5 20.9926 20.85 19.6426 22.5 19.6426H30C31.65 19.6426 33 20.9926 33 22.6426V30.1426C33 31.7926 31.65 33.1426 30 33.1426H22.5C20.85 33.1426 19.5 31.7926 19.5 30.1426V22.6426Z" fill="#7762FF"/>
</svg>
