<svg width="39" height="36" viewBox="0 0 39 36" fill="none" xmlns="http://www.w3.org/2000/svg">
<g clip-path="url(#clip0_198_154)">
<path d="M0.0267442 36.4857H1.84347V17.4513L0 15.6523L0.0267442 36.4857Z" fill="#631AFF"/>
<path d="M4.56874 36.6175H6.38546V20.3229L4.54199 18.7827L4.56874 36.6175Z" fill="#631AFF"/>
<path d="M9.32429 35.262H11.141V21.6355L9.29755 20.3477L9.32429 35.262Z" fill="#631AFF"/>
<path d="M27.2067 35.6212H29.0235V10.2264L27.18 7.82617L27.2067 35.6212Z" fill="#631AFF"/>
<path d="M32.0516 36.562H33.8683V14.5977L32.0248 12.5215L32.0516 36.562Z" fill="#631AFF"/>
<path d="M36.5397 35.9719H38.3568V15.9768L36.5133 14.0869L36.5397 35.9719Z" fill="#631AFF"/>
<path d="M24.7659 36H13.8124L13.7412 6.25777L24.9271 0L24.7659 36Z" fill="#631AFF"/>
</g>
<defs>
<clipPath id="clip0_198_154">
<rect width="38.3568" height="36" fill="white"/>
</clipPath>
</defs>
</svg>
