<svg width="31" height="30" viewBox="0 0 31 30" fill="none" xmlns="http://www.w3.org/2000/svg">
<path d="M3.03271 8.826L15.1408 14.823L27.249 8.826C27.2042 8.06167 26.8661 7.34323 26.3039 6.81784C25.7418 6.29245 24.9982 5.99986 24.2254 6H6.05634C5.28353 5.99986 4.53991 6.29245 3.97777 6.81784C3.41564 7.34323 3.07754 8.06167 3.03271 8.826Z" fill="#FFF9F8"/>
<path d="M27.2535 12.177L15.1409 18.177L3.0282 12.177V21C3.0282 21.7957 3.34724 22.5587 3.91513 23.1213C4.48302 23.6839 5.25325 24 6.05637 24H24.2254C25.0285 24 25.7987 23.6839 26.3666 23.1213C26.9345 22.5587 27.2535 21.7957 27.2535 21V12.177Z" fill="#FFF9F8"/>
</svg>
