<svg width="1440" height="2187" viewBox="0 0 1440 2187" fill="none" xmlns="http://www.w3.org/2000/svg">
<g clip-path="url(#clip0_2104_1237)">
<rect width="1440" height="2187" fill="#311B92"/>
<g filter="url(#filter0_d_2104_1237)">
<rect width="1440" height="2401" fill="black" fill-opacity="0.5"/>
</g>
<g opacity="0.295108">
<mask id="mask0_2104_1237" style="mask-type:luminance" maskUnits="userSpaceOnUse" x="0" y="0" width="1440" height="511">
<rect width="1440" height="511" transform="matrix(-1 0 0 1 1440 0)" fill="white"/>
</mask>
<g mask="url(#mask0_2104_1237)">
<g opacity="0.832799" filter="url(#filter1_f_2104_1237)">
<ellipse cx="255.5" cy="207" rx="255.5" ry="207" transform="matrix(-0.891007 0.45399 0.45399 0.891007 1222.52 -176.76)" fill="url(#paint0_linear_2104_1237)"/>
</g>
<g opacity="0.663063" filter="url(#filter2_f_2104_1237)">
<path fill-rule="evenodd" clip-rule="evenodd" d="M445.335 -144.103C439.575 -143.629 434.232 -140.906 430.462 -136.524L296.416 19.294C290.594 26.0612 289.439 35.6754 293.491 43.6293L359.087 172.368C363.139 180.321 371.597 185.038 380.493 184.306L585.343 167.447C591.104 166.973 596.447 164.251 600.217 159.869L734.263 4.05087C740.085 -2.71636 741.24 -12.3306 737.187 -20.2844L671.592 -149.023C667.539 -156.977 659.082 -161.693 650.185 -160.961L445.335 -144.103Z" fill="url(#paint1_linear_2104_1237)"/>
</g>
<g filter="url(#filter3_f_2104_1237)">
<rect width="386" height="348" transform="matrix(0.241922 0.970296 0.970296 -0.241922 678.148 -43.8417)" fill="url(#paint2_linear_2104_1237)" fill-opacity="0.39"/>
</g>
<g opacity="0.60605" filter="url(#filter4_f_2104_1237)">
<path fill-rule="evenodd" clip-rule="evenodd" d="M498.811 400.441C500.092 421.003 524.297 431.277 539.978 417.915L774.933 217.706C789.078 205.652 785.594 182.926 768.486 175.664L514.337 67.7842C497.229 60.5227 478.461 73.8028 479.617 92.3514L498.811 400.441Z" fill="url(#paint3_linear_2104_1237)"/>
</g>
<g opacity="0.739328" filter="url(#filter5_f_2104_1237)">
<path fill-rule="evenodd" clip-rule="evenodd" d="M1166.54 172.434C1168.01 179.797 1173.13 185.903 1180.13 188.629L1363.78 260.173C1371.27 263.09 1379.75 261.693 1385.91 256.527L1529.49 136.046C1535.65 130.881 1538.5 122.769 1536.93 114.888L1498.36 -78.3972C1496.89 -85.7606 1491.77 -91.8662 1484.77 -94.5917L1301.12 -166.137C1293.63 -169.054 1285.15 -167.656 1278.99 -162.49L1135.41 -42.0093C1129.25 -36.8437 1126.4 -28.7324 1127.98 -20.8515L1166.54 172.434Z" fill="url(#paint4_linear_2104_1237)"/>
</g>
<g filter="url(#filter6_f_2104_1237)">
<ellipse cx="178.5" cy="207" rx="178.5" ry="207" transform="matrix(0.642788 0.766044 0.766044 -0.642788 -160.371 109.831)" fill="url(#paint5_linear_2104_1237)"/>
</g>
</g>
</g>
</g>
<defs>
<filter id="filter0_d_2104_1237" x="-4" y="-2" width="1448" height="2409" filterUnits="userSpaceOnUse" color-interpolation-filters="sRGB">
<feFlood flood-opacity="0" result="BackgroundImageFix"/>
<feColorMatrix in="SourceAlpha" type="matrix" values="0 0 0 0 0 0 0 0 0 0 0 0 0 0 0 0 0 0 127 0" result="hardAlpha"/>
<feOffset dy="2"/>
<feGaussianBlur stdDeviation="2"/>
<feColorMatrix type="matrix" values="0 0 0 0 0 0 0 0 0 0 0 0 0 0 0 0 0 0 0.5 0"/>
<feBlend mode="normal" in2="BackgroundImageFix" result="effect1_dropShadow_2104_1237"/>
<feBlend mode="normal" in="SourceGraphic" in2="effect1_dropShadow_2104_1237" result="shape"/>
</filter>
<filter id="filter1_f_2104_1237" x="755.503" y="-181.222" width="666.672" height="609.79" filterUnits="userSpaceOnUse" color-interpolation-filters="sRGB">
<feFlood flood-opacity="0" result="BackgroundImageFix"/>
<feBlend mode="normal" in="SourceGraphic" in2="BackgroundImageFix" result="shape"/>
<feGaussianBlur stdDeviation="43.4925" result="effect1_foregroundBlur_2104_1237"/>
</filter>
<filter id="filter2_f_2104_1237" x="171.489" y="-280.64" width="687.701" height="584.624" filterUnits="userSpaceOnUse" color-interpolation-filters="sRGB">
<feFlood flood-opacity="0" result="BackgroundImageFix"/>
<feBlend mode="normal" in="SourceGraphic" in2="BackgroundImageFix" result="shape"/>
<feGaussianBlur stdDeviation="59.8022" result="effect1_foregroundBlur_2104_1237"/>
</filter>
<filter id="filter3_f_2104_1237" x="563.98" y="-242.198" width="659.381" height="687.059" filterUnits="userSpaceOnUse" color-interpolation-filters="sRGB">
<feFlood flood-opacity="0" result="BackgroundImageFix"/>
<feBlend mode="normal" in="SourceGraphic" in2="BackgroundImageFix" result="shape"/>
<feGaussianBlur stdDeviation="57.0839" result="effect1_foregroundBlur_2104_1237"/>
</filter>
<filter id="filter4_f_2104_1237" x="365.398" y="-48.4028" width="532.493" height="586.496" filterUnits="userSpaceOnUse" color-interpolation-filters="sRGB">
<feFlood flood-opacity="0" result="BackgroundImageFix"/>
<feBlend mode="normal" in="SourceGraphic" in2="BackgroundImageFix" result="shape"/>
<feGaussianBlur stdDeviation="57.0839" result="effect1_foregroundBlur_2104_1237"/>
</filter>
<filter id="filter5_f_2104_1237" x="1007.94" y="-287.242" width="649.012" height="668.521" filterUnits="userSpaceOnUse" color-interpolation-filters="sRGB">
<feFlood flood-opacity="0" result="BackgroundImageFix"/>
<feBlend mode="normal" in="SourceGraphic" in2="BackgroundImageFix" result="shape"/>
<feGaussianBlur stdDeviation="59.8022" result="effect1_foregroundBlur_2104_1237"/>
</filter>
<filter id="filter6_f_2104_1237" x="-186.099" y="-180.574" width="598.074" height="588.174" filterUnits="userSpaceOnUse" color-interpolation-filters="sRGB">
<feFlood flood-opacity="0" result="BackgroundImageFix"/>
<feBlend mode="normal" in="SourceGraphic" in2="BackgroundImageFix" result="shape"/>
<feGaussianBlur stdDeviation="51.6474" result="effect1_foregroundBlur_2104_1237"/>
</filter>
<linearGradient id="paint0_linear_2104_1237" x1="-193.803" y1="-257.857" x2="-103.675" y2="315.687" gradientUnits="userSpaceOnUse">
<stop stop-color="#B2EBF2"/>
<stop offset="1" stop-color="#D1C4E9"/>
</linearGradient>
<linearGradient id="paint1_linear_2104_1237" x1="655.059" y1="-231.419" x2="600.905" y2="220.755" gradientUnits="userSpaceOnUse">
<stop stop-color="#651FFF"/>
<stop offset="0.668612" stop-color="#00E5FF"/>
<stop offset="1" stop-color="#FF4081"/>
</linearGradient>
<linearGradient id="paint2_linear_2104_1237" x1="-185.005" y1="85.7838" x2="137.036" y2="492.371" gradientUnits="userSpaceOnUse">
<stop stop-color="#D81B60"/>
<stop offset="0.59346" stop-color="#84FFFF"/>
<stop offset="1" stop-color="#311B92"/>
</linearGradient>
<linearGradient id="paint3_linear_2104_1237" x1="-6.4391" y1="444.242" x2="270.217" y2="-207.215" gradientUnits="userSpaceOnUse">
<stop stop-color="#651FFF"/>
<stop offset="0.668612" stop-color="#00E5FF"/>
<stop offset="1" stop-color="#FF4081"/>
</linearGradient>
<linearGradient id="paint4_linear_2104_1237" x1="754.204" y1="-59.0383" x2="1287.12" y2="-332.742" gradientUnits="userSpaceOnUse">
<stop stop-color="#FF4081"/>
<stop offset="1" stop-color="#F8BBD0"/>
</linearGradient>
<linearGradient id="paint5_linear_2104_1237" x1="-53.8516" y1="82.5008" x2="128.859" y2="477.816" gradientUnits="userSpaceOnUse">
<stop stop-color="#651FFF"/>
<stop offset="1" stop-color="#00BCD4"/>
</linearGradient>
<clipPath id="clip0_2104_1237">
<rect width="1440" height="2187" fill="white"/>
</clipPath>
</defs>
</svg>
