<svg width="40" height="41" viewBox="0 0 40 41" fill="none" xmlns="http://www.w3.org/2000/svg">
<g clip-path="url(#clip0_1_3005)">
<mask id="mask0_1_3005" style="mask-type:luminance" maskUnits="userSpaceOnUse" x="0" y="0" width="40" height="41">
<path d="M40 0.171875H0V40.1719H40V0.171875Z" fill="white"/>
</mask>
<g mask="url(#mask0_1_3005)">
<path fill-rule="evenodd" clip-rule="evenodd" d="M24.54 0.262664L2.4068 1.89746C0.6212 2.05186 0 3.21867 0 4.61706V28.8811C0 29.9703 0.3868 30.9023 1.32 32.1479L6.5228 38.9131C7.3776 40.0023 8.1548 40.2359 9.7868 40.1583L35.4896 38.6023C37.6628 38.4475 38.2856 37.4355 38.2856 35.7251V8.42787C38.2856 7.54387 37.9364 7.28907 36.9084 6.53467L29.6668 1.42906C27.9576 0.186264 27.2588 0.0294639 24.54 0.262664ZM10.368 7.98106C8.2692 8.12226 7.7932 8.15426 6.6012 7.18506L3.5708 4.77466C3.2628 4.46267 3.4176 4.07347 4.1936 3.99587L25.4708 2.44107C27.2576 2.28507 28.188 2.90787 28.8868 3.45186L32.536 6.09586C32.692 6.17466 33.08 6.63986 32.6132 6.63986L10.64 7.96267L10.368 7.98106ZM7.9212 35.4919V12.3187C7.9212 11.3067 8.232 10.8399 9.1624 10.7615L34.4 9.28386C35.256 9.20667 35.6428 9.75066 35.6428 10.7611V33.7799C35.6428 34.7919 35.4868 35.6479 34.0896 35.7251L9.9388 37.1251C8.5416 37.2023 7.9212 36.7371 7.9212 35.4919ZM31.7612 13.5611C31.916 14.2611 31.7612 14.9611 31.0612 15.0411L29.8972 15.2719V32.3811C28.8864 32.9251 27.956 33.2359 27.1784 33.2359C25.9356 33.2359 25.6252 32.8467 24.6944 31.6811L17.0824 19.7051V31.2919L19.4904 31.8371C19.4904 31.8371 19.4904 33.2371 17.5476 33.2371L12.1916 33.5479C12.0356 33.2359 12.1916 32.4587 12.7344 32.3039L14.1332 31.9159V16.5959L12.192 16.4387C12.036 15.7387 12.424 14.7279 13.512 14.6495L19.2588 14.2627L27.1788 26.3935V15.6615L25.16 15.4295C25.004 14.5723 25.6252 13.9495 26.4012 13.8735L31.7612 13.5611Z" fill="white" fill-opacity="0.2"/>
</g>
</g>
<defs>
<clipPath id="clip0_1_3005">
<rect width="40" height="40" fill="white" transform="translate(0 0.171875)"/>
</clipPath>
</defs>
</svg>
