<svg width="25" height="25" viewBox="0 0 25 25" fill="none" xmlns="http://www.w3.org/2000/svg">
<g clip-path="url(#clip0_1_3290)">
<path fill-rule="evenodd" clip-rule="evenodd" d="M12.9062 22.1719C17.3246 22.1719 20.9062 18.5902 20.9062 14.1719C20.9062 9.75359 17.3246 6.17188 12.9062 6.17188C8.48797 6.17188 4.90625 9.75359 4.90625 14.1719C4.90625 18.5902 8.48797 22.1719 12.9062 22.1719ZM12.9062 24.1719C18.4291 24.1719 22.9062 19.6947 22.9062 14.1719C22.9062 8.64902 18.4291 4.17188 12.9062 4.17188C7.3834 4.17188 2.90625 8.64902 2.90625 14.1719C2.90625 19.6947 7.3834 24.1719 12.9062 24.1719Z" fill="#8A8F98"/>
<path d="M15.2484 9.61698C15.5895 9.18262 16.2182 9.10702 16.6525 9.44811C17.0869 9.78921 17.1625 10.4179 16.8214 10.8522L14.1487 14.2557C13.8076 14.6901 13.1789 14.7657 12.7446 14.4246C12.3102 14.0835 12.2346 13.4549 12.5757 13.0205L15.2484 9.61698Z" fill="#8A8F98"/>
<path d="M14.9062 14.1719C14.9062 15.2765 14.0108 16.1719 12.9062 16.1719C11.8017 16.1719 10.9062 15.2765 10.9062 14.1719C10.9062 13.0673 11.8017 12.1719 12.9062 12.1719C14.0108 12.1719 14.9062 13.0673 14.9062 14.1719Z" fill="#8A8F98"/>
<path d="M9.90625 2.17188C9.90625 1.61959 10.354 1.17188 10.9062 1.17188H14.9062C15.4585 1.17188 15.9062 1.61959 15.9062 2.17188C15.9062 2.72415 15.4585 3.17188 14.9062 3.17188H10.9062C10.354 3.17188 9.90625 2.72415 9.90625 2.17188Z" fill="#8A8F98"/>
<path d="M11.9062 2.17188C11.9062 1.61959 12.354 1.17188 12.9062 1.17188C13.4585 1.17188 13.9062 1.61959 13.9062 2.17188V5.17188C13.9062 5.72415 13.4585 6.17188 12.9062 6.17188C12.354 6.17188 11.9062 5.72415 11.9062 5.17188V2.17188Z" fill="#8A8F98"/>
</g>
<defs>
<clipPath id="clip0_1_3290">
<rect width="24" height="24" fill="white" transform="translate(0.90625 0.171875)"/>
</clipPath>
</defs>
</svg>
