<?xml version="1.0" encoding="UTF-8"?>
<svg xmlns="http://www.w3.org/2000/svg" viewBox="0 0 414.64 426.82">
  <defs>
    <style>
      .cls-1 {
        fill: #b7b6b2;
      }

      .cls-1, .cls-2, .cls-3, .cls-4, .cls-5, .cls-6, .cls-7, .cls-8, .cls-9, .cls-10, .cls-11, .cls-12, .cls-13, .cls-14, .cls-15, .cls-16, .cls-17 {
        stroke-width: 0px;
      }

      .cls-2 {
        opacity: .4;
      }

      .cls-3 {
        fill: #898989;
      }

      .cls-5 {
        fill: #37474f;
      }

      .cls-6 {
        fill: #1a1a1a;
      }

      .cls-7 {
        opacity: .2;
      }

      .cls-8 {
        fill: #fff;
      }

      .cls-9 {
        fill: #969696;
      }

      .cls-10 {
        fill: #5b5b5a;
      }

      .cls-11 {
        fill: #263238;
      }

      .cls-12 {
        fill: #dbdbdb;
      }

      .cls-13 {
        fill: #ebebeb;
      }

      .cls-14 {
        fill: #455a64;
      }

      .cls-15 {
        fill: #383838;
      }

      .cls-16 {
        opacity: .1;
      }

      .cls-17 {
        fill: #5b5b5b;
      }
    </style>
  </defs>
  <g id="Background_Complete" data-name="Background Complete">
    <g>
      <path class="cls-13" d="m49.96,273.85l-14.83.28-7.51.11c-2.51.05-5.03.04-7.55.06h-.44s0-.45,0-.45l-.05-12.63v-.5s.5,0,.5,0l14.95.06c4.98,0,9.97.11,14.95.16h.28s0,.27,0,.27c-.02,2.14-.09,4.27-.13,6.38l-.14,6.26Zm0,0l-.14-6.38c-.05-2.1-.11-4.19-.13-6.26l.27.27c-4.98.05-9.97.16-14.95.16l-14.95.06.5-.5-.05,12.63-.45-.45c2.47.02,4.93,0,7.4.06l7.43.11,15.06.28Z"/>
      <path class="cls-13" d="m33.28,289.78l-14.83.28-7.51.11c-2.51.05-5.03.04-7.55.06h-.44s0-.45,0-.45l-.05-12.63v-.5s.5,0,.5,0l14.95.06c4.98,0,9.97.11,14.95.16h.28s0,.27,0,.27c-.02,2.14-.09,4.27-.13,6.38l-.14,6.26Zm0,0l-.14-6.38c-.05-2.1-.11-4.19-.13-6.26l.27.27c-4.98.05-9.97.16-14.95.16l-14.95.06.5-.5-.05,12.63-.45-.45c2.47.02,4.93,0,7.4.05l7.43.11,15.06.28Z"/>
      <path class="cls-13" d="m33.28,16.42l-14.83.28-7.51.11c-2.51.05-5.03.04-7.55.06h-.44s0-.45,0-.45l-.05-12.63v-.5s.5,0,.5,0l14.95.06c4.98,0,9.97.11,14.95.16h.28s0,.27,0,.27c-.02,2.14-.09,4.27-.13,6.38l-.14,6.26Zm0,0l-.14-6.38c-.05-2.1-.11-4.19-.13-6.26l.27.27c-4.98.05-9.97.16-14.95.16l-14.95.06.5-.5-.05,12.63-.45-.45c2.47.02,4.93,0,7.4.05l7.43.11,15.06.28Z"/>
      <path class="cls-13" d="m411.26,16.42l-14.83.28-7.51.11c-2.51.05-5.03.04-7.55.06h-.44s0-.45,0-.45l-.05-12.63v-.5s.5,0,.5,0l14.95.06c4.98,0,9.97.11,14.95.16h.28s0,.27,0,.27c-.02,2.14-.09,4.27-.13,6.38l-.14,6.26Zm0,0l-.14-6.38c-.05-2.1-.11-4.19-.13-6.26l.27.27c-4.98.05-9.97.16-14.95.16l-14.95.06.5-.5-.05,12.63-.45-.45c2.47.02,4.93,0,7.4.05l7.43.11,15.06.28Z"/>
      <path class="cls-13" d="m394.58,32.35l-14.83.28-7.51.11c-2.51.05-5.03.04-7.55.05h-.44s0-.45,0-.45l-.05-12.63v-.5s.5,0,.5,0l14.95.06c4.98,0,9.97.11,14.95.16h.28s0,.27,0,.27c-.02,2.14-.09,4.27-.13,6.38l-.14,6.26Zm0,0l-.14-6.38c-.05-2.1-.11-4.19-.13-6.26l.27.27c-4.98.05-9.97.16-14.95.16l-14.95.06.5-.5-.05,12.63-.45-.45c2.47.02,4.93,0,7.4.06l7.43.11,15.06.28Z"/>
      <path class="cls-13" d="m318.01,180.14l-14.83.28-7.51.11c-2.51.05-5.03.04-7.55.06h-.44s0-.45,0-.45l-.05-12.63v-.5s.5,0,.5,0l14.95.06c4.98,0,9.97.11,14.95.16h.28s0,.27,0,.27c-.02,2.14-.09,4.27-.13,6.38l-.14,6.26Zm0,0l-.14-6.38c-.05-2.1-.11-4.19-.13-6.26l.27.27c-4.98.05-9.97.16-14.95.16l-14.95.06.5-.5-.05,12.63-.45-.45c2.47.02,4.93,0,7.4.05l7.43.11,15.06.28Z"/>
      <path class="cls-13" d="m301.33,196.07l-14.83.28-7.51.11c-2.51.05-5.03.04-7.55.06h-.44s0-.45,0-.45l-.05-12.63v-.5s.5,0,.5,0l14.95.06c4.98,0,9.97.11,14.95.16h.28s0,.27,0,.27c-.02,2.14-.09,4.27-.13,6.38l-.14,6.26Zm0,0l-.14-6.38c-.05-2.1-.11-4.19-.13-6.26l.27.27c-4.98.05-9.97.16-14.95.16l-14.95.06.5-.5-.05,12.63-.45-.45c2.47.02,4.93,0,7.4.06l7.43.11,15.06.28Z"/>
      <path class="cls-13" d="m284.72,180.14l-14.83.28-7.51.11c-2.51.05-5.03.04-7.55.06h-.44s0-.45,0-.45l-.05-12.63v-.5s.5,0,.5,0l14.95.06c4.98,0,9.97.11,14.95.16h.28s0,.27,0,.27c-.02,2.14-.09,4.27-.13,6.38l-.14,6.26Zm0,0l-.14-6.38c-.05-2.1-.11-4.19-.13-6.26l.27.27c-4.98.05-9.97.16-14.95.16l-14.95.06.5-.5-.05,12.63-.45-.45c2.47.02,4.93,0,7.4.05l7.43.11,15.06.28Z"/>
      <path class="cls-13" d="m411.26,289.78l-14.83.28-7.51.11c-2.51.05-5.03.04-7.55.06h-.44s0-.45,0-.45l-.05-12.63v-.5s.5,0,.5,0l14.95.06c4.98,0,9.97.11,14.95.16h.28s0,.27,0,.27c-.02,2.14-.09,4.27-.13,6.38l-.14,6.26Zm0,0l-.14-6.38c-.05-2.1-.11-4.19-.13-6.26l.27.27c-4.98.05-9.97.16-14.95.16l-14.95.06.5-.5-.05,12.63-.45-.45c2.47.02,4.93,0,7.4.05l7.43.11,15.06.28Z"/>
      <path class="cls-13" d="m157.24,53.99l-14.83.28-7.51.11c-2.51.05-5.03.04-7.55.05h-.44s0-.45,0-.45l-.05-12.63v-.5s.5,0,.5,0l14.95.06c4.98,0,9.97.11,14.95.16h.28s0,.27,0,.27c-.02,2.14-.09,4.27-.13,6.38l-.14,6.26Zm0,0l-.14-6.38c-.05-2.1-.11-4.19-.13-6.26l.27.27c-4.98.05-9.97.16-14.95.16l-14.95.06.5-.5-.05,12.63-.45-.45c2.47.02,4.93,0,7.4.05l7.43.11,15.06.28Z"/>
    </g>
    <g>
      <path class="cls-13" d="m380.54,137.68l5.89-9.49-2.91-1.8c-.85-.53-1.32-1.5-1.23-2.5.05-.55.07-1.11.05-1.67-.02-1,.5-1.94,1.39-2.41l3.01-1.62-5.28-9.85-3.01,1.62c-.88.47-1.95.39-2.77-.18-.46-.32-.93-.61-1.42-.88-.88-.48-1.43-1.4-1.4-2.41l.11-3.42-11.16-.35-.1,3.43c-.03,1.01-.65,1.88-1.56,2.31-.25.12-.49.24-.73.37-.24.13-.48.27-.71.41-.86.52-1.92.55-2.77.02l-2.93-1.81-5.89,9.49,2.91,1.81c.85.53,1.32,1.5,1.23,2.5-.05.55-.07,1.11-.05,1.66.02,1-.5,1.93-1.39,2.41l-3.01,1.62,5.28,9.85,3.01-1.62c.88-.47,1.95-.39,2.77.18.46.32.93.61,1.42.87.88.48,1.43,1.4,1.4,2.41l-.11,3.43,11.16.35.11-3.43c.03-1,.65-1.87,1.55-2.3.25-.12.49-.24.74-.37.24-.13.48-.27.71-.41.86-.52,1.93-.55,2.79-.02l2.91,1.8Zm-9.45-7.05c-4.45,2.39-9.99.72-12.38-3.74-2.39-4.45-.72-10,3.73-12.39,4.45-2.39,10-.71,12.39,3.74,2.39,4.45.71,10-3.74,12.38Z"/>
      <path class="cls-13" d="m58.85,245.22l5.89-9.49-2.91-1.8c-.85-.53-1.32-1.5-1.23-2.5.05-.55.07-1.11.05-1.67-.02-1,.5-1.94,1.39-2.41l3.01-1.62-5.28-9.85-3.01,1.62c-.88.47-1.95.39-2.77-.18-.46-.32-.93-.61-1.42-.88-.88-.48-1.43-1.4-1.4-2.41l.11-3.42-11.16-.35-.1,3.43c-.03,1.01-.65,1.88-1.56,2.31-.25.12-.49.24-.73.37-.24.13-.48.27-.71.41-.86.52-1.92.55-2.77.02l-2.93-1.81-5.89,9.49,2.91,1.81c.85.53,1.32,1.5,1.23,2.5-.05.55-.07,1.11-.05,1.66.02,1-.5,1.93-1.39,2.41l-3.01,1.62,5.28,9.85,3.01-1.62c.88-.47,1.95-.39,2.77.18.46.32.93.61,1.42.87.88.48,1.43,1.4,1.4,2.41l-.11,3.43,11.16.35.11-3.43c.03-1,.65-1.87,1.55-2.3.25-.12.49-.24.74-.37.24-.13.48-.27.71-.41.86-.52,1.93-.55,2.79-.02l2.91,1.8Zm-9.45-7.05c-4.45,2.39-9.99.72-12.38-3.74-2.39-4.45-.72-10,3.73-12.39,4.45-2.39,10-.71,12.39,3.74,2.39,4.45.71,10-3.74,12.38Z"/>
      <path class="cls-13" d="m173.19,63.44l-3.91-6.78-2.07,1.2c-.61.35-1.36.32-1.95-.07-.33-.21-.66-.41-1.01-.59-.63-.32-1.03-.95-1.03-1.65v-2.4h-7.83v2.4c0,.7-.4,1.33-1.03,1.65-.35.18-.69.37-1.01.59-.59.38-1.34.42-1.95.07l-2.07-1.2-3.91,6.78,2.08,1.2c.61.35.95,1.02.91,1.73,0,.19-.01.38-.01.58s0,.38.01.58c.04.7-.3,1.37-.91,1.72l-2.09,1.21,3.91,6.78,2.08-1.2c.61-.35,1.36-.32,1.95.07.32.21.66.41,1.01.58.63.32,1.03.95,1.03,1.65v2.4h7.83v-2.4c0-.7.4-1.33,1.03-1.65.35-.18.68-.37,1.01-.58.59-.39,1.34-.42,1.95-.07l2.08,1.2,3.91-6.78-2.08-1.2c-.61-.35-.94-1.02-.91-1.72,0-.19.01-.39.01-.58s0-.38-.01-.58c-.04-.7.3-1.37.91-1.73l2.08-1.2Zm-7.48,3.5c0,3.54-2.87,6.41-6.41,6.41s-6.41-2.87-6.41-6.41,2.87-6.41,6.41-6.41,6.41,2.87,6.41,6.41Z"/>
    </g>
  </g>
  <g id="Plant">
    <g>
      <path class="cls-11" d="m46.15,260.55c-13.07,12.79-15.26,32.59-12.51,49.92.07.39.68.29.68-.08,0-3.95-.12-7.86-.11-11.76.07-.18.13-.35.2-.52,3.41-2.48,6.55-5.28,8.49-9.12,2.18-4.29,3.04-9.13,4.71-13.62.16-.43-.3-.3-.6-.08-7.95,5.86-10.48,12.17-12.76,20.6.11-4.38.44-8.75,1.38-13.13,1.72-8,5.12-15.93,10.86-21.87.21-.23-.12-.57-.35-.35Z"/>
      <path class="cls-9" d="m47.96,262.59c2.87-1.31,8.4.57,8.87-.51.95-2.21-3.46-3.73-5.84-4.03,2.19-.59,6.4-1.54,6.27-3.66-.16-2.58-6.45-.36-9.63,2.08-4.01,3.07-3.98,6.04-3.32,6.64.91.82,3.19-.3,3.66-.52Z"/>
    </g>
    <g>
      <path class="cls-11" d="m16.39,259.28c13.55,12.29,16.49,31.98,14.4,49.41-.06.4-.67.31-.68-.06-.15-3.94-.18-7.86-.34-11.75-.08-.18-.14-.34-.22-.52-3.5-2.35-6.74-5.03-8.83-8.79-2.34-4.21-3.39-9.01-5.22-13.43-.17-.42.29-.31.6-.11,8.17,5.56,10.94,11.76,13.54,20.1-.27-4.37-.77-8.73-1.88-13.07-2.02-7.93-5.72-15.72-11.69-21.44-.22-.22.1-.58.33-.36Z"/>
      <path class="cls-9" d="m14.67,261.39c-2.92-1.2-8.37.89-8.88-.18-1.04-2.18,3.32-3.86,5.69-4.25-2.21-.51-6.45-1.3-6.4-3.42.06-2.59,6.43-.61,9.7,1.71,4.12,2.92,4.21,5.89,3.57,6.51-.88.85-3.19-.18-3.68-.38Z"/>
    </g>
    <path class="cls-11" d="m30.24,291.73c1,6.48,2.24,13.17,4.21,19.43.19.57,1.03.42.95-.19-.89-5.99-2.51-11.86-3.4-17.85-.9-6.06-1.39-12.2-1.04-18.33.57-10.09,3.31-20.82,9.89-28.72.14-.19-.16-.45-.31-.28-13.18,15.37-11.08,34.21-11.07,35.9-1.87-6.36-3.79-13.66-10.85-20.13-.3-.28-.54-.15-.49.33,1.26,11.8,4.54,17.96,11.38,24.27.19,1.87.44,3.73.73,5.57Z"/>
    <path class="cls-9" d="m40.57,248.75c2.32-2.8,9-3.63,8.94-5-.13-2.78-5.47-2.13-8.09-1.24,1.98-1.72,5.86-4.82,4.66-6.95-1.46-2.6-6.87,2.87-8.95,7-2.61,5.21-1.09,8.27-.11,8.56,1.35.39,3.15-1.92,3.54-2.38Z"/>
    <path class="cls-9" d="m21.57,295.28l-5.81,44.42h35.37c-.73-3.94-7.31-44.47-7.31-44.47l-22.25.05Z"/>
  </g>
  <g id="Floor">
    <polygon class="cls-11" points=".69 339.85 52.35 339.61 104.01 339.52 207.32 339.35 310.63 339.52 362.29 339.6 413.94 339.85 362.29 340.09 310.63 340.18 207.32 340.35 104.01 340.18 52.35 340.09 .69 339.85"/>
  </g>
  <g id="Shadow">
    <ellipse class="cls-13" cx="207.32" cy="405.75" rx="149.06" ry="21.08"/>
  </g>
  <g id="_404_Error" data-name="404 Error">
    <g>
      <g>
        <path class="cls-11" d="m114.89,184.38l-6.21-24.43-49.04,12.46-6.48-25.5,39.19-89.31,19.44-4.94,18.9,74.36,15.69-3.99,6.53,25.68-15.69,3.99,6.21,24.43-28.53,7.25Zm-33.6-44.81l24.25-6.16-8.02-31.56-16.23,37.73Z"/>
        <path class="cls-11" d="m255.34,102.82c0,8.1-1.23,15.55-3.68,22.35-2.46,6.81-5.83,12.7-10.12,17.66-4.29,4.97-9.35,8.83-15.18,11.59-5.83,2.76-12.18,4.14-19.04,4.14s-13.25-1.38-19.13-4.14c-5.89-2.76-10.98-6.62-15.27-11.59-4.29-4.97-7.64-10.86-10.03-17.66-2.39-6.81-3.59-14.26-3.59-22.35s1.2-15.55,3.59-22.35c2.39-6.81,5.73-12.7,10.03-17.66,4.29-4.97,9.38-8.86,15.27-11.68,5.89-2.82,12.26-4.23,19.13-4.23s13.22,1.41,19.04,4.23c5.82,2.82,10.88,6.72,15.18,11.68,4.29,4.97,7.67,10.86,10.12,17.66,2.45,6.81,3.68,14.26,3.68,22.35Zm-29.62,0c0-8.58-1.72-15.55-5.15-20.88-3.44-5.34-7.85-8-13.25-8s-10.15,2.67-13.52,8c-3.37,5.34-5.06,12.3-5.06,20.88s1.68,15.52,5.06,20.79c3.37,5.28,7.88,7.91,13.52,7.91s9.81-2.64,13.25-7.91c3.43-5.27,5.15-12.2,5.15-20.79Z"/>
        <path class="cls-11" d="m308.16,179.67l4.03-24.88-49.95-8.09,4.21-25.97,71.51-66.33,19.8,3.21-12.27,75.74,15.98,2.59-4.24,26.15-15.98-2.59-4.03,24.88-29.06-4.71Zm-12.98-54.48l24.7,4,5.21-32.15-29.91,28.15Z"/>
      </g>
      <g>
        <path class="cls-11" d="m165.99,29.17c-2.1,0-4.01-.41-5.72-1.23-1.71-.82-3.18-1.91-4.4-3.27-1.23-1.36-2.18-2.91-2.85-4.67-.67-1.75-1.01-3.54-1.01-5.37s.36-3.74,1.07-5.49c.71-1.75,1.7-3.3,2.95-4.65,1.25-1.35,2.74-2.42,4.46-3.21,1.72-.79,3.6-1.19,5.62-1.19s3.97.42,5.68,1.27c1.71.85,3.17,1.96,4.38,3.33,1.21,1.37,2.15,2.94,2.83,4.69.67,1.75,1.01,3.53,1.01,5.33,0,1.91-.35,3.74-1.05,5.47-.7,1.74-1.67,3.27-2.91,4.6-1.24,1.33-2.72,2.4-4.44,3.19-1.72.8-3.6,1.19-5.62,1.19Zm-8.32-14.54c0,1.24.19,2.44.57,3.6.38,1.16.92,2.18,1.64,3.07.71.89,1.59,1.6,2.63,2.14,1.04.54,2.21.81,3.53.81s2.54-.28,3.57-.83c1.04-.55,1.91-1.29,2.63-2.2.71-.91,1.25-1.95,1.62-3.09.36-1.14.55-2.31.55-3.49s-.2-2.44-.59-3.6c-.39-1.16-.94-2.18-1.66-3.07-.71-.89-1.59-1.6-2.63-2.12-1.04-.52-2.2-.79-3.49-.79s-2.54.28-3.6.83c-1.05.55-1.93,1.28-2.63,2.18-.7.9-1.23,1.93-1.6,3.07-.36,1.15-.55,2.31-.55,3.49Z"/>
        <path class="cls-11" d="m193.54,29.37c-1.72,0-3.27-.3-4.65-.89-1.37-.59-2.54-1.39-3.49-2.4-.96-1.01-1.69-2.17-2.2-3.49-.51-1.32-.77-2.71-.77-4.16s.26-2.88.77-4.2c.51-1.32,1.25-2.48,2.2-3.49.96-1.01,2.12-1.81,3.49-2.4,1.37-.59,2.92-.89,4.65-.89s3.27.3,4.63.89c1.36.59,2.52,1.39,3.47,2.4.96,1.01,1.69,2.17,2.2,3.49.51,1.32.77,2.72.77,4.2s-.26,2.84-.77,4.16c-.51,1.32-1.24,2.48-2.18,3.49-.94,1.01-2.1,1.81-3.47,2.4-1.37.59-2.92.89-4.65.89Zm-5.53-10.95c0,.94.14,1.8.42,2.57.28.77.67,1.43,1.17,2,.5.57,1.08,1,1.76,1.31.67.31,1.4.46,2.18.46s1.51-.15,2.18-.46c.67-.31,1.26-.75,1.76-1.31.5-.57.89-1.24,1.17-2.02.28-.78.42-1.64.42-2.59s-.14-1.76-.42-2.54c-.28-.78-.67-1.45-1.17-2.02-.5-.57-1.08-1-1.76-1.31-.67-.31-1.4-.46-2.18-.46s-1.51.16-2.18.48c-.67.32-1.26.77-1.76,1.33-.5.57-.89,1.24-1.17,2.02-.28.78-.42,1.63-.42,2.54Z"/>
        <path class="cls-11" d="m220.93,29.37c-1.67,0-3.12-.37-4.36-1.11-1.24-.74-2.21-1.74-2.91-3.01v12.32h-5.41V7.8h4.73v3.64c.78-1.24,1.79-2.21,3.03-2.93,1.24-.71,2.67-1.07,4.28-1.07,1.43,0,2.75.29,3.96.87s2.26,1.36,3.13,2.34c.87.98,1.56,2.14,2.06,3.47.5,1.33.75,2.74.75,4.22s-.23,2.98-.69,4.32c-.46,1.35-1.1,2.52-1.92,3.51-.82,1-1.8,1.78-2.93,2.34-1.13.57-2.37.85-3.72.85Zm-1.82-4.6c.81,0,1.55-.17,2.24-.53.69-.35,1.27-.82,1.76-1.41.48-.59.86-1.28,1.13-2.06.27-.78.4-1.59.4-2.42,0-.89-.15-1.72-.44-2.48-.3-.77-.71-1.43-1.23-2-.53-.57-1.14-1.01-1.86-1.33-.71-.32-1.49-.48-2.32-.48-.51,0-1.04.09-1.58.26-.54.18-1.04.42-1.5.75-.46.32-.87.7-1.23,1.13-.36.43-.64.9-.83,1.41v4.97c.49,1.21,1.23,2.22,2.22,3.01,1,.79,2.07,1.19,3.23,1.19Z"/>
        <path class="cls-11" d="m241.86,29.37c-1.78,0-3.51-.28-5.21-.85-1.7-.57-3.15-1.37-4.36-2.42l2.02-3.39c1.29.92,2.55,1.61,3.78,2.08,1.23.47,2.44.71,3.66.71,1.08,0,1.92-.2,2.54-.61.62-.4.93-.98.93-1.74s-.36-1.31-1.09-1.66c-.73-.35-1.91-.75-3.55-1.21-1.37-.38-2.54-.74-3.51-1.09-.97-.35-1.75-.75-2.34-1.19-.59-.44-1.02-.96-1.29-1.53s-.4-1.27-.4-2.08c0-1.08.21-2.05.63-2.91.42-.86,1-1.6,1.76-2.2.75-.61,1.64-1.07,2.65-1.39,1.01-.32,2.11-.48,3.29-.48,1.59,0,3.08.23,4.46.69,1.39.46,2.66,1.2,3.82,2.22l-2.18,3.27c-1.08-.81-2.12-1.4-3.13-1.78-1.01-.38-2.01-.57-3.01-.57-.92,0-1.68.19-2.3.57-.62.38-.93.98-.93,1.82,0,.38.07.69.22.93.15.24.38.46.71.65.32.19.75.37,1.27.55.53.18,1.18.36,1.96.55,1.45.38,2.7.75,3.74,1.13,1.04.38,1.88.81,2.54,1.29.66.48,1.14,1.04,1.46,1.68.31.63.46,1.39.46,2.28,0,2.07-.77,3.71-2.3,4.91-1.53,1.2-3.62,1.8-6.26,1.8Z"/>
        <path class="cls-11" d="m254.99,18.18V0h5.41v18.18h-5.41Zm0,10.79v-6.1h5.41v6.1h-5.41Z"/>
      </g>
    </g>
  </g>
  <g id="Robot">
    <g>
      <rect class="cls-5" x="192.41" y="270.55" width="35.51" height="2.91"/>
      <rect class="cls-5" x="192.41" y="274.34" width="35.51" height="2.91"/>
      <rect class="cls-5" x="192.41" y="278.13" width="35.51" height="2.91"/>
      <rect class="cls-5" x="192.41" y="281.92" width="35.51" height="2.91"/>
      <rect class="cls-5" x="192.41" y="285.71" width="35.51" height="2.91"/>
    </g>
    <g>
      <rect class="cls-5" x="175.78" y="361.3" width="67.52" height="2.91"/>
      <rect class="cls-5" x="175.78" y="365.09" width="67.52" height="2.91"/>
      <rect class="cls-5" x="175.78" y="368.88" width="67.52" height="2.91"/>
      <rect class="cls-5" x="175.78" y="372.67" width="67.52" height="2.91"/>
      <rect class="cls-5" x="175.78" y="376.46" width="67.52" height="2.91"/>
    </g>
    <path class="cls-17" d="m146.15,246.5c.03-.39-14.78-5.35-14.78-5.35l.87-50.89,19.64-4.21-5.74,60.45Z"/>
    <path class="cls-10" d="m281.81,266.48c.1-.38,15.72.06,15.72.06l16.69-48.08-16.99-10.72-15.42,58.74Z"/>
    <path class="cls-9" d="m277.59,284.8s-70.01-13.79-134.29-19.56c0,0,5.49-82.3,10.31-109.37,0,0,99.42,7.52,153.09,28.03"/>
    <g>
      <path class="cls-16" d="m232.04,166.86c-1.62,9.91-3.25,19.82-4.94,29.71l-5.12,29.68-.28-.42,33.31,7.91,16.64,4.03,16.62,4.11-16.71-3.74-16.69-3.82-33.34-7.79-.34-.08.06-.34,5.31-29.65c1.78-9.88,3.62-19.75,5.48-29.62Z"/>
      <path class="cls-16" d="m228.39,172.51c.02.91-.71,1.84-1.75,1.93-.5.05-1.05-.11-1.46-.47-.41-.36-.66-.91-.66-1.46,0-.56.25-1.11.66-1.46.41-.36.96-.52,1.46-.47,1.04.09,1.76,1.03,1.75,1.93Zm0,0c0-.46-.21-.91-.55-1.2-.34-.29-.79-.41-1.2-.36-.84.1-1.38.85-1.37,1.56-.01.71.53,1.46,1.37,1.56.41.05.86-.07,1.2-.36.34-.29.54-.74.55-1.2Z"/>
      <path class="cls-16" d="m226.64,184.75c.02.91-.71,1.84-1.75,1.93-.5.05-1.05-.11-1.46-.47-.41-.36-.66-.91-.66-1.46,0-.56.25-1.11.66-1.46.41-.36.96-.52,1.46-.47,1.04.09,1.76,1.03,1.75,1.93Zm0,0c0-.46-.21-.91-.55-1.2-.34-.29-.79-.41-1.2-.36-.84.1-1.38.85-1.37,1.56-.01.71.53,1.46,1.37,1.56.41.05.86-.07,1.2-.36.34-.29.54-.74.55-1.2Z"/>
      <path class="cls-16" d="m224.49,197.69c.02.91-.71,1.84-1.75,1.93-.5.05-1.05-.11-1.46-.47-.41-.36-.66-.91-.66-1.46,0-.55.25-1.11.66-1.46.41-.36.96-.52,1.46-.47,1.04.09,1.76,1.03,1.75,1.93Zm0,0c0-.46-.21-.91-.55-1.2-.34-.29-.79-.41-1.2-.36-.84.1-1.38.85-1.37,1.56-.01.71.53,1.46,1.37,1.56.41.05.86-.07,1.2-.36.34-.29.54-.74.55-1.2Z"/>
      <path class="cls-16" d="m222.34,210.63c.02.91-.71,1.84-1.75,1.93-.5.05-1.05-.11-1.46-.47-.41-.36-.66-.91-.66-1.46,0-.56.25-1.11.66-1.46.41-.36.96-.52,1.46-.47,1.04.09,1.76,1.03,1.75,1.93Zm0,0c0-.46-.21-.91-.55-1.2-.34-.29-.79-.41-1.2-.36-.84.1-1.38.85-1.37,1.56-.01.71.53,1.46,1.37,1.56.41.05.86-.07,1.2-.36.34-.29.54-.74.55-1.2Z"/>
      <path class="cls-16" d="m229.67,231.27c.02.91-.71,1.84-1.75,1.93-.5.05-1.05-.11-1.46-.47-.41-.36-.66-.91-.66-1.46,0-.56.25-1.11.66-1.46.41-.36.96-.52,1.46-.47,1.04.09,1.76,1.03,1.75,1.93Zm0,0c0-.46-.21-.91-.55-1.2-.34-.29-.79-.41-1.2-.36-.84.1-1.38.85-1.37,1.56-.01.71.53,1.46,1.37,1.56.41.05.86-.07,1.2-.36.34-.29.54-.74.55-1.2Z"/>
      <path class="cls-16" d="m241.88,234.25c.02.91-.71,1.84-1.75,1.93-.5.05-1.05-.11-1.46-.47-.41-.36-.66-.91-.66-1.46,0-.56.25-1.11.66-1.46.41-.36.96-.52,1.46-.47,1.04.09,1.76,1.03,1.75,1.93Zm0,0c0-.46-.21-.91-.55-1.2-.34-.29-.79-.41-1.2-.36-.84.1-1.38.85-1.37,1.56-.01.71.53,1.46,1.37,1.56.41.05.86-.07,1.2-.36.34-.29.54-.74.55-1.2Z"/>
      <path class="cls-16" d="m254.09,237.23c.02.91-.71,1.84-1.75,1.93-.5.05-1.05-.11-1.46-.47-.41-.36-.66-.91-.66-1.46,0-.56.25-1.11.66-1.46.41-.36.96-.52,1.46-.47,1.04.09,1.76,1.03,1.75,1.93Zm0,0c0-.46-.21-.91-.55-1.2-.34-.29-.79-.41-1.2-.36-.84.1-1.38.85-1.37,1.56-.01.71.53,1.46,1.37,1.56.41.05.86-.07,1.2-.36.34-.29.54-.74.55-1.2Z"/>
      <path class="cls-16" d="m266.31,240.2c.02.91-.71,1.84-1.75,1.93-.5.05-1.05-.11-1.46-.47-.41-.36-.66-.91-.66-1.46,0-.56.25-1.11.66-1.46.41-.36.96-.52,1.46-.47,1.04.09,1.76,1.03,1.75,1.93Zm0,0c0-.46-.21-.91-.55-1.2-.34-.29-.79-.41-1.2-.36-.84.1-1.38.85-1.37,1.56-.01.71.53,1.46,1.37,1.56.41.05.86-.07,1.2-.36.34-.29.54-.74.55-1.2Z"/>
      <path class="cls-16" d="m278.51,243.32c-.05.91-.85,1.78-1.89,1.79-.51,0-1.04-.19-1.42-.58-.38-.39-.58-.95-.54-1.51.05-.55.33-1.08.77-1.41.44-.33,1-.44,1.5-.36,1.03.17,1.68,1.16,1.59,2.06Zm0,0c.03-.46-.14-.92-.45-1.24-.32-.31-.76-.47-1.17-.45-.84.03-1.44.74-1.49,1.45-.07.7.42,1.5,1.25,1.66.4.08.86,0,1.22-.27.36-.26.6-.7.64-1.15Z"/>
      <path class="cls-16" d="m220.19,223.57c.02.91-.71,1.84-1.75,1.93-.5.05-1.05-.11-1.46-.47-.41-.36-.66-.91-.66-1.46,0-.56.25-1.11.66-1.46.41-.36.96-.52,1.46-.47,1.04.09,1.76,1.03,1.75,1.93Zm0,0c0-.46-.21-.91-.55-1.2-.34-.29-.79-.41-1.2-.36-.84.1-1.38.85-1.37,1.56-.01.71.53,1.46,1.37,1.56.41.05.86-.07,1.2-.36.34-.29.54-.74.55-1.2Z"/>
    </g>
    <path class="cls-7" d="m152.88,219.5c2.49-15.39,16.99-25.85,32.38-23.35,15.39,2.49,25.85,16.99,23.35,32.38"/>
    <circle class="cls-15" cx="180.75" cy="224.01" r="22.64" transform="translate(-92.74 313.76) rotate(-69.27)"/>
    <g>
      <rect class="cls-6" x="173.63" y="215.24" width="5.36" height="5.36" transform="translate(37.12 -25.39) rotate(9.2)"/>
      <rect class="cls-6" x="169.19" y="209.09" width="5.36" height="5.36" transform="translate(36.08 -24.76) rotate(9.2)"/>
      <rect class="cls-6" x="190.36" y="212.52" width="5.36" height="5.36" transform="translate(36.9 -28.1) rotate(9.2)"/>
      <rect class="cls-6" x="165.78" y="230.14" width="5.36" height="5.36" transform="translate(39.4 -23.94) rotate(9.2)"/>
      <rect class="cls-6" x="186.95" y="233.57" width="5.36" height="5.36" transform="translate(40.22 -27.29) rotate(9.2)"/>
      <rect class="cls-6" x="171.93" y="225.71" width="5.36" height="5.36" transform="translate(38.77 -24.98) rotate(9.2)"/>
      <rect class="cls-6" x="178.07" y="221.33" width="5.36" height="5.36" transform="translate(38.15 -26.02) rotate(9.2)"/>
      <rect class="cls-6" x="184.21" y="216.96" width="5.36" height="5.36" transform="translate(37.53 -27.06) rotate(9.2)"/>
      <rect class="cls-6" x="182.52" y="227.42" width="5.36" height="5.36" transform="translate(39.19 -26.66) rotate(9.2)"/>
    </g>
    <g>
      <circle class="cls-4" cx="256.51" cy="235.85" r="28.23" transform="translate(-88.49 284.77) rotate(-50.67)"/>
      <circle class="cls-7" cx="256.51" cy="235.85" r="28.23" transform="translate(-88.49 284.77) rotate(-50.67)"/>
      <path class="cls-7" d="m283.98,242.38c-.13.56-.28,1.09-.44,1.63l-55.03-11.74c.13-.98.31-1.96.54-2.96,3.6-15.17,18.82-24.54,34-20.94,15.17,3.6,24.54,18.82,20.94,34Z"/>
    </g>
    <circle class="cls-15" cx="256.51" cy="235.85" r="22.64" transform="translate(-71.09 117.12) rotate(-22.68)"/>
    <rect class="cls-9" x="253.83" y="222.5" width="5.36" height="26.69" transform="translate(61.48 -52.92) rotate(13.37)"/>
    <g>
      <path class="cls-4" d="m285.62,241.85l-57.8-13.74c3.79-15.96,19.81-25.82,35.77-22.03,15.96,3.79,25.83,19.8,22.03,35.76Z"/>
      <path class="cls-7" d="m285.62,241.85l-57.8-13.74c3.79-15.96,19.81-25.82,35.77-22.03,15.96,3.79,25.83,19.8,22.03,35.76Z"/>
    </g>
    <path class="cls-16" d="m207.39,252.63c.15-2.26.98-4.55,2.61-6.36.81-.91,1.88-1.63,3.07-2.06,1.19-.44,2.48-.52,3.7-.41,1.24.15,2.51.58,3.55,1.37,1.02.8,1.79,1.84,2.25,2.97.94,2.24,1.05,4.63.59,6.85-.38-2.22-.95-4.37-1.99-6.14-1.03-1.78-2.67-2.89-4.61-3.06-1.99-.25-3.92.29-5.48,1.6-1.56,1.32-2.75,3.2-3.68,5.24Z"/>
    <path class="cls-8" d="m151.04,195.05c.23-3.02.57-6.02.86-9.03.32-3,.65-6.01,1.02-9,.35-3,.74-5.99,1.12-8.99.38-3,.81-5.98,1.21-8.98l.11-.8.81.05c6.51.41,13.01.94,19.5,1.6,3.25.33,6.49.71,9.72,1.13,3.23.46,6.47.89,9.68,1.48l-19.52-1.21-19.5-1.26.92-.75c-.44,2.99-.85,5.98-1.32,8.96-.46,2.98-.92,5.97-1.41,8.95-.48,2.98-.99,5.96-1.52,8.93-.56,2.97-1.07,5.95-1.68,8.91Z"/>
    <path class="cls-8" d="m155.73,217.86c.66-3.63,2.3-7.08,4.52-10.09.55-.76,1.18-1.46,1.78-2.18.65-.67,1.33-1.33,2-1.99.73-.59,1.47-1.18,2.22-1.75.8-.51,1.58-1.03,2.39-1.52.85-.41,1.7-.83,2.56-1.22l2.68-.93,2.78-.57c.93-.14,1.88-.16,2.81-.24,3.76-.1,7.47.71,10.87,2.08-3.62-.68-7.23-1.05-10.78-.71-3.55.33-6.99,1.39-10.07,3.13-3.11,1.69-5.85,4.03-8.18,6.75-2.31,2.73-4.23,5.82-5.59,9.24Z"/>
    <path class="cls-8" d="m233.61,225.49c1.15-3.5,3.26-6.7,5.87-9.37.65-.67,1.37-1.28,2.06-1.91.74-.58,1.5-1.13,2.26-1.69.81-.49,1.62-.97,2.44-1.43.86-.39,1.71-.8,2.58-1.17.9-.29,1.8-.59,2.71-.86l2.78-.55,2.83-.18c.94,0,1.88.1,2.82.16,3.74.42,7.3,1.73,10.48,3.56-3.49-1.17-7.01-2.04-10.58-2.2-3.56-.16-7.12.41-10.41,1.71-3.31,1.25-6.36,3.19-9.03,5.55-2.67,2.38-4.99,5.18-6.81,8.38Z"/>
    <g>
      <g>
        <path class="cls-4" d="m146.46,315.96c-7.23,0-23.06-1.63-33.25-14.72-13.03-16.76-8.32-48.91-8.12-50.28l5.66.86c-.05.31-4.54,31.09,6.98,45.9,11.26,14.48,31.69,12.4,31.9,12.38l.64,5.69c-.22.03-1.62.17-3.81.17Z"/>
        <path class="cls-2" d="m146.46,315.96c-7.23,0-23.06-1.63-33.25-14.72-13.03-16.76-8.32-48.91-8.12-50.28l5.66.86c-.05.31-4.54,31.09,6.98,45.9,11.26,14.48,31.69,12.4,31.9,12.38l.64,5.69c-.22.03-1.62.17-3.81.17Z"/>
      </g>
      <path class="cls-4" d="m112.42,255.71c-1.03,0-2.09-.09-3.16-.26-9.55-1.55-13.77-7.26-15.64-11.78-1.87-4.53-2.3-10.01-1.28-16.29l12.11,1.96c-.63,3.89-.45,7.31.52,9.65.69,1.66,2.02,3.66,6.26,4.35,1.94.31,4.03.15,6.23-3.16,1.69-2.55,2.71-6.03,3.07-8.23l12.11,1.96c-.28,1.73-1.47,7.79-4.95,13.05-3.79,5.72-9.13,8.75-15.25,8.75Z"/>
      <g>
        <path class="cls-4" d="m158.42,332.34c-.02-.26-10.26-1.9-10.26-1.9l-4.97-33.41,12.4-4.9,2.83,40.2Z"/>
        <path class="cls-7" d="m158.42,332.34c-.02-.26-10.26-1.9-10.26-1.9l-4.97-33.41,12.4-4.9,2.83,40.2Z"/>
      </g>
    </g>
    <g>
      <path class="cls-4" d="m259.61,332.4c.03-.26,10.3-1.67,10.3-1.67l5.71-33.29-12.29-5.17-3.72,40.13Z"/>
      <path class="cls-7" d="m259.61,332.4c.03-.26,10.3-1.67,10.3-1.67l5.71-33.29-12.29-5.17-3.72,40.13Z"/>
    </g>
    <path class="cls-9" d="m154.16,284.66s82.79-3.54,110.75,1.12c0,0-8.21,80.11-8.66,81.66,0,0-82.35-.22-95.22,0,0,0-6.98-53.27-6.87-82.78Z"/>
    <path class="cls-7" d="m179.31,306.61s45.19-1.78,60.46.57c0,0-4.48,40.39-4.73,41.18,0,0-44.96-.11-51.98,0,0,0-3.09-27.65-3.75-41.74Z"/>
    <path class="cls-7" d="m185.48,348.34c-1.03,0-1.86.01-2.43.02,0,0-3.08-27.65-3.75-41.75,0,0,1.03-.04,2.82-.1l3.36,41.83Z"/>
    <g>
      <path class="cls-3" d="m198.81,316.58c-2.53-.8-5.23.61-6.03,3.14-.8,2.54.61,5.23,3.14,6.03,2.53.8,5.23-.61,6.02-3.14.8-2.53-.61-5.23-3.14-6.03Zm2.58,5.85c-.7,2.23-3.07,3.46-5.29,2.76-2.22-.7-3.46-3.07-2.76-5.3.7-2.22,3.07-3.46,5.3-2.76,2.22.7,3.45,3.07,2.75,5.29Zm-2.58-5.85c-2.53-.8-5.23.61-6.03,3.14-.8,2.54.61,5.23,3.14,6.03,2.53.8,5.23-.61,6.02-3.14.8-2.53-.61-5.23-3.14-6.03Zm2.58,5.85c-.7,2.23-3.07,3.46-5.29,2.76-2.22-.7-3.46-3.07-2.76-5.3.7-2.22,3.07-3.46,5.3-2.76,2.22.7,3.45,3.07,2.75,5.29Zm-2.58-5.85c-2.53-.8-5.23.61-6.03,3.14-.8,2.54.61,5.23,3.14,6.03,2.53.8,5.23-.61,6.02-3.14.8-2.53-.61-5.23-3.14-6.03Zm2.58,5.85c-.7,2.23-3.07,3.46-5.29,2.76-2.22-.7-3.46-3.07-2.76-5.3.7-2.22,3.07-3.46,5.3-2.76,2.22.7,3.45,3.07,2.75,5.29Zm-.98-10.93c-5.34-1.68-11.03,1.29-12.71,6.62-1.68,5.34,1.28,11.03,6.62,12.71,5.33,1.68,11.02-1.28,12.71-6.62,1.68-5.33-1.28-11.03-6.61-12.71Zm2.25,11.33c-.92,2.92-4.04,4.55-6.97,3.63-2.92-.92-4.55-4.04-3.63-6.97.92-2.92,4.05-4.55,6.97-3.63,2.92.92,4.55,4.04,3.63,6.96Zm-.71-.22c.8-2.53-.61-5.23-3.14-6.03-2.53-.8-5.23.61-6.03,3.14-.8,2.54.61,5.23,3.14,6.03,2.53.8,5.23-.61,6.02-3.14Zm-.56-.18c-.7,2.23-3.07,3.46-5.29,2.76-2.22-.7-3.46-3.07-2.76-5.3.7-2.22,3.07-3.46,5.3-2.76,2.22.7,3.45,3.07,2.75,5.29Zm-2.58-5.85c-2.53-.8-5.23.61-6.03,3.14-.8,2.54.61,5.23,3.14,6.03,2.53.8,5.23-.61,6.02-3.14.8-2.53-.61-5.23-3.14-6.03Zm2.58,5.85c-.7,2.23-3.07,3.46-5.29,2.76-2.22-.7-3.46-3.07-2.76-5.3.7-2.22,3.07-3.46,5.3-2.76,2.22.7,3.45,3.07,2.75,5.29Zm-2.58-5.85c-2.53-.8-5.23.61-6.03,3.14-.8,2.54.61,5.23,3.14,6.03,2.53.8,5.23-.61,6.02-3.14.8-2.53-.61-5.23-3.14-6.03Zm2.58,5.85c-.7,2.23-3.07,3.46-5.29,2.76-2.22-.7-3.46-3.07-2.76-5.3.7-2.22,3.07-3.46,5.3-2.76,2.22.7,3.45,3.07,2.75,5.29Z"/>
      <g>
        <polygon class="cls-3" points="196.31 331.01 192.59 329.84 191.97 332.53 195.27 333.58 196.31 331.01"/>
        <polygon class="cls-3" points="189.63 327.53 187.83 324.08 185.48 325.54 187.08 328.61 189.63 327.53"/>
        <polygon class="cls-3" points="187.37 320.35 188.54 316.63 185.84 316.01 184.8 319.31 187.37 320.35"/>
        <polygon class="cls-3" points="190.85 313.67 194.3 311.87 192.84 309.53 189.77 311.13 190.85 313.67"/>
        <polygon class="cls-3" points="198.03 311.41 201.75 312.58 202.37 309.89 199.07 308.84 198.03 311.41"/>
        <polygon class="cls-3" points="204.71 314.89 206.51 318.35 208.85 316.88 207.25 313.81 204.71 314.89"/>
        <polygon class="cls-3" points="206.97 322.07 205.8 325.79 208.49 326.41 209.53 323.11 206.97 322.07"/>
        <polygon class="cls-3" points="203.49 328.75 200.03 330.55 201.5 332.9 204.57 331.3 203.49 328.75"/>
      </g>
    </g>
    <g>
      <path class="cls-12" d="m215.15,330.72c-1.5-.98-3.5-.55-4.48.95-.98,1.5-.55,3.5.95,4.48,1.5.98,3.5.55,4.48-.95.97-1.5.55-3.5-.94-4.48Zm.61,4.26c-.86,1.32-2.62,1.69-3.93.83-1.32-.86-1.69-2.62-.83-3.93.86-1.32,2.62-1.69,3.93-.83,1.31.86,1.69,2.61.83,3.93Zm-.61-4.26c-1.5-.98-3.5-.55-4.48.95-.98,1.5-.55,3.5.95,4.48,1.5.98,3.5.55,4.48-.95.97-1.5.55-3.5-.94-4.48Zm.61,4.26c-.86,1.32-2.62,1.69-3.93.83-1.32-.86-1.69-2.62-.83-3.93.86-1.32,2.62-1.69,3.93-.83,1.31.86,1.69,2.61.83,3.93Zm-.61-4.26c-1.5-.98-3.5-.55-4.48.95-.98,1.5-.55,3.5.95,4.48,1.5.98,3.5.55,4.48-.95.97-1.5.55-3.5-.94-4.48Zm.61,4.26c-.86,1.32-2.62,1.69-3.93.83-1.32-.86-1.69-2.62-.83-3.93.86-1.32,2.62-1.69,3.93-.83,1.31.86,1.69,2.61.83,3.93Zm1.34-7.27c-3.16-2.06-7.38-1.16-9.44,1.99-2.05,3.16-1.16,7.38,1.99,9.44,3.16,2.05,7.38,1.16,9.44-2,2.06-3.15,1.16-7.38-1.99-9.44Zm-.59,7.76c-1.13,1.73-3.45,2.22-5.17,1.09-1.73-1.12-2.22-3.45-1.09-5.17,1.13-1.73,3.45-2.22,5.17-1.09,1.73,1.12,2.22,3.44,1.09,5.17Zm-.42-.27c.97-1.5.55-3.5-.94-4.48-1.5-.98-3.5-.55-4.48.95-.98,1.5-.55,3.5.95,4.48,1.5.98,3.5.55,4.48-.95Zm-.33-.22c-.86,1.32-2.62,1.69-3.93.83-1.32-.86-1.69-2.62-.83-3.93.86-1.32,2.62-1.69,3.93-.83,1.31.86,1.69,2.61.83,3.93Zm-.61-4.26c-1.5-.98-3.5-.55-4.48.95-.98,1.5-.55,3.5.95,4.48,1.5.98,3.5.55,4.48-.95.97-1.5.55-3.5-.94-4.48Zm.61,4.26c-.86,1.32-2.62,1.69-3.93.83-1.32-.86-1.69-2.62-.83-3.93.86-1.32,2.62-1.69,3.93-.83,1.31.86,1.69,2.61.83,3.93Zm-.61-4.26c-1.5-.98-3.5-.55-4.48.95-.98,1.5-.55,3.5.95,4.48,1.5.98,3.5.55,4.48-.95.97-1.5.55-3.5-.94-4.48Zm.61,4.26c-.86,1.32-2.62,1.69-3.93.83-1.32-.86-1.69-2.62-.83-3.93.86-1.32,2.62-1.69,3.93-.83,1.31.86,1.69,2.61.83,3.93Z"/>
      <g>
        <polygon class="cls-12" points="210.92 339.62 208.72 338.19 207.83 339.83 209.78 341.1 210.92 339.62"/>
        <polygon class="cls-12" points="207.22 336.16 206.68 333.59 204.89 334.12 205.37 336.4 207.22 336.16"/>
        <polygon class="cls-12" points="207.05 331.09 208.48 328.89 206.85 328 205.57 329.96 207.05 331.09"/>
        <polygon class="cls-12" points="210.51 327.39 213.08 326.85 212.56 325.06 210.27 325.55 210.51 327.39"/>
        <polygon class="cls-12" points="215.58 327.22 217.78 328.66 218.67 327.02 216.72 325.75 215.58 327.22"/>
        <polygon class="cls-12" points="219.28 330.69 219.82 333.25 221.61 332.73 221.13 330.45 219.28 330.69"/>
        <polygon class="cls-12" points="219.45 335.76 218.02 337.95 219.65 338.84 220.93 336.89 219.45 335.76"/>
        <polygon class="cls-12" points="215.99 339.46 213.42 340 213.95 341.79 216.23 341.3 215.99 339.46"/>
      </g>
    </g>
    <g>
      <polygon class="cls-6" points="262.91 358.12 266.09 358.71 275.19 297.08 271.57 296.42 262.91 358.12"/>
      <path class="cls-1" d="m235.04,348.35l4.73-41.18,31.8-10.76s-8.66,62.37-8.66,61.7l-27.87-9.77Z"/>
    </g>
    <path class="cls-8" d="m157.96,308.84c-.52-3.41-.8-6.85-1.01-10.29-.1-1.72-.14-3.45-.18-5.17-.03-1.72-.06-3.45-.01-5.17v-.45s.45-.02.45-.02c6.32-.34,12.63-.75,18.95-1.03,6.32-.31,12.64-.6,18.96-.79-6.3.57-12.61,1.06-18.92,1.51-6.31.49-12.62.85-18.93,1.28l.45-.48-.03,5.15.06,5.15c0,1.72.04,3.44.09,5.16l.11,5.16Z"/>
    <path class="cls-8" d="m244.2,307.78c1.97-.94,3.97-1.81,6-2.61,2.02-.82,4.06-1.6,6.12-2.31,2.06-.7,4.13-1.39,6.24-1.98,2.1-.59,4.22-1.14,6.39-1.49l.53-.09-.1.51c-.5,2.67-1.02,5.33-1.64,7.98.23-2.71.56-5.4.91-8.09l.44.42c-2.1.5-4.18,1.09-6.26,1.7-2.08.62-4.15,1.27-6.21,1.95l-12.42,4.02Z"/>
    <g>
      <polygon class="cls-16" points="171.72 284.83 172.26 295.13 172.72 305.43 173.51 326.04 174.13 346.65 174.38 356.96 174.55 367.27 174.01 356.97 173.55 346.67 172.76 326.06 172.14 305.45 171.89 295.14 171.72 284.83"/>
      <path class="cls-16" d="m168.77,291.04c.2.89-.33,1.94-1.33,2.24-.48.15-1.05.1-1.53-.17-.47-.27-.82-.76-.93-1.3-.11-.54.02-1.13.35-1.56.33-.43.84-.7,1.34-.75,1.04-.12,1.93.66,2.09,1.55Zm0,0c-.09-.45-.38-.85-.77-1.07-.39-.22-.86-.24-1.24-.12-.8.26-1.19,1.11-1.04,1.8.13.7.81,1.33,1.65,1.26.41-.03.83-.24,1.1-.59.28-.35.39-.83.3-1.28Z"/>
      <path class="cls-16" d="m169.48,303.39c.2.89-.33,1.94-1.33,2.24-.48.15-1.05.1-1.53-.17-.47-.27-.82-.76-.93-1.3-.11-.54.02-1.13.35-1.56.33-.43.84-.7,1.34-.75,1.04-.12,1.93.66,2.09,1.55Zm0,0c-.09-.45-.38-.85-.77-1.07-.39-.22-.86-.24-1.24-.12-.8.26-1.19,1.11-1.04,1.8.13.7.81,1.33,1.65,1.26.41-.03.83-.24,1.1-.59.28-.35.39-.83.3-1.28Z"/>
      <path class="cls-16" d="m169.93,316.49c.2.89-.33,1.94-1.33,2.24-.48.15-1.05.1-1.53-.17-.47-.27-.82-.76-.93-1.3-.11-.54.02-1.13.36-1.56.33-.43.84-.7,1.34-.75,1.04-.12,1.93.66,2.09,1.55Zm0,0c-.09-.45-.38-.85-.77-1.07-.39-.22-.86-.24-1.24-.12-.8.26-1.19,1.11-1.04,1.8.13.7.81,1.33,1.65,1.26.41-.03.83-.24,1.1-.59.28-.35.39-.83.3-1.28Z"/>
      <path class="cls-16" d="m170.38,329.6c.2.89-.33,1.94-1.33,2.24-.48.15-1.05.1-1.53-.17-.47-.27-.82-.76-.93-1.3-.11-.54.02-1.13.35-1.56.33-.43.84-.7,1.34-.75,1.04-.12,1.93.66,2.09,1.55Zm0,0c-.09-.45-.38-.85-.77-1.07-.39-.22-.86-.24-1.24-.12-.8.26-1.19,1.11-1.04,1.8.13.7.81,1.33,1.65,1.26.41-.03.83-.24,1.1-.59.28-.35.39-.83.3-1.28Z"/>
      <path class="cls-16" d="m170.83,342.71c.2.89-.33,1.94-1.33,2.24-.48.15-1.05.1-1.53-.17-.47-.27-.82-.76-.93-1.3-.11-.54.02-1.13.35-1.56.33-.43.84-.7,1.34-.75,1.04-.12,1.93.66,2.09,1.55Zm0,0c-.09-.45-.38-.85-.77-1.07-.39-.22-.86-.24-1.24-.12-.8.26-1.19,1.11-1.04,1.8.13.7.81,1.33,1.65,1.26.41-.03.83-.24,1.1-.59.28-.35.39-.83.3-1.28Z"/>
      <path class="cls-16" d="m171.28,355.82c.2.89-.33,1.94-1.33,2.24-.48.15-1.05.1-1.53-.17-.47-.27-.82-.76-.93-1.3-.11-.54.02-1.13.35-1.56.33-.43.84-.7,1.34-.75,1.04-.12,1.93.66,2.09,1.55Zm0,0c-.09-.45-.38-.85-.77-1.07-.39-.22-.86-.24-1.24-.12-.8.26-1.19,1.11-1.04,1.8.13.7.81,1.33,1.65,1.26.41-.03.83-.24,1.1-.59.28-.35.39-.83.3-1.28Z"/>
    </g>
    <rect class="cls-1" x="128.25" y="382.84" width="48.98" height="5.72" transform="translate(-105.3 60.88) rotate(-16.86)"/>
    <rect class="cls-9" x="148.59" y="381.45" width="5.72" height="8.5" transform="translate(-109.78 64.05) rotate(-17.64)"/>
    <g>
      <polygon class="cls-4" points="129.75 403.57 117.65 351.19 81.14 359.85 99.12 410.89 129.75 403.57"/>
      <g>
        <polygon class="cls-4" points="137.85 400.91 129.75 403.57 117.65 351.19 129.3 353.96 137.85 400.91"/>
        <polygon class="cls-7" points="137.85 400.91 129.75 403.57 117.65 351.19 129.3 353.96 137.85 400.91"/>
      </g>
    </g>
    <circle class="cls-9" cx="176.18" cy="378.6" r="6.21"/>
    <rect class="cls-1" x="259.86" y="361.12" width="5.72" height="48.98" transform="translate(-182.8 524.27) rotate(-73.02)"/>
    <rect class="cls-9" x="259.76" y="382.75" width="8.5" height="5.72" transform="translate(-183.78 519.32) rotate(-72.23)"/>
    <g>
      <polygon class="cls-4" points="285.68 403.52 297.88 351.17 334.37 359.9 316.29 410.91 285.68 403.52"/>
      <g>
        <polygon class="cls-4" points="277.58 400.84 285.68 403.52 297.88 351.17 286.23 353.92 277.58 400.84"/>
        <polygon class="cls-7" points="277.58 400.84 285.68 403.52 297.88 351.17 286.23 353.92 277.58 400.84"/>
      </g>
    </g>
    <path class="cls-9" d="m233.08,378.44c0,3.43,2.77,6.22,6.2,6.23,3.43,0,6.22-2.77,6.23-6.2,0-3.43-2.77-6.22-6.2-6.23-3.43,0-6.22,2.77-6.23,6.2Z"/>
    <g>
      <path class="cls-1" d="m279.98,313.84c.15-.14,15.2-14.1,32.91-9.33,18.11,4.89,33.07,32.17,33.21,32.44l5.03-2.72c-.65-1.21-16.25-29.72-36.76-35.25-20.86-5.62-37.64,10.03-38.35,10.7l3.94,4.15Z"/>
      <path class="cls-9" d="m339.44,364.42l10.85-5.73c-1.04-1.97-2.32-5.36-2.51-8.42-.24-3.96,1.33-5.36,3.07-6.27,3.8-2.01,6.07-1.21,7.62-.3,2.17,1.28,4.38,3.91,6.22,7.39l10.85-5.73c-2.97-5.62-6.61-9.74-10.83-12.23-4.21-2.48-11.02-4.5-19.58.02-6.67,3.52-10.07,9.86-9.58,17.86.38,6.3,3.09,11.85,3.9,13.4Z"/>
    </g>
    <g>
      <path class="cls-11" d="m282.27,294.73c2.35-1.62,4.76-3.15,7.17-4.67,2.41-1.53,4.86-2.98,7.31-4.44,2.46-1.44,4.92-2.87,7.42-4.24l3.75-2.05c1.27-.65,2.52-1.33,3.81-1.96-1.17.82-2.37,1.59-3.56,2.38l-3.61,2.29c-2.41,1.52-4.86,2.98-7.31,4.44-2.46,1.44-4.92,2.87-7.43,4.24-2.5,1.38-5,2.74-7.56,4.01Z"/>
      <path class="cls-11" d="m276.04,318.13c3.37,1.92,6.56,4.08,9.7,6.31,3.13,2.25,6.22,4.56,9.12,7.12-3.37-1.92-6.56-4.08-9.7-6.31-3.13-2.25-6.21-4.56-9.12-7.12Z"/>
      <path class="cls-11" d="m281.57,315.25c2.6.79,5.16,1.68,7.71,2.59,2.56.9,5.08,1.87,7.61,2.84,2.52.99,5.04,1.99,7.53,3.05l3.73,1.6c1.23.57,2.48,1.1,3.7,1.7-1.3-.39-2.58-.83-3.87-1.24l-3.83-1.34c-2.56-.9-5.08-1.87-7.61-2.84-2.52-.99-5.04-1.99-7.53-3.05-2.49-1.06-4.98-2.13-7.43-3.3Z"/>
      <path class="cls-11" d="m288.95,296.92c2.49-.65,5-1.19,7.51-1.71,2.51-.53,5.03-.99,7.56-1.45,2.53-.43,5.06-.86,7.6-1.22l3.81-.53c1.28-.14,2.55-.31,3.83-.42-1.24.33-2.5.6-3.75.91l-3.76.8c-2.51.53-5.03.99-7.56,1.45-2.53.43-5.06.86-7.6,1.22-2.54.37-5.08.71-7.64.95Z"/>
    </g>
  </g>
  <g id="Gears">
    <g>
      <path class="cls-11" d="m228.94,312.49c.42-2.02,1.1-4,1.98-5.87.88-1.88,1.95-3.68,3.3-5.28,1.35-1.58,3.02-2.98,5.03-3.75,2-.75,4.3-.74,6.31.06,2.03.79,3.64,2.5,4.5,4.47.45.98.73,2.03.85,3.11.1,1.08.06,2.19-.37,3.27-.22.53-.56,1.06-1.1,1.42-.26.18-.59.29-.9.34-.31.04-.63.03-1-.09-.67-.28-1-.82-1.29-1.31-.26-.5-.46-1.02-.59-1.54-.56-2.09-.62-4.21-.52-6.31.3-4.18,1.4-8.36,3.65-11.96,1.14-1.78,2.56-3.41,4.34-4.61,1.75-1.2,3.8-2.03,5.89-2.27,1.03-.25,2.09-.23,3.14-.28.53-.06,1.05.07,1.57.1.52.07,1.05.06,1.56.21,2.08.37,4.03,1.21,5.85,2.22,1.81,1.05,3.43,2.39,4.9,3.84,1.46,1.47,2.79,3.08,3.86,4.85-2.36-3.37-5.41-6.3-9-8.27-1.81-.94-3.72-1.71-5.73-2.02-.49-.14-1.01-.11-1.51-.17-.51-.01-1.01-.13-1.51-.06-1.01.07-2.03.07-3.01.33-2.02.28-3.89,1.09-5.53,2.22-1.65,1.13-2.99,2.69-4.06,4.39-2.12,3.44-3.16,7.5-3.42,11.54-.11,2.02-.06,4.08.44,6,.24.92.67,1.95,1.3,2.24.08,0,.13.05.23.05.1,0,.2.01.3,0,.19-.03.37-.08.53-.2.33-.21.59-.57.76-.99.35-.85.42-1.86.33-2.83-.1-.98-.35-1.95-.75-2.85-.79-1.8-2.19-3.35-4.01-4.11-1.81-.77-3.92-.83-5.8-.18-1.89.68-3.51,1.98-4.87,3.48-2.72,3.05-4.56,6.86-5.65,10.83Z"/>
      <path class="cls-11" d="m136.54,338.41c.97-1.82,2.38-3.39,4.04-4.64,1.65-1.24,3.56-2.21,5.6-2.68,2.03-.49,4.22-.5,6.25.12,2.04.61,3.87,1.8,5.34,3.32,1.48,1.52,2.58,3.37,3.34,5.33.74,1.97,1.19,4.07,1.03,6.23-.11,1.06-.32,2.2-1.16,3.12-.42.45-1.06.75-1.68.76-.6,0-1.17-.1-1.72-.39-.55-.28-.99-.78-1.24-1.32-.25-.55-.35-1.12-.38-1.68-.04-1.12.2-2.18.53-3.2.67-2.03,1.77-3.85,3.06-5.51,1.29-1.65,2.82-3.13,4.53-4.35,3.39-2.46,7.7-3.83,11.91-3.28,2.08.28,4.14.88,5.96,1.94,1.84,1.02,3.43,2.45,4.72,4.07,1.3,1.63,2.31,3.47,3.08,5.38.78,1.91,1.35,3.91,1.63,5.95-.84-4.01-2.49-7.9-5.11-11-1.3-1.55-2.87-2.88-4.65-3.82-1.76-.97-3.74-1.5-5.73-1.72-4-.44-8.06.84-11.28,3.23-3.22,2.37-5.86,5.68-7.19,9.42-.31.93-.53,1.91-.5,2.85.02.93.35,1.83,1.1,2.21.35.2.83.28,1.25.29.41-.01.77-.17,1.05-.47.58-.61.83-1.61.92-2.56.16-1.95-.25-3.97-.95-5.84-.71-1.87-1.76-3.62-3.12-5.08-1.36-1.46-3.07-2.6-4.96-3.22-1.89-.63-3.96-.68-5.93-.26-3.94.84-7.59,3.3-9.76,6.79Z"/>
      <path class="cls-11" d="m90.27,96.91c-.11-4.11-.99-8.26-2.9-11.87-.96-1.79-2.23-3.44-3.9-4.55-1.67-1.08-3.74-1.53-5.68-1.21-1.95.31-3.68,1.48-4.88,3.04-.61.78-1.08,1.66-1.41,2.58-.32.92-.5,1.92-.36,2.83.07.45.23.87.5,1.15.13.15.29.24.47.32.08.05.19.05.28.08.1.02.16,0,.24,0,.68-.13,1.35-1.03,1.8-1.86.95-1.74,1.49-3.73,1.86-5.72.71-3.98.67-8.17-.57-12.02-.63-1.91-1.56-3.73-2.9-5.23-1.33-1.49-2.95-2.72-4.84-3.48-.89-.49-1.88-.73-2.84-1.04-.48-.19-.99-.19-1.49-.3-.5-.07-1-.21-1.5-.2-2.03-.18-4.07.12-6.04.6-3.95,1.05-7.61,3.17-10.71,5.88,1.46-1.47,3.13-2.71,4.9-3.79,1.78-1.06,3.67-1.98,5.68-2.56,2.01-.54,4.11-.89,6.21-.75.53-.03,1.04.11,1.57.17.52.1,1.05.1,1.55.28,1.01.3,2.05.53,2.99,1.02,1.97.73,3.77,2.03,5.18,3.61,1.44,1.58,2.43,3.51,3.11,5.51,1.33,4.03,1.4,8.36.69,12.49-.4,2.06-.97,4.11-2.01,6-.26.47-.57.93-.94,1.36-.39.4-.85.84-1.57.96-.38.04-.7-.03-.99-.15-.3-.12-.58-.3-.8-.54-.45-.47-.65-1.07-.74-1.64-.16-1.14.07-2.24.42-3.26.37-1.02.89-1.97,1.56-2.82,1.31-1.7,3.28-2.98,5.44-3.26,2.14-.3,4.38.24,6.14,1.45,1.76,1.23,3.05,2.98,3.98,4.84.93,1.88,1.54,3.88,1.95,5.92.4,2.03.59,4.11.52,6.18Z"/>
      <path class="cls-11" d="m311.09,149.08c-4.03-.85-8.26-.97-12.22.05-1.96.52-3.87,1.37-5.33,2.73-1.44,1.37-2.36,3.28-2.5,5.24-.16,1.96.58,3.92,1.82,5.45.61.77,1.36,1.44,2.18,1.97.82.52,1.75.93,2.66,1.01.45.04.9-.03,1.23-.22.17-.09.3-.23.42-.38.06-.07.09-.17.14-.26.04-.09.03-.16.06-.23.03-.69-.69-1.55-1.39-2.19-1.47-1.33-3.28-2.32-5.12-3.14-3.71-1.62-7.79-2.56-11.82-2.25-2,.17-3.99.65-5.76,1.6-1.76.94-3.34,2.23-4.51,3.9-.69.75-1.15,1.66-1.68,2.52-.29.42-.42.92-.64,1.37-.18.47-.44.92-.54,1.42-.64,1.93-.84,3.98-.83,6.02.1,4.09,1.3,8.14,3.22,11.79-1.08-1.76-1.9-3.68-2.54-5.65-.62-1.98-1.07-4.03-1.17-6.12-.06-2.08.09-4.2.72-6.22.1-.52.35-.99.53-1.48.22-.48.34-1,.63-1.44.53-.91.99-1.87,1.69-2.67,1.17-1.75,2.85-3.19,4.72-4.19,1.88-1.03,3.98-1.54,6.09-1.74,4.23-.35,8.45.59,12.3,2.24,1.91.87,3.77,1.9,5.37,3.36.4.36.77.77,1.1,1.23.3.48.62,1.02.57,1.75-.06.38-.19.67-.37.93-.19.26-.43.5-.72.65-.57.32-1.2.38-1.76.33-1.15-.11-2.16-.59-3.07-1.17-.9-.6-1.71-1.33-2.38-2.18-1.35-1.67-2.13-3.88-1.9-6.05.21-2.16,1.26-4.2,2.84-5.64,1.61-1.43,3.61-2.27,5.64-2.74,2.04-.47,4.14-.59,6.21-.51,2.07.08,4.14.38,6.13.94Z"/>
      <path class="cls-11" d="m249.18,84.38c-.68-2.37-.78-4.9-.39-7.35.38-2.45,1.21-4.85,2.57-6.96,1.33-2.11,3.2-3.94,5.45-5.1,2.24-1.17,4.8-1.68,7.32-1.6,2.53.07,5.01.72,7.29,1.76,2.28,1.06,4.41,2.49,6.07,4.45.79.99,1.55,2.14,1.6,3.59.02.71-.27,1.48-.78,2-.51.49-1.06.88-1.76,1.08-.69.21-1.45.16-2.11-.09-.66-.25-1.21-.66-1.7-1.11-.96-.91-1.64-2.02-2.2-3.16-1.11-2.29-1.7-4.76-1.98-7.25-.28-2.49-.2-5.02.23-7.49.84-4.93,3.38-9.69,7.42-12.73,2.01-1.5,4.26-2.71,6.7-3.33,2.42-.66,4.97-.78,7.43-.48,2.47.31,4.87,1.02,7.14,2,2.27.98,4.44,2.2,6.39,3.7-4.06-2.75-8.73-4.72-13.59-5.2-2.42-.25-4.88-.08-7.2.6-2.34.64-4.48,1.85-6.38,3.33-1.88,1.51-3.48,3.36-4.65,5.46-1.18,2.1-1.95,4.42-2.36,6.8-.78,4.75-.28,9.8,1.73,14.15.52,1.07,1.15,2.1,1.98,2.89.81.79,1.88,1.31,2.88.99.49-.13.98-.47,1.35-.82.35-.36.54-.83.53-1.35-.01-1.05-.65-2.12-1.38-3.02-1.51-1.82-3.56-3.22-5.73-4.23-2.18-1.01-4.56-1.63-6.96-1.74-2.4-.11-4.83.35-6.97,1.42-2.15,1.05-3.98,2.75-5.31,4.77-2.67,4.03-3.72,9.21-2.63,14.02Z"/>
      <g>
        <path class="cls-15" d="m133.19,338.63c-2.24-.71-4.63.54-5.33,2.78-.71,2.24.54,4.63,2.78,5.33,2.24.71,4.62-.54,5.33-2.78.71-2.24-.54-4.63-2.77-5.33Zm2.28,5.18c-.62,1.97-2.72,3.06-4.68,2.44-1.97-.62-3.06-2.72-2.44-4.68.62-1.97,2.72-3.06,4.68-2.44,1.96.62,3.06,2.71,2.44,4.68Zm-2.28-5.18c-2.24-.71-4.63.54-5.33,2.78-.71,2.24.54,4.63,2.78,5.33,2.24.71,4.62-.54,5.33-2.78.71-2.24-.54-4.63-2.77-5.33Zm2.28,5.18c-.62,1.97-2.72,3.06-4.68,2.44-1.97-.62-3.06-2.72-2.44-4.68.62-1.97,2.72-3.06,4.68-2.44,1.96.62,3.06,2.71,2.44,4.68Zm-2.28-5.18c-2.24-.71-4.63.54-5.33,2.78-.71,2.24.54,4.63,2.78,5.33,2.24.71,4.62-.54,5.33-2.78.71-2.24-.54-4.63-2.77-5.33Zm2.28,5.18c-.62,1.97-2.72,3.06-4.68,2.44-1.97-.62-3.06-2.72-2.44-4.68.62-1.97,2.72-3.06,4.68-2.44,1.96.62,3.06,2.71,2.44,4.68Zm-.86-9.67c-4.72-1.49-9.76,1.14-11.24,5.85-1.49,4.72,1.13,9.75,5.86,11.24,4.72,1.49,9.75-1.14,11.24-5.86,1.49-4.72-1.13-9.75-5.85-11.24Zm1.99,10.02c-.81,2.59-3.58,4.03-6.16,3.21-2.58-.81-4.02-3.58-3.21-6.16.81-2.59,3.58-4.02,6.16-3.21,2.58.81,4.02,3.58,3.21,6.16Zm-.63-.2c.71-2.24-.54-4.63-2.77-5.33-2.24-.71-4.63.54-5.33,2.78-.71,2.24.54,4.63,2.78,5.33,2.24.71,4.62-.54,5.33-2.78Zm-.49-.16c-.62,1.97-2.72,3.06-4.68,2.44-1.97-.62-3.06-2.72-2.44-4.68.62-1.97,2.72-3.06,4.68-2.44,1.96.62,3.06,2.71,2.44,4.68Zm-2.28-5.18c-2.24-.71-4.63.54-5.33,2.78-.71,2.24.54,4.63,2.78,5.33,2.24.71,4.62-.54,5.33-2.78.71-2.24-.54-4.63-2.77-5.33Zm2.28,5.18c-.62,1.97-2.72,3.06-4.68,2.44-1.97-.62-3.06-2.72-2.44-4.68.62-1.97,2.72-3.06,4.68-2.44,1.96.62,3.06,2.71,2.44,4.68Zm-2.28-5.18c-2.24-.71-4.63.54-5.33,2.78-.71,2.24.54,4.63,2.78,5.33,2.24.71,4.62-.54,5.33-2.78.71-2.24-.54-4.63-2.77-5.33Zm2.28,5.18c-.62,1.97-2.72,3.06-4.68,2.44-1.97-.62-3.06-2.72-2.44-4.68.62-1.97,2.72-3.06,4.68-2.44,1.96.62,3.06,2.71,2.44,4.68Z"/>
        <g>
          <polygon class="cls-14" points="130.98 351.39 127.69 350.36 127.14 352.74 130.06 353.66 130.98 351.39"/>
          <polygon class="cls-14" points="125.07 348.32 123.48 345.26 121.4 346.55 122.82 349.27 125.07 348.32"/>
          <polygon class="cls-14" points="123.07 341.96 124.1 338.67 121.72 338.12 120.8 341.05 123.07 341.96"/>
          <polygon class="cls-14" points="126.15 336.05 129.2 334.46 127.91 332.39 125.19 333.8 126.15 336.05"/>
          <polygon class="cls-14" points="132.5 334.05 135.79 335.09 136.34 332.71 133.42 331.79 132.5 334.05"/>
          <polygon class="cls-14" points="138.41 337.13 140 340.19 142.08 338.89 140.66 336.18 138.41 337.13"/>
          <polygon class="cls-14" points="140.41 343.49 139.37 346.77 141.76 347.33 142.68 344.4 140.41 343.49"/>
          <polygon class="cls-14" points="137.33 349.39 134.27 350.99 135.57 353.06 138.29 351.65 137.33 349.39"/>
        </g>
      </g>
      <g>
        <g>
          <path class="cls-15" d="m298.99,310.05c4.51-6.07,3.24-14.65-2.84-19.16-6.08-4.51-14.66-3.24-19.16,2.83-4.51,6.08-3.24,14.66,2.84,19.17,6.07,4.51,14.65,3.24,19.16-2.84Zm-5.86-4.35c-2.11,2.84-6.11,3.43-8.95,1.33-2.84-2.11-3.43-6.11-1.32-8.95,2.11-2.84,6.11-3.43,8.95-1.32,2.84,2.11,3.43,6.11,1.32,8.95Z"/>
          <polygon class="cls-11" points="282.28 314.01 278.05 310.87 276.06 314.03 279.83 316.83 282.28 314.01"/>
          <polygon class="cls-11" points="275.29 306.6 274.52 301.39 270.87 302.23 271.56 306.86 275.29 306.6"/>
          <polygon class="cls-11" points="275.58 296.43 278.72 292.2 275.55 290.21 272.76 293.97 275.58 296.43"/>
          <polygon class="cls-11" points="282.98 289.43 288.19 288.66 287.35 285.02 282.72 285.7 282.98 289.43"/>
          <polygon class="cls-11" points="293.15 289.72 297.38 292.86 299.37 289.69 295.61 286.9 293.15 289.72"/>
          <polygon class="cls-11" points="300.15 297.12 300.92 302.33 304.57 301.5 303.88 296.86 300.15 297.12"/>
          <polygon class="cls-11" points="299.86 307.3 296.72 311.53 299.89 313.52 302.68 309.76 299.86 307.3"/>
          <polygon class="cls-11" points="292.46 314.29 287.25 315.06 288.08 318.71 292.72 318.02 292.46 314.29"/>
        </g>
        <path class="cls-11" d="m283.09,302.55l2.91,3.67,4.63-.69,1.72-4.35-2.91-3.67-4.63.68-1.72,4.36Zm5.52-1.88c.66.49.8,1.42.31,2.08-.49.66-1.42.8-2.08.31-.66-.49-.8-1.42-.31-2.08.49-.66,1.42-.8,2.08-.31Z"/>
      </g>
      <g>
        <path class="cls-11" d="m309.26,43.31c-1.96-.62-4.05.47-4.67,2.43-.62,1.96.47,4.05,2.43,4.67,1.96.62,4.05-.47,4.66-2.43.62-1.96-.47-4.05-2.43-4.67Zm2,4.53c-.54,1.72-2.38,2.68-4.1,2.14-1.72-.54-2.68-2.38-2.13-4.1.54-1.72,2.38-2.68,4.1-2.13,1.72.54,2.67,2.38,2.13,4.1Zm-2-4.53c-1.96-.62-4.05.47-4.67,2.43-.62,1.96.47,4.05,2.43,4.67,1.96.62,4.05-.47,4.66-2.43.62-1.96-.47-4.05-2.43-4.67Zm2,4.53c-.54,1.72-2.38,2.68-4.1,2.14-1.72-.54-2.68-2.38-2.13-4.1.54-1.72,2.38-2.68,4.1-2.13,1.72.54,2.67,2.38,2.13,4.1Zm-2-4.53c-1.96-.62-4.05.47-4.67,2.43-.62,1.96.47,4.05,2.43,4.67,1.96.62,4.05-.47,4.66-2.43.62-1.96-.47-4.05-2.43-4.67Zm2,4.53c-.54,1.72-2.38,2.68-4.1,2.14-1.72-.54-2.68-2.38-2.13-4.1.54-1.72,2.38-2.68,4.1-2.13,1.72.54,2.67,2.38,2.13,4.1Zm-.76-8.46c-4.13-1.3-8.54.99-9.84,5.12-1.3,4.13.99,8.54,5.12,9.84,4.13,1.3,8.53-.99,9.84-5.12,1.3-4.13-.99-8.54-5.12-9.84Zm1.74,8.77c-.71,2.26-3.13,3.52-5.39,2.81-2.26-.71-3.52-3.13-2.81-5.39.71-2.26,3.13-3.52,5.39-2.81,2.26.71,3.52,3.13,2.81,5.39Zm-.55-.17c.62-1.96-.47-4.05-2.43-4.67-1.96-.62-4.05.47-4.67,2.43-.62,1.96.47,4.05,2.43,4.67,1.96.62,4.05-.47,4.66-2.43Zm-.43-.14c-.54,1.72-2.38,2.68-4.1,2.14-1.72-.54-2.68-2.38-2.13-4.1.54-1.72,2.38-2.68,4.1-2.13,1.72.54,2.67,2.38,2.13,4.1Zm-2-4.53c-1.96-.62-4.05.47-4.67,2.43-.62,1.96.47,4.05,2.43,4.67,1.96.62,4.05-.47,4.66-2.43.62-1.96-.47-4.05-2.43-4.67Zm2,4.53c-.54,1.72-2.38,2.68-4.1,2.14-1.72-.54-2.68-2.38-2.13-4.1.54-1.72,2.38-2.68,4.1-2.13,1.72.54,2.67,2.38,2.13,4.1Zm-2-4.53c-1.96-.62-4.05.47-4.67,2.43-.62,1.96.47,4.05,2.43,4.67,1.96.62,4.05-.47,4.66-2.43.62-1.96-.47-4.05-2.43-4.67Zm2,4.53c-.54,1.72-2.38,2.68-4.1,2.14-1.72-.54-2.68-2.38-2.13-4.1.54-1.72,2.38-2.68,4.1-2.13,1.72.54,2.67,2.38,2.13,4.1Z"/>
        <g>
          <polygon class="cls-11" points="307.32 54.48 304.45 53.57 303.96 55.66 306.52 56.46 307.32 54.48"/>
          <polygon class="cls-11" points="302.15 51.78 300.76 49.11 298.94 50.24 300.18 52.62 302.15 51.78"/>
          <polygon class="cls-11" points="300.4 46.22 301.31 43.35 299.22 42.87 298.42 45.42 300.4 46.22"/>
          <polygon class="cls-11" points="303.1 41.05 305.77 39.66 304.64 37.85 302.26 39.08 303.1 41.05"/>
          <polygon class="cls-11" points="308.66 39.3 311.53 40.21 312.02 38.12 309.46 37.32 308.66 39.3"/>
          <polygon class="cls-11" points="313.83 42 315.22 44.67 317.03 43.54 315.8 41.16 313.83 42"/>
          <polygon class="cls-11" points="315.58 47.56 314.67 50.43 316.76 50.92 317.56 48.36 315.58 47.56"/>
          <polygon class="cls-11" points="312.88 52.73 310.21 54.12 311.34 55.94 313.72 54.7 312.88 52.73"/>
        </g>
      </g>
      <g>
        <path class="cls-11" d="m271.05,186.17c-1.96-.62-4.05.47-4.67,2.43-.62,1.96.47,4.05,2.43,4.67,1.96.62,4.05-.47,4.66-2.43.62-1.96-.47-4.05-2.43-4.67Zm2,4.53c-.54,1.72-2.38,2.68-4.1,2.14s-2.68-2.38-2.13-4.1c.54-1.72,2.38-2.68,4.1-2.13,1.72.54,2.67,2.38,2.13,4.1Zm-2-4.53c-1.96-.62-4.05.47-4.67,2.43-.62,1.96.47,4.05,2.43,4.67,1.96.62,4.05-.47,4.66-2.43.62-1.96-.47-4.05-2.43-4.67Zm2,4.53c-.54,1.72-2.38,2.68-4.1,2.14s-2.68-2.38-2.13-4.1c.54-1.72,2.38-2.68,4.1-2.13,1.72.54,2.67,2.38,2.13,4.1Zm-2-4.53c-1.96-.62-4.05.47-4.67,2.43-.62,1.96.47,4.05,2.43,4.67,1.96.62,4.05-.47,4.66-2.43.62-1.96-.47-4.05-2.43-4.67Zm2,4.53c-.54,1.72-2.38,2.68-4.1,2.14s-2.68-2.38-2.13-4.1c.54-1.72,2.38-2.68,4.1-2.13,1.72.54,2.67,2.38,2.13,4.1Zm-.76-8.46c-4.13-1.3-8.54.99-9.84,5.12-1.3,4.13.99,8.54,5.12,9.84,4.13,1.3,8.53-.99,9.84-5.12,1.3-4.13-.99-8.54-5.12-9.84Zm1.74,8.77c-.71,2.26-3.13,3.52-5.39,2.81s-3.52-3.13-2.81-5.39c.71-2.26,3.13-3.52,5.39-2.81,2.26.71,3.52,3.13,2.81,5.39Zm-.55-.17c.62-1.96-.47-4.05-2.43-4.67-1.96-.62-4.05.47-4.67,2.43-.62,1.96.47,4.05,2.43,4.67,1.96.62,4.05-.47,4.66-2.43Zm-.43-.14c-.54,1.72-2.38,2.68-4.1,2.14s-2.68-2.38-2.13-4.1c.54-1.72,2.38-2.68,4.1-2.13,1.72.54,2.67,2.38,2.13,4.1Zm-2-4.53c-1.96-.62-4.05.47-4.67,2.43-.62,1.96.47,4.05,2.43,4.67,1.96.62,4.05-.47,4.66-2.43.62-1.96-.47-4.05-2.43-4.67Zm2,4.53c-.54,1.72-2.38,2.68-4.1,2.14s-2.68-2.38-2.13-4.1c.54-1.72,2.38-2.68,4.1-2.13,1.72.54,2.67,2.38,2.13,4.1Zm-2-4.53c-1.96-.62-4.05.47-4.67,2.43-.62,1.96.47,4.05,2.43,4.67,1.96.62,4.05-.47,4.66-2.43.62-1.96-.47-4.05-2.43-4.67Zm2,4.53c-.54,1.72-2.38,2.68-4.1,2.14s-2.68-2.38-2.13-4.1c.54-1.72,2.38-2.68,4.1-2.13,1.72.54,2.67,2.38,2.13,4.1Z"/>
        <g>
          <polygon class="cls-11" points="269.11 197.34 266.23 196.44 265.75 198.52 268.31 199.33 269.11 197.34"/>
          <polygon class="cls-11" points="263.94 194.65 262.54 191.97 260.73 193.11 261.97 195.49 263.94 194.65"/>
          <polygon class="cls-11" points="262.19 189.09 263.09 186.21 261.01 185.73 260.2 188.29 262.19 189.09"/>
          <polygon class="cls-11" points="264.88 183.92 267.56 182.53 266.42 180.71 264.04 181.95 264.88 183.92"/>
          <polygon class="cls-11" points="270.44 182.17 273.32 183.08 273.8 180.99 271.24 180.18 270.44 182.17"/>
          <polygon class="cls-11" points="275.61 184.86 277 187.54 278.82 186.4 277.58 184.03 275.61 184.86"/>
          <polygon class="cls-11" points="277.36 190.42 276.45 193.3 278.54 193.78 279.35 191.22 277.36 190.42"/>
          <polygon class="cls-11" points="274.67 195.59 271.99 196.99 273.13 198.8 275.5 197.56 274.67 195.59"/>
        </g>
      </g>
      <g>
        <g>
          <path class="cls-11" d="m52.34,73.7c1.54-6.33-2.34-12.71-8.67-14.25-6.33-1.54-12.71,2.34-14.25,8.67-1.54,6.33,2.34,12.71,8.67,14.25,6.33,1.54,12.71-2.34,14.25-8.67Zm-6.11-1.49c-.72,2.96-3.7,4.77-6.65,4.05-2.96-.72-4.77-3.7-4.05-6.66.72-2.96,3.7-4.77,6.66-4.05,2.96.72,4.77,3.7,4.05,6.65Z"/>
          <polygon class="cls-11" points="40.41 82.43 36 81.36 35.48 84.53 39.4 85.49 40.41 82.43"/>
          <polygon class="cls-11" points="32.38 78.9 30.02 75.03 27.41 76.91 29.51 80.35 32.38 78.9"/>
          <polygon class="cls-11" points="29.2 70.73 30.27 66.32 27.1 65.81 26.14 69.73 29.2 70.73"/>
          <polygon class="cls-11" points="32.73 62.7 36.6 60.35 34.72 57.73 31.27 59.83 32.73 62.7"/>
          <polygon class="cls-11" points="40.9 59.52 45.31 60.6 45.82 57.42 41.9 56.46 40.9 59.52"/>
          <polygon class="cls-11" points="48.93 63.05 51.28 66.93 53.9 65.04 51.8 61.6 48.93 63.05"/>
          <polygon class="cls-11" points="52.11 71.22 51.03 75.63 54.21 76.15 55.17 72.23 52.11 71.22"/>
          <polygon class="cls-11" points="48.58 79.25 44.7 81.61 46.58 84.22 50.03 82.12 48.58 79.25"/>
        </g>
        <path class="cls-11" d="m37.21,73.07l3.54,1.94,3.45-2.1-.09-4.03-3.53-1.94-3.45,2.09.09,4.03Zm3.75-3.34c.69.17,1.11.86.94,1.54-.17.68-.86,1.11-1.54.94-.68-.17-1.11-.86-.94-1.54.17-.69.86-1.11,1.54-.94Z"/>
      </g>
    </g>
  </g>
  <g id="Speech_Bubble" data-name="Speech Bubble">
    <g>
      <g>
        <path class="cls-8" d="m318.91,195.64c-2.69-4.1-4.2-8.7-4.2-13.57,0-17.2,18.88-31.14,42.16-31.14s42.14,13.94,42.14,31.14-18.87,31.14-42.14,31.14c-11.29,0-21.52-3.27-29.08-8.62l-14.52,3.69,5.64-12.64Z"/>
        <path class="cls-11" d="m318.91,195.64c-2.54-3.78-4.13-8.25-4.3-12.83-.13-4.58,1-9.21,3.35-13.17,2.3-3.99,5.57-7.35,9.27-10.06,3.7-2.72,7.87-4.78,12.23-6.22,4.35-1.45,8.89-2.33,13.47-2.69,4.58-.34,9.2-.05,13.73.7,1.12.23,2.27.38,3.38.68l3.33.9,3.25,1.15c1.08.39,2.11.92,3.17,1.37,4.15,1.97,8.05,4.56,11.32,7.83,3.27,3.25,5.9,7.23,7.29,11.68,1.39,4.43,1.49,9.3.14,13.76-1.31,4.47-3.89,8.49-7.11,11.79-3.23,3.31-7.09,5.94-11.22,7.96-4.13,2.04-8.58,3.38-13.09,4.19-4.52.78-9.13,1.11-13.71.79-4.58-.29-9.12-1.13-13.48-2.56-4.35-1.43-8.54-3.43-12.26-6.11l.19.03-14.55,3.58-.22.05.09-.2,5.74-12.6Zm0,0l-5.54,12.69-.13-.15,14.49-3.81.1-.03.09.06c7.48,5.16,16.5,7.85,25.52,8.33,4.52.28,9.07-.09,13.52-.89,4.44-.83,8.81-2.14,12.86-4.16,4.05-1.99,7.81-4.58,10.95-7.81,3.13-3.22,5.6-7.11,6.84-11.41,1.29-4.29,1.16-8.94-.16-13.2-1.32-4.27-3.85-8.12-7.01-11.3-3.17-3.19-6.97-5.73-11.03-7.68-1.04-.45-2.04-.97-3.1-1.35l-3.19-1.14-3.27-.89c-1.09-.29-2.22-.45-3.32-.68-4.45-.76-9-1.03-13.52-.74-4.51.32-8.99,1.14-13.3,2.54-4.31,1.39-8.44,3.38-12.11,6.03-3.67,2.63-6.91,5.92-9.24,9.81-2.38,3.86-3.56,8.41-3.51,12.95.09,4.55,1.6,9.02,4.08,12.84Z"/>
      </g>
      <g>
        <path class="cls-11" d="m335.18,187.17v2.32h-9.43v-13.59h9.26v2.32h-6.62v3.27h5.72v2.14h-5.72v3.54h6.79Z"/>
        <path class="cls-11" d="m337.25,189.48v-13.59h6.01c.62,0,1.2.13,1.73.39.53.26.99.61,1.37,1.03.38.43.68.91.9,1.45.22.54.33,1.09.33,1.64,0,.88-.22,1.68-.66,2.4-.44.72-1.04,1.24-1.79,1.56l3.1,5.11h-2.97l-2.77-4.55h-2.6v4.55h-2.64Zm2.64-6.87h3.31c.24,0,.47-.06.68-.17.21-.11.39-.27.55-.47.15-.2.27-.43.36-.7.09-.27.13-.56.13-.86s-.05-.61-.15-.88c-.1-.27-.24-.5-.41-.7-.17-.2-.37-.35-.59-.46-.22-.11-.45-.16-.68-.16h-3.2v4.4Z"/>
        <path class="cls-11" d="m349.97,189.48v-13.59h6.01c.62,0,1.2.13,1.73.39.53.26.99.61,1.37,1.03.38.43.68.91.9,1.45.22.54.33,1.09.33,1.64,0,.88-.22,1.68-.66,2.4-.44.72-1.04,1.24-1.79,1.56l3.1,5.11h-2.97l-2.77-4.55h-2.6v4.55h-2.64Zm2.64-6.87h3.31c.24,0,.47-.06.68-.17.21-.11.39-.27.55-.47.15-.2.27-.43.36-.7.09-.27.13-.56.13-.86s-.05-.61-.15-.88c-.1-.27-.24-.5-.41-.7-.17-.2-.37-.35-.59-.46-.22-.11-.45-.16-.68-.16h-3.2v4.4Z"/>
        <path class="cls-11" d="m368.5,189.58c-1,0-1.9-.19-2.71-.58-.81-.39-1.51-.91-2.09-1.55-.58-.64-1.03-1.38-1.35-2.21-.32-.83-.48-1.68-.48-2.55s.17-1.77.51-2.6c.34-.83.8-1.56,1.4-2.2.59-.64,1.3-1.14,2.12-1.52.82-.38,1.7-.57,2.66-.57s1.88.2,2.69.6c.81.4,1.5.93,2.08,1.58.57.65,1.02,1.39,1.34,2.22.32.83.48,1.67.48,2.53,0,.91-.17,1.77-.5,2.59-.33.82-.79,1.55-1.38,2.18-.59.63-1.29,1.14-2.11,1.51-.82.38-1.7.56-2.66.56Zm-3.94-6.89c0,.59.09,1.15.27,1.7.18.55.44,1.03.78,1.45s.75.76,1.24,1.01c.49.26,1.05.38,1.67.38s1.2-.13,1.69-.39c.49-.26.91-.61,1.24-1.04.34-.43.59-.92.77-1.46.17-.54.26-1.09.26-1.66s-.09-1.15-.28-1.7c-.19-.55-.45-1.03-.78-1.45-.34-.42-.75-.76-1.24-1-.49-.25-1.04-.37-1.66-.37s-1.21.13-1.7.39c-.5.26-.91.61-1.24,1.03-.33.43-.58.91-.76,1.45-.17.54-.26,1.09-.26,1.66Z"/>
        <path class="cls-11" d="m377.17,189.48v-13.59h6.01c.62,0,1.2.13,1.73.39.53.26.99.61,1.37,1.03.38.43.68.91.9,1.45.22.54.33,1.09.33,1.64,0,.88-.22,1.68-.66,2.4-.44.72-1.04,1.24-1.79,1.56l3.1,5.11h-2.97l-2.77-4.55h-2.6v4.55h-2.64Zm2.64-6.87h3.31c.24,0,.47-.06.68-.17.21-.11.39-.27.55-.47.15-.2.27-.43.36-.7.09-.27.13-.56.13-.86s-.05-.61-.15-.88c-.1-.27-.24-.5-.41-.7-.17-.2-.37-.35-.59-.46-.22-.11-.45-.16-.68-.16h-3.2v4.4Z"/>
      </g>
    </g>
  </g>
</svg>