<svg width="30" height="41" viewBox="0 0 30 41" fill="none" xmlns="http://www.w3.org/2000/svg">
<g clip-path="url(#clip0_1_2995)">
<mask id="mask0_1_2995" style="mask-type:luminance" maskUnits="userSpaceOnUse" x="0" y="0" width="29" height="40">
<path d="M18.1592 0.744141H3.14675C1.68966 0.744141 0.497498 1.9363 0.497498 3.39339V36.9506C0.497498 38.4077 1.68966 39.5999 3.14675 39.5999H26.1069C27.564 39.5999 28.7562 38.4077 28.7562 36.9506V11.3412L18.1592 0.744141Z" fill="white"/>
</mask>
<g mask="url(#mask0_1_2995)">
<path d="M18.1592 0.744141H3.14675C1.68966 0.744141 0.497498 1.9363 0.497498 3.39339V36.9506C0.497498 38.4077 1.68966 39.5999 3.14675 39.5999H26.1069C27.564 39.5999 28.7562 38.4077 28.7562 36.9506V11.3412L18.1592 0.744141Z" fill="white" fill-opacity="0.098"/>
</g>
<path d="M7.56219 19.7305V32.5352H21.6915V19.7305H7.56219ZM13.7438 30.7691H9.32836V28.5613H13.7438V30.7691ZM13.7438 27.2367H9.32836V25.029H13.7438V27.2367ZM13.7438 23.7044H9.32836V21.4967H13.7438V23.7044ZM19.9254 30.7691H15.5099V28.5613H19.9254V30.7691ZM19.9254 27.2367H15.5099V25.029H19.9254V27.2367ZM19.9254 23.7044H15.5099V21.4967H19.9254V23.7044Z" fill="#F1F1F1" fill-opacity="0.3"/>
<path d="M18.9341 10.5662L28.7562 20.3861V11.3411L18.9341 10.5662Z" fill="url(#paint0_linear_1_2995)"/>
<path d="M18.1592 0.744141V8.6919C18.1592 10.1556 19.3447 11.3412 20.8084 11.3412H28.7562L18.1592 0.744141Z" fill="white" fill-opacity="0.3"/>
<path d="M26.1069 39.3793H3.14675C1.68966 39.3793 0.497498 38.1871 0.497498 36.73V36.9508C0.497498 38.4079 1.68966 39.6 3.14675 39.6H26.1069C27.564 39.6 28.7562 38.4079 28.7562 36.9508V36.73C28.7562 38.1871 27.564 39.3793 26.1069 39.3793Z" fill="#263238" fill-opacity="0.2"/>
</g>
<defs>
<linearGradient id="paint0_linear_1_2995" x1="510.092" y1="94.8809" x2="510.092" y2="992.693" gradientUnits="userSpaceOnUse">
<stop stop-color="#263238" stop-opacity="0.2"/>
<stop offset="1" stop-color="#263238" stop-opacity="0.02"/>
</linearGradient>
<clipPath id="clip0_1_2995">
<rect width="30" height="40" fill="white" transform="translate(0 0.171875)"/>
</clipPath>
</defs>
</svg>
