<svg width="33" height="33" viewBox="0 0 33 33" fill="none" xmlns="http://www.w3.org/2000/svg">
<g clip-path="url(#clip0_1_2921)">
<path d="M19.4511 9.76527C19.9059 9.18612 20.7441 9.08533 21.3232 9.54012C21.9024 9.99492 22.0032 10.8331 21.5484 11.4123L17.9848 15.9503C17.53 16.5294 16.6918 16.6302 16.1127 16.1754C15.5335 15.7206 15.4327 14.8824 15.8875 14.3033L19.4511 9.76527Z" fill="#C568E5"/>
<path d="M18.9948 15.8385C18.9948 17.3112 17.8009 18.5052 16.3281 18.5052C14.8554 18.5052 13.6615 17.3112 13.6615 15.8385C13.6615 14.3657 14.8554 13.1718 16.3281 13.1718C17.8009 13.1718 18.9948 14.3657 18.9948 15.8385Z" fill="#C568E5"/>
<path fill-rule="evenodd" clip-rule="evenodd" d="M16.3281 29.1719C23.5078 29.1719 29.3281 23.3516 29.3281 16.1719C29.3281 8.99218 23.5078 3.17188 16.3281 3.17188C9.14843 3.17188 3.32812 8.99218 3.32812 16.1719C3.32812 23.3516 9.14843 29.1719 16.3281 29.1719ZM16.3281 32.1719C25.1647 32.1719 32.3281 25.0085 32.3281 16.1719C32.3281 7.33531 25.1647 0.171875 16.3281 0.171875C7.49156 0.171875 0.328125 7.33531 0.328125 16.1719C0.328125 25.0085 7.49156 32.1719 16.3281 32.1719Z" fill="#7C7C7C"/>
<path d="M16.3281 2.17188C15.7758 2.17188 15.3281 2.61959 15.3281 3.17188V5.17188C15.3281 5.72415 15.7758 6.17188 16.3281 6.17188C16.8804 6.17188 17.3281 5.72415 17.3281 5.17188V3.17188C17.3281 2.61959 16.8804 2.17188 16.3281 2.17188Z" fill="#7C7C7C"/>
<path d="M16.3281 26.1719C15.7758 26.1719 15.3281 26.6196 15.3281 27.1719V29.1719C15.3281 29.7242 15.7758 30.1719 16.3281 30.1719C16.8804 30.1719 17.3281 29.7242 17.3281 29.1719V27.1719C17.3281 26.6196 16.8804 26.1719 16.3281 26.1719Z" fill="#7C7C7C"/>
<path d="M3.32812 17.1719C2.77584 17.1719 2.32812 16.7242 2.32812 16.1719C2.32812 15.6196 2.77584 15.1719 3.32812 15.1719H5.32812C5.8804 15.1719 6.32812 15.6196 6.32812 16.1719C6.32812 16.7242 5.8804 17.1719 5.32812 17.1719H3.32812Z" fill="#7C7C7C"/>
<path d="M26.3281 16.1719C26.3281 16.7242 26.7758 17.1719 27.3281 17.1719H29.3281C29.8804 17.1719 30.3281 16.7242 30.3281 16.1719C30.3281 15.6196 29.8804 15.1719 29.3281 15.1719H27.3281C26.7758 15.1719 26.3281 15.6196 26.3281 16.1719Z" fill="#7C7C7C"/>
</g>
<defs>
<clipPath id="clip0_1_2921">
<rect width="32" height="32" fill="white" transform="translate(0.328125 0.171875)"/>
</clipPath>
</defs>
</svg>
