<svg width="40" height="41" viewBox="0 0 40 41" fill="none" xmlns="http://www.w3.org/2000/svg">
<g clip-path="url(#clip0_1_2975)">
<path d="M32 0.171875H8C3.58172 0.171875 0 3.7536 0 8.17188V32.1719C0 36.5902 3.58172 40.1719 8 40.1719H32C36.4183 40.1719 40 36.5902 40 32.1719V8.17188C40 3.7536 36.4183 0.171875 32 0.171875Z" fill="white" fill-opacity="0.1"/>
<path d="M12 22.1719C13.1046 22.1719 14 21.2764 14 20.1719C14 19.0673 13.1046 18.1719 12 18.1719C10.8954 18.1719 10 19.0673 10 20.1719C10 21.2764 10.8954 22.1719 12 22.1719Z" fill="white" fill-opacity="0.3"/>
<path d="M20 22.1719C21.1046 22.1719 22 21.2764 22 20.1719C22 19.0673 21.1046 18.1719 20 18.1719C18.8954 18.1719 18 19.0673 18 20.1719C18 21.2764 18.8954 22.1719 20 22.1719Z" fill="white" fill-opacity="0.3"/>
<path d="M28 22.1719C29.1046 22.1719 30 21.2764 30 20.1719C30 19.0673 29.1046 18.1719 28 18.1719C26.8954 18.1719 26 19.0673 26 20.1719C26 21.2764 26.8954 22.1719 28 22.1719Z" fill="white" fill-opacity="0.3"/>
</g>
<defs>
<clipPath id="clip0_1_2975">
<rect width="40" height="40" fill="white" transform="translate(0 0.171875)"/>
</clipPath>
</defs>
</svg>
