<svg width="32" height="33" viewBox="0 0 32 33" fill="none" xmlns="http://www.w3.org/2000/svg">
<path fill-rule="evenodd" clip-rule="evenodd" d="M25.3333 5.50528H6.66666C5.93028 5.50528 5.33333 6.10224 5.33333 6.83862V25.5053C5.33333 26.2417 5.93028 26.8386 6.66666 26.8386H25.3333C26.0697 26.8386 26.6667 26.2417 26.6667 25.5053V6.83862C26.6667 6.10224 26.0697 5.50528 25.3333 5.50528ZM6.66666 2.83862C4.45752 2.83862 2.66666 4.62948 2.66666 6.83862V25.5053C2.66666 27.7145 4.45752 29.5053 6.66666 29.5053H25.3333C27.5425 29.5053 29.3333 27.7145 29.3333 25.5053V6.83862C29.3333 4.62948 27.5425 2.83862 25.3333 2.83862H6.66666Z" fill="white"/>
<path d="M10.6667 21.5052V26.8385H13.3333V21.5052H26.6667V18.8385H13.3333V13.5052H26.6667V10.8385H13.3333V5.50513H10.6667V10.8385H5.33334V13.5052H10.6667V18.8385H5.33334V21.5052H10.6667Z" fill="#60646B"/>
</svg>
