<svg width="290" height="207" viewBox="0 0 290 207" fill="none" xmlns="http://www.w3.org/2000/svg">
<path d="M0.57885 24.8085C0.57885 16.1446 0.57885 11.8126 2.26493 8.50345C3.74806 5.5926 6.1146 3.226 9.02538 1.74282C12.3344 0.056702 16.6663 0.0567017 25.33 0.0567017H291.985C300.649 0.0567017 304.98 0.056702 308.29 1.74282C311.2 3.226 313.567 5.5926 315.05 8.50345C316.736 11.8126 316.736 16.1446 316.736 24.8085V235.392C316.736 244.056 316.736 248.388 315.05 251.698C313.567 254.608 311.2 256.975 308.29 258.458C304.98 260.144 300.649 260.144 291.985 260.144H25.33C16.6663 260.144 12.3344 260.144 9.02538 258.458C6.1146 256.975 3.74806 254.608 2.26493 251.698C0.57885 248.388 0.57885 244.056 0.57885 235.392V24.8085Z" fill="url(#paint0_linear_1_2951)"/>
<defs>
<linearGradient id="paint0_linear_1_2951" x1="0.57885" y1="0.0567017" x2="316.743" y2="260.136" gradientUnits="userSpaceOnUse">
<stop stop-color="white" stop-opacity="0.12"/>
<stop offset="0.3" stop-color="white" stop-opacity="0.06"/>
<stop offset="1" stop-color="white" stop-opacity="0"/>
</linearGradient>
</defs>
</svg>
